<?xml version="1.0" encoding="utf-8"?>
<!-- Generator: Adobe Illustrator 24.0.0, SVG Export Plug-In . SVG Version: 6.00 Build 0)  -->
<svg version="1.1" id="Layer_1" xmlns="http://www.w3.org/2000/svg" xmlns:xlink="http://www.w3.org/1999/xlink" x="0px" y="0px"
	 viewBox="0 0 417.1 417.1" style="enable-background:new 0 0 417.1 417.1;" xml:space="preserve">
<style type="text/css">
	.st0{fill:#FFFFFF;stroke:#EF8016;stroke-width:11.6345;stroke-miterlimit:10;}
	.st1{fill:#278391;}
	.st2{fill:#2E8694;}
	.st3{fill:#FFFFFF;}
</style>
<g>
	<circle class="st0" cx="208.5" cy="208.5" r="197.4"/>
	<g>
		<g>
			<g>
				<path class="st1" d="M181.8,223.9c0.7,22.3,7.5,43.7,17.2,64.2c4.1,8.8,8.9,17.2,13.9,25.7c18.4-28,30.6-57.9,31.9-91.9
					c12.1,7.6,26,8.5,39,12.3c5,1.5,10,3.3,14.8,5.5c7.6,3.4,14.2,8.3,18.8,15.4c5.1,7.9,5.2,16.7,5.2,25.6c0,1.7-0.3,3.4-0.4,5.2
					c-0.2,6.7-3.2,11.3-9.2,14.5c-14.6,7.9-30.1,13.1-46.3,16.5c-27.3,5.8-54.9,7.1-82.7,3.9c-23.6-2.7-46.3-8.4-67.6-18.9
					c-2.1-1-4-2.3-6.2-3.3c-4-1.9-6.1-4.9-6.2-9.3c-0.1-7.2-0.3-14.4,0.2-21.6c0.6-9.6,7.1-15.9,14-21.6c6.5-5.3,14.2-8.4,22.1-10.7
					C154.1,231.4,168,227.7,181.8,223.9z"/>
				<path class="st1" d="M262.4,147.6c2.9-0.6,3.8,1.1,3.8,3.4c0,8.6-1.4,16.6-9.4,21.9c-0.9,0.6-1.7,2-1.9,3.1
					c-2,11.4-5.6,22.2-12.6,31.6c-14.6,19.5-42.7,20-58.1,1c-7.5-9.2-11.8-19.8-14-31.3c-0.3-1.6-1.4-3.3-2.6-4.4
					c-5.7-5.3-8.9-11.8-9.4-19.5c-0.3-4.3,0.2-4.9,4.4-5.4c-0.5-7.3-1.4-14.7-1.3-22c0.3-21.2,11.8-34.8,33.1-39.4
					c14.3-3.1,27.8-0.9,40.5,6.6c0.8,0.5,1.6,1,2.4,1.2c14.8,2.9,22.8,12.6,24.9,26.8C263.5,129.6,262.4,138.6,262.4,147.6z"/>
				<path class="st1" d="M97.5,298.1c-7.5-2.7-14.5-5-21.3-7.7c-4.6-1.9-8.9-4.5-13.3-6.7c-2.4-1.2-3.8-3.1-3.9-5.8
					c-0.1-7-0.6-14,0.2-20.9c1-8.9,7.5-14.4,14.5-19c8-5.3,17.2-7.5,26.3-10c5.9-1.6,11.8-3,17.6-4.9c7.1-2.3,10-6,10-11.9
					c0-1-0.2-2.1-0.7-2.8c-6.2-8.2-9.5-17.6-12-27.4c-0.3-1.2-1.1-2.4-2-3.2c-5.3-4.6-7.8-10.5-8.3-17.4c-0.2-2.6,1.1-3.8,4.1-3.2
					c-0.5-4.4-1-8.5-1.4-12.6c-0.8-6.8,0.1-13.4,2.4-19.8c3-8.1,8.6-14,16.6-17.3c9.8-4.1,19.9-5.3,30.2-2.6c-1.2,5-3,9.7-3.4,14.6
					c-0.6,6.6-0.1,13.3-0.2,20c0,1.6-0.3,3.4-1.1,4.7c-3.5,5.3-2.7,11-1.4,16.5c1.5,6.8,4.9,12.8,9.8,17.9c1,1,1.8,2.5,2.2,3.8
					c2.6,9.4,6.1,18.5,11.2,26.9c0.2,0.3,0.5,0.7,0.6,1c1.8,3.7,1.3,5.5-2.6,6.7c-9.1,2.7-18.4,5.1-27.6,7.6
					c-9.5,2.6-18.9,5.8-27.1,11.3c-9.6,6.5-17.8,14.5-20.3,26.3C94.2,274,94.4,285.6,97.5,298.1z"/>
				<path class="st1" d="M266.1,104.4c12.8-1.9,24.6-0.3,35,7.3c6.3,4.6,9.4,11.2,11.3,18.6c3.3,12.7,4.1,25.6,3.1,38.7
					c-0.5,6.7,1.4,12.6,4.5,18.4c1,2,2.2,3.9,3.6,6.5c-4.2,1.6-8.1,3.4-12.2,4.6c-5.3,1.5-10.6,2.5-16,3.6
					c-5.1,1.1-9.2,7.7-7.6,12.6c1.3,4.3,4.2,7.4,8.1,9c7.4,3,15,5.4,22.6,7.9c8,2.7,16.4,4.8,24.1,8.3c9.4,4.3,14.8,12.2,15.5,22.7
					c0.4,5.1,0.3,10.3,0,15.5c-0.1,1.4-1.3,3.3-2.5,4.1c-7.6,4.8-16.2,7.3-25.3,9.9c0.3-3.4,0.9-6.4,0.8-9.3
					c-0.2-6.6,0-13.3-1.2-19.7c-2.8-15.2-13.1-24.4-26.2-31.2c-10.8-5.6-22.7-8.1-34.4-10.9c-5.6-1.3-11-3.4-16.5-5.3
					c-1.9-0.6-2.5-1.8-1.1-3.7c6.5-8.7,9.2-18.8,11.5-29.2c0.4-1.7,1.4-3.6,2.6-4.9c5.9-6,7.7-13.6,8.9-21.5c0.7-4.6,0.8-9.1-2-13.2
					c-0.5-0.7-0.4-1.9-0.4-2.9c-0.1-8.2,0.6-16.5-1.9-24.5C269.2,112.2,267.6,108.6,266.1,104.4z"/>
				<path class="st1" d="M212.7,299.1c-3.7-7.9-7.3-15.8-10.9-23.7c-0.4-0.8-0.2-2,0-3c1.1-5.9,2.4-11.7,3.5-17.6
					c0.5-2.6,1.7-3.9,4.5-3.7c2.9,0.2,5.9,0.1,8.8,0c2.1-0.1,3.1,0.9,3.5,2.9c1.2,5.7,2.4,11.3,3.5,16.9c0.2,1,0.2,2.3-0.2,3.3
					c-3.8,8.3-7.6,16.5-11.5,24.8C213.5,299.1,213.1,299.1,212.7,299.1z"/>
				<path class="st1" d="M213.5,229.9c2.1,0,4.3-0.1,6.4,0c3.4,0.1,5,1.8,4.6,5.2c-0.3,2.5-0.9,5-1.4,7.4c0,0.1-0.1,0.2-0.1,0.3
					c-2.3,5.5-7.1,4.4-11.5,4.4c-4.2,0-6.7-1.4-7.6-4.6c-0.8-2.6-1.3-5.3-1.7-8c-0.4-2.7,1.4-4.6,4.3-4.8
					C208.8,229.8,211.2,229.9,213.5,229.9C213.5,229.9,213.5,229.9,213.5,229.9z"/>
			</g>
		</g>
		<g>
			<g>
				<path class="st2" d="M281.5,335.5c-1,0-2.1,0-3.5-0.1c-3.6-0.2-5.8-2.5-5.9-6.2c0-0.2,0-0.6,0-0.7c-0.9-0.4-1.9-0.8-2.9-1.2
					c-0.1,0.1-0.1,0.1-0.2,0.2c-0.2,0.2-0.4,0.4-0.6,0.6c-1.5,1.4-3.1,1.7-4.1,1.7c-1,0-2.6-0.3-4.1-1.8c-1.6-1.5-3.2-3.1-4.7-4.7
					c-2.6-2.6-2.6-5.8,0-8.5c0.1-0.2,0.3-0.3,0.4-0.5c0,0,0.1-0.1,0.1-0.1c-0.4-0.9-0.8-1.8-1.2-2.8c-0.1,0-0.3,0-0.4,0
					c-0.3,0-0.6,0-0.8,0c-3.1-0.2-5.3-2.1-5.7-5.2c-0.1-1-0.2-2-0.3-2.8c0-0.3-0.1-1.1-0.1-1.1l0.1-1.5c0-0.8,0.1-1.5,0.1-2.2
					c0.3-3.4,2.6-5.6,6.1-5.7c0.3,0,0.6,0,0.9,0c0.4-0.9,0.7-1.8,1.1-2.7l0.1-0.2l0,0c-0.3-0.2-0.5-0.5-0.8-0.8
					c-2.3-2.5-2.3-5.7,0.1-8.2c1.6-1.7,3.2-3.3,4.8-4.8c1.5-1.5,3.1-1.8,4.1-1.8c1,0,2.5,0.3,4,1.7c0.3,0.2,0.5,0.5,0.8,0.8
					c0.9-0.4,1.9-0.8,3-1.3c0-0.1,0-0.8,0-0.8c0-3.6,2.3-6.1,5.9-6.2c1.1,0,2.3-0.1,3.4-0.1c1.1,0,2.2,0,3.3,0.1
					c3.5,0.1,5.7,2.4,5.8,5.9c0,0.2,0,0.9,0,1c1,0.4,2,0.8,3,1.2c1.2-1.2,2.8-2.5,4.9-2.5c2.5,0,4.2,1.8,5.3,2.9
					c0.7,0.7,1.4,1.4,2.1,2.2c0.5,0.5,1,1,1.4,1.4c2.4,2.5,2.5,5.7,0.1,8.3c-0.2,0.2-0.4,0.4-0.6,0.6c-0.1,0.1-0.1,0.1-0.2,0.2
					l0,0.1c0.4,1,0.8,1.9,1.2,2.8c0.1,0,0.8,0,0.8,0c3.7,0.1,6.1,2.3,6.2,6c0.1,2.2,0.1,4.4,0,6.5c-0.1,3.6-2.5,5.9-6.2,6
					c-0.3,0-0.6,0-0.8,0c-0.1,0.2-0.2,0.4-0.3,0.7c-0.2,0.4-0.4,0.9-0.6,1.3c-0.1,0.2-0.2,0.5-0.3,0.7c1.2,1.2,2.5,2.8,2.5,4.8
					c0,2.5-1.7,4.1-3,5.3c-0.7,0.7-1.4,1.4-2.1,2.1c-0.3,0.3-0.7,0.7-1,1c-1.2,1.2-2.6,2.3-4.7,2.3c-2.3,0-3.9-1.6-4.6-2.3
					c0,0-0.2-0.2-0.2-0.2c-0.7,0.3-1.4,0.6-2.1,0.9l-0.7,0.3c-0.2,5.1-2,6.8-7.1,7.1C282.8,335.5,282.2,335.5,281.5,335.5z
					 M281.3,289.4c-6.9,0-12.6,5.7-12.6,12.6c0,6.8,5.7,12.5,12.6,12.6l0.1,0c6.7,0,12.5-5.7,12.5-12.5c0.1-6.8-5.6-12.6-12.5-12.7
					H281.3z"/>
				<path class="st3" d="M281.3,272.2c1.1,0,2.1,0,3.2,0.1c1.6,0.1,2.3,0.9,2.3,2.4c0,0.5,0,1.1,0.1,1.6c0.1,1.1,0.7,1.9,1.7,2.4
					c1.3,0.6,2.7,1.1,4.1,1.7c0.4,0.1,0.8,0.2,1.1,0.2c0.7,0,1.4-0.3,2-0.9c1.1-1.2,1.8-1.7,2.6-1.7c0.8,0,1.6,0.7,2.7,1.8
					c1.2,1.3,2.4,2.4,3.6,3.7c1.1,1.1,1.1,2.1,0,3.3c-0.4,0.4-0.7,0.7-1.1,1.1c-0.8,0.9-1,1.9-0.6,3c0.5,1.4,1.1,2.7,1.7,4.1
					c0.4,1,1.2,1.5,2.3,1.6c0.5,0,1,0,1.5,0c1.8,0,2.6,0.7,2.6,2.5c0.1,2.1,0.1,4.2,0,6.2c-0.1,1.7-0.9,2.5-2.7,2.5
					c-2.9,0-3.3,0.3-4.4,3c-0.3,0.8-0.7,1.6-1,2.4c-0.5,1.2-0.4,2.4,0.6,3.3c2.7,2.4,1.9,3.3-0.1,5.2c-1.1,1-2.1,2.1-3.2,3.2
					c-0.9,0.9-1.5,1.3-2.1,1.3c-0.6,0-1.2-0.4-2.1-1.2c-0.2-0.2-0.4-0.4-0.6-0.6c-0.6-0.5-1.2-0.8-1.9-0.8c-0.4,0-0.8,0.1-1.2,0.2
					c-1.2,0.5-2.4,1-3.6,1.5c-1.3,0.5-1.8,1.5-1.9,2.8c-0.1,3.4-0.3,3.7-3.7,3.8c-0.6,0-1.2,0-1.8,0c-1.1,0-2.2,0-3.3-0.1
					c-1.8-0.1-2.4-0.9-2.5-2.7c0-0.4,0-0.8,0-1.2c-0.1-1.1-0.6-2.1-1.6-2.5c-1.4-0.6-2.8-1.1-4.2-1.7c-0.3-0.1-0.6-0.2-0.9-0.2
					c-0.7,0-1.3,0.3-1.8,0.8c-0.4,0.4-0.8,0.8-1.2,1.2c-0.5,0.5-1.1,0.8-1.6,0.8c-0.5,0-1.1-0.2-1.6-0.8c-1.6-1.5-3.1-3.1-4.7-4.6
					c-1.2-1.2-1.1-2.2,0-3.4c0.3-0.3,0.6-0.6,0.8-0.9c0.9-0.9,1.1-2,0.6-3.1c-0.5-1.3-1-2.5-1.6-3.7c-0.5-1.2-1.4-1.8-2.7-1.8
					c0,0-0.1,0-0.1,0c-0.2,0-0.5,0-0.7,0c-0.2,0-0.4,0-0.6,0c-1.4-0.1-2.1-0.7-2.3-2.1c-0.2-1.3-0.2-2.5-0.3-3.5
					c0.1-1.4,0.1-2.3,0.2-3.3c0.1-1.6,1-2.3,2.6-2.4c0.3,0,0.5,0,0.8,0c0.1,0,0.3,0,0.4,0c0,0,0,0,0,0c1.3,0,2.2-0.6,2.7-1.8
					c0.5-1.2,1-2.5,1.5-3.8c0.5-1.3,0.2-2.4-0.7-3.3c-0.3-0.3-0.6-0.6-0.9-0.9c-1-1.1-1-2.1,0-3.2c1.6-1.6,3.1-3.2,4.7-4.8
					c0.5-0.5,1.1-0.8,1.6-0.8c0.5,0,1.1,0.2,1.6,0.7c0.3,0.3,0.7,0.7,1,1c0.6,0.6,1.3,0.9,2,0.9c0.3,0,0.7-0.1,1.1-0.2
					c1.4-0.5,2.8-1.1,4.1-1.7c1-0.5,1.6-1.4,1.6-2.5c0-0.4,0-0.9,0-1.3c0-1.7,0.7-2.6,2.4-2.6C279.1,272.2,280.2,272.2,281.3,272.2
					 M281.4,318.3c8.7,0,16.1-7.3,16.2-16.1c0.1-8.8-7.2-16.2-16.1-16.3c-0.1,0-0.1,0-0.2,0c-8.9,0-16.2,7.3-16.2,16.2
					c-0.1,8.8,7.3,16.2,16.2,16.3C281.3,318.3,281.3,318.3,281.4,318.3 M281.3,264.9c-1.2,0-2.4,0-3.6,0.1c-4.5,0.2-7.9,3-9,7
					c-1.7-1-3.3-1.2-4.6-1.2c-2.5,0-4.8,1-6.7,2.9c-1.5,1.5-3.2,3.2-4.8,4.9c-3.1,3.2-3.6,7.6-1.6,11.2c-3.8,1.1-6.5,4.3-6.8,8.6
					c-0.1,0.8-0.1,1.6-0.2,2.4c0,0.4,0,0.8-0.1,1.2l0,0.5l0,0.5c0,0.2,0,0.5,0.1,0.8c0.1,0.9,0.1,1.9,0.3,3.1c0.6,4,3.1,6.9,6.8,8
					c-2,3.7-1.4,8,1.8,11.2c1.5,1.5,3,3,4.8,4.7c2.4,2.3,4.9,2.8,6.6,2.8c1.2,0,2.8-0.2,4.5-1.2c1.1,4,4.4,6.5,8.9,6.8
					c1.4,0.1,2.6,0.1,3.7,0.1c0.8,0,1.5,0,2.2-0.1c2.2-0.1,5.4-0.3,7.9-3c1.2-1.3,1.8-2.7,2.2-4c1.2,0.7,2.7,1.2,4.5,1.2
					c3.8,0,6.3-2.5,7.2-3.4c0.3-0.3,0.7-0.7,1-1.1c0.7-0.7,1.3-1.4,2-2c1.4-1.4,4.1-3.9,4.1-8c0-1.7-0.5-3.2-1.2-4.4
					c4-1.1,6.7-4.5,6.9-9c0.1-2.2,0.1-4.5,0-6.8c-0.2-4.6-2.8-8-6.9-9.1c2.1-3.7,1.5-8-1.6-11.3c-0.5-0.5-1-1-1.5-1.5
					c-0.7-0.7-1.4-1.4-2-2c-1.2-1.3-3.8-4.1-7.9-4.1c-1.8,0-3.4,0.6-4.6,1.3c-1.1-4.1-4.4-6.8-8.9-7
					C283.5,265,282.4,264.9,281.3,264.9L281.3,264.9z M281.4,311L281.4,311c-5,0-9.1-4.2-9.1-9c0-5,4.1-9,9-9l0.1,0
					c4.9,0.1,9,4.2,8.9,9C290.2,306.9,286.1,311,281.4,311L281.4,311z"/>
			</g>
		</g>
	</g>
</g>
</svg>
