<?xml version="1.0" encoding="utf-8"?>
<!-- Generator: Adobe Illustrator 24.0.0, SVG Export Plug-In . SVG Version: 6.00 Build 0)  -->
<svg version="1.1" id="Layer_1" xmlns="http://www.w3.org/2000/svg" xmlns:xlink="http://www.w3.org/1999/xlink" x="0px" y="0px"
	 viewBox="0 0 417.06 417.06" style="enable-background:new 0 0 417.06 417.06;" xml:space="preserve">
<style type="text/css">
	.st0{fill:#FFFFFF;stroke:#F08116;stroke-width:11.6343;stroke-miterlimit:10;}
	.st1{fill:#278492;}
	.st2{fill:#2E8795;}
	.st3{fill:#FFFFFF;}
	.st4{fill:none;stroke:#278492;stroke-width:4.6537;stroke-miterlimit:10;}
	.st5{fill:none;stroke:#F08116;stroke-width:11.6343;stroke-miterlimit:10;}
	.st6{fill:#1D7F8D;}
	.st7{fill:none;stroke:#2E8795;stroke-width:3.4903;stroke-linecap:round;stroke-miterlimit:10;}
	.st8{fill-rule:evenodd;clip-rule:evenodd;fill:#2E8795;}
	.st9{clip-path:url(#SVGID_1_);}
</style>
<g>
	<g>
		<circle class="st0" cx="208.53" cy="208.53" r="197.38"/>
	</g>
	<g>
		<path class="st1" d="M134.3,289.5c3.72,0,6.75-3.02,6.75-6.75s-3.02-6.75-6.75-6.75c-3.72,0-6.75,3.02-6.75,6.75
			S130.58,289.5,134.3,289.5z"/>
		<path class="st1" d="M100.11,323.69h101.67V215.28H93.36v101.67C93.36,320.67,96.38,323.69,100.11,323.69z M134.3,262.51
			c2.38,0,4.63,0.49,6.75,1.24v-21.49c0-2.34,1.21-4.51,3.2-5.74c1.99-1.23,4.48-1.33,6.57-0.3l26.99,13.5
			c3.33,1.67,4.68,5.72,3.02,9.06c-1.67,3.33-5.71,4.67-9.06,3.02l-17.22-8.61v29.57c0,11.16-9.08,20.24-20.24,20.24
			c-11.16,0-20.24-9.08-20.24-20.24S123.14,262.51,134.3,262.51z"/>
		<path class="st1" d="M141.05,162.18l21.58-14.39l-21.58-14.39V162.18z"/>
		<path class="st1" d="M201.78,93.36H100.11c-3.73,0-6.75,3.02-6.75,6.75v101.67h108.42V93.36z M178.53,153.41l-40.49,26.99
			c-2.09,1.39-4.76,1.5-6.93,0.34c-2.19-1.17-3.57-3.46-3.57-5.95v-53.98c0-2.49,1.37-4.78,3.57-5.95c2.19-1.17,4.86-1.04,6.93,0.34
			l40.49,26.99c1.88,1.25,3,3.36,3,5.61C181.54,150.05,180.41,152.16,178.53,153.41z"/>
		<path class="st1" d="M215.28,273.21l22.67-22.22c2.64-2.64,6.91-2.64,9.54,0l8.72,8.72l22.22-22.22c2.64-2.64,6.91-2.64,9.54,0
			l35.72,35.72v-57.94H215.28V273.21z"/>
		<path class="st1" d="M265.76,269.26l8.72,8.72c2.64,2.64,2.64,6.91,0,9.54c-2.64,2.64-6.91,2.64-9.54,0l-22.22-22.22l-27.44,26.99
			v31.4h101.67c3.73,0,6.75-3.02,6.75-6.75V292.3l-40.49-40.49L265.76,269.26z"/>
		<path class="st1" d="M249.47,141.05h13.5v13.5h-13.5V141.05z"/>
		<path class="st1" d="M276.46,157.12l13.5,6.75v-32.14l-13.5,6.75V157.12z"/>
		<path class="st1" d="M316.95,93.36H215.28v108.42h108.42V100.11C323.69,96.38,320.67,93.36,316.95,93.36z M303.45,174.79
			c0,2.34-1.21,4.51-3.2,5.74c-1.95,1.21-4.43,1.36-6.57,0.3l-25.57-12.78h-25.4c-3.73,0-6.75-3.02-6.75-6.75V134.3
			c0-3.73,3.02-6.75,6.75-6.75h25.4l25.57-12.78c2.09-1.05,4.58-0.94,6.57,0.3c1.99,1.23,3.2,3.4,3.2,5.74V174.79z"/>
	</g>
</g>
</svg>
