<?xml version="1.0" encoding="utf-8"?>
<!-- Generator: Adobe Illustrator 24.0.0, SVG Export Plug-In . SVG Version: 6.00 Build 0)  -->
<svg version="1.1" id="Layer_1" xmlns="http://www.w3.org/2000/svg" xmlns:xlink="http://www.w3.org/1999/xlink" x="0px" y="0px"
	 viewBox="0 0 417.06 417.06" style="enable-background:new 0 0 417.06 417.06;" xml:space="preserve">
<style type="text/css">
	.st0{fill:#FFFFFF;stroke:#F08116;stroke-width:11.6343;stroke-miterlimit:10;}
	.st1{fill:#278492;}
	.st2{fill:#2E8795;}
	.st3{fill:#FFFFFF;}
	.st4{fill:none;stroke:#278492;stroke-width:4.6537;stroke-miterlimit:10;}
	.st5{fill:none;stroke:#F08116;stroke-width:11.6343;stroke-miterlimit:10;}
	.st6{fill:#1D7F8D;}
	.st7{fill:none;stroke:#2E8795;stroke-width:3.4903;stroke-linecap:round;stroke-miterlimit:10;}
	.st8{fill-rule:evenodd;clip-rule:evenodd;fill:#2E8795;}
	.st9{clip-path:url(#SVGID_1_);}
</style>
<g>
	<path class="st0" d="M11.15,208.53c0,109.01,88.37,197.38,197.38,197.38s197.38-86.73,197.38-195.73S317.54,11.15,208.53,11.15
		S11.15,99.52,11.15,208.53z"/>
	<g>
		<path class="st2" d="M208.99,87.96c4.89,3.51,9.74,7.07,14.67,10.53c33.15,23.23,66.3,46.45,99.49,69.63
			c1.56,1.09,2.28,2.19,2.23,4.18c-0.15,6.34-0.06,12.68-0.06,19.18c-0.99,0.05-1.75,0.13-2.51,0.13
			c-7.85,0.01-15.71,0.05-23.56-0.05c-1.23-0.02-2.64-0.44-3.64-1.14c-28.4-19.91-56.76-39.86-85.09-59.88
			c-1.58-1.12-2.55-1.01-4.06,0.05c-28.27,19.95-56.57,39.85-84.9,59.7c-1.06,0.75-2.54,1.24-3.84,1.26
			c-8.55,0.11-17.1,0.06-25.92,0.06c-0.04-0.89-0.1-1.64-0.1-2.39c-0.01-5.81,0.05-11.62-0.04-17.43c-0.02-1.51,0.44-2.41,1.68-3.27
			c8.78-6.07,17.46-12.27,26.26-18.31c1.73-1.19,2.44-2.42,2.43-4.57c-0.09-16.65-0.05-33.3-0.05-49.95c0-0.93,0-1.86,0-2.99
			c11.39,0,22.57,0,33.99,0c0,10.4,0,20.8,0,31.53c0.78-0.39,1.26-0.56,1.67-0.84c16.47-11.49,32.94-22.99,49.41-34.5
			c0.37-0.26,0.66-0.62,0.99-0.94C208.36,87.96,208.68,87.96,208.99,87.96z"/>
		<path class="st2" d="M119.77,329.1c0-0.96,0-1.81,0-2.65c0-38.48,0.01-76.96-0.03-115.45c0-1.62,0.33-2.73,1.76-3.72
			c28.49-19.91,56.95-39.87,85.42-59.82c0.51-0.36,1.04-0.67,1.67-1.07c8.49,5.95,16.96,11.88,25.43,17.82
			c20.43,14.32,40.84,28.66,61.31,42.93c1.48,1.03,1.95,2.1,1.95,3.84c-0.05,38.48-0.04,76.96-0.04,115.45c0,0.85,0,1.69,0,2.68
			C238.02,329.1,179.01,329.1,119.77,329.1z M186.67,284.5c14.76,0,29.09,0,43.69,0c0-0.99,0-1.83,0-2.67
			c0-9.34-0.05-18.68,0.07-28.02c0.01-1.15,0.65-2.57,1.47-3.38c6.1-6,9.8-13.11,10.66-21.67c2.24-22.04-16.68-40.67-38.51-37.47
			c-14,2.05-23.76,10.01-28.1,23.58c-4.33,13.56-0.81,25.46,9.16,35.56c0.82,0.83,1.46,2.23,1.48,3.38
			c0.12,9.34,0.07,18.68,0.07,28.02C186.67,282.66,186.67,283.5,186.67,284.5z"/>
		<path class="st2" d="M216.46,270.61c-5.41,0-10.48,0-15.87,0c0-1.11,0-2.1,0-3.09c0-6.83-0.09-13.67,0.05-20.5
			c0.04-2.06-0.59-3.24-2.34-4.32c-6.66-4.11-10.1-10.12-10.02-18.01c0.11-10.33,8.24-18.71,19.07-19.71
			c9.48-0.88,19.03,6.42,20.95,16c1.72,8.58-1.51,16.51-8.99,21.33c-2.15,1.39-2.99,2.83-2.92,5.43
			C216.58,255.28,216.46,262.81,216.46,270.61z"/>
	</g>
</g>
</svg>
