<?xml version="1.0" encoding="utf-8"?>
<!-- Generator: Adobe Illustrator 24.0.0, SVG Export Plug-In . SVG Version: 6.00 Build 0)  -->
<svg version="1.1" id="Layer_1" xmlns="http://www.w3.org/2000/svg" xmlns:xlink="http://www.w3.org/1999/xlink" x="0px" y="0px"
	 viewBox="0 0 417.06 417.06" style="enable-background:new 0 0 417.06 417.06;" xml:space="preserve">
<style type="text/css">
	.st0{fill:#FFFFFF;stroke:#F08116;stroke-width:11.6343;stroke-miterlimit:10;}
	.st1{fill:#278492;}
	.st2{fill:#2E8795;}
	.st3{fill:#FFFFFF;}
	.st4{fill:none;stroke:#278492;stroke-width:4.6537;stroke-miterlimit:10;}
	.st5{fill:none;stroke:#F08116;stroke-width:11.6343;stroke-miterlimit:10;}
	.st6{fill:#1D7F8D;}
	.st7{fill:none;stroke:#2E8795;stroke-width:3.4903;stroke-linecap:round;stroke-miterlimit:10;}
	.st8{fill-rule:evenodd;clip-rule:evenodd;fill:#2E8795;}
	.st9{clip-path:url(#SVGID_1_);}
</style>
<g>
	<g>
		<circle class="st3" cx="208.53" cy="208.53" r="197.38"/>
		<g>
			<defs>
				<circle id="SVGID_7_" cx="208.53" cy="208.53" r="197.38"/>
			</defs>
			<clipPath id="SVGID_1_">
				<use xlink:href="#SVGID_7_"  style="overflow:visible;"/>
			</clipPath>
			<g class="st9">
				<path class="st2" d="M54.7,188.99c1.85-0.34,2.56-0.81,2.67-2.78c0.34-6.56,0.94-13.1,1.35-19.65c0.06-1.04-0.15-2.23-0.63-3.14
					c-1.72-3.33-3.53-6.63-5.5-9.81c-0.43-0.7-1.69-1.31-2.52-1.26c-11.74,0.79-20.21-9.72-16.99-21.14
					c0.21-0.75,0.32-1.75-0.01-2.38c-2.63-5.07-2.06-9.81,1.67-13.96c3.63-4.04,8.27-4.79,13.36-3.1c0.16,0.05,0.33,0.04,0.69,0.09
					c1.53-3.58,3.96-6.33,7.84-7.28c0.56,2.32,1.13,4.43,1.55,6.57c0.11,0.57-0.11,1.3-0.39,1.85
					c-6.47,12.64,0.56,26.08,14.51,27.76c0.66,0.08,1.51,0.49,1.84,1.02c1.21,1.94,2.23,3.99,3.59,6.49
					c-2.19,0.38-4.07,0.96-5.95,0.95c-1.48-0.01-2.13,0.53-2.72,1.69c-1.32,2.58-3.04,5-4,7.7c-0.71,1.98-0.73,4.32-0.61,6.47
					c0.39,7.06,0.98,14.12,1.52,21.17c0.04,0.49,0.26,0.96,0.46,1.65c4.52-0.22,9-0.44,13.68-0.67c0.35-5.14,0.73-10.13,1.04-15.13
					c0.39-6.38,0.7-12.77,1.09-19.16c0.15-2.43-0.02-4.73-1.51-6.8c-0.59-0.82-1.01-1.78-1.44-2.71c-1.72-3.74-3.61-6.21-8.63-6.84
					c-10.06-1.25-14.82-13.3-9.48-22.09c0.49-0.8,1.04-1.55,1.63-2.42c-2.67-4.43-3.12-8.98,0.17-13.32
					c3.09-4.08,7.36-4.89,12.28-3.75c2.33-5.79,6.52-9.01,12.82-8.56c5.55,0.39,9.25,3.55,11,8.12c3.2,0,6.18-0.43,8.98,0.08
					c8.45,1.55,13.04,10.8,9.36,18.59c-0.71,1.51-0.78,2.73-0.34,4.33c3.44,12.49-6.26,24.09-19.18,22.96
					c-1.27-0.11-2,0.04-2.64,1.23c-2.04,3.84-4.22,7.61-6.31,11.42c-0.32,0.58-0.67,1.28-0.63,1.9c0.54,10.63,1.13,21.27,1.74,32.32
					c5.62,0,11.04,0,16.86,0c0.26-2.72,0.59-5.81,0.83-8.91c0.41-5.44,0.84-10.88,1.06-16.34c0.06-1.43-0.55-2.93-1.03-4.33
					c-0.36-1.03-1.05-1.95-1.53-2.95c-1.62-3.37-3.05-6.95-7.95-6.1c-0.6,0.1-1.3-0.34-2.12-0.57c0.84-2.37,1.67-3.95,4.82-4
					c12.34-0.18,21.97-11.88,20.28-24.5c-0.36-2.69-0.54-5.16,0.54-7.69c0.39-0.91,0.41-1.99,0.69-3.53
					c0.74,1.27,1.3,2.22,1.82,3.12c1.72-0.25,3.39-0.68,5.06-0.71c9.07-0.16,14.86,9.02,11,17.21c-0.42,0.89-0.55,2.13-0.3,3.08
					c3,11.49-5.02,21.51-16.92,20.88c-1.61-0.09-2.3,0.45-2.94,1.71c-0.84,1.67-1.72,3.35-2.75,4.91c-2.35,3.56-3.66,7.2-3.01,11.68
					c0.86,5.97,1.06,12.04,1.53,17.97 M87.92,146.91c0.19,0.05,0.37,0.1,0.56,0.16c1.38-2.58,2.76-5.17,4.18-7.82
					c-1.71-0.98-3.14-1.8-4.74-2.72C87.92,140.2,87.92,143.56,87.92,146.91z M59.08,148.56c-1.65,1.06-2.91,1.86-4.28,2.75
					c1.35,2.44,2.61,4.72,3.87,7.01c0.14-0.08,0.27-0.16,0.41-0.24C59.08,155.04,59.08,152.01,59.08,148.56z M114.07,157.96
					c0.17,0.04,0.35,0.08,0.52,0.12c1.22-2.26,2.44-4.52,3.71-6.87c-1.53-0.89-2.78-1.63-4.22-2.47
					C114.07,152.1,114.07,155.03,114.07,157.96z M79.02,136.52c1.03,1.94,1.89,3.57,2.75,5.2c0.12-0.07,0.23-0.13,0.35-0.2
					c0-1.97,0-3.94,0-6.14C81.04,135.78,80.2,136.09,79.02,136.52z M64,153.14c0.19,0.08,0.37,0.16,0.56,0.24
					c0.76-1.52,1.53-3.04,2.38-4.74c-1.11-0.34-1.94-0.59-2.93-0.9C64,149.79,64,151.47,64,153.14z M108.33,152.97
					c0.18-0.02,0.36-0.05,0.53-0.07c0-1.65,0-3.3,0-5.23c-1.04,0.44-1.77,0.74-2.68,1.13C106.96,150.32,107.65,151.65,108.33,152.97
					z"/>
			</g>
			<g class="st9">
				<g>
					<path class="st2" d="M14.11,226.29c0-13.33,0-26.67,0.01-40.01c0-0.39,0-0.79-0.01-1.19c-0.05-4.34-0.14-12.41,9.34-12.72
						c0.18-0.01,0.35-0.01,0.51-0.01c9.36,0,9.37,8.14,9.37,12.51l0,0.96c0.02,1.83,0.01,3.68,0.01,5.63l2.33-0.52
						c8.4-1.86,16.41-3.64,24.75-5.5V174.4c0-6.11,3.6-9.97,9.41-10.08l0.21,0c3.51,0,5.61,1.39,6.76,2.55
						c1.21,1.22,2.63,3.49,2.57,7.37c-0.04,2.32-0.03,4.64-0.02,7.2c0,0.13,0,0.26,0,0.39c0.98-0.13,1.96-0.25,2.92-0.37
						c5.91-0.75,11.5-1.46,16.98-2.5c0.34-0.69,0.76-2.04,0.84-3.09c0.06-0.74,0.07-1.54,0.09-2.39c0.08-4.11,0.22-11.76,9.39-11.76
						h0.11c2.96,0.02,5.27,0.86,6.88,2.5c2.66,2.72,2.6,6.65,2.55,10.12c-0.01,0.61-0.02,1.21-0.01,1.8c0,0.21,0.01,0.43,0.03,0.66
						c3.86-0.29,20.34-1.51,20.34-1.51c0.08-0.71,0.12-1.49,0.17-2.29c0.24-4.23,0.63-11.32,9.49-11.32c0.29,0,0.59,0.01,0.89,0.02
						c8.59,0.46,8.88,7.69,8.95,12.23h22.63v19.88h-22.6v16.5l-7.07,1.14c-2.75,0.44-5.54,0.9-8.8,1.42l-3.37,0.54v-18.92
						l-2.83,0.22c-6.12,0.48-11.9,0.93-17.89,1.41c-0.01,0.71-0.03,1.41-0.05,2.1c-0.08,3.29-0.16,6.4,0.16,9.39
						c0.47,4.31-0.21,7.54-2.09,9.85c-1.77,2.19-4.45,3.43-8.18,3.8c-0.82,0.08-1.72,0.33-2.87,0.66c-0.69,0.2-1.43,0.41-2.25,0.61
						l-3.61,0.89v-25.23c0,0-15.57,2.39-20.8,3.19c-0.02,1.35-0.05,2.69-0.08,4c-0.1,4.69-0.2,9.11,0.22,13.45
						c0.87,8.54-2.7,13.49-10.63,14.71c-0.52,0.08-1.16,0.32-2.06,0.65c-0.59,0.22-1.27,0.48-2.09,0.75l-3.84,1.29v-31.47
						c-1.53,0.35-3.04,0.69-4.53,1.03c-7.42,1.68-14.43,3.27-21.3,5.19c-0.56,0.4-1.51,2.02-1.54,2.85
						c-0.06,1.43-0.14,2.88-0.21,4.32c-0.37,7.17-0.74,14.58,0.21,21.54c1.75,12.83-6.21,17.91-15.23,22.38l-4.2,2.08L14.11,226.29z
						"/>
					<path class="st3" d="M149.13,164.6c0.24,0,0.49,0.01,0.74,0.02c7.22,0.39,5.94,7.08,6.28,12.24h22.54v14.07h-22.6v16.93
						c-4.4,0.71-8.34,1.35-13.42,2.17v-18.66c-9.36,0.73-17.63,1.38-26.51,2.09c0,5.14-0.4,9.86,0.1,14.49
						c0.67,6.12-1.15,9.8-7.66,10.44c-1.64,0.15-3.24,0.77-5.53,1.34v-24.9c-9.09,1.39-17.48,2.68-26.6,4.07
						c0,7.05-0.5,13.71,0.14,20.23c0.68,6.69-1.41,10.51-8.17,11.55c-1.24,0.18-2.41,0.77-4.63,1.52v-31.07
						c-10.65,2.48-20.23,4.47-29.64,7.1c-1.62,0.45-3.46,3.55-3.55,5.48c-0.39,8.79-1.16,17.75,0.03,26.39
						c1.5,10.96-4.95,15.07-13.64,19.38v-19.7c0-17.83-0.01-35.66,0.01-53.51c0-4.94-0.71-10.77,6.51-11c0.14,0,0.28-0.01,0.42-0.01
						c6.91,0,6.43,5.66,6.46,10.58c0.03,2.93,0,5.87,0,9.23c11.39-2.53,21.79-4.84,32.91-7.31V174.4c0-4.38,2.26-7.09,6.55-7.17
						c0.05,0,0.11,0,0.16,0c4.22,0,6.49,2.53,6.43,6.98c-0.05,3.39-0.01,6.78-0.01,10.95c8.59-1.15,16.43-1.97,24.14-3.48
						c1.16-0.23,2.26-3.58,2.41-5.57c0.39-5.03-0.98-11.46,6.58-11.46c0.03,0,0.06,0,0.09,0c7.59,0.05,6.46,6.46,6.52,11.55
						c0.01,1.03,0.17,2.05,0.32,3.74c8.63-0.64,16.89-1.25,25.38-1.88C143.52,172.95,140.6,164.6,149.13,164.6 M149.13,158.78
						C149.13,158.78,149.13,158.78,149.13,158.78c-6.26,0-9.23,3.14-10.63,5.77c-1.4,2.64-1.6,5.5-1.75,8.04
						c-2.2,0.16-4.4,0.33-6.59,0.49c-2.7,0.2-5.4,0.4-8.13,0.6c0.04-3.55-0.1-8.13-3.39-11.49c-2.17-2.21-5.17-3.35-8.94-3.38
						l-0.12,0c-6.82,0-9.7,3.79-10.81,6.05c-1.39,2.83-1.45,5.88-1.49,8.56c-0.01,0.8-0.03,1.57-0.08,2.22
						c-0.02,0.21-0.07,0.48-0.13,0.75c-4.76,0.84-9.67,1.47-14.81,2.13c0-1.46,0-2.85,0.03-4.24c0.07-4.89-1.82-7.84-3.41-9.46
						c-1.54-1.56-4.32-3.42-8.83-3.42l-0.24,0c-7.35,0.13-12.28,5.35-12.28,12.99v8.72c-7.13,1.59-14.06,3.13-21.26,4.72
						c0-0.68,0-1.35-0.01-2.03c0-0.3,0-0.62,0-0.93c0-2.79,0-5.96-1.31-8.91c-1.08-2.43-3.94-6.51-10.96-6.51c-0.2,0-0.4,0-0.6,0.01
						c-7.03,0.23-9.85,4.3-10.91,6.71c-1.31,2.99-1.28,6.16-1.24,8.95c0,0.39,0.01,0.78,0.01,1.16
						c-0.02,13.38-0.02,26.77-0.01,40.15l0,13.36v19.7v9.37l8.4-4.16c7.57-3.75,19-9.42,16.82-25.38c-0.92-6.69-0.56-13.64-0.19-21
						c0.07-1.39,0.14-2.77,0.2-4.15c0.05-0.17,0.17-0.4,0.29-0.6c6.53-1.79,13.23-3.31,20.3-4.91c0.33-0.07,0.65-0.15,0.98-0.22
						v23.77v8.1l7.68-2.59c0.87-0.29,1.6-0.57,2.18-0.78c0.55-0.2,1.22-0.46,1.43-0.49c5.52-0.85,14.51-4.3,13.12-17.9
						c-0.41-4.14-0.31-8.48-0.21-13.08c0.01-0.51,0.02-1.03,0.03-1.56c4.42-0.68,8.72-1.34,13.09-2.01l1.94-0.3v18.12v7.43
						l7.21-1.78c0.89-0.22,1.67-0.44,2.35-0.64c1-0.28,1.79-0.51,2.33-0.56c4.5-0.45,7.92-2.08,10.17-4.86
						c2.39-2.95,3.28-6.88,2.72-12.01c-0.29-2.64-0.23-5.48-0.16-8.48c4.97-0.39,9.86-0.78,14.97-1.18v12.37v6.82l6.74-1.08
						c3.31-0.53,6.14-0.99,8.93-1.44l4.5-0.73l4.89-0.79v-4.95v-11.11h16.78h5.82v-5.82v-14.07v-5.82h-5.82h-16.92
						c-0.13-1.82-0.44-3.69-1.22-5.49c-1.03-2.36-3.74-6.38-10.38-6.74C149.82,158.79,149.47,158.78,149.13,158.78L149.13,158.78
						L149.13,158.78z"/>
				</g>
				<path class="st2" d="M268.28,223.29C188.32,284.08,128.91,359.74,87.1,449.54c-22.95,0-45.83,0-70.09,0
					c0-8.8,0.87-17.52-0.18-26.01c-2.15-17.25,4-30.18,15.11-43.51c51.36-61.69,111.38-112.16,182.83-149.26
					C231.89,221.86,248.59,220.31,268.28,223.29z"/>
				<path class="st2" d="M104.2,449.76c7.43-13.79,13.77-26.04,20.54-38.05c38.64-68.51,88.33-127.45,151.6-174.57
					c1.65-1.23,3.57-2.14,5.05-3.54c10.93-10.29,23.8-10.56,38.48-7.16c-4.59,5.58-8.81,10.84-13.17,15.98
					c-50.46,59.45-88.01,126.23-112.99,200.04c-1.86,5.49-4.09,7.55-10.11,7.46C157.9,449.54,132.19,449.76,104.2,449.76z"/>
				<path class="st2" d="M359.32,228.84c-13.02,33.19-26.9,64.72-37.76,97.26c-12.81,38.39-23.18,77.61-34.1,116.61
					c-1.59,5.69-3.72,7.24-9.26,7.17c-23.1-0.27-46.21-0.11-70.61-0.11c2.9-8.1,5.37-15.29,8.03-22.42
					c27.4-73.37,68.28-138.42,120.92-196.26C343.91,222.99,351.63,229.3,359.32,228.84z"/>
				<path class="st2" d="M380.7,449.43c-26.66,0-52.59,0-79.82,0c4.44-17.14,8.53-33.95,13.17-50.6
					c15.37-55.25,35.5-108.77,59.22-160.96c0.64-1.4,1-3.02,1.95-4.16c0.86-1.03,2.41-2.19,3.53-2.07c0.88,0.09,1.78,1.95,2.28,3.18
					c0.36,0.88,0.09,2.03,0.09,3.06c0,68.46-0.01,136.92-0.03,205.38C381.09,445.02,380.87,446.79,380.7,449.43z"/>
				<path class="st2" d="M17.02,371.09c0-24.65-0.12-49.3,0.19-73.94c0.03-2.52,2.08-5.66,4.13-7.41
					c26.43-22.58,57.05-37.32,90.35-46.36c23.23-6.31,46.81-11.34,70.25-16.87c1.96-0.46,4.04-0.41,6.57,0.11
					C122.33,264,66.65,313.55,18.65,372.07C18.11,371.74,17.56,371.42,17.02,371.09z"/>
			</g>
			<g class="st9">
				<path class="st2" d="M207.53,98.31c-0.95-0.44-2.11-0.61-2.53-1.25c-1.29-1.99-3.49-4.46-3.08-6.2c0.42-1.76,3.37-3.61,5.52-4.1
					c3.05-0.7,6.37-0.2,9.58-0.2c17.91,0,35.83-0.15,53.73,0.17c2.71,0.05,6.94,1.71,7.65,3.66c0.78,2.11-1.74,5.43-2.82,8.22
					c-0.64-0.13-1.28-0.27-1.92-0.4c3.72,9.79,7.4,19.6,11.23,29.35c0.41,1.05,1.61,2.42,2.57,2.53c8.54,0.97,17.11,1.69,26.31,2.54
					c0-9.24-0.14-17.87,0.04-26.5c0.14-6.62,3.22-10.81,8.77-11.29c2.15-0.19,5.54,1.12,6.42,2.78c0.8,1.51-0.89,4.48-1.75,6.7
					c-0.79,2.05-2.68,3.92-2.79,5.93c-0.36,6.77-0.05,13.57-0.18,20.36c-0.05,2.77,0.77,4.04,3.74,4.32
					c3.73,0.35,7.38,1.55,11.1,1.99c6.61,0.78,10.74,4.36,12.37,10.64c2.43,9.4,4.61,18.86,7.02,28.84
					c1.03,1.38,3.88,3.54,3.94,5.78c0.05,2.23-2.7,4.53-4.72,7.54c4.52,4.96,6.74,12.25,4.63,19.79c-1.29,4.63-4.22,9.41-7.75,12.69
					c-8.24,7.64-20.66,7.21-29.52-0.03c-9.58-7.82-10.4-19.02-2.23-33.96c-15.51,0-30.8,0-46.52,0c0,1.71,0.05,3.34-0.01,4.97
					c-0.13,3.48-1.77,6.03-5.38,5.99c-3.84-0.04-5.62-2.69-5.64-6.41c-0.03-8.74-2.68-16.64-7.49-23.88
					c-13.65-20.57-40.92-26.42-61.76-13.24c-3.61,2.28-7.24,5.88-11.25,0.94c-2.6-3.2-1.03-6.89,5.67-10.16
					c5.3-2.59,7.01-6.46,8.15-11.71C201.31,122.61,204.5,110.6,207.53,98.31z M216.45,131.78c1.27,0.34,1.63,0.51,1.99,0.51
					c25.15,0.27,44.52,10.62,57.44,32.58c0.85,1.45,3.53,2.57,5.37,2.59c20.35,0.18,40.7,0.17,61.04,0c0.02,0,0.04,0,0.06,0
					c2.98-0.07,3.3-4.59,0.37-5.12c-0.18-0.03-0.36-0.05-0.54-0.05c-16.95-0.22-33.93-0.54-50.86,0.07
					c-7.69,0.28-13.38-0.89-16.51-8.62c-0.8-1.98-2.65-3.71-4.37-5.12c-6.28-5.11-12.71-10.04-18.6-14.66
					c2.35-0.33,5.51-0.68,8.65-1.23c3.54-0.61,5.19-2.74,4.74-6.4c-1.17-9.46-2.31-18.92-3.48-28.47h-37.98
					C221.31,109.24,218.9,120.4,216.45,131.78z M340.3,216.34c6.49-0.09,11.74-5.6,11.52-12.08c-0.21-6.22-5.56-11.46-11.69-11.46
					c-6.4,0-11.84,5.48-11.8,11.91C328.37,211.23,333.73,216.43,340.3,216.34z"/>
				<path class="st2" d="M257.7,190.51c0.01,21.29-16.29,37.57-37.59,37.55c-21.19-0.02-37.46-16.37-37.5-37.67
					c-0.04-20.81,16.95-37.59,37.92-37.47C241.13,153.03,257.7,169.79,257.7,190.51z M199.35,190.47
					c0.01,11.5,9.22,20.99,20.57,21.2c11.21,0.21,21.39-9.92,21.31-21.19c-0.08-11.3-9.68-20.79-21.01-20.77
					C208.77,169.73,199.34,179.11,199.35,190.47z"/>
				<path class="st2" d="M220.21,177.35c7.42-0.03,13.37,5.77,13.46,13.11c0.09,7.15-6.02,13.42-13.19,13.55
					c-7.53,0.14-13.69-5.96-13.67-13.54C206.82,183.09,212.65,177.38,220.21,177.35z"/>
			</g>
		</g>
		<circle class="st5" cx="208.53" cy="208.53" r="197.38"/>
	</g>
	<g>
		<path class="st1" d="M122.89,219.98c0.66-0.16,1.31-0.37,1.97-0.47c2-0.29,3.99-0.29,5.9,0.46c1.87,0.73,2.91,2.07,2.97,4.13
			c0,0.18,0.1,0.38,0.2,0.53c0.34,0.49,0.7,0.96,1,1.37c0.39-1.07,0.8-2.17,1.19-3.28c0.05-0.14,0-0.34-0.03-0.5
			c-0.38-1.71,0.11-3.13,1.42-4.27c1.31-1.14,2.89-1.72,4.56-2.02c1-0.18,2.04-0.19,3.06-0.26c0.16-0.01,0.33,0.04,0.58,0.08
			c-0.31,0.24-0.55,0.43-0.8,0.61c-1,0.74-1.65,1.68-1.89,2.94c-0.47,2.44-2.16,3.79-4.36,4.61c-0.76,0.28-1.5,0.16-2.17-0.62
			c-0.27,1.06-0.51,2.01-0.75,2.96c-0.16,0.61-0.02,1.16,0.2,1.77c0.47,1.29,0.81,2.64,1.21,3.95c0.04,0.12,0.16,0.28,0.26,0.29
			c1.28,0.14,2.37,0.73,3.34,1.52c0.72,0.59,1.36,1.27,2.04,1.91c-0.03,0.04,2.49,2.6,2.46,2.64c-3.86,0.2-12.94,0.77-16.8,0.96
			c0.25-1.77,5.26-6.54,7.81-7c-0.32-2.57-1.11-4.94-2.67-7.08c-0.6,1.1-1.56,1.2-2.58,0.99c-2.12-0.46-3.91-1.42-4.82-3.55
			c-0.46-1.07-1.32-1.69-2.34-2.14c-0.31-0.14-0.63-0.27-0.94-0.4C122.89,220.08,122.89,220.03,122.89,219.98z"/>
	</g>
</g>
</svg>
