<?xml version="1.0" encoding="utf-8"?>
<!-- Generator: Adobe Illustrator 24.0.0, SVG Export Plug-In . SVG Version: 6.00 Build 0)  -->
<svg version="1.1" id="Layer_1" xmlns="http://www.w3.org/2000/svg" xmlns:xlink="http://www.w3.org/1999/xlink" x="0px" y="0px"
	 viewBox="0 0 417.06 417.06" style="enable-background:new 0 0 417.06 417.06;" xml:space="preserve">
<style type="text/css">
	.st0{fill:#FFFFFF;stroke:#F08116;stroke-width:11.6343;stroke-miterlimit:10;}
	.st1{fill:#278492;}
	.st2{fill:#2E8795;}
	.st3{fill:#FFFFFF;}
	.st4{fill:none;stroke:#278492;stroke-width:4.6537;stroke-miterlimit:10;}
	.st5{fill:none;stroke:#F08116;stroke-width:11.6343;stroke-miterlimit:10;}
	.st6{fill:#1D7F8D;}
	.st7{fill:none;stroke:#2E8795;stroke-width:3.4903;stroke-linecap:round;stroke-miterlimit:10;}
	.st8{fill-rule:evenodd;clip-rule:evenodd;fill:#2E8795;}
	.st9{clip-path:url(#SVGID_1_);}
</style>
<g>
	<circle class="st0" cx="208.53" cy="208.53" r="197.38"/>
	<g>
		<path class="st2" d="M285.18,163.81c10.33,0.47,18.71-2.73,25.44-9.88c23.44,38.32,23.91,103.18-22.17,147.23
			c-46.65,44.6-119.1,45.78-166.41,3.04c-48.32-43.65-54.93-115.52-15.05-166.7c39.68-50.93,108.23-59.92,157.3-31.05
			c-7,6.76-10.96,14.85-10.34,25.43c-29.47-16.64-59.4-19.1-89.94-5.38c-20.01,9-35.06,23.66-44.99,43.21
			c-19.65,38.68-11.12,84.87,21.62,114.06c32.79,29.24,80.59,32.21,116.86,7.15c20.49-14.15,33.54-33.63,38.93-58.01
			C301.77,208.72,297.6,185.9,285.18,163.81z"/>
		<path class="st2" d="M240.94,155.38c-6.49,6.39-12.62,12.54-18.94,18.51c-0.75,0.71-2.66,0.94-3.68,0.53
			c-20.67-8.41-49.32,2.05-55.13,31.37c-4.3,21.68,10.65,43.93,34.27,47.42c30.15,4.46,53.95-23.36,45.24-52.6
			c-0.7-2.36-0.4-3.78,1.35-5.47c6.05-5.84,11.93-11.85,17.9-17.82c14.67,20.22,16.18,58.48-9.83,84.26
			c-26.5,26.27-68.56,26.76-95.84,1.13c-26.03-24.45-28.25-67.54-4.97-94.67C176.16,139.12,216.56,138.06,240.94,155.38z"/>
		<path class="st2" d="M201.6,233.06c-5.67-0.12-11.95-3.27-15.55-10.18c-4-7.68-3.56-15.65,1.6-22.65
			c5.06-6.86,12.36-8.93,20.62-7.25c2.29,0.47,4,0.86,5.99-1.15c15.27-15.48,30.66-30.86,46.12-46.15c2.15-2.13,2.96-4.17,2.05-7.04
			c-3.74-11.81-0.15-21.17,8.91-29.39c8.93-8.1,17.13-17,25.72-25.46c1-0.99,2.51-1.45,3.79-2.16c0.68,1.31,1.68,2.55,1.99,3.94
			c1.51,6.85,3,13.71,4.14,20.62c0.48,2.9,1.86,3.99,4.53,4.5c7.03,1.33,14.03,2.8,21.01,4.32c4.26,0.93,4.68,2.35,1.57,5.48
			c-9.98,10.06-19.96,20.12-30.08,30.04c-6.15,6.03-13.76,7.55-21.84,5.26c-5.24-1.48-8.65-0.26-12.45,3.68
			c-14.32,14.84-29.04,29.3-43.68,43.82c-1.92,1.91-2.77,3.58-2.35,6.54C225.49,222.54,216.28,233.03,201.6,233.06z"/>
	</g>
</g>
</svg>
