<?xml version="1.0" encoding="utf-8"?>
<!-- Generator: Adobe Illustrator 24.0.0, SVG Export Plug-In . SVG Version: 6.00 Build 0)  -->
<svg version="1.1" id="Layer_1" xmlns="http://www.w3.org/2000/svg" xmlns:xlink="http://www.w3.org/1999/xlink" x="0px" y="0px"
	 viewBox="0 0 417.1 417.1" style="enable-background:new 0 0 417.1 417.1;" xml:space="preserve">
<style type="text/css">
	.st0{fill:#FFFFFF;stroke:#EF8016;stroke-width:11.6345;stroke-miterlimit:10;}
	.st1{fill:#2E8694;}
	.st2{fill:#FFFFFF;}
</style>
<g>
	<circle class="st0" cx="208.5" cy="208.5" r="197.4"/>
	<g>
		<g>
			<path class="st1" d="M176.4,112.9c-0.6,0.2-1.3,0.4-1.9,0.7c-1.9,1-4,1.9-5.7,3.2c-0.8,0.6-1.6,1.9-1.5,2.8
				c0.1,0.7,1.4,1.4,2.3,1.8c1,0.5,2.2,0.7,3.3,0.8c3.8,0.1,7.5,0,11,0c-1.5,1.9-3.3,3.6-4.6,5.7c-1.5,2.5-0.7,4,2.2,4
				c2.3,0,4.7-0.2,7-0.8c4.3-1.1,8.5-2.6,11.9-3.7c-1.5,2.4-3.7,5.2-5.2,8.4c-1.7,3.6-0.1,5.4,3.8,4.9c4.4-0.6,7.5-3.4,10.7-6.1
				c1.1-0.9,2-1.9,2.7-2.5c-1.3,3.4-2.9,7-3.9,10.8c-0.4,1.3,0,3.4,0.9,4.3c0.7,0.7,2.9,0.2,4.2-0.3c3.8-1.5,6.4-4.6,8.8-7.7
				c0.3-0.4,0.7-0.8,1.3-1.4c-0.2,2.3-0.5,4.2-0.4,6.1c0,1,0.6,2.8,1,2.9c1.2,0.1,2.7-0.2,3.6-0.9c1.3-1,2.2-2.6,3.4-4
				c0.3,0.7,0.6,1.4,0.9,2c0.7,1.5,1.9,2.1,3.6,1.8c1.8-0.3,1.7-1.6,1.7-3c-0.1-9.7-0.1-19.5-0.1-29.2c0-1.8-0.6-2.7-2.5-3
				c-2.4-0.5-4.9-1.1-7.1-2.3c-6.9-3.8-12.5-9.1-16.8-15.8c-2.6-4.2-6.2-6.3-10.9-6.9c-7.6-1.1-14.8,0.7-22,2.6
				c-1.6,0.4-3.3,0.5-4.9,0.5c-7.3,0-14.6-0.3-21.8-0.2c-3.1,0.1-6.3,0.9-9.4,1.7c-2.5,0.7-2.7,2.3-0.6,3.9c1.8,1.3,3.8,2.5,5.9,3.5
				c5.7,2.9,11.9,4.2,18.7,5.1c-3.3,1-6.2,1.8-9,2.9c-1.3,0.5-2.4,1.6-3.6,2.4c1.2,0.9,2.3,2.1,3.7,2.6
				C163.2,112.7,169.7,113.4,176.4,112.9z M323.8,102.4c7.7-1.3,15-3.1,21.6-7.2c1.5-0.9,3.8-2.6,3.7-3.8c-0.2-2.3-3-2.3-5-2.6
				c-9-1.7-18.1-1.5-27.3-0.8c-1.9,0.2-3.9-0.2-5.8-0.4c-6-0.9-11.9-2.4-18-2.7c-6.4-0.4-12,1.6-15.2,7.9c-0.4,0.9-1.1,1.6-1.8,2.4
				c-6.1,7.1-12.6,13.7-22.5,15.1c-1.5,0.2-1.6,1.4-1.6,2.6c0,9.9-0.1,19.8-0.1,29.7c0,1.2,0,2.6,1.4,2.6c1.2,0,2.5-0.6,3.5-1.3
				c0.6-0.4,0.8-1.5,1.2-2.2c1.4,1.6,2.5,3.2,4,4.5c0.7,0.6,2.1,0.7,2.9,0.4c0.6-0.2,1.1-1.6,1.1-2.4c0-2.1-0.2-4.2-0.4-6.7
				c0.9,1.1,1.6,1.9,2.2,2.7c2.6,3.2,5.4,6,9.5,7.2c2.3,0.7,3.6-0.2,3.7-2.6c0-0.8,0-1.7-0.3-2.5c-1.3-3.6-2.7-7.1-3.9-10
				c2.4,1.8,5.2,4.3,8.3,6.3c1.9,1.2,4.4,1.7,6.6,2c2.3,0.2,3.5-1.4,2.7-3.6c-0.8-2.2-1.9-4.3-3.2-6.2c-0.9-1.4-2.1-2.6-3.2-3.9
				c0.7,0,1.2,0.3,1.8,0.6c5.4,2.4,11.1,4.2,17.1,4.4c3.7,0.1,4.6-1.5,2.7-4.6c-0.8-1.3-1.9-2.3-2.9-3.4c-0.5-0.5-1.1-1-2.1-1.8
				c1.3,0.2,1.9,0.3,2.6,0.4c4.4,0.5,8.7,0.3,12.8-1.1c2.6-0.9,2.8-2.4,0.8-4.2c-1.1-1-2.5-1.8-3.8-2.5c-1.4-0.7-2.9-1.2-4.3-1.8
				c0.7-0.2,1.4-0.1,2.1,0c6.4,0.5,12.6-0.5,18.5-3c1-0.4,1.7-1.4,2.5-2.1c-0.8-0.7-1.6-1.6-2.5-2.1c-1.2-0.6-2.5-1-3.8-1.5
				C327.8,103.5,325.8,103,323.8,102.4z M249.6,210.4c3.8,1.7,7.6,3.4,11.5,5.1c0.4,0.2,1.1,0.1,1.5-0.1c2.6-1.9,5.5-3.6,7.6-6
				c3.6-4.1,3.1-8.6-1.3-11.9c-2.8-2.1-6-4-9.3-5.1c-7.2-2.5-14.5-4.5-21.8-6.5c-6.2-1.8-12.2-4.1-17.6-7.7
				c-2.9-1.9-5.2-4.5-6.2-7.9c-1.1-3.8,1.3-7.5,5.2-7.7c1.8-0.1,3.7,0.4,5.6,0.7c3.5,0.6,7,1.4,10.5,1.7c2.2,0.2,2.7-0.7,2.2-2.9
				c-1.7-7-10-13.3-17.1-12.5c-8.1,0.9-13.5,5.8-16.6,13c-2.9,6.8-0.9,13.1,3.8,18.6c3.5,4,7.9,6.9,12.5,9.3
				c7.4,3.8,15.5,5.1,23.4,7.3c5,1.4,9.9,2.7,14.9,4.3c0.9,0.3,1.9,1.4,2.2,2.3c0.1,0.5-1.1,1.7-2,2.1
				C255.6,207.9,252.5,209.2,249.6,210.4z M248.8,186.4c0-3,0-5.6,0-8.3c0.3-22.8,0.7-45.6,1-68.4c0-1.4,0.4-2.3,1.7-3.1
				c3.4-2.2,5.3-5.4,4.8-9.6c-0.5-4.2-3-7-6.8-8.3c-2.1-0.7-4.5-0.9-6.7-0.7c-4.4,0.3-8.5,3.9-9.4,7.8c-1,4.3,0.6,8.4,4.7,11
				c1.3,0.8,1.6,1.7,1.6,3.1c0.1,14.6,0.3,29.2,0.5,43.8c0.1,9.6,0.3,19.1,0.5,28.7c0,0.8,0.4,2,1,2.2
				C243.8,185.3,246.1,185.7,248.8,186.4z M250.1,186.6c3.7,1,7.2,1.4,10.1,3c4.7,2.7,8.5,1.8,12.7-1c4.8-3.3,9.6-6.7,12.1-12
				c4.1-8.4,1.3-17.1-6.8-23.3c-9.2-7.1-21.8-2.9-26,8c-1.1,2.9-0.4,4.1,2.8,3.8c3.3-0.4,6.5-1.2,9.8-1.8c1.8-0.3,3.6-0.8,5.4-0.7
				c3.9,0.2,6.7,4.1,5.1,7.6c-1.1,2.6-3,5.2-5.2,7c-3.1,2.4-6.8,4.2-10.4,5.9C256.7,184.5,253.5,185.4,250.1,186.6z M238.7,199.6
				c-4.7-1.4-9.4-2.8-14.1-4.2c-0.3-0.1-0.7-0.1-1.1,0c-6.1,2-8.4,8.9-4.5,14c2.6,3.5,6.2,5.6,10.2,7c6.4,2.3,12.9,4.4,19.4,6.6
				c2.3,0.8,4.6,1.6,6.7,2.8c2,1.1,1.9,2.9-0.1,4c-1.5,0.8-3.1,1.3-5,2.1c4.3,0.9,8.1,2,10.6,5.4c7.5-3.5,8.9-10.9,3.4-16.7
				c-1.3-1.4-3-2.6-4.8-3.5c-3.3-1.6-6.8-3.1-10.3-4.3c-6-2.2-12-4.1-18-6.3c-1-0.4-1.6-1.5-2.5-2.3c0.8-0.8,1.5-1.9,2.5-2.3
				C233.6,201,236.2,200.4,238.7,199.6z M240.8,223.1c-4.2-1.6-7.9-3.1-11.7-4.5c-0.5-0.2-1.2-0.1-1.6,0.2c-3.5,2.4-5.5,5.7-5.5,10
				c0,3.9,2.3,6.7,5.7,8.1c3.6,1.5,7.5,2.4,11.3,3.4c2.9,0.7,5.9,0.9,8.7,1.6c2.6,0.7,2.9,2.4,0.9,4.2c-0.2,0.2-0.4,0.4-0.6,0.6
				c2.5,1.3,4.9,2.5,7.5,3.8c0.6-0.5,1.3-1.2,2-1.9c4.2-4.7,3.1-10.5-2.7-12.9c-2.4-1-5.1-1.5-7.6-2.2c-3.8-1-7.6-1.9-11.4-3.1
				c-1.1-0.3-1.8-1.6-2.8-2.4c0.8-0.7,1.5-1.6,2.5-2.2C237,224.9,238.7,224.1,240.8,223.1z M229.5,240.1c0.2,1.7,0.1,3.1,0.5,4.4
				c0.8,3,3.1,5,5.6,6.6c3.3,2.1,6.6,4,9.9,6c4.6,2.8,4.9,6.9,0.5,10.9c0.1-1.7,0.2-3.2,0.3-4.7c0.2-3.6,0.2-3.6-3.3-5
				c-1.3,5.7,1,9.8,5.9,12.7c3.6-2.5,6.3-5.8,7.7-10c1.1-3.1,0.5-6.1-2.1-8c-2.5-1.8-5.3-3.1-8.1-4.6c-1.5-0.8-3.2-1.3-4.8-2.1
				c-1.5-0.8-2.5-1.9-1.8-3.8C236.7,241.8,233.5,241.1,229.5,240.1z M234.9,253.3c-2.7,2.7-3.5,5.1-2,8.3c1.1,2.5,2.6,5,4.5,7
				c5.6,6,12.8,9.8,20.2,13.2c-0.5-0.5-1.1-0.9-1.6-1.4c-4.9-4.2-9.9-8.3-13.5-13.8c-1.8-2.8-3-5.7-0.4-8.7
				C239.6,256.3,237.3,254.9,234.9,253.3z M241.2,199.8c0,2.5,0,4.7,0,6.9c0,0.4,0.3,1.1,0.7,1.3c1.9,0.7,3.9,1.3,6.2,2
				c0-3.1,0-5.7,0-8.5C245.9,201,243.6,200.4,241.2,199.8z M247.4,230.9c0.1-1.6,0.2-3,0.2-4.5c0-0.5-0.5-1.3-1-1.4
				c-1.5-0.6-3.1-1-4.7-1.4C241,229.7,241.4,230.2,247.4,230.9z M244.3,286.4c0.3,0,0.5,0,0.8,0c0.2-2.6,0.4-5.2,0.4-7.8
				c0-0.7-0.8-1.4-1.2-2.2c-0.2,0.1-0.4,0.2-0.7,0.4C243.8,279.9,244,283.1,244.3,286.4z M246.9,243.9c-1.7-0.2-3.1-0.3-4.5-0.5
				c-0.1,0.3-0.1,0.5-0.2,0.8c1.5,0.6,3,1.3,4.7,2C246.9,245.3,246.9,244.7,246.9,243.9z"/>
			<path class="st1" d="M176.4,112.9c-6.7,0.5-13.1-0.2-19.3-2.7c-1.4-0.5-2.5-1.7-3.7-2.6c1.2-0.8,2.3-1.9,3.6-2.4
				c2.8-1.1,5.7-1.9,9-2.9c-6.8-0.9-13-2.2-18.7-5.1c-2-1-4-2.2-5.9-3.5c-2.2-1.5-2-3.2,0.6-3.9c3.1-0.9,6.2-1.6,9.4-1.7
				c7.3-0.2,14.6,0.1,21.8,0.2c1.6,0,3.3-0.1,4.9-0.5c7.2-1.8,14.5-3.6,22-2.6c4.7,0.7,8.3,2.8,10.9,6.9c4.2,6.6,9.8,12,16.8,15.8
				c2.2,1.2,4.7,1.8,7.1,2.3c1.9,0.4,2.5,1.2,2.5,3c0,9.7,0,19.5,0.1,29.2c0,1.3,0.1,2.7-1.7,3c-1.6,0.3-2.8-0.3-3.6-1.8
				c-0.3-0.6-0.5-1.2-0.9-2c-1.2,1.4-2.1,3-3.4,4c-0.9,0.7-2.5,1.1-3.6,0.9c-0.5,0-1-1.8-1-2.9c-0.1-1.9,0.2-3.8,0.4-6.1
				c-0.6,0.7-1,1-1.3,1.4c-2.4,3.2-5,6.2-8.8,7.7c-1.3,0.5-3.4,1-4.2,0.3c-0.9-0.8-1.3-3-0.9-4.3c1.1-3.8,2.7-7.4,3.9-10.8
				c-0.7,0.6-1.7,1.6-2.7,2.5c-3.2,2.7-6.4,5.5-10.7,6.1c-3.9,0.5-5.5-1.3-3.8-4.9c1.5-3.2,3.7-6,5.2-8.4c-3.4,1.1-7.6,2.6-11.9,3.7
				c-2.2,0.6-4.6,0.8-7,0.8c-2.9,0-3.8-1.5-2.2-4c1.3-2.1,3.1-3.8,4.6-5.7c-3.5,0-7.3,0.1-11,0c-1.1,0-2.3-0.3-3.3-0.8
				c-0.9-0.4-2.2-1.1-2.3-1.8c-0.1-0.9,0.7-2.2,1.5-2.8c1.8-1.3,3.8-2.2,5.7-3.2C175.1,113.3,175.7,113.1,176.4,112.9z"/>
			<path class="st1" d="M323.8,102.4c2,0.6,3.9,1.1,5.8,1.7c1.3,0.4,2.6,0.8,3.8,1.5c0.9,0.5,1.7,1.4,2.5,2.1
				c-0.8,0.7-1.6,1.7-2.5,2.1c-5.9,2.6-12.1,3.5-18.5,3c-0.7,0-1.3-0.1-2.1,0c1.4,0.6,2.9,1.1,4.3,1.8c1.3,0.7,2.7,1.5,3.8,2.5
				c2,1.8,1.7,3.3-0.8,4.2c-4.2,1.4-8.5,1.6-12.8,1.1c-0.7-0.1-1.3-0.2-2.6-0.4c1,0.8,1.6,1.3,2.1,1.8c1,1.1,2.2,2.2,2.9,3.4
				c1.9,3.2,1,4.7-2.7,4.6c-6-0.2-11.6-2-17.1-4.4c-0.5-0.2-1.1-0.5-1.8-0.6c1.1,1.3,2.3,2.4,3.2,3.9c1.2,2,2.4,4.1,3.2,6.2
				c0.8,2.2-0.4,3.8-2.7,3.6c-2.3-0.2-4.7-0.8-6.6-2c-3.1-1.9-5.9-4.4-8.3-6.3c1.1,2.9,2.5,6.5,3.9,10c0.3,0.8,0.3,1.7,0.3,2.5
				c-0.1,2.3-1.4,3.2-3.7,2.6c-4-1.2-6.9-4-9.5-7.2c-0.6-0.8-1.3-1.6-2.2-2.7c0.2,2.5,0.4,4.6,0.4,6.7c0,0.8-0.5,2.2-1.1,2.4
				c-0.8,0.3-2.3,0.1-2.9-0.4c-1.5-1.3-2.6-2.9-4-4.5c-0.4,0.7-0.5,1.8-1.2,2.2c-1,0.7-2.3,1.3-3.5,1.3c-1.4,0-1.4-1.5-1.4-2.6
				c0.1-9.9,0.1-19.8,0.1-29.7c0-1.2,0.1-2.4,1.6-2.6c9.9-1.4,16.4-8,22.5-15.1c0.6-0.7,1.3-1.5,1.8-2.4c3.2-6.3,8.9-8.3,15.2-7.9
				c6,0.4,12,1.8,18,2.7c1.9,0.3,3.9,0.6,5.8,0.4c9.1-0.7,18.2-0.9,27.3,0.8c1.9,0.4,4.7,0.3,5,2.6c0.1,1.1-2.2,2.8-3.7,3.8
				C338.9,99.3,331.5,101.2,323.8,102.4z"/>
			<path class="st1" d="M249.6,210.4c3-1.3,6-2.5,9-4c0.9-0.4,2.1-1.6,2-2.1c-0.2-0.9-1.3-2-2.2-2.3c-4.9-1.5-9.9-2.9-14.9-4.3
				c-7.9-2.2-16-3.5-23.4-7.3c-4.7-2.4-9.1-5.3-12.5-9.3c-4.7-5.4-6.7-11.8-3.8-18.6c3.1-7.1,8.4-12.1,16.6-13
				c7.1-0.7,15.4,5.5,17.1,12.5c0.5,2.1,0,3.1-2.2,2.9c-3.5-0.3-7-1.1-10.5-1.7c-1.9-0.3-3.7-0.8-5.6-0.7c-3.9,0.2-6.3,3.9-5.2,7.7
				c1,3.4,3.4,6,6.2,7.9c5.4,3.6,11.4,6,17.6,7.7c7.3,2,14.6,4,21.8,6.5c3.3,1.1,6.5,3,9.3,5.1c4.4,3.3,4.9,7.8,1.3,11.9
				c-2.1,2.4-5,4-7.6,6c-0.3,0.3-1.1,0.3-1.5,0.1C257.2,213.9,253.3,212.1,249.6,210.4z"/>
			<path class="st1" d="M248.8,186.4c-2.6-0.7-4.9-1.2-7.1-1.9c-0.5-0.2-0.9-1.4-1-2.2c-0.2-9.6-0.4-19.1-0.5-28.7
				c-0.2-14.6-0.4-29.2-0.5-43.8c0-1.4-0.4-2.3-1.6-3.1c-4.1-2.6-5.7-6.6-4.7-11c0.9-3.9,5-7.6,9.4-7.8c2.2-0.1,4.6,0,6.7,0.7
				c3.8,1.4,6.3,4.1,6.8,8.3c0.5,4.2-1.3,7.4-4.8,9.6c-1.3,0.8-1.7,1.6-1.7,3.1c-0.3,22.8-0.6,45.6-1,68.4
				C248.7,180.8,248.8,183.4,248.8,186.4z"/>
			<path class="st1" d="M250.1,186.6c3.4-1.2,6.6-2.1,9.6-3.5c3.6-1.7,7.3-3.5,10.4-5.9c2.2-1.7,4-4.4,5.2-7
				c1.6-3.5-1.2-7.4-5.1-7.6c-1.8-0.1-3.6,0.4-5.4,0.7c-3.3,0.6-6.5,1.4-9.8,1.8c-3.1,0.3-3.9-0.8-2.8-3.8c4.2-11,16.8-15.2,26-8
				c8,6.2,10.9,14.8,6.8,23.3c-2.6,5.3-7.3,8.7-12.1,12c-4.2,2.8-8,3.7-12.7,1C257.3,188,253.7,187.7,250.1,186.6z"/>
			<path class="st1" d="M238.7,199.6c-2.5,0.8-5,1.5-7.5,2.5c-1,0.4-1.7,1.5-2.5,2.3c0.8,0.8,1.5,2,2.5,2.3c6,2.2,12,4.1,18,6.3
				c3.5,1.3,6.9,2.7,10.3,4.3c1.7,0.8,3.4,2.1,4.8,3.5c5.6,5.8,4.1,13.2-3.4,16.7c-2.5-3.4-6.3-4.5-10.6-5.4c1.9-0.8,3.5-1.3,5-2.1
				c2-1.1,2.1-2.9,0.1-4c-2.1-1.2-4.4-2-6.7-2.8c-6.4-2.2-12.9-4.3-19.4-6.6c-4-1.4-7.6-3.6-10.2-7c-3.9-5.2-1.6-12.1,4.5-14
				c0.3-0.1,0.7-0.1,1.1,0C229.3,196.8,234,198.2,238.7,199.6z"/>
			<path class="st1" d="M240.8,223.1c-2.1,1-3.8,1.8-5.4,2.7c-0.9,0.5-1.6,1.4-2.5,2.2c0.9,0.8,1.7,2.1,2.8,2.4
				c3.7,1.2,7.6,2.1,11.4,3.1c2.6,0.7,5.2,1.2,7.6,2.2c5.8,2.4,7,8.2,2.7,12.9c-0.6,0.7-1.4,1.3-2,1.9c-2.6-1.3-5-2.6-7.5-3.8
				c0.2-0.2,0.4-0.4,0.6-0.6c2-1.8,1.8-3.6-0.9-4.2c-2.9-0.7-5.9-0.9-8.7-1.6c-3.8-0.9-7.7-1.9-11.3-3.4c-3.4-1.4-5.7-4.1-5.7-8.1
				c0-4.2,2-7.6,5.5-10c0.4-0.3,1.2-0.4,1.6-0.2C232.8,220,236.6,221.5,240.8,223.1z"/>
			<path class="st1" d="M229.5,240.1c3.9,0.9,7.1,1.7,10.5,2.5c-0.7,1.9,0.2,3,1.8,3.8c1.5,0.8,3.2,1.3,4.8,2.1
				c2.7,1.4,5.6,2.7,8.1,4.6c2.6,1.9,3.2,4.9,2.1,8c-1.5,4.2-4.2,7.5-7.7,10c-4.9-3-7.3-7-5.9-12.7c3.5,1.3,3.5,1.3,3.3,5
				c-0.1,1.5-0.2,2.9-0.3,4.7c4.4-4,4.1-8.1-0.5-10.9c-3.3-2-6.7-3.9-9.9-6c-2.5-1.6-4.8-3.6-5.6-6.6
				C229.7,243.2,229.7,241.8,229.5,240.1z"/>
			<path class="st1" d="M234.9,253.3c2.4,1.6,4.7,3.1,7.1,4.7c-2.6,3.1-1.4,6,0.4,8.7c3.6,5.5,8.6,9.6,13.5,13.8
				c0.5,0.5,1.1,0.9,1.6,1.4c-7.4-3.4-14.6-7.2-20.2-13.2c-1.9-2-3.3-4.5-4.5-7C231.4,258.4,232.2,256,234.9,253.3z"/>
			<path class="st1" d="M241.2,199.8c2.4,0.6,4.7,1.2,6.9,1.7c0,2.8,0,5.4,0,8.5c-2.3-0.7-4.3-1.3-6.2-2c-0.3-0.1-0.6-0.8-0.7-1.3
				C241.2,204.5,241.2,202.3,241.2,199.8z"/>
			<path class="st1" d="M247.4,230.9c-6-0.7-6.4-1.3-5.5-7.3c1.6,0.5,3.2,0.9,4.7,1.4c0.5,0.2,0.9,0.9,1,1.4
				C247.6,227.9,247.5,229.3,247.4,230.9z"/>
			<path class="st1" d="M244.3,286.4c-0.2-3.2-0.4-6.4-0.7-9.7c0.2-0.1,0.4-0.2,0.7-0.4c0.4,0.7,1.2,1.4,1.2,2.2
				c0,2.6-0.3,5.2-0.4,7.8C244.8,286.3,244.5,286.3,244.3,286.4z"/>
			<path class="st1" d="M246.9,243.9c0,0.8,0,1.4,0,2.3c-1.7-0.7-3.2-1.3-4.7-2c0.1-0.3,0.1-0.5,0.2-0.8
				C243.9,243.6,245.3,243.8,246.9,243.9z"/>
		</g>
		<g>
			<path class="st1" d="M86.5,289.2c-0.1-0.8-0.1-1.3-0.1-1.7c0-0.7,0-1.5,0-2.4c12.6,0,25.1,0,37.8,0c0,1.9,1.3,4.2-2.2,4.5
				c0,1.1,0,2.1,0,3.3c3.3,0,6.4,0,9.8,0c0-7.1,0-14.2,0-21.5c-1.2,0-2.2,0-3.3,0c-16,0-32.1,0-48.1,0c-3.9,0-4.4-0.5-4.4-4.5
				c0-2,0-4,0-6c-0.1-2.4,1-3.5,3.5-3.5c6.8,0,13.6,0,20.3,0c10.2,0,20.3,0,30.5,0c1.6,0,2.6-0.4,3.6-1.8c3.9-5.8,10.5-8.1,17.1-6.3
				c6.4,1.8,10.8,7.4,11.2,14.3c0.9,13.8,8.7,24.9,20.3,28.6c1.8,0.6,3.8,0.7,5.7,0.8c4.5,0.2,7.7,3.1,7.8,7.2
				c0.1,4.2-3.2,7.4-7.8,7.4c-37.5,0-74.9,0-112.4,0c-4.7,0-7.9-3-7.9-7.3c0-4.2,3.2-7.2,7.9-7.2c4.2,0,8.4,0,12.7,0
				C88.9,291.1,90.1,289.1,86.5,289.2z M146.8,271c3.8,0,7-3.2,7-7c-0.1-3.7-3.2-6.8-6.9-6.8c-3.8,0-7,3.2-6.9,7
				C140,267.9,143.1,271,146.8,271z"/>
			<path class="st1" d="M141.9,212.7c-1.5,3.5-2.9,6.7-4.2,9.9c-1.9,4.4-3.8,5.4-8.1,3.6c-8-3.2-16-6.6-23.9-10.1
				c-3-1.3-3.8-4.1-2.3-7.7c4.7-11,9.4-22,14.2-33c0.7-1.7,1.4-3.4,2.2-5c1.4-2.9,3.9-4,6.8-2.8c8.3,3.4,16.5,7,24.7,10.6
				c2.6,1.2,3.6,3.7,2.7,6.4c-0.4,1.1-0.9,2.2-1.4,3.5c16.8,10.3,26.4,25.1,27.3,45.1c0.5,11.1-2.4,21.4-8.9,31.3
				c-1-12.2-6.9-19.8-17.9-23.6C155,229.4,151.3,220.1,141.9,212.7z"/>
			<path class="st1" d="M151.1,173.9c-7.3-3.1-14.2-6.1-21.5-9.2c1.5-3.4,2.8-6.7,4.3-9.9c0.3-0.7,1.1-1.6,1.7-1.6
				c3-0.3,3.6-2.7,4.4-4.8c0.9-2.5,2.4-2.9,4.7-1.9c3,1.4,6,2.7,9.1,3.9c2.3,0.9,2.8,2.3,1.8,4.5c-0.9,2.2-2.5,4.3-0.5,6.8
				c0.4,0.5,0.2,1.8-0.1,2.6C153.9,167.4,152.5,170.5,151.1,173.9z"/>
			<path class="st1" d="M103.5,219.2c8.8,3.8,17.4,7.5,26.1,11.2c-1.7,3.9-3.1,7.6-4.8,11.2c-0.9,1.9-2.6,2.6-4.6,1.7
				c-6.6-2.8-13.1-5.6-19.6-8.4c-1.7-0.7-2.6-2.3-2-4C100,227,101.7,223.2,103.5,219.2z"/>
		</g>
		<g>
			<path class="st1" d="M202.8,321.8c-7.1,0-14.1,0-21.2,0c-1.3,0-3.1-0.1-4.8-0.5c-3-0.8-5.3-2.7-6.7-5.2c-1.4-2.6-1.5-5.7-0.5-8.8
				c0.8-2.3,1.9-4.5,2.9-6.6c0.3-0.6,0.6-1.3,0.9-1.9c5-10.7,10.1-21.4,15.2-32.1l1.9-4c2.9-6.1,5.8-12.2,8.7-18.3
				c1-2.1,1.5-4.2,1.5-6.5c0-8.7,0-17.4,0-26.1c-3-1.9-4.4-5.5-3.5-9c0.9-3.6,4.1-6.2,7.8-6.2c5,0,10,0,15.1,0c5.1,0,10.2,0,15.3,0
				c3.7,0,6.9,2.5,7.8,6.1c0.9,3.6-0.4,7.1-3.4,9c0,5.7,0,11.4,0,17l0,9.5c0,2,0.5,4.1,1.6,6.3l11.4,24
				c5.6,11.9,11.3,23.8,16.9,35.7c1.1,2.4,2.2,5.3,1.7,8.6c-0.8,4.8-4.8,8.3-9.9,8.8c-1,0.1-2,0.1-2.8,0.1
				C249.5,321.8,202.8,321.8,202.8,321.8z M213.2,293.3c-1,0-2,1-2,2c0,1.1,1,2,2,2c1,0,2-1,2-2
				C215.2,294.3,214.3,293.3,213.2,293.3v-2.7V293.3z M229.6,287.2c-1.9,0-3.3,1.5-3.4,3.3c0,0.9,0.3,1.8,1,2.4c0.6,0.6,1.5,1,2.4,1
				c1.8,0,3.4-1.5,3.4-3.4c0-0.9-0.3-1.7-1-2.4C231.4,287.5,230.5,287.2,229.6,287.2l0-2.7L229.6,287.2z M208.8,205.7
				c0.8,0.9,1,2.1,1,4l0,8.3c0,6.4,0,12.9,0,19.3c0,4-0.8,7.7-2.5,11.3c-1.7,3.6-3.5,7.3-5.2,10.9c0.6-0.1,1.4-0.2,2.3-0.2
				c0.3,0,0.7,0,1.2,0l0.3,0c2.2,0,4.4,0,6.6,0c1.8,0,3.6,0,5.3,0c1.7,0,3.5,0,5.2,0l6.3,0c2.8,0,5.7,0,8.5,0c0.2,0,0.3,0,0.5,0
				c-1.8-3.7-3.5-7.5-5.3-11.2c-1.6-3.3-2.4-6.8-2.4-10.5c0-6.3,0-12.5,0-18.8l0-9.4l0-0.1c0-0.5-0.1-1.5,0.5-2.5l0.1-0.2
				c0.2-0.3,0.5-0.7,0.8-1c-2.9,0-5.8,0-8.6,0L208.8,205.7z"/>
			<path class="st2" d="M220.1,199.2c5.1,0,10.2,0,15.4,0c2.6,0,4.6,1.7,5.3,4.1c0.6,2.5-0.3,5-2.6,6.3c-0.8,0.4-0.9,0.9-0.9,1.7
				c0,9,0,17.9,0,26.9c0,2.6,0.7,5.1,1.8,7.5c9.4,19.9,18.9,39.8,28.3,59.7c1.1,2.2,1.9,4.5,1.5,7.1c-0.6,3.6-3.6,6.2-7.5,6.6
				c-0.9,0.1-1.7,0.1-2.6,0.1c-8.1,0-16.3,0-24.4,0c-4.1,0-8.2,0-12.3,0c-0.6,0-1.1,0-1.7,0c-5.8,0-11.6,0-17.4,0
				c-7.1,0-14.2,0-21.3,0c-1.4,0-2.8-0.1-4.1-0.5c-4.7-1.3-7-5.7-5.3-10.5c1-2.8,2.4-5.5,3.7-8.2c5.7-12,11.4-24.1,17.1-36.1
				c2.9-6.1,5.8-12.2,8.7-18.3c1.2-2.4,1.8-4.9,1.8-7.6c0-8.8,0-17.6,0-26.3c0-0.9-0.2-1.4-1-1.9c-2.2-1.2-3.1-3.8-2.5-6.2
				c0.6-2.4,2.7-4.1,5.2-4.1C210.1,199.2,215.1,199.2,220.1,199.2 M223.5,203c-3.9,0-7.8,0-11.7,0c0,0-0.1,0-0.1,0
				c-2.1,0-4.2,0-6.3,0c-1.1,0-1.8,0.5-1.9,1.6c-0.1,1,0.4,1.7,1.4,2c2.2,0.7,2.3,0.8,2.3,3.1c0,9.2,0,18.4,0,27.6
				c0,3.6-0.8,6.9-2.3,10.1c-9.5,20-19,40-28.4,60c-0.4,0.8-0.7,1.7-0.9,2.6c-0.6,2.4,0.6,4.3,2.9,5c1.1,0.3,2.3,0.4,3.4,0.4
				c7.9,0,15.7,0,23.6,0c3.6,0,7.1,0,10.7,0c1.3,0,2.6,0,3.9,0c7.5,0,15,0,22.5,0c5.5,0,10.9,0,16.4,0c5.8,0,7.5-2.8,5.1-8
				c-9.5-20.1-19-40.2-28.5-60.2c-1.4-3-2.1-6-2.1-9.3c0-9.4,0-18.8,0-28.2c0-0.4-0.1-0.9,0.1-1.1c0.4-0.6,0.9-1.4,1.5-1.6
				c1.2-0.4,2.3-0.7,2.1-2.2c-0.2-1.5-1.3-1.6-2.5-1.6c0,0,0,0-0.1,0C230.8,203,227.1,203,223.5,203 M204.4,262c0.4,0,0.9,0,1.4,0
				c2.2,0,4.5,0,6.7,0c3.5,0,7,0,10.5,0c2.1,0,4.2,0,6.4,0c2.8,0,5.6,0,8.4,0c0.5,0,1.2,0.5,1.4,0.9c7,15.2,13.9,30.4,20.8,45.6
				c1,2.2,0.4,3.1-2.1,3.1c-6,0-12,0-18.1,0c-6.5,0-13.1,0-19.6,0c-0.4,0-0.8,0-1.2,0c-6.1,0-12.2,0-18.3,0c-6,0-11.9,0-17.9,0
				c-2.7,0-3.3-0.8-2.1-3.3c6.5-14.3,13-28.5,19.4-42.8C201.6,262.3,201.8,262,204.4,262 M217.7,283c2.2,0,4.2-1.9,4.2-4.2
				c0-2.3-1.9-4.2-4.2-4.2c0,0,0,0,0,0c-2.3,0-4.2,1.8-4.2,4.1C213.5,281.1,215.4,283,217.7,283C217.7,283,217.7,283,217.7,283
				 M229.6,296.6C229.7,296.6,229.7,296.6,229.6,296.6c3.3,0,6.1-2.7,6.1-6c0-3.3-2.7-6.1-6.1-6.1c0,0,0,0,0,0c-3.3,0-6,2.7-6,6
				C223.6,293.9,226.3,296.6,229.6,296.6 M213.2,300c2.5,0,4.7-2.2,4.7-4.7c0-2.5-2.1-4.7-4.7-4.7c0,0,0,0,0,0
				c-2.5,0-4.7,2.2-4.7,4.7C208.5,297.8,210.7,300,213.2,300C213.2,300,213.2,300,213.2,300 M220.1,193.9c-5,0-10,0-15,0
				c-4.9,0-9.2,3.4-10.4,8.2c-1.1,4.2,0.3,8.4,3.4,11c0,7.5,0,15.4,0,24.8c0,1.8-0.4,3.6-1.2,5.3c-2.9,6.1-5.8,12.2-8.7,18.3
				l-2.1,4.4c-5,10.6-10,21.1-15,31.7c-0.3,0.6-0.6,1.3-0.9,1.9c-1.1,2.2-2.1,4.4-3,6.9c-1.3,3.8-1.1,7.7,0.6,10.9
				c1.7,3.2,4.6,5.5,8.3,6.6c2.1,0.6,4.1,0.6,5.5,0.6c7.1,0,14.2,0,21.3,0l8.9,0l8.6,0h1.7l6.1,0l6.1,0c8.1,0,16.3,0,24.4,0
				c0.9,0,2,0,3.1-0.1c6.4-0.6,11.3-5,12.3-11.1c0.7-4-0.6-7.4-1.9-10.2c-5.6-11.7-11.1-23.4-16.6-35.1c-3.9-8.2-7.8-16.4-11.7-24.6
				c-0.9-1.9-1.3-3.6-1.3-5.2c0-3,0-6.1,0-9.1c0-5.4,0-10.7,0-16.1c3.1-2.7,4.4-6.9,3.4-11c-1.2-4.8-5.5-8.1-10.4-8.1
				C230.3,193.9,225.2,193.9,220.1,193.9L220.1,193.9z M206.4,256.6c1.1-2.3,2.2-4.6,3.3-6.9c1.9-4,2.8-8.1,2.8-12.5
				c0-6.4,0-13,0-19.3c0-2.8,0-5.5,0-8.3c0-0.5,0-0.9,0-1.3l5.2,0l5.9,0c1.5,0,3,0,4.5,0c0,0.6,0,1,0,1.3l0,0l0,9.1
				c0,6.3,0,12.7,0,19c0,4,0.9,7.9,2.6,11.6c1.1,2.4,2.3,4.8,3.4,7.3c-1.7,0-3.3,0-4.7,0l-3.3,0l-3.1,0c-1.7,0-3.5,0-5.2,0
				c-1.8,0-3.5,0-5.3,0C210.2,256.7,208.2,256.7,206.4,256.6L206.4,256.6z"/>
		</g>
		<g>
			<path class="st1" d="M269.4,375.6c-4.6,0-9-1.6-13.1-4.8c-9.2-7.2-19.2-15.2-31.5-25.3c-5.5-4.5-8.3-11.5-7.4-18.8
				c0.8-7.5,5.2-13.9,11.7-17.2c3.5-1.8,7.1-2.7,10.5-2.7c4.8,0,9.4,1.7,13.8,5.2c1.3,1,2.5,2,3.8,3l0.7-0.7
				c7.5-7.4,15.8-15.4,26.2-25.2c3.8-3.6,9-5.6,14.4-5.6c9.4,0,17.8,5.8,20.8,14.4c3.2,8.9,1.3,17.1-5.5,23.8
				c-4.5,4.4-9,8.7-13.5,13.1c-2.7,2.6-5.4,5.2-8.1,7.8l-1.3,1.3l-2.3-1.9c1.8,2.9,2.9,6.1,3.4,10l0,0.1l0,0.1
				c0.3,9.4-3.8,16.7-11.8,20.9C276.4,374.6,272.9,375.6,269.4,375.6z M250.5,352.4c0.9,0.8,1.8,1.6,2.8,2.4
				c3.3,2.8,6.7,5.8,10.3,8.5c1.8,1.3,3.7,2,5.9,2l0,0c1.4,0,2.8-0.3,4.3-0.9c4.2-1.7,7-5.1,7.7-9.2c0.6-4.1-1.1-8.3-4.6-11.2
				c-3.1-2.5-6.2-5-9.2-7.5l-2.5-2L250.5,352.4z M268.3,324c4.9,4,9.8,7.9,14.7,11.8c0.2,0.1,0.4,0.3,0.5,0.4l6.3-6l-16-16.6
				c-0.9,0.8-1.7,1.6-2.6,2.4c-1.9,1.7-3.8,3.4-5.6,5.2l-0.4,0.3C266.2,322.3,267.3,323.2,268.3,324z"/>
			<path class="st2" d="M298.3,285.4c8,0,15.9,4.8,18.9,13c2.9,8.2,1.2,15.5-5,21.6c-7.2,7-14.4,13.9-21.6,20.9l-4.8-3.9
				c2.1-2.1,4.3-4.1,6.4-6.2c0.3-0.2,0.5-0.5,0.5-0.6c-6.4-6.7-12.7-13.2-18.8-19.5c-3.2,2.9-6.5,5.9-9.8,8.9l-4.9-4
				c8.6-8.5,17.4-16.9,26.2-25.2C289,287,293.7,285.4,298.3,285.4 M297.6,325c0.6-0.4,1.1-0.6,1.5-1c3.1-3,6.2-5.9,9.2-8.9
				c2.5-2.4,3.8-5.4,3.9-8.9c0-0.7-0.8-1.3-1.2-2c-0.6,0.5-1.2,1-1.8,1.5c-0.2,0.2-0.2,0.6-0.2,0.9c-0.2,2.8-1.5,5-3.5,6.9
				c-1.6,1.6-3.3,3.1-4.9,4.7c-1.3,1.3-2.7,2.5-3.9,3.8c-0.4,0.4-0.6,1.3-0.5,1.9C296.5,324.3,297.2,324.6,297.6,325 M239.5,308.8
				c4.3,0,8.5,1.6,12.5,4.7c10,7.9,19.8,16,29.7,23.9c4.5,3.6,7.1,8.2,8,14.6c0.2,7.9-2.9,14.9-10.7,19c-3.2,1.7-6.4,2.5-9.6,2.5
				c-4.1,0-8.1-1.5-11.9-4.4c-10.6-8.3-21.1-16.8-31.5-25.3c-10.6-8.7-8.5-26.3,3.9-32.6C233.2,309.6,236.4,308.8,239.5,308.8
				 M238.6,318.2c0.2,0,0.3,0,0.5,0c0.2,0,0.4,0,0.6,0c2.5,0,4.7,1,6.7,2.6c1.8,1.4,3.5,2.9,5.3,4.3c1.4,1.1,2.8,2.3,4.3,3.4
				c0.3,0.2,0.8,0.3,1.3,0.3c0.2,0,0.4,0,0.6-0.1c0.4-0.1,0.6-0.8,0.9-1.3c-0.4-0.6-0.7-1.1-1.1-1.4c-3.3-2.7-6.6-5.4-10-8
				c-2.4-1.9-5.2-2.8-8.1-2.8c-0.4,0-0.8,0-1.2,0c-0.7,0.1-1.2,0.9-1.8,1.4c0.6,0.5,1.1,1.1,1.7,1.6
				C238.3,318.2,238.4,318.2,238.6,318.2 M269.4,367.3c1.7,0,3.4-0.4,5.1-1c10.4-4.2,12.3-16.8,3.6-23.9c-4.2-3.5-8.5-6.9-12.8-10.3
				c-0.3-0.2-0.6-0.4-0.7-0.5c-5.8,7.2-11.5,14.3-16.9,21.1c4.8,4,9.5,8.3,14.6,12.2C264.4,366.5,266.8,367.3,269.4,367.3
				 M298.3,281.3c-6,0-11.6,2.2-15.8,6.2c-10.1,9.6-18.3,17.4-25.6,24.7c-0.8-0.6-1.6-1.2-2.3-1.9c-4.7-3.7-9.8-5.6-15.1-5.6h0
				c-3.8,0-7.6,1-11.4,2.9c-7.1,3.6-11.9,10.6-12.8,18.8c-0.9,8,2.2,15.7,8.2,20.7c12.3,10.1,22.3,18.1,31.6,25.4
				c4.5,3.5,9.3,5.3,14.4,5.3c3.8,0,7.7-1,11.5-3c8.6-4.5,13.2-12.6,12.9-22.7l0-0.2l0-0.2c-0.3-2.3-0.8-4.5-1.6-6.5l1.2-1.2
				c2.7-2.6,5.4-5.2,8.1-7.8c4.4-4.3,9-8.7,13.5-13c7.4-7.2,9.5-16.2,6-25.9C317.7,287.6,308.6,281.3,298.3,281.3L298.3,281.3z
				 M268.4,321.4c1.4-1.3,2.8-2.6,4.2-3.9c0.4-0.3,0.7-0.7,1.1-1l10.1,10.5l3,3.1l-0.2,0.2c-1.1,1.1-2.2,2.1-3.3,3.2
				c-4.6-3.7-9.3-7.4-13.8-11.1C269.2,322.1,268.8,321.7,268.4,321.4L268.4,321.4z M253.3,352.1l11.9-14.8c0.3,0.3,0.6,0.5,1,0.8
				c3,2.4,6.1,4.9,9.2,7.4c3,2.5,4.4,5.9,3.9,9.3c-0.5,3.4-2.9,6.2-6.4,7.6c-1.2,0.5-2.4,0.7-3.5,0.7c-1.7,0-3.2-0.5-4.6-1.6
				c-3.5-2.7-6.9-5.6-10.2-8.4C254.2,352.8,253.7,352.5,253.3,352.1L253.3,352.1z"/>
		</g>
		<polygon class="st2" points="238.6,259.2 202.4,259.2 208.5,239.1 208.5,204.9 231.1,204.9 231.1,244.9 		"/>
	</g>
</g>
</svg>
