<?xml version="1.0" encoding="utf-8"?>
<!-- Generator: Adobe Illustrator 24.0.0, SVG Export Plug-In . SVG Version: 6.00 Build 0)  -->
<svg version="1.1" id="Layer_1" xmlns="http://www.w3.org/2000/svg" xmlns:xlink="http://www.w3.org/1999/xlink" x="0px" y="0px"
	 viewBox="0 0 417.06 417.06" style="enable-background:new 0 0 417.06 417.06;" xml:space="preserve">
<style type="text/css">
	.st0{fill:#FFFFFF;stroke:#F08116;stroke-width:11.6343;stroke-miterlimit:10;}
	.st1{fill:#278492;}
	.st2{fill:#2E8795;}
	.st3{fill:#FFFFFF;}
	.st4{fill:none;stroke:#278492;stroke-width:4.6537;stroke-miterlimit:10;}
	.st5{fill:none;stroke:#F08116;stroke-width:11.6343;stroke-miterlimit:10;}
	.st6{fill:#1D7F8D;}
	.st7{fill:none;stroke:#2E8795;stroke-width:3.4903;stroke-linecap:round;stroke-miterlimit:10;}
</style>
<g>
	<circle class="st0" cx="208.53" cy="208.53" r="197.38"/>
	<g>
		<path class="st2" d="M328.71,155.54c0,6.9,0,13.81,0,20.71c-0.05,0.39-0.13,0.78-0.14,1.17c-0.04,1.6,0,3.21-0.1,4.8
			c-0.31,4.73-0.59,9.47-1.05,14.19c-0.47,4.84-1.04,9.67-1.73,14.49c-1.11,7.74-2.64,15.4-4.57,22.98
			c-3.24,12.77-7.62,25.14-13.53,36.93c-7.17,14.3-16.26,27.21-27.74,38.38c-14.21,13.84-30.73,23.84-49.62,29.89
			c-5.69,1.82-11.49,3.21-17.43,4.01c-0.57,0.08-1.13,0.21-1.7,0.32c-1.6,0-3.2,0-4.81,0c-0.17-0.06-0.33-0.14-0.51-0.16
			c-3.89-0.46-7.72-1.21-11.51-2.16c-15.17-3.81-29.08-10.33-41.8-19.4c-13.63-9.73-24.83-21.78-33.98-35.78
			c-8.33-12.74-14.49-26.49-19.06-40.98c-2.77-8.79-4.89-17.73-6.52-26.8c-1.14-6.37-2.05-12.77-2.69-19.2
			c-0.42-4.23-0.7-8.47-1.02-12.71c-0.44-5.99-0.56-12-0.61-18.01c-0.07-7.43,0.14-14.85,0.5-22.27c0.16-3.17,0.34-6.34,0.59-9.5
			c0.32-4.15,0.7-8.29,1.07-12.43c0.11-1.26,0.18-2.53,0.43-3.76c0.67-3.21,2.61-5.36,5.7-6.48c8.76-3.18,17.53-6.35,26.29-9.53
			c27.39-9.94,54.78-19.88,82.16-29.83c2.28-0.83,4.49-0.84,6.76,0c3.95,1.48,7.92,2.89,11.88,4.33
			c27.62,10.02,55.24,20.04,82.86,30.06c4.66,1.69,9.32,3.35,13.96,5.09c3.22,1.21,5.1,3.59,5.52,7.01
			c0.31,2.57,0.55,5.14,0.76,7.72c0.37,4.48,0.76,8.96,1.03,13.45c0.23,3.81,0.3,7.63,0.45,11.45
			C328.58,154.2,328.66,154.87,328.71,155.54z M310.05,128.01c-0.41-0.16-0.72-0.28-1.04-0.39c-33.09-12.01-66.18-24.01-99.26-36.03
			c-0.7-0.26-1.31-0.27-2.03-0.01c-31.93,11.6-63.86,23.19-95.79,34.77c-1.5,0.54-3,1.1-4.5,1.65c-0.03,0.2-0.05,0.35-0.06,0.5
			c-0.35,4.33-0.78,8.65-1.03,12.99c-0.32,5.63-0.58,11.26-0.72,16.9c-0.22,8.66-0.13,17.32,0.46,25.96
			c0.33,4.85,0.69,9.71,1.19,14.55c0.62,6.1,1.55,12.15,2.68,18.18c1.7,9.03,3.95,17.91,6.91,26.6
			c4.01,11.77,9.24,22.95,16.09,33.35c8.88,13.47,19.88,24.84,33.47,33.62c12.06,7.79,25.11,13.13,39.32,15.51
			c1.06,0.18,2.14,0.37,3.21,0.34c1.25-0.04,2.51-0.29,3.75-0.51c6.75-1.2,13.29-3.14,19.65-5.7c14.29-5.74,26.83-14.12,37.62-25.11
			c9.16-9.33,16.49-19.98,22.37-31.64c8.17-16.23,13.13-33.48,16.06-51.34c0.77-4.68,1.36-9.38,1.89-14.09
			c0.46-4.1,0.78-8.22,1.06-12.33c0.23-3.32,0.32-6.65,0.44-9.97c0.24-6.59,0.21-13.19,0.01-19.78c-0.09-2.93-0.16-5.85-0.32-8.77
			c-0.25-4.37-0.56-8.73-0.86-13.09C310.43,132.1,310.23,130.08,310.05,128.01z"/>
		<path class="st2" d="M243.3,187.53c1.21,0,2.29,0.01,3.36,0c6.4-0.08,11.97,4.97,12.56,11.34c0.05,0.49,0.09,0.98,0.09,1.47
			c0,16.73,0.01,33.47,0,50.2c0,5.33-3.03,9.92-7.83,11.94c-1.71,0.72-3.49,0.98-5.32,0.98c-9.77,0-19.53,0-29.3,0
			c-15.19,0-30.38-0.01-45.57,0.01c-3.13,0-5.97-0.8-8.41-2.8c-3.12-2.55-4.73-5.86-4.76-9.9c-0.03-5.3-0.01-10.6-0.01-15.9
			c0-11.52-0.01-23.05,0-34.57c0-5.76,3.68-10.71,9.15-12.26c1.08-0.31,2.24-0.4,3.37-0.48c1.1-0.08,2.22-0.02,3.45-0.02
			c0.01-0.39,0.03-0.74,0.03-1.1c0-8.1-0.01-16.21,0-24.31c0.01-5.98,1.88-11.33,5.68-15.94c4.15-5.04,9.48-8.06,15.96-8.97
			c1.22-0.17,2.45-0.25,3.68-0.26c6.19-0.03,12.39-0.02,18.58-0.01c3.43,0,6.76,0.57,9.89,1.98c8.26,3.71,13.33,10.01,14.99,18.94
			c0.29,1.56,0.36,3.18,0.37,4.78c0.04,7.89,0.02,15.78,0.02,23.67C243.3,186.66,243.3,187.03,243.3,187.53z M226.35,187.49
			c0-0.37,0-0.64,0-0.91c0-8.16,0-16.32-0.01-24.48c0-0.58-0.04-1.18-0.17-1.74c-0.85-3.83-4.1-6.45-8.04-6.47
			c-6.28-0.02-12.56-0.02-18.85,0.01c-0.73,0-1.47,0.12-2.18,0.3c-2.98,0.73-6.06,3.62-6.04,8.1c0.02,8.13,0.01,16.26,0.01,24.39
			c0,0.26,0.05,0.53,0.08,0.81C202.88,187.49,214.54,187.49,226.35,187.49z M203.51,224.29c0,0.18,0,0.55,0,0.92
			c0,6.16,0.03,12.32-0.02,18.49c-0.01,1.37,0.96,2.78,2.57,2.81c1.79,0.03,3.57,0.05,5.36-0.01c1.45-0.04,2.44-1.12,2.5-2.57
			c0.01-0.31,0.01-0.62,0.01-0.92c0-6.01,0.01-12.02-0.01-18.02c0-0.66,0.2-1.04,0.74-1.42c2.88-2.03,4.43-4.84,4.55-8.36
			c0.22-6.54-5.77-11.72-12.22-10.62c-7.92,1.35-11.47,10.72-6.39,16.94C201.38,222.49,202.41,223.26,203.51,224.29z"/>
	</g>
</g>
</svg>
