<?xml version="1.0" encoding="utf-8"?>
<!-- Generator: Adobe Illustrator 24.0.0, SVG Export Plug-In . SVG Version: 6.00 Build 0)  -->
<svg version="1.1" id="Layer_1" xmlns="http://www.w3.org/2000/svg" xmlns:xlink="http://www.w3.org/1999/xlink" x="0px" y="0px"
	 viewBox="0 0 417.06 417.06" style="enable-background:new 0 0 417.06 417.06;" xml:space="preserve">
<style type="text/css">
	.st0{fill:#FFFFFF;stroke:#F08116;stroke-width:11.6343;stroke-miterlimit:10;}
	.st1{fill:#278492;}
	.st2{fill:#2E8795;}
	.st3{fill:#FFFFFF;}
	.st4{fill:none;stroke:#278492;stroke-width:4.6537;stroke-miterlimit:10;}
	.st5{fill:none;stroke:#F08116;stroke-width:11.6343;stroke-miterlimit:10;}
	.st6{fill:#1D7F8D;}
	.st7{fill:none;stroke:#2E8795;stroke-width:3.4903;stroke-linecap:round;stroke-miterlimit:10;}
	.st8{fill-rule:evenodd;clip-rule:evenodd;fill:#2E8795;}
	.st9{clip-path:url(#SVGID_1_);}
</style>
<g>
	<circle class="st0" cx="208.53" cy="208.53" r="197.38"/>
	<g>
		<path class="st1" d="M327.47,306.64c-15.88-23.93-15.94-47.06-0.18-71.14c0.89-1.35,1.68-3.9,1.01-4.9
			c-0.89-1.33-3.19-2.19-4.97-2.37c-3.64-0.35-7.33-0.1-11.77-0.1v-6.84c0-42.77,0-85.54-0.01-128.33c-0.01-6.3-1.01-7.27-7.34-7.28
			c-12.29-0.01-24.58-0.01-36.88,0c-7.78,0-8.1,0.28-8.1,7.85c-0.01,42.44,0,84.87,0,127.31v6.85h-14.17v-6.89
			c0-30.98,0.01-61.96-0.04-92.95c-0.01-1.8-0.01-3.85-0.82-5.36c-6.02-11.28-12.17-22.49-18.46-33.63c-2.26-4-5.7-3.88-8.07,0.17
			c-3.13,5.38-5.58,11.21-9.15,16.26c-8.47,11.97-10.61,25-10.15,39.49c0.84,26.08,0.28,52.19,0.13,78.29
			c-0.01,1.67-1.53,4.72-2.46,4.77c-7.68,0.38-15.39,0.21-23.32,0.21c0-1.18-0.08-1.84,0.01-2.46c3.72-24.95,7.45-49.91,11.19-74.86
			c2.45-16.3,4.94-32.59,7.35-48.91c0.88-5.96-0.19-7.42-5.68-8.35c-2.98-0.51-5.96-1.01-8.95-1.45
			c-15.15-2.21-30.3-4.37-45.44-6.64c-4.7-0.71-6.93,1.14-7.34,5.83c-0.3,3.52-1.03,6.99-1.55,10.48
			c-4.88,32.78-9.74,65.55-14.63,98.33c-1.38,9.27-2.86,18.53-4.27,27.59c-6.39,0.9-6.39,0.9-9.81,5.88
			c-15.29,22.21-14.92,53.93,0.75,76.04c2.17,3.06,4.55,4.35,8.36,4.32c18.53-0.17,37.05-0.08,55.57-0.05c1.46,0,2.9,0.2,4.9,0.35
			c0,4.19-0.21,8.05,0.09,11.87c0.16,1.97,0.91,5.25,1.98,5.51c1.84,0.44,4.5-0.52,6.19-1.76c4.96-3.65,9.61-7.72,14.49-11.72
			c5.3,4.42,10.09,8.65,15.18,12.49c1.37,1.03,3.9,1.57,5.44,1.02c1.1-0.38,1.93-2.91,2.04-4.54c0.27-4.29,0.09-8.59,0.09-13.27
			h44.77c23.24,0,46.48,0.04,69.72-0.1c1.78-0.01,4.12-0.85,5.11-2.14C329.01,310.62,328.35,307.97,327.47,306.64z M267.61,213.26
			c5.8,0,11.31,0.01,16.82,0c1.69,0,3.61,0.51,4.98-0.14c1.7-0.81,2.93-2.58,4.37-3.93c-1.54-1.45-2.95-3.98-4.62-4.15
			c-5.34-0.55-10.75-0.19-16.14-0.23c-1.66-0.01-3.3-0.15-5.33-0.25v-15.24c3.24,0,6.24,0.15,9.2-0.04c3.44-0.21,8.61,1.4,8.63-4.13
			c0.02-5.86-5.35-4.15-8.92-4.4c-2.82-0.19-5.66-0.04-8.88-0.04v-15.5h17.19c1.34,0,2.96,0.44,3.98-0.13
			c1.8-1.02,3.23-2.67,4.82-4.05c-1.53-1.41-2.92-3.84-4.6-4.05c-4.48-0.57-9.07-0.13-13.6-0.19c-2.51-0.02-5-0.22-7.84-0.36v-15.37
			c4.35,0,8.56,0.41,12.62-0.18c1.94-0.28,4.79-2.25,5.13-3.89c0.74-3.55-2.27-4.24-5.26-4.21c-4.01,0.03-8.02,0.01-12.44,0.01
			v-15.92h19.74c2.96,0,6.16-0.01,6.19-4.07c0.03-4.09-3.12-4.12-6.12-4.11c-6.52,0.02-13.04,0-19.88,0V94.11
			c1.66-0.11,3.27-0.3,4.89-0.31c8.41-0.03,16.84,0.21,25.24-0.1c4.37-0.16,5.79,1.05,5.76,5.61c-0.2,32.31-0.12,64.63-0.13,96.94
			c-0.01,8.42,0.03,16.84,0,25.26c-0.01,1.97-0.23,3.94-0.37,6.17h-35.41V213.26z M236.87,134.17c-0.14,14.83-0.06,29.64-0.06,44.47
			c0,14.82-0.12,29.63,0.08,44.46c0.06,3.94-1.39,4.95-5.01,4.73c-3.15-0.19-5.85,0.28-5.82-4.53c0.19-29.8,0.21-59.61,0.02-89.41
			c-0.04-5.09,2.86-4.5,6.1-4.78C236.23,128.75,236.91,130.65,236.87,134.17z M221.79,98.37c4.18,7.64,7.89,14.4,12,21.88h-23.96
			C213.83,112.91,217.5,106.21,221.79,98.37z M207.2,129.44h10.24v16.15c0,25.57,0,51.15-0.02,76.72c-0.01,5.84-1.18,6.4-10.22,4.84
			V129.44z M132.9,95.18c16.3,2.41,32.18,4.76,48.6,7.19c-1.46,10.07-2.8,19.67-4.24,29.27c-4.59,30.6-9.3,61.2-13.73,91.84
			c-0.54,3.66-1.74,4.72-5.34,4.67c-13.63-0.19-27.28-0.05-40.91-0.07c-1.14,0-2.27-0.22-4.16-0.41
			C119.71,183.55,126.25,139.72,132.9,95.18z M162.56,305.3c-1.78,0.15-3.4,0.39-5,0.39c-17.17,0.02-34.34-0.1-51.51,0.08
			c-3.54,0.04-5.53-1.23-7.18-4.18c-11.46-20.56-11.51-41.08,0.3-61.42c1.09-1.88,4.06-3.79,6.17-3.8
			c69.19-0.19,138.38-0.16,207.57-0.15c0.98,0,1.97,0.16,3.71,0.31c-1.17,2.48-2.27,4.2-2.83,6.09c-1.06,3.62-3.5,4.23-6.9,4.22
			c-36.19-0.1-72.38-0.08-108.59-0.09c-28.45,0-56.9,0.06-85.35-0.05c-4-0.01-6.23,1.45-7.29,5.34
			c-3.51,12.82-3.61,25.56,0.18,38.36c1.1,3.71,3.32,4.99,7.04,4.96c13.98-0.1,27.95-0.03,41.92-0.02h7.75V305.3z M143.69,267.06
			c-1.01,0-2.02,0.02-3.03,0.01c-2.84-0.03-5.56,0.89-4.92,4.06c0.3,1.55,3.09,3.58,4.85,3.68c7.2,0.41,14.43,0.17,22.08,0.17v12.16
			h-7.08c-12.61,0.02-25.24-0.04-37.86,0.09c-3.22,0.04-5.29-0.87-5.33-4.33c-0.11-7.68-0.18-15.37-0.14-23.05
			c0.02-4.11,2.38-5.01,6.27-5c44.59,0.14,89.19,0.1,133.78,0.1c17.17,0,34.33,0.01,51.5,0.01h5.57c-0.65,4.33-1.16,7.8-1.8,12.1
			H143.69z M309.35,286.9H209.14v-11.49h98.51C308.23,279.34,308.77,282.95,309.35,286.9z M209.39,305.39
			c-0.18-1.09-0.38-1.89-0.43-2.7c-0.39-7.33-0.36-7.36,6.87-7.36c28.96-0.01,57.91,0,86.87-0.01c9.67,0,9.67,0,13.58,10.07H209.39z
			"/>
		<path class="st1" d="M144.98,114.48c6.49,0.98,12.98,1.91,19.45,2.97c3.69,0.6,5.03,2.96,4.49,6.57
			c-3.93,26.12-7.88,52.23-11.73,78.36c-0.66,4.48-3,6.07-7.3,5.41c-5.65-0.87-11.33-1.6-16.97-2.54c-5.51-0.92-6.62-2.37-5.81-7.86
			c3.09-20.97,6.27-41.92,9.43-62.88c0.75-4.99,1.6-9.97,2.28-14.96C139.33,115.89,141.21,114.13,144.98,114.48z M148.23,197.98
			c3.63-24.39,7.13-47.93,10.66-71.69c-2.54-0.43-4.4-0.53-6.13-1.07c-4.26-1.32-5.61,0.42-5.98,4.55
			c-0.5,5.69-1.64,11.32-2.49,16.97c-2.42,16.28-4.84,32.56-7.32,49.32C140.77,196.71,144.16,197.29,148.23,197.98z"/>
	</g>
</g>
</svg>
