<?xml version="1.0" encoding="utf-8"?>
<!-- Generator: Adobe Illustrator 24.0.0, SVG Export Plug-In . SVG Version: 6.00 Build 0)  -->
<svg version="1.1" id="Layer_1" xmlns="http://www.w3.org/2000/svg" xmlns:xlink="http://www.w3.org/1999/xlink" x="0px" y="0px"
	 viewBox="0 0 417.06 417.06" style="enable-background:new 0 0 417.06 417.06;" xml:space="preserve">
<style type="text/css">
	.st0{fill:#FFFFFF;stroke:#F08116;stroke-width:11.6343;stroke-miterlimit:10;}
	.st1{fill:#278492;}
	.st2{fill:#2E8795;}
	.st3{fill:#FFFFFF;}
	.st4{fill:none;stroke:#278492;stroke-width:4.6537;stroke-miterlimit:10;}
	.st5{fill:none;stroke:#F08116;stroke-width:11.6343;stroke-miterlimit:10;}
	.st6{fill:#1D7F8D;}
	.st7{fill:none;stroke:#2E8795;stroke-width:3.4903;stroke-linecap:round;stroke-miterlimit:10;}
	.st8{fill-rule:evenodd;clip-rule:evenodd;fill:#2E8795;}
	.st9{clip-path:url(#SVGID_1_);}
</style>
<g>
	<circle class="st0" cx="208.53" cy="208.53" r="197.38"/>
	<g>
		<path class="st2" d="M335.02,234.9c-1.06,4.04-2.27,7.99-5,11.33c-4.77,5.84-10.91,8.81-18.39,8.86
			c-11.33,0.07-22.67,0.02-34,0.02c-0.88,0-1.75,0-2.98,0c1.88,5.16,3.64,9.98,5.41,14.8c7.43,20.21,14.84,40.42,22.31,60.61
			c1.28,3.46,1.64,6.69-1.22,9.56c-3.37,3.38-8.97,2.72-11.42-1.38c-0.59-0.98-1.04-2.05-1.44-3.12
			c-9.57-26.05-19.14-52.1-28.63-78.18c-0.69-1.91-1.65-2.36-3.55-2.39c-1.9-0.02-2.69,0.65-3.31,2.36
			c-9.37,25.95-18.76,51.89-28.28,77.78c-0.81,2.19-2.27,4.42-4.03,5.92c-2.34,1.98-5.81,1.5-8.23-0.38
			c-2.47-1.92-3.57-5.03-2.48-8.14c3.17-9.04,6.47-18.03,9.74-27.03c5.79-15.93,11.59-31.85,17.38-47.77
			c0.28-0.76,0.48-1.55,0.79-2.57c-3.49,0-6.81,0-9.94,0c0.24-4.32,0.44-8.44,0.74-12.55c0.06-0.77,0.51-1.54,0.87-2.27
			c4.89-9.82,9.83-19.63,14.69-29.47c4.14-8.37,3.7-16.45-1.83-24.1c-8.61-11.9-28.01-11.43-35.7,1.09
			c-3.55,5.78-6.32,12.03-9.45,18.07c-0.37,0.72-0.75,1.44-1.26,2.43c-3.93-1.94-7.65-4.23-11.68-5.65
			c-5.28-1.86-6.76-4.95-6.58-10.56c0.51-16.17,0.01-32.36,0.34-48.54c0.26-12.49,10.49-22.01,23.11-22.1
			c11.99-0.08,23.98-0.02,35.97-0.02c24.39,0,48.79,0.2,73.17-0.08c12.07-0.14,22.51,7.63,24.52,19.39c0.05,0.31,0.23,0.6,0.36,0.9
			C335.02,172.79,335.02,203.85,335.02,234.9z M256.42,167.9c12.96,0,25.93-0.02,38.89,0.02c2.85,0.01,5.15-0.93,6.72-3.31
			c1.52-2.3,1.62-4.8,0.44-7.26c-1.5-3.12-4.26-4.09-7.52-4.09c-25.68,0.01-51.36-0.01-77.04,0.03c-1.36,0-2.82,0.2-4.07,0.69
			c-3.11,1.24-4.87,4.64-4.25,7.78c0.73,3.71,3.45,6.11,7.21,6.12C230,167.92,243.21,167.9,256.42,167.9z M279.44,208.75
			c-5.5,0-11-0.14-16.49,0.08c-1.67,0.07-3.53,0.81-4.91,1.79c-2.4,1.71-3.1,4.98-2.17,7.78c1,2.99,3.49,4.85,7.19,4.97
			c4.51,0.14,9.02,0.05,13.54,0.05c6.32,0,12.64,0.11,18.95-0.05c4.76-0.11,7.78-3.23,7.68-7.5c-0.1-4.25-3.31-7.1-8.03-7.11
			C289.94,208.73,284.69,208.74,279.44,208.75z M279.3,195.58c5.33,0,10.66,0.03,15.99-0.01c4.79-0.04,7.9-2.9,7.94-7.18
			c0.04-4.29-3.08-7.3-7.8-7.32c-10.74-0.05-21.49-0.05-32.23,0c-4.6,0.02-7.62,2.93-7.65,7.17c-0.03,4.35,3.01,7.27,7.75,7.32
			C268.64,195.62,273.97,195.58,279.3,195.58z"/>
		<path class="st2" d="M231.23,203.74c-2.72,5.6-5.55,11.14-8.33,16.72c-2.93,5.86-5.93,11.69-8.72,17.62
			c-0.61,1.29-0.87,3.01-0.6,4.39c2.05,10.46-6.53,21.92-17.16,23.05c-4.77,0.5-9.1-0.44-13.29-2.54
			c-7.24-3.62-14.48-7.24-22.19-11.1v3.17c0,25.87,0,51.75,0,77.63c0,6.97-2.69,9.63-9.71,9.63c-14.62,0-29.24,0-43.85,0
			c-6.06,0-8.91-2.83-8.91-8.87c0-12.56-0.03-25.13,0.04-37.7c0.01-1.65-0.51-2.4-1.99-3.1C87.7,288.5,83,281.46,82.75,271.71
			c-0.2-7.8-0.05-15.6-0.04-23.41c0.03-22.69,14.51-41.07,36.58-46.39c2.14-0.51,4.33-0.8,6.62-1.22
			c-18.94-2.98-29.74-18.73-28.36-35.24c0.25-2.92,0.93-5.76,1.99-8.45c0.27,0.3,0.65,0.54,1.15,0.75
			c14.08,5.93,28.08,5.7,41.95-0.63c4.62-2.11,8.84-4.87,12.27-8.66c3.26,4.08,5.53,8.97,6.53,14.33
			c2.83,15.28-6.06,32.7-24.98,37.71c3.07,0.38,6.26,0.31,9.16,1.21c5.29,1.65,10.57,3.52,15.56,5.92
			c13.73,6.61,27.31,13.54,41.16,20.44c0.4-0.75,0.8-1.44,1.16-2.14c4.74-9.44,9.49-18.88,14.19-28.34
			c1.12-2.25,2.65-3.96,5.15-4.56c2.97-0.71,5.57,0.06,7.54,2.41C232.48,197.98,232.63,200.86,231.23,203.74z"/>
	</g>
	<g>
		<path class="st2" d="M95.88,169.76c-1.31,0-2.62-0.42-3.78-1.21c-2.26-1.54-3.31-3.79-2.98-6.33c0.42-3.19,0.84-6.38,1.25-9.57
			l-2.23-2.69c-1.46-1.76-2.96-3.96-2.99-6.88c-0.03-3.1-0.03-6.21-0.02-9.41l0-5.7c-0.33-0.16-0.65-0.31-0.98-0.47
			c-2.95-1.41-5.92-2.79-8.88-4.18l-4.13-1.93c-0.26-0.12-0.52-0.24-0.78-0.35c-0.77-0.34-1.65-0.72-2.5-1.28
			c-0.8-0.53-2.68-1.99-2.65-4.11c0.02-2.16,1.96-3.69,2.98-4.2c3.17-1.58,6.41-3.12,9.54-4.61l12.81-6.1
			c8.45-4.02,17.18-8.17,25.75-12.31c2.03-0.98,3.99-1.46,5.99-1.46c1.94,0,3.92,0.48,5.88,1.42c7.87,3.78,15.74,7.54,23.62,11.3
			c8.01,3.82,16.02,7.65,24.02,11.49c1.1,0.53,1.82,1.38,2.34,2c0.14,0.17,0.28,0.34,0.44,0.49l2.1,2.11l-2.16,2.05
			c-0.17,0.16-0.32,0.33-0.48,0.5c-0.54,0.59-1.22,1.32-2.2,1.85c-1.61,0.86-3.26,1.63-4.85,2.37c-0.65,0.3-1.31,0.61-1.96,0.92
			l-10.05,4.8v1.27c0,1.41,0.01,2.79,0.01,4.15c0.02,3.29,0.03,6.4-0.05,9.56c-0.08,3.15-1.78,5.49-3.6,7.55
			c-3.2,3.62-7.24,6.52-12.37,8.86c-6.88,3.14-13.91,4.74-20.87,4.74c-6.5,0-13.1-1.39-19.6-4.13c-0.04-0.02-0.08-0.04-0.12-0.05
			c0.08,0.63,0.17,1.25,0.25,1.88c0.35,2.62-0.72,4.91-3.03,6.47C98.45,169.35,97.17,169.76,95.88,169.76L95.88,169.76z
			 M120.23,116.43c0.24,0,0.48,0.01,0.72,0.03c0.49,0.04,0.91,0.06,1.29,0.06c1.22,0,2.09-0.21,2.83-0.7
			c0.05-0.03,0.09-0.06,0.13-0.09c-0.04-0.04-0.1-0.08-0.16-0.12c-0.64-0.44-1.72-0.71-2.82-0.71c-1.06,0-2.05,0.25-2.6,0.67
			c-0.15,0.11-0.29,0.29-0.37,0.41c-0.02,0.18-0.04,0.35-0.07,0.51C119.53,116.45,119.88,116.43,120.23,116.43z"/>
		<path class="st3" d="M122.27,89.89c1.52,0,3.04,0.37,4.62,1.13c15.87,7.62,31.77,15.17,47.64,22.79c0.79,0.38,1.33,1.28,1.98,1.93
			c-0.68,0.64-1.25,1.47-2.05,1.89c-2.18,1.17-4.46,2.16-6.69,3.23c-7.91,3.77-15.81,7.55-23.72,11.32
			c-5.87,2.8-11.75,5.57-17.61,8.39c-1.4,0.67-2.79,1.01-4.18,1.01c-1.38,0-2.77-0.34-4.17-1.01c-6.14-2.96-12.3-5.86-18.44-8.83
			c-0.55-0.27-0.96-0.81-1.44-1.23c0.49-0.41,0.92-0.93,1.47-1.22c6.08-3.19,12.16-6.37,18.28-9.47c0.66-0.33,1.49-0.5,2.26-0.5
			c0.16,0,0.31,0.01,0.46,0.02c0.52,0.05,1.03,0.07,1.54,0.07c1.56,0,3.05-0.27,4.42-1.17c2.12-1.4,2.11-3.61,0.02-5.04
			c-1.17-0.8-2.82-1.22-4.47-1.22c-1.62,0-3.23,0.41-4.35,1.25c-0.71,0.54-1.44,1.51-1.5,2.34c-0.07,1.06-0.41,1.51-1.28,1.96
			c-5.37,2.76-10.72,5.57-16.09,8.34c-0.87,0.45-1.83,0.73-2.66,1.23c-0.76,0.45-1.42,1.09-2.46,1.91
			c-2.66-1.31-5.55-2.77-8.48-4.16c-4.33-2.06-8.68-4.08-13.03-6.12c-0.98-0.46-2.02-0.83-2.92-1.42c-0.59-0.39-1.35-1.09-1.34-1.65
			c0.01-0.56,0.76-1.33,1.37-1.63c4.02-2,8.09-3.91,12.14-5.84c11.98-5.71,23.97-11.38,35.92-17.15
			C119.15,90.28,120.71,89.89,122.27,89.89 M156.05,129.56c0,4.76,0.08,9.2-0.03,13.63c-0.06,2.27-1.42,4.06-2.87,5.7
			c-3.17,3.59-7.09,6.17-11.39,8.14c-6.53,2.98-13.08,4.47-19.67,4.47c-6.14,0-12.3-1.3-18.47-3.9c-1.03-0.43-1.47-0.98-1.6-2.12
			c-0.72-6.31-1.56-12.61-2.34-18.91c-0.06-0.45-0.05-0.91-0.08-1.62c0.72,0.32,1.27,0.54,1.81,0.8c5.53,2.66,11.08,5.3,16.59,8.01
			c1.44,0.71,2.85,1.07,4.27,1.07c1.39,0,2.78-0.35,4.2-1.04c6.95-3.41,13.93-6.76,20.9-10.12
			C150.17,132.33,153,131.01,156.05,129.56 M88.04,129.64c1.56,0.64,2.84,1.11,4.06,1.7c0.26,0.12,0.49,0.67,0.45,0.98
			c-0.63,5.16-1.31,10.31-1.98,15.46c-0.01,0.04-0.05,0.08-0.2,0.32c-1.29-1.56-2.3-3.11-2.32-5.05
			C88.01,138.67,88.04,134.3,88.04,129.64 M95.95,134.51c0.09,0.42,0.21,0.84,0.26,1.26c1.17,8.91,2.32,17.82,3.52,26.73
			c0.23,1.67-0.53,2.83-1.77,3.67c-0.67,0.45-1.38,0.68-2.09,0.68c-0.73,0-1.46-0.24-2.14-0.7c-1.2-0.82-1.94-1.96-1.73-3.55
			c1.21-9.17,2.39-18.33,3.59-27.5c0.02-0.19,0.09-0.37,0.13-0.56C95.8,134.53,95.88,134.52,95.95,134.51 M122.27,84.07
			c-2.41,0-4.85,0.59-7.25,1.75c-8.56,4.13-17.29,8.28-25.73,12.3c-3.39,1.61-6.78,3.22-10.17,4.84l-2.65,1.26
			c-3.14,1.49-6.39,3.03-9.58,4.62c-2.26,1.13-4.55,3.66-4.59,6.77c-0.03,2.51,1.42,4.9,3.97,6.58c1.05,0.69,2.09,1.14,2.93,1.51
			c0.24,0.1,0.48,0.21,0.71,0.32c1.37,0.64,2.74,1.28,4.11,1.92c2.7,1.26,5.48,2.56,8.21,3.86c0,1.31,0,2.6-0.01,3.87
			c-0.01,3.25-0.01,6.32,0.02,9.45c0.04,3.85,1.98,6.68,3.66,8.71l1.42,1.72c-0.36,2.77-0.72,5.54-1.09,8.31
			c-0.48,3.64,1.06,6.96,4.22,9.11c1.64,1.12,3.52,1.71,5.42,1.71c1.88,0,3.72-0.58,5.34-1.67c2.39-1.61,3.86-3.88,4.26-6.46
			c5.52,1.86,11.09,2.79,16.61,2.79c7.39,0,14.82-1.68,22.08-5c5.5-2.51,9.87-5.65,13.34-9.58c1.36-1.55,4.2-4.76,4.32-9.4
			c0.08-3.21,0.07-6.34,0.05-9.65c-0.01-1.18-0.01-2.37-0.01-3.58l8.4-4.01c0.64-0.31,1.29-0.61,1.93-0.91
			c1.63-0.76,3.32-1.54,5-2.44c1.41-0.76,2.35-1.77,2.97-2.44c0.11-0.12,0.23-0.25,0.35-0.37l4.32-4.11l-4.21-4.22
			c-0.09-0.09-0.18-0.21-0.27-0.31c-0.62-0.73-1.65-1.95-3.31-2.75c-8-3.84-16.14-7.73-24.01-11.49
			c-7.75-3.7-15.76-7.52-23.63-11.31C127.05,84.64,124.65,84.07,122.27,84.07L122.27,84.07z"/>
	</g>
</g>
</svg>
