<?xml version="1.0" encoding="utf-8"?>
<!-- Generator: Adobe Illustrator 24.0.0, SVG Export Plug-In . SVG Version: 6.00 Build 0)  -->
<svg version="1.1" id="Layer_1" xmlns="http://www.w3.org/2000/svg" xmlns:xlink="http://www.w3.org/1999/xlink" x="0px" y="0px"
	 viewBox="0 0 417.1 417.1" style="enable-background:new 0 0 417.1 417.1;" xml:space="preserve">
<style type="text/css">
	.st0{fill:#FFFFFF;stroke:#EF8016;stroke-width:11.6345;stroke-miterlimit:10;}
	.st1{fill:#2E8694;}
</style>
<g>
	<circle class="st0" cx="208.5" cy="208.5" r="197.4"/>
	<g>
		<path class="st1" d="M313.8,115.2c0,34.7,0,68.8,0,103.3c-13.4,0-26.5,0-40,0c-3.3-12.2-6.7-24.5-10-36.8c-0.3,0-0.6,0-0.8,0
			c-3.3,12.3-6.7,24.6-10,37c-14.1,0-28,0-42.2,0c0-34.4,0-68.8,0-103.4C245,115.2,279.3,115.2,313.8,115.2z M290.5,177.6
			c-0.4-1.7-0.6-3-1-4.3c-3.3-12.2-6.8-24.4-9.7-36.7c-1.2-5.1-4-7.6-8.6-8.9c-6.7-2-13.4-1.8-19.5,1.8c-1.8,1.1-3.5,3.3-4.2,5.4
			c-2.6,8.8-4.9,17.6-7.2,26.5c-1.4,5.4-2.8,10.8-4.3,16.5C254.3,171.7,272.1,171.7,290.5,177.6z"/>
		<path class="st1" d="M175.7,146.4c3.3,10.1,6.3,19.5,9.4,28.8c1.4,4.1,3.8,5.7,7.1,4.7c3.2-0.9,4.3-3.9,3-8
			c-4.2-13.1-8.4-26.2-12.7-39.2c-0.2-0.6-0.6-1.2-1-2c-11.6,1.7-23,3.3-34.5,5.1c-6.1,1-6.1,1.1-8.1-4.9c-1.5-4.5-3-9-4.7-13.3
			c-0.4-1.1-1.8-2.6-2.8-2.6c-11.3-0.2-22.7-0.1-34.4-0.1c0,13.6,0,27,0,40.3c-0.3,0.1-0.6,0.2-1,0.3c-8.8-18.9-17.7-37.7-26.7-57
			c18.2-4.6,35.8-9,53.8-13.5c2.8,8.2,5.9,16.1,8.2,24.2c1.3,4.3,3.2,5.8,7.8,5.7c18.9-0.3,37.8-0.1,56.8-0.1c1.6,0,3.2,0,4.9,0
			c0,35,0,69.3,0,104c-34.7,0-69.2,0-104,0c0-20.2,0-40.2,0-60.3c0.2-0.1,0.4-0.2,0.6-0.2c3,6.6,6.3,13,8.8,19.7
			c3.1,8.2,5.5,16.6,8.2,25c1.4,4.2,3.7,5.8,7.1,4.8c3.4-1,4.5-3.7,3-8.2c-2.7-8.5-5.4-16.9-8.3-25.7c9.7-1.8,18.9-3.4,28.2-5.1
			c2.1-0.4,2.7,0.6,3.3,2.5c3.5,10.9,7,21.8,10.6,32.7c1.4,4.1,3.8,5.7,7.1,4.7c3.3-1,4.4-3.8,3.1-7.9c-3.6-11.3-7.3-22.6-11.1-33.8
			c-0.7-2.1-0.5-3.3,1.2-4.8C164.4,157,169.8,151.9,175.7,146.4z"/>
		<path class="st1" d="M200.8,228.2c0.1,1.4,0.2,2.7,0.2,4c0,31.7-0.1,63.5,0.1,95.2c0,3.9-1.2,4.8-4.8,4.7c-10-0.2-20-0.1-30-0.1
			c-1.3,0-2.6-0.1-4.4-0.2c2.7-6.2,5.4-11.9,7.5-17.8c2.2-6.2,4.2-12.5,5.5-19c2.5-12.9-1.8-20.8-13.7-26.8
			c2.1-4.2,4.3-8.4,6.5-12.5c2-3.8,1.6-6.1-2.2-8.4c-6.3-3.8-13.3-4.7-20.3-3.9c-4.5,0.5-9,1.7-13.2,3.5c-4.8,2.1-5.3,4.7-3,9.5
			c1.9,3.9,3.9,7.7,5.8,11.4c-0.2,0.4-0.3,0.7-0.5,0.8c-12.3,4.5-15.7,15.7-12.8,28c2.4,10,6.7,19.6,10.2,29.3
			c0.6,1.8,1.5,3.4,2.5,5.6c-12.6,0-24.8,0-37.1,0c0-34.5,0-68.9,0-103.5C131.7,228.2,166,228.2,200.8,228.2z"/>
		<path class="st1" d="M314,304c0,9.2,0,18.4,0,27.9c-34.5,0-68.8,0-103.5,0c0-34.5,0-69,0-103.8c34.3,0,68.7,0,103.5,0
			c0,8,0,16.1,0,24.1l0.1-0.1c-16.4-5.8-33.3-9-50.8-8c-10.3,0.6-20.4,2.3-29.4,8c-10.3,6.6-11.9,15.8-4.3,25.3
			c1.7,2.1,1.9,3.8,1.3,6.3c-1.8,7.2-3.4,14.4-5,21.7c-0.6,2.5-0.7,4.8,2.2,6.2c2.9,1.3,5.1,1,6.7-2.2c3.2-6.5,6.7-12.8,9.8-18.9
			c9.3,3.6,18.2,7.1,27.3,10.6c-0.7,5.8-1.4,11.8-2.3,17.8c-0.4,3.1,0.4,5.3,3.7,6.1c3.1,0.8,4.8-0.6,5.8-3.5c2-5.3,4-10.6,6.2-15.8
			c0.4-1,2-2.3,3-2.3c8.6,0.1,17.3,0.4,25.9,0.6L314,304z"/>
		<path class="st1" d="M314,252.2c11.2,3.9,21.5,9.3,29.1,18.7c7.6,9.5,5.7,19.4-4.8,25.5c-3.3,1.9-4.6,4-4.9,7.8
			c-0.5,7.4-1.6,14.7-2.4,22c-2.5,0.8-3.7,0.4-4-2.3c-0.9-7.2-2-14.3-3.1-21.8c-3.6,0.7-6.7,1.3-9.8,1.8c0,0,0.1,0.1,0.1,0.1
			c0-17.3,0-34.7,0-52L314,252.2z"/>
		<path class="st1" d="M148.6,158.6c-9.8,1.4-19.7,2.8-29.5,4.3c-2.6,0.4-4.1-0.2-5.4-2.8c-3.6-7.5-7.4-14.9-10.7-22.7
			c4.6,5,9.5,9.9,13.7,15.2c2.9,3.6,6.2,4.6,10.5,4.5c7.1-0.1,14.2,0,21.3,0C148.6,157.6,148.6,158.1,148.6,158.6z"/>
		<path class="st1" d="M147.9,257.6c-3.6-0.8-7.1-1.5-10.5-2.6c-0.9-0.3-2.1-1.7-2.1-2.6c0-0.9,1.1-2.2,2.1-2.6
			c7.1-3,14.4-3,21.5-0.1c0.9,0.4,2.2,1.8,2.1,2.5c-0.2,1.1-1.3,2.5-2.3,2.8C155.2,256.2,151.6,256.8,147.9,257.6z"/>
		<path class="st1" d="M158.7,317.6c3.3-13.4,3-26.7-1-40c4.5,1.9,7.4,7,7.9,12.9C166.3,300.3,163.1,309.1,158.7,317.6z"/>
		<path class="st1" d="M281.2,168.9c-1.7-0.2-2.6-0.4-3.5-0.4c-3.1,0-4.4-1.3-4.3-4.7c0.2-8.3,0.1-16.5,0.1-26
			C276.1,148.7,278.6,158.5,281.2,168.9z"/>
	</g>
</g>
</svg>
