<?xml version="1.0" encoding="utf-8"?>
<!-- Generator: Adobe Illustrator 24.0.0, SVG Export Plug-In . SVG Version: 6.00 Build 0)  -->
<svg version="1.1" id="Layer_1" xmlns="http://www.w3.org/2000/svg" xmlns:xlink="http://www.w3.org/1999/xlink" x="0px" y="0px"
	 viewBox="0 0 417.1 417.1" style="enable-background:new 0 0 417.1 417.1;" xml:space="preserve">
<style type="text/css">
	.st0{fill:#FFFFFF;stroke:#EF8016;stroke-width:11.6345;stroke-miterlimit:10;}
	.st1{fill:#2E8694;}
</style>
<g>
	<circle class="st0" cx="208.5" cy="208.5" r="197.4"/>
	<g>
		<path class="st1" d="M270.2,263.5c0.8,5.3,1,10.7,2.5,15.8c2,6.6,5.1,13,7.7,19.4c0.5,1.2,0.8,2.5,1.3,3.8c-0.5,0.2-1,0.4-1.4,0.6
			c-2.6-6.2-5.2-12.4-7.8-18.6c-0.3,0-0.6,0-0.9,0c0,1.8-0.1,3.6,0,5.4c0.2,3.8,0.6,7.7,0.6,11.5c0,1-1.2,2.1-1.9,3.1
			c-0.6-0.2-1.2-0.4-1.8-0.6c0-8.5,0-16.9,0-26.3c-12.9,3-24.7,5.9-36.6,8.7c-0.2-0.4-0.3-0.9-0.5-1.3c4.1-1.5,8.1-3.2,12.2-4.5
			c7.6-2.3,15.3-4.2,22.9-6.4c0.7-0.2,1.2-2,1.3-3.2c0.1-2.5,0-5-0.1-7.5C268.5,263.5,269.4,263.5,270.2,263.5z"/>
		<path class="st1" d="M109.4,343.9c7.3-0.9,14.3-1.7,21.2-2.8c3.2-0.5,6.4-1.4,9.6-2.1c9.6-2.2,19.4-3.6,28.6-6.8
			c15.1-5.3,30.4-9.7,46-13.2c26.2-5.9,52.7-9.5,79.4-11.4c6-0.4,12.1,0.3,18.1,0.4c0.1,0.4,0.2,0.8,0.3,1.3c-1.1,1-2.2,2-3.3,2.9
			c-9.3,7.9-18.8,15.7-27.9,23.8c-6.9,6.2-6.7,6.4-0.3,13.7c-1.6,0.2-2.9,0.5-4.2,0.5c-51.9,1.3-103.9,2.5-155.8,3.7
			C113.1,354.2,111.1,352.5,109.4,343.9z M271.7,338.1c9-9.7,17.1-18.6,23-24.9C285.9,316.5,277.1,324.7,271.7,338.1z"/>
		<path class="st1" d="M164.1,307.3c1.2-0.1,3.1-0.1,4.7-0.6c0.7-0.2,1.3-1.8,1.2-2.7c-0.1-0.8-1.3-1.9-2.1-1.9
			c-10,0.1-19.9,0.4-29.9,0.9c-0.8,0-2,2.4-2.1,3.7c-0.1,9.1-0.1,18.2,0.1,27.4c0.1,3.5-0.8,5-4.6,4.5c-1.9-0.3-3.9,0.4-5.8,0.6
			c0-5.4,0-10.8,0-16.1c0-4.3,0.2-8.5,0.3-12.8c0-3.3,1.1-6.8-2.3-9.3c-0.4-0.3-0.1-1.6-0.1-2.5c3-0.5,5.9-1.1,8.8-1.6
			c-0.1-0.5-0.1-1-0.2-1.6c-2.7,0-5.4,0-8.1,0c0-0.4,0-0.7,0-1.1c1.9-0.1,3.8,0.1,5.6-0.3c2.3-0.6,4.5-1.7,6.8-2.4
			c2.1-0.6,4.3-1.1,7.5-1.8c-0.5-2.6-1.1-5.4-1.8-8.7c0.4-1,1.3-3,2.4-5.6c1.5,2.2,2.9,4.2,4.6,6.5c-2.6,4.8-0.6,8.4,5.2,8.3
			c2.4,0,4.9-0.3,7.3-0.1c1.4,0.1,2.8,1.2,4.2,1.7c1.4,0.5,2.8,0.9,4.2,1.1c1.7,0.2,3.4,0,5.2,0.9c-1.4,0.1-2.7,0.3-4.1,0.4
			c-1.3,0.1-2.7,0.3-4,0.4c0,0.5-0.1,1-0.1,1.6c2.8,0.2,5.6,0.5,9.5,0.8c-1.4,2.9-2.5,5.3-3.7,7.8c0.3,0.3,0.6,0.5,0.9,0.8
			c5-1.5,10.2-2.6,15-4.6c17.4-7.3,35.7-7.8,54.1-7.8c6.7,0,13.3,0,20.7,0c0,3.6,0,7.1,0,10.6c0,0.6-0.5,1.3-1,1.6
			c-0.3,0.2-1.5-0.4-1.5-0.7c-0.2-3-2.5-2.2-4.2-2.2c-2.9,0.1-5.7,0.5-8.6,0.7c0,0.7,0.1,1.4,0.1,2c3.1,0.2,6.2,0.4,10,0.6
			c-13.6,3-26.6,2.9-40,2.8c0.8,4.8-1.9,5.6-5.2,6.5c-9.6,2.5-19.5,4.5-28.7,8.2c-12.7,5.1-25.4,9.7-38.7,12.6
			c-1.1,0.2-2.2,0.5-3.3,0.7c-0.4,0.1-0.8-0.1-1.2-0.1c-1.3-6.8-1.3-6.7,4.9-8.7c21.8-6.7,43.5-13.5,65.4-19.9c4.3-1.3,9-1,13.5-1.5
			c1.5-0.2,3-0.6,4.5-1.9c-0.6-0.4-1.3-1.2-1.9-1.1c-4.9,0.5-9.9,0.5-14.6,1.9c-19.1,5.6-38.1,11.7-57,17.5
			c-4.2-3.1-1.7-6.9-1.2-10.3c0.1-0.8,2.2-1.4,3.4-2C159.9,309.2,161.8,308.3,164.1,307.3z M215,300.8c4.1,0,7.9,0.2,11.7-0.1
			c0.9-0.1,1.6-1.7,2.4-2.6c-0.9-0.8-1.8-2.2-2.7-2.3c-2.7-0.3-5.4,0.1-8.1,0C214.6,295.6,213.8,297.2,215,300.8z M238.2,300.5
			c0,0,0-0.1,0-0.1c1.6,0,3.2,0.3,4.6-0.1c1-0.3,2.1-1.6,2.3-2.6c0.1-0.7-1.3-2.3-2.1-2.3c-3.1-0.2-6.2-0.1-9.3,0.3
			c-0.8,0.1-1.9,1.6-1.9,2.5c0,0.8,1.2,2,2.2,2.3C235.3,300.8,236.8,300.5,238.2,300.5z M248.5,294.9c-1.2,4.1-0.3,5.7,3.4,5.3
			c2-0.2,4,0.2,5.9-0.3c1.1-0.3,1.8-1.7,2.8-2.7c-0.9-0.8-1.7-2.2-2.7-2.3C254.8,294.7,251.7,294.9,248.5,294.9z M152.7,300
			c0-0.2,0-0.3,0-0.5c2.8,0,5.7,0.1,8.5-0.1c0.9-0.1,1.8-0.9,2.7-1.4c-0.8-0.5-1.7-1.5-2.5-1.5c-5.6,0-11.3,0.1-16.9,0.3
			c-0.8,0-1.6,1.1-2.4,1.7c0.9,0.5,1.7,1.3,2.7,1.4C147.4,300.1,150.1,300,152.7,300z M231.8,304.1c0.1,0.5,0.2,0.9,0.3,1.4
			c3.9,0,7.7,0.1,11.6-0.1c0.5,0,1-1,1.5-1.6c-0.6-0.4-1.3-1.2-1.9-1.2c-3.1-0.1-6.2,0-9.3,0.2C233.2,302.9,232.5,303.6,231.8,304.1
			z"/>
		<path class="st1" d="M276.6,355.5c-16.6,1.3-33.3,2.5-50.9,3.8c8.4,2.7,17-1.9,24.6,5.3c-23.3,2-45.6,3.9-67.9,5.8
			c0-0.2-0.1-0.4-0.1-0.6c11.1-1.8,22.3-3.6,33.4-5.4c0-0.3-0.1-0.5-0.1-0.8c-2.5,0-5-0.1-7.5,0c-19.8,0.7-39.6,1.5-59.3,2.1
			c-3.3,0.1-6.8-0.6-10-1.6c-5.4-1.6-10.7-3.8-16-6.6c51.2-1.2,102.4-2.4,153.6-3.7C276.6,354.4,276.6,354.9,276.6,355.5z"/>
	</g>
	<g>
		<path class="st1" d="M116.4,98.7c3.6,3.2,7.1,6.3,11.1,9.8c-13.1-0.2-10.9,1.5-16.6-10.4c6.4-3.3,12.6-4.6,19,0.4
			c2.4,1.9,5.5,3,8.3,4.4c9,4.5,13.8,4.3,23.6-1c-7-2.2-13.5-4.5-20.2-6.4c-17.4-4.9-34.9-9.6-52.3-14.5c-2.4-0.7-4.5-2-7.4-3.3
			c3.9-3,7.3-3.8,11.4-3.1c10.1,1.6,20.3,2.7,30,3.9c-0.2,0-1,0.2-1.8,0.3c0,0.2,0,0.3,0,0.5c15.3,2.2,30.7,4.3,46.7,6.6
			c-3.2,2.7-6,5-8.8,7.3c0.2,0.4,0.4,0.8,0.6,1.1c6.1-1.8,12.3-3.6,17.9-5.3c2.1,2.9,3.9,5.4,6.1,8.3c-0.6-3.9-1.4-6.8-1.2-9.7
			c0.1-1.3,2.1-3.2,3.5-3.6c1.2-0.3,3.9,0.7,4.2,1.8c1.3,3.7,4.3,3.5,7.1,3.9c2.4,0.3,4.8,0.6,7.5,1c-3.3,2.7-6.4,5.1-9.4,7.5
			c0.2,0.4,0.4,0.8,0.6,1.2c6.1-1.8,12.3-3.6,17.9-5.3c2.1,2.9,3.9,5.4,6.3,8.6c-0.7-4.1-1.8-6.9-1.5-9.6c0.1-1.5,2.1-3.7,3.6-4
			c1.4-0.3,3.9,1.1,4.8,2.4c1.2,1.8,2.3,2.3,4.3,2.4c5.4,0.4,10.7,1.5,16.1,1.7c3.7,0.2,7.7,0,11.3-1c12.5-3.4,24.8-7.4,37.3-11
			c2.5-0.7,5.2-1.2,8.3-1.9c-4.2-5.6-9.5-7.2-16.4-6.7c1-0.8,1.5-1.2,2-1.6c0-0.4,0.1-0.8,0.1-1.1c-3.3-0.1-6.8-0.9-9.9-0.2
			c-11,2.7-22,6-32.9,9.1c-5.6,1.6-11.1,3.3-17.4,5.2c5.5,3.4,12.6-0.9,16.7,5.8c-6-0.7-11.5-1.3-17.1-2c-0.3,0-0.7-0.1-0.8-0.2
			c-3.8-5.9-8.8-2.4-13.7-2.2c-7.5,0.3-15.1-0.9-22.6-1.5c0-0.5,0-0.9,0-1.4c0.7-0.2,1.3-0.6,2-0.6c1.4,0,2.9,0,4.3,0.3
			c12.3,2.6,23.9,0.3,35.5-3.6c12.8-4.3,26-7.7,38.8-11.8c12.1-3.9,22.4-0.8,32,6.7c4.8,3.8,5.3,8.3,0.5,12.1
			c-4.5,3.6-9.4,7.3-14.8,8.9c-35.4,10.7-71,21-106.6,31.1c-5.7,1.6-11.7,2.2-17.7,2.8c-8.3,0.9-16.5,1.3-25,1.9
			c-1.3-0.6-3.1-1.7-5-2.1c-3.6-0.6-7.4-1.1-11-1c-5.8,0.1-7.3-2.6-7.2-9.7c-8.4-2.2-16.8-4.5-26-6.9c5-2.7,9.3-4.5,14.4-3.9
			c11.8,1.3,23.5,2.3,35.3,3.5c1.9,0.2,3.8,1,7,1.9c-7.7,3.2-14.2,5.9-20.7,8.6c22.8,0.5,45-2.1,67.5-10.8c-6.3-1.9-11.7-3.6-17-5.2
			c-0.7-0.2-1.7,0.2-2.1-0.1c-4.8-4.3-10.1-2.6-14.8-0.4c-10.1,4.7-19.3,3.8-28.2-2.8c-2.8-2.1-6.3-3.2-9.3-5.1
			C121.5,97.2,118.7,97.5,116.4,98.7z"/>
		<path class="st1" d="M220.1,119.9c12-2.8,23.7-5.5,35.3-8.2c0.1,0.2,0.2,0.5,0.2,0.7c-1.2,0.6-2.3,1.3-3.5,1.9
			c3.8,5.3,3.8,5.2-0.6,10.3c-0.8,0.9-0.9,2.6-1,4c-0.5,3.8-5.9,6.7-9.3,4.6C234.3,129,227.6,124.6,220.1,119.9z M239.1,119.4
			c0.2,0.6,0.3,1.1,0.5,1.7c3.4-1.2,6.7-2.4,10.1-3.6c-0.2-0.6-0.4-1.2-0.6-1.8C245.7,116.9,242.4,118.1,239.1,119.4z"/>
		<path class="st1" d="M137.8,79.4c12.9,1.2,25.9,2.4,38.8,3.6c0,0.5-0.1,1-0.1,1.5c-12.9-1.4-25.8-2.8-38.7-4.2
			C137.7,79.9,137.8,79.6,137.8,79.4z"/>
	</g>
	<g>
		<path class="st1" d="M210.7,221.2c-0.2-14.2-0.7-28.1-0.4-42c0.1-5.2,2-10.5,3.6-15.6c0.4-1.3,2.9-2.9,4.4-2.9
			c15.2,0.2,30.6-0.3,45.7,1.6c9.8,1.2,19.4,5.5,28.4,9.7c3.6,1.7,4.3,8.2,9.8,9.4c0.5,0.1,0.8,2.3,0.8,3.5c0.1,3.7,0,7.3-0.2,11
			c-0.1,3.4-1.6,5.4-6.1,5.1c0,7,0,13.6,0,20.2c0,5.5-0.2,11.1-0.1,16.6c0,3.1-1.5,4.5-4.3,4.6c-3.3,0.2-6.6,0-9.8,0.2
			c-1.3,0.1-2.6,1-3.9,1.5c0.1,0.4,0.3,0.8,0.4,1.3c2.5,0,5,0,7.6,0c-52.3,7.9-104.7,3.2-156.7,0.9c-0.5-0.4-0.6-0.5-0.7-0.5
			c0.1-0.1,0.3-0.2,0.3-0.2c-0.3-1-0.8-1.9-0.9-2.9c-0.2-2.5-0.6-5.1-0.2-7.5c0.2-1.3,2.1-3.1,3.3-3.1c1.2,0,3.1,1.8,3.3,3.1
			c0.5,3.2,0.2,6.5,0.2,10.2c1.6,0,4.5,0,6.9,0c-0.3-3.3-1-6.8-0.6-10.1c0.1-1.4,2.4-2.7,3.6-4c1.2,1.3,3.2,2.5,3.4,3.8
			c0.3,3.4-0.2,6.8-0.4,10.5c4.4,0,9.5,0,14.7,0c-1.1-3.6-1.9-6.9-6.7-6.2c-0.8,0.1-2.4-1.5-2.6-2.5c-0.6-3.2-1.3-6.4-4.9-7.3
			c-3.5-0.9-6.8-0.2-8.8,3.3c-4.6-4-8.2-4-12.3-0.2c-4.9-4.2-8.4-3.8-12.4,1.1c-0.7,0.8-2.8,0.9-4.1,0.6c-1.5-0.3-2.9-1.5-4.5-2.4
			c-0.4-3.3,1.2-5.1,6-5.5c7.2-0.6,14.5-0.9,21.8-1.2c24.9-1.2,49.8-2.4,74.7-3.7C209.7,221.4,210.7,221.2,210.7,221.2z
			 M196.5,243.5c0.4-3.4,1.3-6.8,0.9-10c-0.5-5.1-3.1-7-7.9-7c-4.9,0-7.5,1.8-7.9,6.9c-0.3,3.5,0.8,7.2,1.6,10.7
			c0.2,0.7,1.7,1.1,2.5,1.7c0.2-0.3,0.5-0.6,0.7-0.9c-3.3-3.4-3.8-7.5-2.6-11.6c0.6-1.9,2.8-3.4,4.3-5.1c1.5,1.7,4.2,3.2,4.3,5
			c0.3,4-0.6,8.1-1.1,12.9c1.6-0.8,3.4-1.8,5.2-2.8c0.5,0.8,1.1,2.2,1.6,2.2c8.2,0.1,16.4,0.1,23.8,0.1c-0.5-4.3-1.5-8.2-1.2-11.9
			c0.2-2,2.7-3.7,4.2-5.6c1.5,1.8,4.2,3.5,4.4,5.4c0.4,3.9-0.5,7.9-0.9,11.9c4.3,0.6,8.3-2.9,6.9-6.7c-0.9-2.7-2.1-5.3-3.2-7.9
			c-1.3-3-3.5-4.8-6.9-4.9c-3.5-0.1-5.3,2.4-5.9,5.2c-0.8,3.5-0.8,7.2-1.2,11.5c-2.7,0-5.9-0.1-9.2,0
			C204.9,242.8,200.7,243.2,196.5,243.5z M245.6,179.7c0.4,7.9,0.8,15.5,1.2,23.6c15.6,0,30.8,0,46.3,0c-0.5-8-0.9-15.6-1.4-23.6
			C276.2,179.7,261.2,179.7,245.6,179.7z M282.8,227.2c0.4,0.4,0.8,0.8,1.2,1.2c1-0.9,1.9-1.9,2.9-2.8c1.2-0.9,2.5-2.5,3.7-2.5
			c3.1,0.1,4.2-0.8,4.3-4.1c0.1-3.8-2.1-3.6-4.6-3.6c-13.5,0-27.1-0.1-40.6-0.2c-1.4,0-2.7,0.2-3.8,0.2c0,4.3,0,8.2,0,12.1
			c0.4,0,0.9,0.1,1.3,0.1c0.4-1.6,0.8-3.2,1.3-5c1.9,0,3.8-0.2,5.5,0.1c1.5,0.3,3.9,0.9,4.2,1.8c0.9,3.4,3.2,3.4,5.9,3.4
			c4,0,8,0.2,12,0.2c1.4,0,2.9-0.4,4.3-0.5c-5.5-2.2-11.5-0.2-16.9-2.2c0-0.6,0-1.1,0.1-1.7c6.1,0,12.3,0,18.4,0
			c0-0.5,0-1.1-0.1-1.6c-5.5,0-11,0.1-16.4-0.1c-1.4,0-2.7-0.9-4-1.4c0.2-0.4,0.3-0.7,0.5-1.1c7.6,0,15.2,0,23.1,0
			C284.2,222.3,283.5,224.7,282.8,227.2z M224.5,180.3c0,5.3-0.1,10,0.1,14.6c0,0.8,1,2.2,1.5,2.1c4.1-0.4,5.9,2.9,8.4,5
			c2.4,2.1,5.7,2,8.5-0.6c-1.8-0.2-3.2-0.1-4.4-0.6c-1.1-0.5-2.7-1.5-2.8-2.4c-0.7-5.9-1-11.9-1.4-18.2
			C231.9,180.3,228.4,180.3,224.5,180.3z M294.7,233c-0.3-0.7-0.6-1.4-0.9-2.1c-15.5,0-31,0-46.5,0.1c-0.7,0-1.5,1.2-2.2,1.9
			c0.9,0.7,1.9,2.1,2.8,2.1c14.4,0.2,28.7,0.3,43.1,0.2C292.3,235.2,293.5,233.8,294.7,233z M237.1,181.3c1.7,4,2.1,7.6,0.2,11.4
			c-0.7,1.3-1,3.2-0.5,4.5c0.4,1.2,2,2.3,3.3,2.6c0.6,0.1,2.4-1.8,2.4-2.7c0.1-4.3-0.4-8.5-0.5-12.8
			C242,180.6,240.4,180.1,237.1,181.3z M240.3,245.3c9.1,0,17.8,0,26.7,0C264.3,241.7,243.5,241.6,240.3,245.3z M295.7,181
			c0.3,5.8,0.5,11.2,1,16.7c0.1,0.9,1.5,1.7,2.8,3c0-7.4,0-13.5,0-19.9C298.4,180.8,297.3,180.9,295.7,181z"/>
		<path class="st1" d="M210.7,161.2c-1.3,0.3-2.6,0.7-4.5,1.1c0,18.1,0,36.3,0,55.1c-33.9,1.9-67.2,3.8-100.9,5.8
			c-0.1-1.7-0.3-3.1-0.3-4.5c0-10.7,0.2-21.4,0.1-32c0-2.9,0.8-4.2,3.8-4.9c31.8-7.1,63.5-14.5,95.3-21.7c2.1-0.5,4.3-0.1,6.5-0.1
			C210.6,160.5,210.6,160.9,210.7,161.2z"/>
		<path class="st1" d="M124.7,239.4c-1.6,2.1-3.1,5.7-4.8,5.8c-3.3,0.1-4-3.4-4-6.3c0-2.9-0.2-6.8,3.8-6.9
			C123.6,231.9,123.5,235.7,124.7,239.4z"/>
		<path class="st1" d="M196.6,243.4c-1.8,1-3.6,1.9-5.2,2.8c0.5-4.8,1.4-8.9,1.1-12.9c-0.1-1.8-2.8-3.3-4.3-5
			c-1.5,1.7-3.7,3.1-4.3,5.1c-1.2,4.1-0.7,8.2,2.6,11.6c-0.2,0.3-0.5,0.6-0.7,0.9c-0.9-0.6-2.4-1-2.5-1.7c-0.8-3.5-1.9-7.2-1.6-10.7
			c0.4-5.2,3-7,7.9-6.9c4.8,0,7.4,1.9,7.9,7c0.3,3.3-0.6,6.7-0.9,10C196.5,243.5,196.6,243.4,196.6,243.4z"/>
	</g>
</g>
</svg>
