<?xml version="1.0" encoding="utf-8"?>
<!-- Generator: Adobe Illustrator 24.0.0, SVG Export Plug-In . SVG Version: 6.00 Build 0)  -->
<svg version="1.1" id="Layer_1" xmlns="http://www.w3.org/2000/svg" xmlns:xlink="http://www.w3.org/1999/xlink" x="0px" y="0px"
	 viewBox="0 0 417.06 417.06" style="enable-background:new 0 0 417.06 417.06;" xml:space="preserve">
<style type="text/css">
	.st0{fill:#FFFFFF;}
	.st1{clip-path:url(#SVGID_2_);}
	.st2{fill:#2E8795;}
	.st3{fill:none;stroke:#F08116;stroke-width:11.6343;stroke-miterlimit:10;}
	.st4{fill:#278391;}
</style>
<circle class="st0" cx="208.53" cy="208.53" r="197.38"/>
<g>
	<g>
		<defs>
			<circle id="SVGID_1_" cx="208.53" cy="208.53" r="197.38"/>
		</defs>
		<clipPath id="SVGID_2_">
			<use xlink:href="#SVGID_1_"  style="overflow:visible;"/>
		</clipPath>
		<g class="st1">
			<g>
				<path class="st2" d="M-155.59,260.07c9.21-2.87,18.41-5.78,27.65-8.57c1.54-0.47,2.02-1.17,2.01-2.75
					c-0.07-11.67-0.04-23.33-0.04-35c0-0.8,0-1.59,0-2.47c2.35-0.71,4.57-1.38,7.2-2.17c0,12.48,0,24.58,0,36.68
					c0.27,0.05,0.53,0.11,0.8,0.16c0.71-2.3,1.95-4.58,2.02-6.89c0.27-8.58,0.21-17.16,0.14-25.75c-0.01-1.11-0.81-2.21-1.16-3.1
					c3.24,0.85,3.24,0.85,3.23,4.34c0,5.67,0,11.35,0,17.02c0.21,0.01,0.42,0.01,0.64,0.02c1.4-2.96,2.8-5.93,4.2-8.9
					c-1.08,3.39-1.9,6.9-3.31,10.15c-2,4.62-0.76,9.28-1.25,14.4c4.28-1.47,8.02-2.69,11.69-4.06c0.46-0.17,0.88-1.1,0.9-1.69
					c0.16-5.78,0.31-11.56,0.31-17.34c0-6.3-0.17-12.59-0.28-18.89c-0.01-0.66-0.09-1.33-0.14-1.99c-1.43,2.71-2.37,5.46-3.42,8.17
					c-1.47,3.79-3.03,7.55-4.55,11.33c1.81-5.55,3.33-11.23,5.53-16.63c1.96-4.81,3.02-9.61,2.54-14.74
					c-0.16-1.76,0.41-2.77,2.14-3.21c0.77-0.19,1.48-0.62,2.21-0.97c1.16-0.56,2.85-0.9,1.07-2.68c-0.17-0.17-0.03-0.88,0.19-1.15
					c1.16-1.44-0.22-2.69-0.17-3.93c0.05-1.24,1.26-2.38,0.17-3.8c-0.23-0.3,0.1-1.01,0.1-1.53c-0.01-1-0.09-2.01-0.13-3.01
					c-0.02-0.45,0.02-0.9,0.01-1.35c-0.01-1.06-0.02-2.11-0.04-3.17c-0.01-0.39-0.22-0.89-0.05-1.16c0.76-1.22,1.04-2.33-0.07-3.54
					c-0.18-0.19,0.3-0.89,0.29-1.35c-0.03-2.53-0.1-5.05-0.17-7.58c-0.01-0.39-0.21-0.88-0.04-1.15c0.75-1.22,1.06-2.34-0.1-3.52
					c-0.16-0.17,0.1-0.78,0.2-1.18c0.15-0.62,0.67-1.47,0.44-1.82c-1.37-2.03,0.5-3.94,0.11-5.92c-0.07-0.33,0.54-0.79,0.84-1.19
					c0.28,0.41,0.69,0.78,0.82,1.24c0.43,1.44,0.47,2.8,0.19,4.4c-0.37,2.12,0.38,4.43,0.6,6.66c0.03,0.33-0.13,0.69-0.24,1.02
					c-0.14,0.41-0.51,0.81-0.48,1.19c0.18,2.26,0.46,4.51,0.68,6.77c0.03,0.34-0.05,0.71-0.16,1.03c-0.12,0.34-0.51,0.65-0.49,0.96
					c0.16,2.32,0.41,4.63,0.58,6.94c0.04,0.47-0.19,0.96-0.2,1.43c-0.02,1.01,0.02,2.02,0.05,3.02c0.01,0.4,0.12,0.8,0.06,1.19
					c-0.04,0.27-0.42,0.51-0.41,0.75c0.13,2.39,0.38,4.77,0.43,7.15c0.02,1.07-0.36,2.15-0.67,3.79c2.28-0.98,4.18-1.79,6.06-2.63
					c0.23-0.1,0.54-0.42,0.52-0.61c-0.16-1.98-0.38-3.95-0.57-5.92c-0.03-0.33-0.03-0.69,0.05-1.01c0.07-0.27,0.42-0.51,0.41-0.76
					c-0.11-2.4-0.26-4.79-0.4-7.19c-0.02-0.34-0.1-0.69-0.06-1.02c0.02-0.2,0.31-0.38,0.3-0.57c-0.05-2.47-0.13-4.93-0.2-7.39
					c-0.01-0.4-0.09-0.8-0.03-1.19c0.04-0.27,0.4-0.52,0.39-0.77c-0.11-2.41-0.27-4.82-0.42-7.23c-0.02-0.34-0.1-0.69-0.02-1.01
					c0.06-0.27,0.45-0.5,0.44-0.74c-0.09-2.41-0.37-4.82-0.31-7.23c0.04-1.8,0.47-3.6,0.8-5.39c0.02-0.09,1.12-0.11,1.14-0.03
					c0.29,1.36,0.55,2.73,0.71,4.12c0.11,0.99,0.09,1.99,0.1,2.99c0.01,0.51-0.09,1.02-0.08,1.52c0.02,1,0.09,1.99,0.13,2.99
					c0.02,0.46,0.06,0.93-0.03,1.37c-0.07,0.34-0.48,0.66-0.46,0.96c0.18,2.32,0.44,4.63,0.62,6.95c0.04,0.45-0.28,0.92-0.28,1.38
					c0.01,2.52,0.09,5.03,0.12,7.55c0.01,0.51-0.14,1.02-0.13,1.52c0.05,2.5,0.12,4.99,0.19,7.49c0.01,0.33,0.25,0.75,0.12,0.98
					c-0.77,1.35-1.3,2.62,0.07,3.94c0.11,0.11-0.19,0.64-0.28,0.99c-0.18,0.65-0.36,1.31-0.66,2.43c2.34-1.02,4.21-1.81,6.05-2.66
					c0.28-0.13,0.64-0.55,0.62-0.8c-0.19-1.98-0.49-3.95-0.67-5.93c-0.04-0.39,0.35-0.8,0.38-1.21c0.06-0.89,0.02-1.79,0.01-2.69
					c-0.01-0.58-0.05-1.15-0.06-1.73c-0.02-0.94-0.01-1.89-0.03-2.83c-0.01-0.47-0.12-0.93-0.13-1.4c-0.03-1.13-0.03-2.26-0.03-3.4
					c0-0.41-0.01-0.82,0.08-1.22c0.06-0.27,0.41-0.52,0.4-0.76c-0.13-2.34-0.32-4.67-0.48-7.01c-0.03-0.42-0.04-0.84,0.01-1.25
					c0.03-0.2,0.34-0.37,0.33-0.55c-0.07-2.42-0.18-4.83-0.27-7.25c-0.02-0.46-0.03-0.94,0.05-1.39c0.11-0.63,0.67-1.48,0.43-1.83
					c-1.34-1.98,0.43-3.83,0.12-5.75c-0.06-0.39,0.65-0.91,1.3-1.21c0.29,1.98,1.07,3.56,0.6,5.58c-0.48,2.07,0.36,4.44,0.58,6.68
					c0.03,0.33-0.26,0.67-0.28,1.02c-0.1,1.23-0.15,2.47-0.25,4.09c0.15,1.09,0.35,2.42,0.51,3.77c0.04,0.33-0.07,0.69-0.18,1.01
					c-0.14,0.41-0.53,0.8-0.5,1.18c0.18,2.32,0.46,4.64,0.68,6.96c0.03,0.33-0.09,0.69-0.21,1.01c-0.12,0.34-0.5,0.65-0.48,0.96
					c0.16,2.32,0.4,4.63,0.59,6.95c0.03,0.39-0.06,0.81-0.14,1.2c-0.14,0.63-0.49,1.26-0.44,1.86c0.07,0.73,0.68,1.43,0.66,2.14
					s-0.52,1.41-0.45,2.55c1.91-0.78,3.82-1.54,5.72-2.35c0.22-0.09,0.49-0.46,0.47-0.67c-0.19-1.94-0.46-3.87-0.66-5.8
					c-0.04-0.34,0.08-0.71,0.2-1.04c0.1-0.26,0.47-0.49,0.46-0.72c-0.14-2.33-0.34-4.65-0.52-6.98c-0.03-0.41-0.22-0.94-0.03-1.22
					c0.81-1.23,1.07-2.36-0.01-3.58c-0.16-0.18-0.01-0.67,0.07-1.01c0.05-0.2,0.34-0.37,0.33-0.56c-0.06-2.39-0.16-4.77-0.24-7.16
					c-0.02-0.53,0.05-1.05,0.05-1.58c0-1-0.02-2-0.04-3c-0.01-0.46-0.04-0.92-0.04-1.38c-0.01-1.06-0.01-2.13-0.02-3.19
					c-0.01-0.4-0.2-0.9-0.03-1.18c0.77-1.25,0.88-2.31-0.03-3.63c-0.3-0.43,0.5-1.54,0.61-2.37c0.12-0.86,0.03-1.75,0.53-3.09
					c0.44,0.43,1.15,0.81,1.25,1.31c0.27,1.37,0.46,2.68,0.19,4.21c-0.38,2.18,0.39,4.54,0.49,6.83c0.04,0.89-0.66,1.81-0.62,2.69
					c0.11,2.15,0.64,4.28,0.66,6.43c0.02,2.02-0.39,4.05-0.61,6.07c-0.01,0.07-0.05,0.15-0.04,0.22c0.18,2.36,0.37,4.72,0.54,7.08
					c0.02,0.32,0.01,0.66-0.07,0.97c-0.09,0.35-0.43,0.67-0.41,0.99c0.13,2.37,0.39,4.74,0.46,7.11c0.03,0.91-0.34,1.84-0.63,3.21
					c2.17-0.91,3.97-1.64,5.75-2.43c0.28-0.12,0.65-0.52,0.63-0.75c-0.16-1.9-0.43-3.78-0.61-5.68c-0.03-0.33,0.11-0.69,0.22-1.03
					c0.14-0.41,0.49-0.81,0.46-1.19c-0.18-2.26-0.46-4.52-0.68-6.78c-0.03-0.33,0.06-0.69,0.17-1.01c0.12-0.34,0.48-0.66,0.47-0.97
					c-0.14-2.34-0.36-4.67-0.54-7.01c-0.02-0.32-0.02-0.67,0.07-0.98c0.1-0.34,0.46-0.67,0.44-0.98c-0.13-2.36-0.33-4.71-0.49-7.07
					c-0.02-0.34-0.04-0.7,0.04-1.02c0.09-0.34,0.47-0.66,0.45-0.98c-0.16-2.42-0.42-4.83-0.58-7.24c-0.02-0.32,0.33-0.67,0.52-1
					c0.58,0.57,1.15,1.15,1.73,1.72c0.17,0.32,0.31,0.66,0.5,0.96c0.16,0.24,0.38,0.43,0.58,0.65c-0.21,0.04-0.41,0.08-0.62,0.12
					c0.2,1.49,0.44,2.98,0.56,4.48c0.03,0.37-0.38,0.76-0.43,1.16c-0.11,0.85-0.49,2.03-0.09,2.51c0.8,0.94,0.06,1.5,0.03,2.26
					c-0.07,2.46,0.23,4.93,0.36,7.39c0.02,0.44-0.17,0.89-0.2,1.33c-0.06,0.97-0.09,1.95-0.11,2.92c-0.01,0.54,0.05,1.09,0.07,1.63
					c0.04,1.02,0.07,2.04,0.12,3.07c0.02,0.37,0.15,0.77,0.08,1.12c-0.09,0.41-0.54,0.8-0.51,1.18c0.17,2.33,0.5,4.65,0.61,6.97
					c0.04,0.85-0.41,1.71-0.76,3.05c2.13-0.84,3.9-1.54,6.04-2.38c0,3.44,0.16,6.7-0.05,9.94c-0.16,2.4,0.67,3.53,2.99,4.14
					c3.01,0.79,5.93,1.95,8.9,2.95c0.77-1.96,0.18-2.87-1.62-3.42c-3.04-0.94-6.02-2.09-9.41-3.29c4.4-1.92,8.4-3.66,12.55-5.47
					c2.01,5.52,3.98,10.94,5.96,16.36c3.49,9.55,6.99,19.11,10.51,28.65c0.21,0.57,0.62,1.35,1.1,1.5c4.53,1.41,9.1,2.7,13.92,4.11
					c0-28.6,0-56.9,0-85.12c4.58-1.99,4.58-1.99,2.85-3.77c1.71-2.74,1.69-2.78-1.78-4.64c0.22-1.43,5.09-0.63,1.7-3.83
					c1.04-1.31,2.16-2.73-0.03-4c1.97-2.93,1.81-3.32-1.73-4.33c0.22-1.53,5.32-0.99,1.76-4.12c0.97-1.35,2.22-2.78,0.16-4
					c0.42-1.21,0.79-2.31,1.24-3.61c-1.31-0.17-2.2-0.28-3.41-0.44c1.14-1.51,5.49-1.49,1.95-4.56c1.17-1.35,2.19-2.75,0.24-3.92
					c0.41-1.24,0.78-2.33,1.25-3.75c-1.36,0-2.23,0-3.5,0c1.29-1.6,5.51-1.77,2.15-4.73c0.48-1.03,0.96-2.06,1.66-3.56
					c0.8,0.51,1.67,1.07,2.35,1.5c-0.38,1.39-0.67,2.47-1.17,4.28c2.01-0.53,3.44-0.84,4.82-1.31c0.29-0.1,0.65-1.03,0.5-1.21
					c-1.31-1.66,0.33-3.13-0.03-5.46c1.49,0.77,2.49,1.29,3.25,1.68c-0.46,1.46-0.8,2.58-1.26,4.05c1.5-0.25,2.51-0.41,3.51-0.58
					c0.1,0.24,0.2,0.48,0.29,0.73c-0.99,0.44-2.16,0.68-2.92,1.36c-1.13,1.01-0.81,2.21,0.37,3.18c-0.58,1.38-2.07,2.78-0.11,3.99
					c-0.35,1.21-0.66,2.32-1.06,3.7c1.47-0.28,2.45-0.48,3.44-0.67c0.15,0.18,0.29,0.35,0.44,0.53c-1.57,1.41-5.87,1.63-2.65,5.18
					c-1.11,1.31-1.91,2.68-0.04,3.87c-0.41,1.06-0.78,2.01-1.28,3.29c1.55-0.2,2.59-0.34,3.63-0.48c-1.32,1.9-5.38,2.25-2.3,5.78
					c-0.73,1.23-1.9,2.4-0.28,4.01c0.34,0.34-0.4,1.77-0.69,2.88c1.15-0.13,2.24-0.26,3.32-0.38c0.04,0.17,0.07,0.33,0.11,0.5
					c-1,0.73-2.32,1.26-2.89,2.24c-0.48,0.82-0.1,2.15,0.17,3.26c-0.53,1.27-1.77,2.48,0.08,3.92c0.18,0.14-0.2,1.02-0.38,1.81
					c4.66,0.04,4.07,3.35,4.06,6.46c-0.04,14.76-0.04,29.51-0.01,44.27c0.01,6.09,0.21,12.17,0.2,18.26
					c0,6.89-0.09,13.79-0.25,20.68c-0.04,1.65,0.38,2.47,2.08,2.93c6.56,1.81,13.01,4.08,19.65,5.53c2.42,0.53,5.26-0.6,7.84-1.26
					c0.58-0.15,0.84-1.51,1.51-2.84c0.4,1.15,0.6,1.72,0.85,2.45c5.29-1.17,10.56-2.33,15.76-3.48c0.63-1-0.44-3.21,2.15-2.54
					c0.12,0.55,0.26,1.16,0.41,1.85c0.88-0.12,1.73-0.24,2.57-0.36c0.38,1.68,0.38,1.68-2.75,2.88c0,5.79,0,11.64,0,17.6
					c-5.51,1.08-10.86,2.2-16.25,3.15c-1.71,0.3-2.29,0.95-2.27,2.71c0.1,7.05,0.09,14.1,0,21.14c-0.02,1.6,0.55,2.11,2.03,2.41
					c4.73,0.95,9.43,2.1,14.15,3.11c1.56,0.33,2.53,0.94,2.21,2.76c-0.14,0.78-0.02,1.6-0.02,2.68c-3.99,0.78-7.98,1.58-11.98,2.33
					c-12.02,2.26-24.04,4.5-36.05,6.8c-0.66,0.13-1.73,0.76-1.75,1.18c-0.13,4-0.08,8.02-0.08,12.23c7.1-1.04,13.89-2.03,20.68-3.04
					c10.64-1.59,21.29-3.19,31.93-4.78c11.08-1.66,22.16-3.34,33.25-4.91c1.88-0.27,2.72-1.28,3.43-2.83
					c7.12-15.4,14.28-30.78,21.44-46.16c0.3-0.66,0.65-1.29,1.04-2.08c5.69,1.83,11.3,3.63,16.91,5.44c0,0.16,0,0.31,0,0.47
					c-2.19,0.35-4.37,0.69-6.56,1.04c-1.88,0.3-3.76,0.58-5.64,0.88c-2.87,0.45-2.87,0.45-2.36,3.61c4.97-0.74,9.95-1.42,14.91-2.28
					c0.5-0.09,1.15-1.18,1.17-1.83c0.11-4.1,0.05-8.21,0.05-12.52c1.62,0.44,3.07,0.83,5.2,1.41c-0.64-1.61-1.1-2.77-1.58-3.97
					c1.83-1.53,1.74-2.69-0.08-5.21c1.8-2.26,1.8-2.39,0.02-5.59c1.78-1.67,1.78-2.22-0.03-5.51c1.66-1.36,1.77-2.47,0.56-4.29
					c-0.27-0.41-0.5-1.36-0.32-1.49c2.15-1.62,1.06-3.07-0.09-4.58c-0.12-0.16-0.11-0.42,0.28-0.52c0.41-1.24,0.82-2.47,1.32-3.95
					c0.52,0,1.36,0,2.22,0c0.34,1.98,0.68,4.05,1.11,6.56c-1.27,1.45-1.27,2.21,0.55,5.15c-2.78,1.75-1.12,3.6,0.02,5.41
					c-1.98,1.41-1.89,2.45-0.08,5.36c-1.79,1.74-1.79,2.53-0.01,5.5c-1.75,1.69-1.93,2.72,0.02,5.32c-2.02,2.08-1.88,2.56,1,3.48
					c2.42,0.78,4.84,1.58,7.26,2.37c0.17-0.13,0.35-0.26,0.52-0.39c-0.43-1.12-0.86-2.25-1.36-3.57c2.39-1.61,1.18-3.47-0.17-5.27
					c2.11-1.62,1.81-2.6,0.08-5.4c1.84-1.82,1.85-2.63-0.06-5.54c2.57-1.73,1.34-3.58-0.02-5.37c2.15-1.68,1.73-2.81,0.31-5
					c0.54-1.55,0.98-2.83,1.51-4.34c0.55,0,1.39,0,1.89,0c0.64,1.95,1.26,3.8,1.84,5.66c0.08,0.25,0.06,0.71-0.09,0.81
					c-2.29,1.54-1.11,2.99,0.05,4.48c0.12,0.16,0.11,0.42,0.17,0.69c-1.9,1.3-1.9,2.77-0.45,4.46c0.24,0.28,0.2,1.21-0.05,1.41
					c-1.48,1.16-1.09,2.35-0.21,3.57c0.59,0.82,1.21,1.36-0.16,2.24c-0.48,0.31-0.14,2.04,0.02,3.1c0.08,0.5,0.61,0.92,0.93,1.37
					c-1.76,1.46-1.83,2.6-0.66,4.48c0.26,0.42,0.1,1.43-0.26,1.82c-0.93,1.02-0.73,1.69,0.43,2.1c2.89,1.01,5.81,1.93,8.68,2.87
					c0.2-0.24,0.39-0.36,0.38-0.45c-0.25-1.94-1.55-3.86,0.06-5.83c0.19-0.23-0.05-1.08-0.35-1.4c-0.95-1.01-1.43-1.72,0.12-2.74
					c0.37-0.24-0.02-2.01-0.42-2.93c-0.39-0.9-1.08-1.36,0.17-2.31c0.49-0.37,0.14-2.2-0.22-3.23c-0.3-0.85-0.82-1.18,0.14-2.13
					c0.55-0.55-0.05-2.26-0.13-3.45c-0.04-0.61-0.36-1.57-0.09-1.78c1.54-1.2,1-2.34,0.12-3.54c-0.54-0.74-1.03-1.23,0.12-2.11
					c0.65-0.5,0.59-1.94,0.88-3.12c0.65,0,1.41,0,2.11,0c0.45,2.14,0.89,4.2,1.38,6.52c-1.51,1.5-1.55,1.85,0.45,5.21
					c-2.68,1.71-1.38,3.54,0.09,5.25c-2.16,1.93-2.01,2.62-0.05,5.57c-2.84,1.76-1.29,3.68,0.04,5.46
					c-2.03,1.61-2.11,1.85-0.15,5.41c-2.03,1.89-1.92,2.47,0.75,3.35c2.49,0.82,5.01,1.56,7.47,2.32c0.2-0.22,0.39-0.34,0.38-0.42
					c-0.41-1.92-1.29-3.75-0.03-5.81c0.33-0.55-0.64-1.89-1.09-3.07c2.26-1.6,1.44-3.45-0.26-5.12c1.94-2,1.94-2.6,0.1-5.7
					c2.57-1.72,1.31-3.55-0.07-5.39c1.93-1.36,2-2.85,0.55-4.52c-0.24-0.28-0.43-0.87-0.3-1.17c0.5-1.14,1.14-2.23,1.89-3.65
					c0.34,0,1.18,0,1.93,0c0.39,2.11,0.76,4.1,1.2,6.5c-1.96,1.38-0.91,3.24,0.52,5.06c-2.69,1.9-1.03,3.76-0.02,5.56
					c-1.82,1.11-1.97,2.37-0.08,5.3c-1.74,1.85-1.74,2.81,0,5.33c-1.73,1.98-1.73,2.78,0,5.54c-1.94,1.87-1.78,2.55,0.77,3.36
					c2.5,0.8,5,1.61,8.26,2.66c-0.6-1.64-1-2.73-1.49-4.07c1.42-1.04,1.31-2.71,0.61-4.48c-0.12-0.3-0.28-0.81-0.14-0.97
					c1.36-1.54,0.62-2.96-0.14-4.42c-0.16-0.3-0.32-0.87-0.18-1.01c1.93-1.88,0.88-3.56-0.35-5.16c2.08-2.76,2.07-2.95-0.03-5.72
					c1.83-1.8,2.07-2.35,0.3-4.93c0.58-1.67,1.03-2.96,1.56-4.49c0.51,0,1.33,0,1.86,0c0.55,1.98,1.06,3.81,1.56,5.64
					c0.05,0.2,0.11,0.53,0.01,0.62c-2.24,1.87-0.86,3.56,0.42,5.33c-2.65,1.8-1.39,3.68,0,5.4c-1.97,1.73-1.97,2.28-0.13,5.56
					c-1.78,1.33-1.93,2.82-0.41,4.51c0.24,0.27,0.4,1.05,0.26,1.15c-2.37,1.77-0.25,3.59-0.32,5.58c-1.4,1.44-1.32,1.87,0.73,2.81
					c0.07,0.03,0.13,0.09,0.2,0.1c5.17,0.56,5.8,4.07,5.28,8.24c-0.44,3.58,0.98,6.55,3,9.94c1.74-3.64,3.32-6.94,4.97-10.4
					c2.4,0.71,4.74,1.41,7.22,2.14c0.11-1.25,0.2-2.25,0.29-3.32c1.44,0.38,2.78,0.72,4.3,1.12c-0.13-2.65-0.25-5.09-0.33-6.85
					c0-2.08,0-3.5,0-5.48c0.74-0.94,0.32-18.47-0.01-20.28c0-1.42,0-2.84,0-4.61c2.31-1.03-1.04-3.08,0.17-5.04
					c0.91-1.47,0.18-3.97,0.12-6.01c-0.06-1.79-0.2-3.57-0.34-5.94c0.36-0.2,1.26-0.71,2.17-1.22c0.6,1.41,1.04,2.44,1.53,3.61
					c-1.95,1.26-0.99,2.67,0.18,4.08c-2.13,1.32-1.14,2.66-0.67,3.97c-0.11,1.45-0.21,2.9-0.29,4.05c0.1,1.71,0.18,3.03,0.3,4.89
					c-1.09,0.85-0.89,2.26,0.31,3.34c-0.99,3.02-0.44,5.79-0.18,8.6c0.26,2.83,0.06,5.7,0.06,8.87c-1.55,0.99-0.81,2.35,0.46,3.78
					c-1.99,1.37-1.29,2.79,0.03,4.26c-2.15,1.33-1.19,2.75-0.08,4.11c-1.78,1.81-1.63,2.5,0.68,3.28c2.06,0.7,4.14,1.35,6.79,2.21
					c-0.42-1.48-0.7-2.46-0.98-3.44c0.15-0.01,0.3-0.01,0.45-0.02c-0.1-1.12-0.21-2.24-0.3-3.35c-0.03-0.38-0.22-0.94-0.04-1.12
					c1.34-1.37,0.43-2.51-0.36-3.79c1.56-1.33,1.11-2.74-0.05-4.15c1.11-1.13,1.55-2.27,0.4-3.62c-0.2-0.23,0.04-0.87,0.14-1.3
					c0.12-0.53,0.6-1.19,0.42-1.53c-0.68-1.26-0.2-2.34-0.07-3.6c0.22-2.09-0.44-4.26-0.6-6.41c-0.04-0.54,0.63-1.13,0.61-1.69
					c-0.07-2.14-0.31-4.27-0.44-6.4c-0.03-0.41,0.22-0.83,0.22-1.25c0.02-2.23,0.03-4.47-0.02-6.7c-0.01-0.29-0.39-0.58-0.68-0.96
					c1.52-1.36,1.35-2.76-0.18-4.3c1.06-0.69,1.94-1.27,2.83-1.85c0.19,1.97,2.01,3.29,0.64,5.07c-0.33,0.43,0.39,1.68,0.69,2.78
					c-1.3,1.15-1.08,2.55,0.28,3.96c-1.49,1.32-1.45,2.64-0.05,3.98c-0.25,0.04-0.49,0.08-0.74,0.12c0.15,1.09,0.32,2.18,0.43,3.28
					c0.05,0.54,0.01,1.09-0.04,1.63c-0.11,1.13-0.26,2.26-0.03,3.43c-1.27,1.45-0.76,2.87,0.38,4.3c-1.04,1.14-1.6,2.28-0.36,3.59
					c0.18,0.18,0.11,0.65,0.07,0.98c-0.14,1.25-0.31,2.5-0.47,3.78c0.11,1.23,0.25,2.34,0.31,3.45c0.02,0.46-0.11,0.94-0.21,1.4
					c-0.03,0.13-0.25,0.23-0.24,0.34c0.12,2.42,0.26,4.85,0.35,7.25c0,1.41,0,2.81,0,4.89c-0.99,1.46-0.94,1.89,1.56,2.49
					c2.18,0.52,3.08,1.54,2.69,3.78c-1.1,6.3,2.46,11.26,4.88,16.52c5.13,11.17,10.37,22.29,15.56,33.44
					c0.12,0.26,0.21,0.53,0.41,1.03c-1.3,0.09-2.47,0.17-3.64,0.25c-0.02,0.12-0.04,0.25-0.05,0.37c3.73,0.9,7.46,1.81,11.19,2.71
					c3.77,0.91,7.52,1.84,11.3,2.69c1.62,0.36,2.68,0.94,2.34,2.9c-0.18,1.06-0.03,2.18-0.03,3.49c-5.46,0-10.79,0-16.49,0
					c0,3.55,0,6.87,0,10.2c0,6.02,0.04,12.04-0.02,18.06c-0.02,1.47,0.23,2.14,1.95,2.36c4.78,0.64,9.52,1.59,14.41,2.44
					c0,1.87,0,3.67,0,5.75c-15.56,0.22-31.13,0.44-46.94,0.67c0,1.14,0,2.08,0,3.01c0,6.9,0.04,13.8-0.03,20.7
					c-0.01,1.48,0.39,2.01,1.94,2.14c12.26,1.09,24.51,2.28,36.77,3.43c2.75,0.26,5.51,0.49,8.48,0.75c0,2.13,0,4.02,0,5.92
					c-16.45,0-32.89,0-49.34,0c0-1.15,0-2.3,0-3.58c-1.08-0.12-1.98-0.22-3.08-0.34c0,1.48,0,2.7,0,3.93c-27.31,0-54.62,0-81.93,0
					c0-3.2,0-6.39,0-9.85c-2.18-0.15-4.24-0.29-6.61-0.45c0,3.64,0,6.97,0,10.3c-46.11,0-92.21,0-138.32,0
					c0.02-0.73,0.06-1.46,0.06-2.19c0.01-3.72-0.11-3.86-4.02-4.61c0,2.29,0,4.54,0,6.8c-17.18,0-34.36,0-51.54,0
					c-2.72-1.46-5.44-2.91-8.42-4.51c-0.17,1.94-0.28,3.23-0.39,4.51c-32.3,0-64.61,0-96.91,0c0-2.06,0-4.12,0-6.17
					c9.79-0.48,19.59-0.97,29.41-1.45c0-9.73,0-19.08,0-28.94c-9.91,0-19.66,0-29.41,0c0-1.91,0-3.82,0-5.73
					c3.78-0.43,7.56-0.89,11.34-1.29c6.02-0.64,12.05-1.25,18.09-1.87c0-10.07,0-19.92,0-29.88c-9.93,0-19.68,0-29.44,0
					c0-1.91,0-3.82,0-5.73c3.46-0.58,6.91-1.2,10.37-1.73c6.34-0.98,12.68-1.9,19.05-2.85c0-8.97,0-17.79,0-26.69
					c-9.92,0-19.68,0-29.43,0c0-1.76,0-3.52,0-5.29c0.29,0.01,0.6,0.09,0.87,0.02c9.18-2.46,18.35-4.97,27.54-7.38
					c1.34-0.35,1.25-1.17,1.25-2.13c-0.01-4.25-0.01-8.5-0.01-12.75c0-3.42,0-6.83,0-10.79c-10.05,0-19.85,0-29.64,0
					C-155.59,263.89-155.59,261.98-155.59,260.07z M234.47,329.79c-0.62,0-1.24,0-2.01,0c0,0.82,0,1.47,0,2.12
					c0,10.33,0.06,20.65-0.05,30.98c-0.03,2.35,0.99,2.75,2.97,2.43c0.06-0.28,0.17-0.56,0.17-0.84
					c0.01-10.99,0.04-21.97-0.03-32.96c0-0.6-0.73-1.19-1.13-1.79c0.65,0.05,1.33,0.02,1.96,0.16c9.43,2.1,18.86,4.22,28.29,6.32
					c5.26,1.17,10.52,2.33,15.79,3.49c0.15-0.24,0.31-0.48,0.46-0.72c-0.64-0.47-1.22-1.18-1.94-1.37
					c-9.84-2.58-19.74-4.91-29.52-7.7c-5.33-1.52-10.61-1.09-16.38-1.17C233.8,329.29,234.14,329.54,234.47,329.79z M9.18,400.76
					c8.34-0.37,16.53-0.65,24.71-1.11c8.33-0.47,16.66-1.16,24.99-1.66c14.28-0.86,28.55-1.7,42.83-2.46
					c6.22-0.33,12.44-0.48,18.67-0.6c1.72-0.04,3.45,0.3,5.33,0.48c0-4.55,0-8.83,0-13.21c-38.93-0.29-77.71-0.57-116.52-0.85
					C9.18,387.99,9.18,394.34,9.18,400.76z M56.44,287.03c0.17-0.28,0.34-0.56,0.5-0.84c-0.73-0.39-1.42-0.95-2.2-1.14
					c-15.65-3.81-31.3-7.59-46.97-11.31c-1.48-0.35-2.02-0.93-2.01-2.49c0.07-11.01,0.04-22.02,0.05-33.04
					c0-0.61,0.11-1.23,0.19-2.05c17,4.29,33.76,8.51,50.53,12.74c0.62-2.42-1.04-2.43-2.08-2.76c-3.34-1.07-6.75-1.94-10.1-2.99
					c-12.09-3.79-24.15-7.68-36.26-11.4c-1.8-0.55-2.35-1.3-2.35-3.18c0.07-28.7,0.05-57.41,0.05-86.11c0-3.19-0.78-4.26-4.13-5.58
					c0,30.87,0,61.68,0,92.81c-9.2-2.87-18.16-5.66-27.28-8.5c0,2.57,0,4.83,0,7.19c9.07,2.26,18.08,4.5,27.13,6.75
					c0,12.34,0,24.55,0,37.03c-9.11-2.19-18.03-4.33-27.08-6.51c0,2.29,0,4.23,0,6.2c9.12,1.7,18.1,3.37,27.31,5.09
					c0,11.66,0,23.13,0,34.83c1.51-0.26,2.7-0.46,4.15-0.71c0-11.15,0-22.17,0-33.37C22.94,280.83,39.69,283.93,56.44,287.03z
					 M-9.01,380.81c-11.92,0-23.57,0.02-35.22-0.03c-1.56-0.01-1.57,0.85-1.57,1.96c0.01,6.52,0,13.05,0.01,19.57
					c0,0.55,0.16,1.09,0.27,1.76c12.28-0.73,24.38-1.45,36.51-2.17C-9.01,394.88-9.01,388.16-9.01,380.81z M-8.98,341.45
					c-2.31,0-4.43,0.01-6.54,0c-9.16-0.06-18.32-0.14-27.48-0.19c-2.89-0.02-2.9,0.02-2.9,2.95c0,5.35-0.01,10.7,0,16.05
					c0,0.76,0.09,1.52,0.14,2.38c12.42-1.3,24.55-2.58,36.77-3.86C-8.98,352.98-8.98,347.36-8.98,341.45z M280.22,414.99
					c0.16-0.27,0.32-0.55,0.48-0.82c-0.54-0.3-1.07-0.8-1.64-0.87c-10.71-1.18-21.42-2.33-32.13-3.45
					c-15.8-1.65-31.61-3.25-47.42-4.89c-9.55-0.99-19.09-2.04-28.64-3.04c-15.53-1.62-31.05-3.23-46.58-4.83
					c-2.07-0.21-4.15-0.35-6.25-0.53c0,2.49,0,4.66,0,6.97C172.18,407.36,226.2,411.18,280.22,414.99z M117.91,347.51
					c0,1.98,0.09,3.59-0.03,5.18c-0.11,1.51,0.46,1.97,1.94,2.16c6.53,0.86,13.05,1.84,19.56,2.83c11.29,1.71,22.57,3.49,33.86,5.16
					c9.63,1.42,19.27,2.7,28.9,4.11c11.22,1.64,22.44,3.38,33.66,5.04c9.7,1.43,19.42,2.79,29.12,4.2
					c5.12,0.74,10.25,1.5,15.63,2.29c-0.02-2.39-1.87-1.89-2.9-2.08c-11.8-2.19-23.62-4.26-35.43-6.4
					c-18.22-3.3-36.43-6.64-54.64-9.94c-17.64-3.2-35.28-6.38-52.92-9.56C129.21,349.51,123.73,348.55,117.91,347.51z
					 M202.19,402.72c7.47,0.68,14.84,1.34,22.26,2.01c0-8.22,0-16.02,0-23.65c-7.51,0-14.86,0-22.26,0
					C202.19,388.43,202.19,395.43,202.19,402.72z M98.97,297.06c0.68-0.06,1.03-0.1,1.38-0.13c6.7-0.61,13.23-2.91,20.08-2.01
					c0-14.66,0-29.31,0-43.95c-0.12-0.03-0.25-0.06-0.37-0.08C113.08,266.16,106.11,281.43,98.97,297.06z M-45.77,318.79
					c12.45-1.86,24.6-3.67,36.74-5.48c0-4.22,0-8.2,0-12.18c-6.19,1.01-12.2,2.39-18.27,2.88c-6.08,0.49-12.24,0.11-18.47,0.11
					C-45.77,309.1-45.77,313.75-45.77,318.79z M202.18,359.99c7.46,1.26,14.83,2.5,22.23,3.75c0-7.64,0-14.92,0-22.1
					c-7.54,0-14.9,0-22.23,0C202.18,347.88,202.18,353.87,202.18,359.99z M252.23,368.52c4.9,0.82,9.62,1.62,14.5,2.44
					c0-10.06,0-19.84,0-29.7c-4.88,0-9.6,0-14.5,0C252.23,350.33,252.23,359.24,252.23,368.52z M-39.79,177.97
					c-0.19,0.04-0.37,0.09-0.56,0.13c0,15.16,0,30.33,0,45.8c5.2-1.6,10.17-3.14,15.33-4.73
					C-29.96,205.38-34.88,191.67-39.79,177.97z M38.85,278.71c0-8.27,0-16.27,0-24.6c-5.04,0.98-9.87,1.95-14.72,2.82
					c-1.28,0.23-1.67,0.78-1.65,2.05c0.07,3.96,0.01,7.91,0.01,11.87c0,4.01-0.03,4.14,3.82,5.13
					C30.4,277.01,34.55,277.78,38.85,278.71z M237.78,341.34c0,8.07-0.02,15.83,0.06,23.6c0,0.45,0.77,1.18,1.28,1.29
					c2.72,0.55,5.47,0.95,8.21,1.38c1.02,0.16,2.05,0.3,3.15,0.45c0-9.09,0-17.86,0-26.72
					C246.25,341.34,242.18,341.34,237.78,341.34z M243.58,287.97c-0.19,0.04-0.38,0.08-0.57,0.12c-0.05,0.85-0.15,1.71-0.15,2.56
					c-0.01,5.5,0.09,10.99-0.04,16.48c-0.08,3.57,0.2,6.95,2.1,10.12c1.16,1.93,2.09,4.04,2.84,6.17c0.77,2.15,1.93,3.29,4.33,3.51
					c3.15,0.29,6.27,1,9.95,1.62C255.73,314.67,249.66,301.32,243.58,287.97z M-58.5,320.74c2.58-0.41,4.87-0.87,7.18-1.1
					c1.19-0.12,1.44-0.62,1.44-1.67c-0.02-10.42,0-20.83-0.04-31.25c0-0.57-0.25-1.46-0.65-1.66c-2.51-1.28-5.09-2.41-7.94-3.72
					C-58.5,294.57-58.5,307.42-58.5,320.74z M-50.15,363.09c0.12-0.4,0.23-0.61,0.23-0.81c0.01-9.76,0.03-19.52-0.01-29.27
					c0-0.51-0.24-1.31-0.6-1.5c-2.58-1.29-5.22-2.46-7.96-3.71c0,12.21,0,24.06,0,36.09C-55.63,363.61-52.95,363.36-50.15,363.09z
					 M28.94,341.65c-6.72,0-13.2,0-19.77,0c0,5.12,0,10.12,0,15.2c6.7-0.7,13.21-1.37,19.77-2.05
					C28.94,350.31,28.94,346.08,28.94,341.65z M-58.43,238.06c0,11.88,0,23.24,0,34.82c2.97-0.8,5.69-1.53,8.54-2.3
					c0-9.27,0.01-18.41-0.03-27.56c0-0.43-0.28-1.09-0.62-1.26C-53.06,240.5-55.63,239.35-58.43,238.06z M-49.99,404.33
					c0-9.62,0.01-18.86-0.02-28.1c0-0.46-0.18-1.17-0.5-1.33c-2.49-1.27-5.04-2.44-7.79-3.75c0,11.48,0,22.5,0,33.63
					C-55.49,404.62-52.88,404.48-49.99,404.33z M150.47,351.21c0-13.33,0-26.56,0-39.88c-2.15-0.44-4.17-0.85-6.48-1.32
					c0,1.15,0,1.94,0,2.73c0,10.78,0,21.55,0,32.33c0,5.01,0,5.01,5.04,5.89C149.46,351.04,149.88,351.11,150.47,351.21z
					 M150.47,397.77c0-12.76,0-25.19,0-37.73c-2.16-0.31-4.21-0.61-6.36-0.92c0,12.82,0,25.33,0,38.03
					C146.24,397.37,148.27,397.56,150.47,397.77z M213.59,317.88c0-6.57-0.12-12.86,0.05-19.15c0.09-3.38-0.41-6.48-2.09-9.45
					c-1.08-1.9-1.88-3.97-2.8-5.96c-0.21,0.02-0.42,0.03-0.63,0.05c-0.81,2.16-2.24,4.31-2.32,6.49c-0.28,8.2-0.14,16.41-0.06,24.62
					c0.01,0.61,0.75,1.54,1.35,1.74C209.09,316.89,211.17,317.29,213.59,317.88z M-113.62,341.24c-0.23,2.39-0.29,4.49,1.09,6.59
					c2.65,4.03,5,8.26,7.5,12.39c1.48,2.45,3.01,4.87,4.52,7.31c0.13-0.06,0.26-0.12,0.39-0.18c0-8.66,0-17.33,0-26.12
					C-104.61,341.24-108.98,341.24-113.62,341.24z M-100.13,326.98c0-7.75,0-15.26,0-22.71c-1.93-0.59-2.88,0.15-3.68,1.81
					c-2.97,6.19-6.14,12.28-9.12,18.47c-0.59,1.22-0.7,2.66-1.15,4.48C-109.04,328.29-104.65,327.64-100.13,326.98z M117.91,296.36
					c0,2.04,0.07,3.72-0.02,5.39c-0.07,1.28,0.44,1.75,1.68,2.02c6.5,1.39,13,2.78,19.45,4.36c6.69,1.64,13.42,0.43,20.15,0.68
					c-0.36-0.38-0.73-0.59-1.13-0.69c-4.04-0.99-8.14-1.76-12.09-2.99c-2.54-0.79-5.95,0.04-7.32-3.36
					c-0.04-0.09-0.25-0.13-0.39-0.17C131.6,299.88,124.96,298.17,117.91,296.36z M30.84,354.56c5.15-0.52,10.16-1,15.15-1.58
					c0.39-0.05,0.97-0.84,0.99-1.29c0.09-2.93,0.09-5.87,0-8.8c-0.01-0.45-0.65-1.25-1.01-1.26c-5.03-0.08-10.06-0.06-15.13-0.06
					C30.84,346,30.84,350.14,30.84,354.56z M-100.19,408.25c0-8.29,0-16.52,0-24.76c-0.14-0.05-0.28-0.11-0.42-0.16
					c-4.61,8.11-9.22,16.23-14.16,24.92C-109.44,408.25-104.88,408.25-100.19,408.25z M20.91,274.69c0-5.81,0-11.26,0-17.01
					c-4.1,0.81-8,1.57-12.05,2.37c0,3.7-0.05,7.2,0.05,10.7c0.02,0.52,0.65,1.35,1.14,1.47C13.58,273.11,17.14,273.85,20.91,274.69z
					 M64.71,341.71c-5.53,0-10.78,0-16.13,0c0,3.71,0,7.26,0,11.06c5.47-0.54,10.75-1.07,16.13-1.6
					C64.71,347.9,64.71,344.86,64.71,341.71z M5.67,357.26c0.04-0.93,0.11-1.73,0.11-2.52c0.01-10.33,0.02-20.65,0.01-30.98
					c0-2.69-1.09-3.65-4.14-3.58c0,5.19,0,10.38,0,15.58c0,6.52,0.04,13.04-0.03,19.55c-0.02,1.84,0.59,2.62,2.46,2.16
					C4.5,357.36,4.95,357.35,5.67,357.26z M83.58,341.77c-5.85,0-11.43,0-17.04,0c0,3.09,0,5.98,0,9.14
					c5.76-0.59,11.38-1.17,17.04-1.76C83.58,346.59,83.58,344.27,83.58,341.77z M162.47,301.87c0-1.87-0.07-3.47,0.02-5.06
					c0.07-1.26-0.41-1.74-1.64-2.06c-5.01-1.31-9.98-2.79-14.97-4.17c-0.95-0.26-1.93-0.41-3.02-0.63
					c-0.05,0.83-0.11,1.41-0.12,1.99c-0.07,5.07-0.08,5.1,4.83,6.33C152.44,299.48,157.32,300.63,162.47,301.87z M5.69,401.03
					c0-10.38,0-20.49,0-30.59c0-3.51,0-3.51-3.84-4.52c0,11.75,0,23.48,0,35.39C3.18,401.22,4.32,401.14,5.69,401.03z M85.37,348.99
					c5.82-0.61,11.39-1.19,17-1.78c0-1.91,0-3.61,0-5.44c-5.77,0-11.36,0-17,0C85.37,344.2,85.37,346.45,85.37,348.99z
					 M162.09,291.58c-2.06-3.82-2.48-8.1-7.62-8.42c-1.56-0.1-3.07-0.9-4.61-1.34c-2.28-0.65-4.57-1.26-7.12-1.95
					c0,2-0.06,3.67,0.04,5.34c0.03,0.45,0.46,1.16,0.85,1.27C149.57,288.16,155.52,289.77,162.09,291.58z M56.72,232.78
					c-5.06,1.04-9.85,1.98-14.61,3.06c-0.63,0.14-1.38,0.84-1.62,1.46c-0.42,1.08,0.28,1.7,1.36,2.01c2.72,0.79,5.41,1.68,8.13,2.46
					c2.19,0.63,4.4,1.18,6.74,1.8C56.72,239.92,56.72,236.64,56.72,232.78z M165.56,292.59c6.04,1.66,11.89,3.27,18.01,4.95
					c0-1.66-0.11-2.91,0.03-4.12c0.16-1.46-0.48-2.09-1.81-2.43c-2.47-0.64-4.91-1.39-7.37-2.08c-2.91-0.82-5.81-1.62-8.85-2.47
					C165.56,288.63,165.56,290.52,165.56,292.59z M183.56,269.11c0-1.93,0.07-3.52-0.05-5.1c-0.03-0.44-0.54-1.08-0.96-1.22
					c-5.59-1.84-11.2-3.61-16.97-5.44c0,2.16,0,4.11,0,6.2C171.48,265.37,177.36,267.19,183.56,269.11z M183.27,278.51
					c1.01-5.3,0.8-5.68-3.81-7.19c-0.14-0.05-0.27-0.13-0.41-0.17c-4.44-1.36-8.89-2.72-13.57-4.15c0,1.89-0.06,3.5,0.04,5.1
					c0.03,0.45,0.42,1.15,0.8,1.26C171.94,275.12,177.6,276.8,183.27,278.51z M183.34,288.02c0.74-5.76,0.74-5.75-4.33-7.29
					c-0.28-0.08-0.55-0.2-0.83-0.28c-4.16-1.23-8.32-2.45-12.63-3.72c0,2.21,0,4.1,0,6.15
					C171.43,284.57,177.29,286.27,183.34,288.02z M-100.57,283.44c0.15-0.06,0.29-0.12,0.44-0.18c0-5.58,0-11.17,0-16.87
					c-3.86,0-7.62,0-12.01,0C-108.1,272.34-104.34,277.89-100.57,283.44z M104.05,347.03c7.46-0.94,14.6-1.92,21.74,0.2
					c0-2.1,0-3.69,0-5.53c-6.98,0-13.84-0.02-20.71,0.05c-0.35,0-0.95,0.68-0.99,1.08C103.97,344.11,104.05,345.41,104.05,347.03z
					 M232.5,405.5c1.1,0.13,1.99,0.24,3.11,0.37c0-11.31,0-22.34,0-33.49c-1.15,0-2.12,0-3.11,0
					C232.5,383.42,232.5,394.32,232.5,405.5z M162.17,262.46c0.14-0.43,0.25-0.62,0.27-0.82c0.38-5.15,0.38-5.17-4.44-6.76
					c-4.25-1.4-8.53-2.73-13.24-4.23c1.18,2.53,2.11,4.58,3.1,6.6c0.2,0.42,0.58,0.91,0.98,1.04
					C153.27,259.72,157.71,261.08,162.17,262.46z M166.45,296.28c1.07,5.25,3.54,8.57,8.94,8.77c0.57,0.02,1.13,0.27,1.7,0.4
					c2.08,0.47,4.16,0.93,6.48,1.45c0-1.85,0.09-3.31-0.05-4.75c-0.05-0.5-0.56-1.23-1.01-1.36
					C177.23,299.25,171.91,297.8,166.45,296.28z M239.95,321.16c0.06-0.66,0.11-0.94,0.11-1.22c0.13-4.91,0.13-4.92-4.65-6.27
					c-3.69-1.04-7.39-2.04-11.13-3.06c-0.29,2.67,1.26,7.03,2.71,7.41C231.22,319.13,235.49,320.09,239.95,321.16z M-113.44,380.42
					c0,5.81,0,11.42,0,17.03c0.12,0.02,0.25,0.04,0.37,0.06c3.22-5.6,6.45-11.19,9.85-17.09
					C-106.93,380.42-110.14,380.42-113.44,380.42z M-56.02,214.46c-4.7,1.77-8.99,3.37-13.25,5.01c-0.34,0.13-0.8,0.53-0.81,0.82
					c-0.07,1.89-0.04,3.79-0.04,5.92c4.69-1.51,8.92-2.85,13.11-4.29c0.44-0.15,0.92-0.89,0.95-1.38
					C-55.96,218.66-56.02,216.77-56.02,214.46z M186.4,282.92c0,1.46,0.11,2.55-0.02,3.6c-0.22,1.76,0.41,2.62,2.18,3.07
					c3.54,0.88,7.02,2.01,10.54,3.01c0.93,0.26,1.9,0.41,2.88,0.61c0.49-5.37,0.49-5.39-4.36-6.9
					C194.01,285.19,190.39,284.12,186.4,282.92z M202.05,278.31c-5.19-1.6-10.24-3.16-15.17-4.68c-0.25,0.27-0.33,0.32-0.34,0.37
					c-0.72,5.13-0.64,5.31,4.11,6.74c3.73,1.13,7.49,2.19,11.4,3.34C202.05,282.01,202.05,280.27,202.05,278.31z M186.41,264.04
					c0,1.91-0.07,3.37,0.04,4.82c0.03,0.47,0.42,1.19,0.8,1.31c4.84,1.59,9.71,3.1,14.77,4.69c0-2.12,0-3.92,0-5.83
					C196.94,267.4,191.89,265.79,186.41,264.04z M202.13,302.71c0-1.55-0.12-2.73,0.03-3.88c0.2-1.56-0.44-2.21-1.91-2.56
					c-2.56-0.62-5.06-1.44-7.6-2.14c-2-0.56-4-1.08-6.23-1.67c0,1.85-0.08,3.32,0.05,4.77c0.04,0.49,0.55,1.22,0.99,1.35
					C192.22,299.98,197.02,301.28,202.13,302.71z M224.06,301.7c0,1.82-0.08,3.34,0.05,4.85c0.04,0.49,0.57,1.21,1.02,1.34
					c4.87,1.42,9.77,2.75,14.69,4.11c0.27-2.14-1.06-6.07-2.28-6.44C233.17,304.23,228.75,303.03,224.06,301.7z M202.13,311.51
					c0-1.66,0.09-2.91-0.04-4.13c-0.06-0.53-0.48-1.33-0.89-1.45c-4.81-1.4-9.65-2.69-14.78-4.09c0,1.8-0.07,3.32,0.04,4.83
					c0.03,0.44,0.52,1.11,0.92,1.21C192.18,309.11,197,310.26,202.13,311.51z M-103.71,368.63c-3.31-5.45-6.35-10.46-9.39-15.47
					c-0.15,0.07-0.29,0.15-0.44,0.22c0,5.4,0,10.8,0,16.27C-110.27,369.32-107.24,369-103.71,368.63z M-113.64,287.72
					c3.39-0.91,6.49-1.75,9.85-2.66c-3.3-4.82-6.35-9.28-9.4-13.74c-0.15,0.08-0.3,0.15-0.45,0.23
					C-113.64,276.79-113.64,282.03-113.64,287.72z M-69.95,216.51c4.44-1.65,8.69-3.2,12.91-4.83c0.42-0.16,0.94-0.76,0.96-1.18
					c0.11-1.71,0.05-3.43,0.05-5.13c-0.45-0.02-0.62-0.08-0.74-0.03c-2.8,1.06-5.6,2.12-8.39,3.21
					C-68.36,209.79-70.11,212.63-69.95,216.51z M-115.77,294.94c-2.2-0.11-3.07,0.48-3.04,2.6c0.11,8.79,0.04,17.59,0.04,26.38
					c0,1.26,0,2.52,0,3.98c0.49-0.28,0.64-0.31,0.7-0.41c1.57-2.52,2.44-5.14,2.37-8.24C-115.9,311.2-115.77,303.15-115.77,294.94z
					 M142.75,269.87c0,2.08-0.08,3.75,0.05,5.41c0.04,0.48,0.61,1.19,1.07,1.33c4.16,1.27,8.36,2.43,13.04,3.77
					c-1.18-2.52-2.14-4.62-3.15-6.68c-0.17-0.35-0.57-0.7-0.93-0.81C149.64,271.9,146.43,270.96,142.75,269.87z M-84.94,204.05
					c4.12-1.63,8.05-3.17,11.94-4.77c0.37-0.15,0.77-0.73,0.79-1.14c0.09-1.64,0.04-3.29,0.04-5.32c-3.16,1.28-5.93,2.36-8.66,3.51
					C-85.57,198.33-85.56,198.35-84.94,204.05z M-72.19,201.99c-4.39,1.77-8.38,3.36-12.34,5.01c-0.3,0.12-0.57,0.67-0.58,1.04
					c-0.06,1.59-0.03,3.18-0.03,5.08c4.23-1.62,8.18-3.1,12.08-4.68c0.4-0.16,0.79-0.85,0.82-1.32
					C-72.12,205.61-72.19,204.08-72.19,201.99z M-72.2,211.29c-3.07,1.15-5.87,2.12-8.62,3.24c-4.67,1.9-4.66,1.94-4.24,7.06
					c0.01,0.07,0.06,0.13,0.2,0.45c3.98-1.47,7.99-2.93,11.97-4.47c0.33-0.13,0.64-0.78,0.66-1.2
					C-72.15,214.78-72.2,213.19-72.2,211.29z M-85.13,195.1c4.27-1.76,8.23-3.38,12.17-5.06c0.36-0.15,0.73-0.73,0.75-1.13
					c0.08-1.64,0.04-3.29,0.04-5.31c-4.32,1.83-8.27,3.48-12.19,5.21c-0.36,0.16-0.71,0.76-0.73,1.18
					C-85.19,191.56-85.13,193.14-85.13,195.1z M226.25,275.79c-0.15,0.14-0.31,0.29-0.46,0.43c1.1,2.11,1.68,5.14,3.42,6.15
					c3.17,1.83,7.03,2.46,10.84,3.67c0-1.92,0.05-3.38-0.03-4.83c-0.02-0.42-0.33-1.08-0.65-1.19
					C235.02,278.56,230.63,277.19,226.25,275.79z M-115.88,376.53c-2.43-0.58-2.82,0.44-2.81,2.29c0.08,8.57,0.04,17.14,0.05,25.71
					c0,0.45,0.09,0.9,0.16,1.54c1.93-2.21,2.84-4.4,2.65-7.16c-0.23-3.35-0.05-6.73-0.05-10.1
					C-115.88,384.72-115.88,380.64-115.88,376.53z M-57.73,177.94c-0.14-0.13-0.28-0.26-0.43-0.38c-3.68,1.59-7.37,3.16-11.01,4.82
					c-0.45,0.21-0.91,0.92-0.95,1.44c-0.12,1.57-0.04,3.16-0.04,5.03c3.34-1.38,6.36-2.61,9.36-3.88c0.3-0.13,0.63-0.43,0.75-0.73
					C-59.24,182.14-58.49,180.04-57.73,177.94z M168.81,315.64c-0.05,0.08-0.12,0.14-0.12,0.21c-0.04,12.45-0.09,24.9-0.06,37.36
					c0,0.48,0.82,0.95,1.26,1.42c0.19-0.14,0.38-0.27,0.57-0.41c0-6.36,0-12.73,0-19.09c0-5.94-0.01-11.87,0.01-17.81
					C170.47,316.14,170.33,315.24,168.81,315.64z M187.03,357.31c0.14-0.24,0.21-0.31,0.21-0.37c0.03-12.09,0.07-24.18,0.03-36.27
					c0-0.57-0.76-1.13-1.16-1.69c-0.25,0.1-0.49,0.21-0.74,0.31c0,0.71,0,1.41,0,2.12c0,4.03,0,8.06,0,12.09c0,7.26,0,14.51,0,21.77
					C185.37,356.39,185.21,357.62,187.03,357.31z M-86.97,216.96c-3.87,1.47-7.2,2.72-10.51,4.03c-0.39,0.15-0.86,0.67-0.89,1.04
					c-0.1,1.49-0.04,3-0.04,4.63c0.55,0,0.94,0.1,1.25-0.02c3.14-1.15,6.28-2.31,9.4-3.55c0.36-0.14,0.73-0.74,0.76-1.15
					C-86.92,220.44-86.97,218.93-86.97,216.96z M-86.98,198.97c-3.85,1.58-7.33,2.99-10.79,4.47c-0.3,0.13-0.6,0.66-0.61,1.01
					c-0.07,1.56-0.03,3.12-0.03,5c3.77-1.52,7.15-2.84,10.49-4.26c0.42-0.18,0.86-0.82,0.9-1.27
					C-86.9,202.42-86.98,200.91-86.98,198.97z M-86.98,207.93c-3.82,1.53-7.26,2.88-10.66,4.31c-0.35,0.15-0.71,0.74-0.73,1.15
					c-0.09,1.51-0.03,3.02-0.03,4.85c3.75-1.43,7.21-2.73,10.65-4.09c0.33-0.13,0.72-0.61,0.74-0.94
					C-86.94,211.57-86.98,209.93-86.98,207.93z M-86.96,189.96c-3.89,1.64-7.31,3.07-10.71,4.57c-0.35,0.16-0.69,0.76-0.71,1.18
					c-0.08,1.51-0.03,3.03-0.03,4.92c3.82-1.59,7.32-3.02,10.79-4.54c0.34-0.15,0.61-0.82,0.63-1.26
					C-86.91,193.39-86.96,191.93-86.96,189.96z M150.19,262.24c0.95,2.07,1.55,3.48,2.23,4.84c0.45,0.9,0.81,2.24,1.55,2.53
					c2.67,1.05,5.48,1.74,8.49,2.64c0-2.01,0.05-3.61-0.03-5.21c-0.02-0.42-0.35-1.07-0.69-1.18
					C158.1,264.68,154.43,263.56,150.19,262.24z M-86.95,225.94c-3.81,1.39-7.16,2.58-10.49,3.87c-0.42,0.16-0.88,0.79-0.92,1.23
					c-0.12,1.36-0.04,2.74-0.04,4.21c3.41-0.9,6.6-1.64,9.71-2.63c0.72-0.23,1.52-1.22,1.67-1.97
					C-86.76,229.26-86.95,227.77-86.95,225.94z M235.75,302.15c0.17-0.2,0.34-0.4,0.51-0.6c-1.03-1.96-1.59-4.69-3.21-5.72
					c-2.51-1.58-5.76-2-8.97-3c0,1.94-0.05,3.4,0.03,4.85c0.02,0.42,0.3,1.09,0.61,1.19C228.38,300.01,232.07,301.07,235.75,302.15z
					 M-118.65,370.04c2.25,0.47,2.95-0.27,2.91-2.36c-0.12-5.85-0.08-11.7-0.02-17.55c0.02-2.31-1.45-3.73-2.88-5.29
					C-118.65,353.2-118.65,361.57-118.65,370.04z M-84.92,231.01c2.68-0.87,5.37-1.72,8.04-2.63c0.38-0.13,0.85-0.42,0.98-0.75
					c0.79-2.05,1.5-4.12,2.38-6.6c-2.67,0.95-4.84,1.75-7.03,2.5c-4.88,1.67-4.88,1.66-4.55,6.88
					C-85.09,230.54-85.02,230.68-84.92,231.01z M-118.64,263.8c0,8.78,0,16.88,0,25.01c2.09,0.17,2.97-0.52,2.92-2.7
					c-0.14-5.65-0.12-11.3-0.03-16.95C-115.71,267-116.91,265.71-118.64,263.8z M-71.88,242.22c-1.99-0.19-1.9,1.01-1.9,2.23
					c0.01,10.05,0,20.1,0,30.16c0,0.7,0,1.41,0,2.09c2.04,0.18,1.91-0.99,1.91-2.14c-0.01-9.39,0-18.78,0-28.18
					C-71.88,245-71.88,243.62-71.88,242.22z M-56.02,195.8c-7.39,1.86-9.74,4.13-10.23,10.02c3.32-1.3,6.49-2.51,9.62-3.82
					c0.32-0.13,0.57-0.79,0.59-1.22C-55.98,199.18-56.02,197.57-56.02,195.8z M-86.8,248.32c-1.82,0.16-1.91,1.26-1.91,2.53
					c0.02,9.38,0.01,18.77,0.02,28.15c0,0.57,0.08,1.14,0.12,1.7c1.86,0.3,1.78-0.88,1.77-2.03c-0.01-9.02,0-18.04,0-27.05
					C-86.8,250.53-86.8,249.45-86.8,248.32z M-113.59,317.36c0.16,0.05,0.31,0.1,0.47,0.16c2.19-4.36,4.39-8.71,6.69-13.29
					c-2.62,0-4.84,0-7.16,0C-113.59,308.7-113.59,313.03-113.59,317.36z M142.76,260.35c0,1.62-0.03,3.35,0.03,5.07
					c0.01,0.38,0.28,0.98,0.56,1.07c2.63,0.86,5.28,1.63,8.19,2.5C149.82,264.55,148.77,260.03,142.76,260.35z M231,286.17
					c1.2,5.79,3.69,7.99,9.06,8.13c0-1.52,0.05-3.04-0.04-4.55c-0.02-0.39-0.43-0.97-0.78-1.09
					C236.57,287.79,233.86,287.02,231,286.17z M-2.51,100.31c0.12,0.08,0.24,0.16,0.36,0.24c-0.24,1.03-0.48,2.06-0.82,3.5
					c1.73-0.47,2.96-0.7,4.08-1.17c0.44-0.18,1.02-1.22,0.94-1.32c-1.09-1.19-0.57-2.26,0.03-3.41c0.17-0.33,0.13-1.08-0.1-1.24
					c-1.1-0.79-0.71-1.43-0.12-2.33c0.3-0.45,0.33-1.4,0.05-1.83c-0.21-0.32-1.14-0.24-1.74-0.2c-0.5,0.03-0.98,0.26-1.48,0.37
					c-1.68,0.36-1.84,1.29-1.12,2.68c0.21,0.41,0.22,0.95,0.2,1.43C-2.28,98.13-2.41,99.22-2.51,100.31z M1.81,108.57
					c-0.21-0.09-0.42-0.18-0.63-0.27c0.09-0.2,0.24-0.39,0.27-0.59c0.11-0.89,0.19-1.79,0.29-2.69c-1.37,0.21-2.78,0.32-4.09,0.74
					c-0.21,0.07,0.02,1.55,0.08,2.38c0.03,0.43,0.32,1.04,0.13,1.27c-1.1,1.33-0.83,2.49,0.18,3.38c-0.36,1.23-0.65,2.26-1.04,3.61
					c1.28-0.34,2.1-0.46,2.82-0.78c1.13-0.51,3.73-0.31,1.51-2.74c-0.15-0.16,0.24-0.76,0.28-1.16
					C1.69,110.67,1.74,109.62,1.81,108.57z M-2.64,128.36c1.09-0.32,2.01-0.56,2.91-0.85c0.63-0.2,1.24-0.48,1.86-0.72
					c-0.31-0.58-0.61-1.16-0.92-1.75c0.91-1.51,0.89-1.5,0.11-3.71c-0.1-0.29,0.07-0.67,0.12-1.01c0.13-0.93,0.26-1.86,0.4-2.79
					c-1.03,0-2.13-0.23-3.06,0.06c-1.95,0.61-2.08,1.69-1.04,3.28C-2.41,123.66-2.52,125.89-2.64,128.36z M-70.02,197.68
					c5.01-0.7,7.08-3.01,8.05-9.05c-1.29,0.52-2.49,0.98-3.68,1.47C-70.48,192.11-70.48,192.11-70.02,197.68z M213.04,289.14
					c0.18-0.05,0.36-0.1,0.54-0.14c0-2.67,0-5.34,0-8.01c0-2.64,0-5.29,0-7.93c-1.66,2.43-2.84,4.91-3.97,7.42
					c-0.14,0.3-0.17,0.76-0.04,1.06C210.7,284.08,211.88,286.61,213.04,289.14z M231.55,292.12c-1.46-5.93-3-7.53-7.36-7.76
					c0,1.81,0,3.62,0,5.58C226.6,290.65,229,291.36,231.55,292.12z M210.35,323.65c5.47,2.4,16.97,3.56,20.08,2.21
					C224.12,323.18,217.5,323.24,210.35,323.65z M-62.58,195.07c2.03-0.83,3.81-1.48,5.51-2.29c0.46-0.22,0.97-0.87,1.01-1.35
					c0.13-1.64,0.05-3.3,0.05-4.96C-60.12,186.94-61.27,188.45-62.58,195.07z M162.46,281.68c0-1.73,0.04-3.26-0.02-4.79
					c-0.02-0.44-0.24-1.16-0.53-1.26c-1.94-0.65-3.93-1.16-5.9-1.72C157.81,276.89,157.12,281.71,162.46,281.68z M1.33,133.4
					c0.15,0,0.29,0,0.44,0c-0.1-1.16,0.22-2.7-0.4-3.41c-1.09-1.25-2.73-0.51-3.5,0.61c-0.54,0.79-0.28,2.12-0.37,3.21
					c0.17,0.01,0.35,0.02,0.52,0.03c-0.29,0.93-0.59,1.86-0.96,3.03c1.96-0.37,3.42-0.64,5.22-0.97
					C1.98,135.12,1.65,134.26,1.33,133.4z M-17.84,265.41c-0.02,0.16-0.05,0.32-0.07,0.49c2.92,0.63,5.84,1.27,8.84,1.92
					c0-1.56,0-2.75,0-4.11C-12.13,264.3-14.98,264.85-17.84,265.41z M243.5,317.68c-0.15,0.04-0.31,0.07-0.46,0.11
					c0,2.42,0,4.83,0,7.34c1.27,0.3,2.52,0.6,4.31,1.02C245.92,323.02,244.71,320.35,243.5,317.68z M-65.68,199.71
					c-4.97,1.51-5.08,1.73-4.17,7.49C-66.81,205.58-67.26,202.39-65.68,199.71z M239.9,303.08c0.74-5.32,0.03-6.4-4.25-6.48
					C236.57,300.65,238.05,302.9,239.9,303.08z M143.36,250.72c-0.9,6.65-1.01,5.94,2.92,6.52
					C145.27,254.97,144.32,252.85,143.36,250.72z M-116.31,260.17c0.13-0.07,0.27-0.14,0.4-0.21c0-1.7,0-3.4,0-5.11
					c-3.24,0.21-3.53,0.74-1.89,3.28C-117.34,258.83-116.81,259.49-116.31,260.17z M-45.49,269.31c2.24-0.62,4.45-1.24,6.65-1.85
					c-0.03-0.19-0.07-0.39-0.1-0.58c-1.68,0-3.36,0.07-5.03-0.02C-45.87,266.76-46.06,267.66-45.49,269.31z M-116.52,341.3
					c0.2-0.07,0.4-0.13,0.61-0.2c0-1.76,0-3.52,0-5.44c-1,0.11-1.83,0.2-3.3,0.35C-118.19,338.02-117.35,339.66-116.52,341.3z
					 M205.86,284.51c2.48-2.67,2.4-4.84,0-6.34C205.86,280.21,205.86,282.25,205.86,284.51z M-58.78,183.83
					c2.89-0.93,3.43-2.54,2.23-6.18C-57.3,179.75-57.98,181.62-58.78,183.83z M227.17,281.84c-1-2.16-1.78-3.85-2.56-5.54
					c-0.13,0.04-0.26,0.07-0.39,0.11c0,1.53,0,3.06,0,4.67C225.05,281.3,225.85,281.5,227.17,281.84z M-74.36,227.42
					c3.42-0.84,1.48-3.13,1.65-4.7C-73.21,224.17-73.72,225.62-74.36,227.42z"/>
				<path class="st2" d="M175.34,129.12c-0.77,0-1.54,0-2.31,0"/>
				<path class="st2" d="M167.98,129.12c-0.77,0-1.54,0-2.31,0"/>
				<path class="st2" d="M406.51,150.83c-0.41-0.18-0.79-0.63-0.99-1.04c-3.26-6.72-6.54-13.43-9.71-20.19
					c-0.83-1.77-1.24-3.73-2.01-5.53c-0.36-0.84-0.97-1.82-1.74-2.19c-31.34-15.09-62.71-30.13-94.07-45.17
					c-27.8-13.34-55.59-26.68-83.38-40.03c-0.98-0.47-1.87-1.12-2.8-1.69c-37.15,0-74.3,0-111.45,0c0.01,0.59,0.13,1.2,0.01,1.76
					c-0.85,3.96,1.19,5.62,4.62,7.19c19.72,9.01,39.31,18.3,58.98,27.42c1.41,0.66,1.73,1.39,1.73,2.8
					c-0.05,13.3-0.03,41.66-0.03,54.96c0.77,0,1.54,0,2.31,0c0-13.59,0-42.08,0-55.82c1.64,0.76,3.06,1.31,4.35,2.08
					c0.41,0.25,0.66,1.08,0.66,1.65c0.03,12.34,0.02,39.74,0.04,52.09c0.77,0,1.54,0,2.31,0c0-12.5,0-39.86,0-52.21
					c4.31,1.67,8.5,3.2,12.6,4.93c1.72,0.73,3.35,1.76,4.87,2.86c5.98,4.33,11.81,8.87,17.86,13.09
					c7.11,4.95,14.84,8.85,22.88,12.07c13.92,5.57,28.26,8.58,43.35,7.12c1.14-0.11,2.39-0.07,3.45,0.31
					c4.41,1.57,8.74,3.35,13.15,4.92c1.5,0.53,2.11,1.43,2.47,2.93c4.2,17.27,8.5,34.51,12.67,51.79c0.38,1.57,1.1,2.18,2.54,2.46
					c2.58,0.51,5.12,1.25,7.71,1.65c1.49,0.23,1.74,0.93,1.7,2.21c-0.07,2.2-0.02,4.4-0.02,6.6c0,35.75-0.02,71.5,0,107.25
					c0.01,18.42,0.11,36.85,0.11,55.27c0,21.36-0.05,42.72-0.08,64.08c6.02,0,12.04,0,18.05,0.02c0-1.51,0-3.03,0-4.77
					c1.09-0.2,2.17-0.39,3.52-0.63c0,1.96,0,3.68,0,5.4c1.47,0,2.94,0,4.41,0c-0.07-1.65-0.14-3.3-0.23-5.33
					c2.4,1.16,4.48,2.03,6.4,3.17c0.42,0.25,0.31,1.41,0.44,2.16c1.02,0,2.05,0,3.08,0c0.01-47.98,0.02-95.95,0.03-143.93
					c0-41.02,0-82.03,0-123.05c0-0.87,0-1.73,0-3.08c5.63,2.15,10.92,4.16,16.07,6.12c0,21.5,0,42.81,0,64.6
					c2.33,0.12,4.7,0.11,7.04,0.4c1.44,0.18,2.8,0.95,4.24,1.22c1.35,0.25,2.77,0.37,4.13,0.23c9.18-0.92,18.35-1.93,27.53-2.9
					c0.58-0.06,1.17-0.03,1.76-0.04c0-20.26,0-40.53,0-60.79C413.55,153.79,410.02,152.34,406.51,150.83z M379.03,119.61
					c4.41,2.08,8.82,4.15,13.22,6.26c0.37,0.18,0.74,0.53,0.92,0.89c3.13,6.37,6.24,12.74,9.34,19.12c0.15,0.31,0.18,0.68-0.05,1.27
					c-7.93-8.99-15.87-17.98-23.81-26.97C378.77,119.99,378.9,119.8,379.03,119.61z M358.73,109.95c4.52,2.14,9.04,4.26,13.55,6.43
					c0.35,0.17,0.61,0.63,0.79,1.01c3.08,6.55,6.14,13.1,9.19,19.66c0.15,0.32,0.19,0.69,0.28,1.04c-0.1,0.11-0.21,0.21-0.32,0.32
					c-7.95-9.31-15.91-18.62-23.86-27.94C358.48,110.3,358.61,110.12,358.73,109.95z M355.17,108.79
					c8.16,9.58,16.08,18.88,23.98,28.17c-0.1,0.18-0.2,0.35-0.3,0.52c-1.73-0.68-3.43-1.48-5.21-2.02
					c-6.01-1.84-10.47-4.95-12.39-11.52c-1.44-4.93-4.1-9.52-6.2-14.26C355.01,109.57,355.08,109.4,355.17,108.79z M338.44,100.28
					c4.54,2.14,9.09,4.26,13.61,6.45c0.39,0.2,0.66,0.77,0.87,1.22c2.97,6.52,5.92,13.06,8.86,19.6c0.26,0.58,0.36,1.23,0.17,2.08
					c-7.97-9.6-15.93-19.19-23.9-28.79C338.18,100.65,338.31,100.47,338.44,100.28z M318.31,90.7c3.22,1.51,6.37,3.19,9.66,4.48
					c3.15,1.23,5,3.24,6.21,6.43c2.2,5.8,4.88,11.41,7.34,17.11c0.25,0.59,0.38,1.24,0.17,2.14c-7.95-9.88-15.91-19.76-23.86-29.64
					C317.99,91.05,318.15,90.87,318.31,90.7z M297.95,81.1c0.83,0.35,1.68,0.68,2.49,1.08c2.45,1.15,4.82,2.54,7.36,3.42
					c3.28,1.13,4.94,3.36,6.12,6.5c2.12,5.68,4.62,11.23,6.94,16.84c0.39,0.92,0.7,1.88,1.04,2.83c-0.15,0.1-0.31,0.2-0.46,0.3
					c-7.95-10.17-15.91-20.34-23.86-30.51C297.71,81.4,297.83,81.25,297.95,81.1z M240.92,91.06c1.16-1.31,2.45-2.83,3.83-4.25
					c0.26-0.26,0.99-0.33,1.37-0.17c4.44,1.86,8.85,3.78,13.27,5.68C253.05,94.07,246.87,95.84,240.92,91.06z M263.82,94.01
					c-1.35,1.86-2.27,3.22-3.3,4.49c-0.24,0.29-0.96,0.47-1.32,0.34c-2.09-0.77-4.15-1.65-6.22-2.5c0.01-0.21,0.03-0.41,0.05-0.62
					C256.4,95.19,259.77,94.65,263.82,94.01z M239.38,90.2c-0.26,0.27-1,0.34-1.39,0.19c-2.16-0.84-4.28-1.78-6.39-3.21
					c3.68-0.56,7.35-1.12,11.02-1.68c0.1,0.2,0.19,0.39,0.29,0.59C241.74,87.47,240.62,88.88,239.38,90.2z M238.84,84.23
					c-3.8,0.58-7.61,1.66-11.39,1.58c-2.55-0.05-5.05-1.75-8.42-3.03c2.04-1.8,3.63-3.25,5.29-4.62c0.33-0.27,1-0.46,1.35-0.31
					c4.44,1.87,8.84,3.8,13.26,5.72C238.9,83.79,238.87,84.01,238.84,84.23z M217.73,82.22c-2.86-1.17-5.57-2.28-8.29-3.39
					c0.02-0.21,0.03-0.41,0.05-0.62c4.31-0.5,8.61-1,12.92-1.5c0.13,0.26,0.27,0.51,0.4,0.76
					C221.12,79.04,219.44,80.62,217.73,82.22z M223.17,86.56c-2.96,0.4-5.37,0.72-7.89,1.06C217.28,84,217.95,83.89,223.17,86.56z
					 M237.33,92.06c-1.69,3.45-2.2,3.67-5.59,2.4c-3.62-1.35-7.23-2.72-10.83-4.11c-0.59-0.22-1.14-0.58-1.79-0.92
					C223.55,87.09,230.97,88.21,237.33,92.06z M244.48,95.12c-2.77,0.45-5.03,0.81-7.38,1.2C238.25,92.62,240.33,92.21,244.48,95.12
					z M259.01,100.42c-2.13,3.65-2.13,3.67-5.7,2.33c-3.54-1.34-7.07-2.71-10.6-4.09c-0.51-0.2-0.98-0.52-1.5-0.8
					C247.79,94.64,253.21,98.14,259.01,100.42z M265.62,103.6c-2.26,0.36-4.38,0.7-6.81,1.09
					C260.64,100.83,262.27,100.64,265.62,103.6z M261.96,99.69c0.97-1.37,1.89-2.76,2.93-4.06c0.23-0.29,0.93-0.5,1.26-0.36
					c4.51,1.87,8.99,3.82,13.59,5.79C275.83,103.79,267.27,103.1,261.96,99.69z M274.25,104.23c3.05-0.47,6.1-0.94,9.63-1.49
					c-0.97,1.88-1.72,3.34-2.58,4.99c-2.47-0.98-4.82-1.92-7.18-2.86C274.16,104.66,274.21,104.44,274.25,104.23z M285.64,103.6
					c4.8,2.07,9.52,4.1,14.48,6.24c-5.49,2.36-11.47,1.77-17.07-1.61C283.93,106.66,284.74,105.21,285.64,103.6z M299.49,114.47
					c1.08-0.15,2.15-0.3,3.59-0.5c-0.25,0.84-0.43,1.46-0.67,2.27c-1.13-0.48-2.03-0.87-2.94-1.26
					C299.48,114.81,299.48,114.64,299.49,114.47z M303.85,117.98c1.76,0.73,3.38,1.41,5,2.08c-0.02,0.2-0.04,0.39-0.06,0.59
					c-1.94,0.34-3.88,0.68-6.33,1.11C303,120.29,303.36,119.29,303.85,117.98z M304.52,116.93c0.38-3.79,1.59-4.49,5.13-2.96
					c2.95,1.28,5.92,2.54,8.87,3.83c0.5,0.22,0.95,0.54,1.53,0.88C314.37,121.19,309.38,119.58,304.52,116.93z M294.64,80.09
					c7.95,10.25,15.9,20.5,23.87,30.74c-0.14,0.19-0.28,0.39-0.42,0.58c-2.19-0.91-4.3-2.08-6.57-2.68
					c-5.69-1.5-8.8-5.07-10.47-10.68c-1.56-5.23-4.01-10.18-6.05-15.27c-0.32-0.8-0.5-1.65-0.74-2.47
					C294.39,80.24,294.51,80.16,294.64,80.09z M277.69,71.36c2.22,1.03,4.44,2.06,6.65,3.1c0.47,0.22,0.9,0.54,1.38,0.68
					c4.57,1.31,7.13,4.28,8.65,8.85c2.23,6.71,5.13,13.2,7.75,19.79c-0.17,0.14-0.35,0.27-0.53,0.41
					c-8.09-10.77-16.19-21.54-24.3-32.32C277.42,71.7,277.56,71.53,277.69,71.36z M274.4,70.53c8.03,10.62,16.06,21.25,24.09,31.88
					c-0.08,0.15-0.17,0.3-0.26,0.45c-0.95-0.36-1.92-0.67-2.85-1.07c-3.36-1.43-6.73-2.85-10.05-4.38c-0.72-0.34-1.53-1-1.81-1.7
					c-3.17-8.02-6.25-16.07-9.34-24.11c-0.09-0.26-0.14-0.53-0.21-0.8C274.11,70.71,274.26,70.62,274.4,70.53z M259.01,62.4
					c3.77,1.79,7.55,3.57,11.28,5.46c0.69,0.35,1.41,1.06,1.7,1.78c3.26,8.16,6.45,16.35,9.63,24.54c0.17,0.44,0.15,0.97,0.21,1.45
					c-0.18,0.1-0.37,0.21-0.55,0.31c-8.08-11.25-16.15-22.5-24.62-34.31C257.87,62.02,258.47,62.14,259.01,62.4z M254.54,61.31
					c7.89,10.76,15.77,21.53,23.65,32.29c-0.14,0.18-0.29,0.35-0.43,0.52c-3.05-1.29-6.05-2.77-9.19-3.84
					c-3.57-1.22-5.65-3.3-6.82-7.06c-2.03-6.55-4.74-12.89-7.15-19.33c-0.27-0.73-0.44-1.5-0.65-2.25
					C254.15,61.53,254.34,61.42,254.54,61.31z M237.41,52.36c0.42,0.12,0.87,0.19,1.27,0.38c3.78,1.77,7.58,3.5,11.3,5.39
					c0.81,0.42,1.63,1.28,1.95,2.13c3.13,8.28,6.15,16.61,9.2,24.92c0.07,0.19,0.03,0.42,0.09,1.31
					c-8.31-11.61-16.22-22.68-24.13-33.75C237.2,52.62,237.3,52.49,237.41,52.36z M233.86,51.3c8.03,11.19,16.07,22.38,24.09,33.58
					c-0.09,0.14-0.19,0.27-0.28,0.41c-0.67-0.2-1.36-0.33-1.99-0.6c-3.56-1.52-7.15-3.01-10.64-4.69c-0.92-0.44-1.86-1.42-2.21-2.36
					c-2.4-6.51-4.62-13.09-6.95-19.62c-0.77-2.17-1.72-4.28-2.59-6.41C233.48,51.5,233.67,51.4,233.86,51.3z M217.92,42.92
					c4.17,1.95,8.33,3.91,12.48,5.9c0.35,0.17,0.71,0.55,0.85,0.92c3.35,9.08,6.67,18.18,9.99,27.27c-0.24,0.08-0.48,0.17-0.72,0.25
					c-7.9-11.34-15.79-22.69-23.91-34.35C217.38,42.91,217.7,42.82,217.92,42.92z M213.63,41.65c8.01,11.44,16.03,22.88,24.04,34.32
					c-0.2,0.21-0.4,0.41-0.6,0.62c-2.74-1.16-5.43-2.48-8.23-3.44c-3.74-1.28-6.35-3.11-7.56-7.36c-2.22-7.8-5.21-15.39-7.88-23.06
					C213.31,42.47,213.26,42.19,213.63,41.65z M189.1,39.83c6.59-0.15,13.19-0.25,19.78-0.46c1.41-0.05,2.05,0.39,2.51,1.72
					c2.44,7.05,4.97,14.06,7.46,21.08c0.8,2.25,1.57,4.51,2.35,6.76c-0.17,0.13-0.33,0.25-0.5,0.37
					c-11.18-9.56-22.35-19.11-34.02-29.1C187.97,40,188.53,39.85,189.1,39.83z M184.43,40.89c10.18,8.62,20.27,17.32,30.38,26.02
					c0.26,0.22,0.44,0.54,0.66,0.81c-0.1,0.13-0.19,0.25-0.29,0.38c-16.83-4.83-33.66-9.66-51.04-14.64
					c2.45-1.73,4.41-3.11,6.37-4.49c3.83-2.7,7.63-5.44,11.53-8.04C182.62,40.55,183.96,40.49,184.43,40.89z M123.87,41.66
					c0.02-0.17,0.04-0.33,0.06-0.5c17.27-0.34,34.53-0.67,51.79-1.01c0.06,0.17,0.12,0.34,0.18,0.51c-0.6,0.47-1.16,0.98-1.79,1.4
					c-4.44,2.99-8.86,6-13.36,8.89c-0.78,0.5-1.99,0.87-2.81,0.64c-10.98-3.07-21.94-6.26-32.9-9.43
					C124.63,42.04,124.26,41.83,123.87,41.66z M165.31,66.52c-8.39-4.09-16.75-8.17-25.11-12.25c0.05-0.13,0.11-0.26,0.16-0.39
					c3.32,1.23,6.66,2.42,9.97,3.69c4.44,1.7,8.84,3.55,13.31,5.17C165.45,63.39,166.18,64.3,165.31,66.52z M172.77,69.67
					c-4.16-0.67-5.3-1.82-4.66-4.72C172.48,65.4,173.4,66.34,172.77,69.67z M168.99,62.69c-2.09-0.84-4.1-1.86-6.15-2.79
					c0.03-0.12,0.07-0.23,0.11-0.35c18.15,5.17,36.3,10.33,54.45,15.48c-0.02,0.26-0.04,0.52-0.06,0.78c-4,0.42-8,0.87-12.01,1.23
					c-0.61,0.06-1.27-0.3-1.88-0.54C191.96,71.91,180.47,67.32,168.99,62.69z M175.47,67.99c1.66,1.85,3.02,3.36,4.64,5.16
					C175.2,71.91,174.87,71.56,175.47,67.99z M178.37,68.63c7.08,2.78,14.16,5.56,21.24,8.34C188.24,80.14,184.44,76.7,178.37,68.63
					z M215.89,83.67c-0.84,0.95-1.6,1.9-2.47,2.73c-0.29,0.28-0.96,0.46-1.33,0.32c-5.65-2.09-11.28-4.24-17.13-6.46
					C202.81,77.11,209.24,80.42,215.89,83.67z M275.09,116.12c-31.14,1.48-56.41-12.21-79.83-30.68c0.1-0.25,0.19-0.5,0.29-0.75
					c26.62,10.21,53.23,20.42,79.85,30.63C275.29,115.59,275.19,115.85,275.09,116.12z M278.67,112.46
					c-5.27-2.03-10.39-4.01-15.84-6.12c6.79-3.02,12.05,0.3,17.7,2.63C279.89,110.18,279.32,111.24,278.67,112.46z M281.01,113.07
					c0.88-3.91,1.57-4.02,7.04-0.91C285.33,112.51,283.22,112.78,281.01,113.07z M289.11,116.47c4.31-2.05,7.75-1.75,12.87,1.01
					c-0.35,1.03-0.72,2.1-1.2,3.51C296.77,119.44,293.06,118.01,289.11,116.47z M323.66,183.22c-0.1-1.87,0.44-2.85,2.77-2.27
					c0,6.2-0.02,12.33,0.01,18.47c0.01,1.93-1.41,1.4-2.76,1.8c0-4.06,0-7.85,0-11.63C323.68,187.47,323.77,185.34,323.66,183.22z
					 M326.47,268.22c0.02,1.88-0.5,2.81-2.65,2.29c0-8.14,0-16.32,0-24.94c1.67,1.49,2.69,2.75,2.65,4.84
					C326.36,256.35,326.39,262.28,326.47,268.22z M326.46,303.22c0.04,2.1-0.7,2.61-2.65,2.06c0-8.18,0-16.34,0-24.86
					c1.56,1.39,2.67,2.54,2.65,4.53C326.39,291.04,326.35,297.13,326.46,303.22z M326.34,308.4c0,1.23,0,2.12,0,3.65
					c-0.98-1.21-1.62-1.99-2.52-3.08C324.76,308.76,325.39,308.61,326.34,308.4z M326.33,343.18c0,1.29,0,2.2,0,3.59
					c-0.9-1.01-1.57-1.75-2.54-2.84C324.7,343.66,325.36,343.47,326.33,343.18z M326.44,409.79c-1.06,0.08-1.77,0.13-2.63,0.18
					c0-8.3,0-16.47,0-24.63c0.16-0.09,0.32-0.19,0.48-0.28c0.72,1.15,2.02,2.28,2.05,3.44
					C326.54,395.52,326.44,402.55,326.44,409.79z M323.78,378.62c1.06-0.21,1.68-0.33,2.49-0.48c0,1.13,0,2.11,0,3.63
					C325.36,380.62,324.7,379.78,323.78,378.62z M326.43,374.94c-0.93,0.07-1.69,0.13-2.65,0.21c0-8.34,0-16.51,0-25.01
					c2.23,1.59,2.75,3.47,2.7,5.83C326.34,362.23,326.43,368.5,326.43,374.94z M326.44,340.14c-0.92,0.06-1.68,0.12-2.61,0.19
					c0-8.35,0-16.53,0-25.13c1.77,1.58,2.69,2.99,2.65,5.13C326.37,326.85,326.44,333.38,326.44,340.14z M323.84,235.72
					c0-8.19,0-16.41,0-24.95c1.64,1.44,2.67,2.68,2.63,4.76c-0.11,6.01-0.1,12.03,0.01,18.04
					C326.52,235.53,325.73,236.05,323.84,235.72z M325.33,162.95c-4.28,0.59-8.57,1.05-13.42,1.63c-1.36,0.25-2.29-0.74-2.7-2.48
					c-2.7-10.99-5.37-21.99-8.14-32.97c-0.51-2,0.05-2.86,2.05-3.15c5.21-0.74,10.4-1.58,15.61-2.37c2-0.31,2.75,0.92,3.06,2.61
					c1.23,6.67,2.45,13.35,3.69,20.03c0.8,4.31,1.61,8.61,2.45,12.91C328.47,161.94,328.14,162.56,325.33,162.95z M336.23,191.36
					c0.4,0.56,0.28,1.5,0.44,2.53c-2.91,0.24-5.57,0.47-8.69,0.73c0-3.78-0.02-7.14,0.03-10.5c0-0.44,0.3-1.23,0.5-1.24
					c0.49-0.03,1.2,0.14,1.49,0.5C332.14,186,334.24,188.64,336.23,191.36z M333.83,182.21c1.01-0.13,1.71-0.22,2.52-0.33
					c0,1.13,0,2.15,0,3.74C335.32,184.23,334.65,183.32,333.83,182.21z M336.57,373.7c-2.88,0.35-5.59,0.69-8.46,1.05
					c0-3.5,0-6.76,0-10.09c1.23-0.24,2.42-0.46,3.61-0.69c-1.09-0.37-2.18-0.73-3.63-1.22c0-1.99,0-4.42,0-7.52
					c2.13,2.65,3.95,4.91,5.71,7.1c-0.79,0.63-1.44,1.13-2.08,1.64c0.64,0.02,1.3,0.05,1.96,0.03c1.84-0.09,2.74,1.01,2.85,2.6
					C336.69,368.9,336.57,371.22,336.57,373.7z M336.16,394.28c-1.03-1.3-2.07-2.6-3.31-4.16c1.29-0.21,2.3-0.37,3.58-0.58
					c0.06,0.78,0.13,1.27,0.15,1.76C336.6,392.22,336.59,393.15,336.16,394.28z M329.84,351.42c2.47-0.26,4.44-0.48,6.59-0.71
					c0,2.96,0,5.7,0,9.12C334.07,356.83,332.09,354.29,329.84,351.42z M335.43,245.94c-1.51,0.26-3.05,0.35-4.58,0.49
					c-1.88,0.17-2.69-0.99-2.84-2.59c-0.15-1.66-0.03-3.35-0.03-5.17c2.87-0.36,5.59-0.7,8.58-1.08c0,2.55,0.04,4.95-0.05,7.36
					C336.5,245.3,335.85,245.87,335.43,245.94z M336.43,246.92c0,2.64,0,5.15,0,7.66c-0.14,0.06-0.29,0.13-0.43,0.19
					c-1.79-2.28-3.58-4.57-5.64-7.23C332.61,247.31,334.44,247.12,336.43,246.92z M328.08,250.64c2.33,2.95,4.33,5.47,6.6,8.35
					c-2.47,0.22-4.4,0.39-6.6,0.59C328.08,256.65,328.08,253.97,328.08,250.64z M328.15,260.7c2.17-0.22,4.27-0.59,6.36-0.54
					c0.7,0.02,1.89,1.06,1.96,1.72c0.24,2.38,0.09,4.79,0.09,7.34c-2.99,0.35-5.6,0.65-8.41,0.98
					C328.15,267.01,328.15,263.92,328.15,260.7z M336.59,229.27c-0.18,1.06-0.03,2.17-0.03,3.55c-2.84,0.29-5.55,0.57-8.48,0.87
					c0-4.16,0-7.94-0.01-11.67c0.24-0.13,0.35-0.24,0.48-0.25c2.1-0.2,4.19-0.96,5.67,1.66
					C335.28,225.31,337.03,226.77,336.59,229.27z M328.14,220.51c0-1.44,0-2.77,0-4.66c1.26,1.6,2.21,2.8,3.54,4.48
					C330.14,220.4,329.23,220.45,328.14,220.51z M336.54,206.8c-2.71,0.29-5.44,0.57-8.38,0.88c0-1.29,0-2.48,0-3.87
					c2.28-0.3,4.44-0.7,6.63-0.82c0.56-0.03,1.39,0.71,1.69,1.31C336.77,204.88,336.54,205.73,336.54,206.8z M336.43,207.97
					c0,4.06,0,7.87,0,11.68c-0.15,0.09-0.29,0.17-0.44,0.25c-2.73-3.47-5.47-6.94-8.2-10.41c0.11-0.23,0.22-0.46,0.33-0.69
					C330.83,208.53,333.55,208.26,336.43,207.97z M328.41,273.75c2.4-0.26,5.06-0.56,7.97-0.88c0,3.95,0,7.82,0,12.13
					c-1.57-0.17-3.72,0.24-4.47-0.6C329.32,281.53,326.52,278.46,328.41,273.75z M336.43,285.95c0,1.28,0,2.44,0,4.21
					c-1.18-1.54-1.99-2.59-3.04-3.97C334.64,286.09,335.45,286.03,336.43,285.95z M330.59,308.01c1.87-0.23,3.74-0.49,5.87-0.77
					c0,1.22,0,2.22,0.01,3.46c-2.74,0.26-5.45,0.51-8.15,0.77C327.62,308.37,327.62,308.37,330.59,308.01z M328.16,305.08
					c0-1.8,0-3.49,0-5.39c2.71-0.28,5.42-0.56,8.28-0.86c0,1.82,0,3.45,0,5.19C333.68,304.38,331.02,304.72,328.16,305.08z
					 M331.18,324.18c-1.36,0.11-2.13,0.18-3.06,0.26c0-1.25,0-2.37,0-4.01C329.18,321.73,330,322.74,331.18,324.18z M328.13,312.66
					c1.32-0.15,2.67-0.33,4.02-0.45c1.37-0.12,2.75-0.19,4.28-0.29c0,3.95,0,7.78,0,11.82C334.08,322.8,328.07,314.72,328.13,312.66
					z M336.31,336.64c-2.63,0.24-5.31,0.48-8.24,0.75c0-4.01,0-7.73,0-11.43C333.37,324.19,337.47,329.45,336.31,336.64z
					 M328.29,338.72c2.71-0.35,5.42-0.65,8.14-0.95c0.02,0.36,0.04,0.71,0.06,1.06c-2.75,0.36-5.51,0.72-8.54,1.1
					C328.12,339.29,328.17,338.74,328.29,338.72z M334.94,297.96c-2.3,0.19-4.6,0.4-6.96,0.6c0-4.14,0-8.02,0-12.45
					c0.88,0.63,1.45,0.9,1.81,1.34c2.16,2.66,4.31,5.34,6.37,8.08C337.33,297.09,336.92,297.8,334.94,297.96z M332.88,200.06
					c-1.52,0.16-3.04,0.28-4.75,0.44c0-1.5,0-2.99,0-4.67c2.67-0.27,5.33-0.54,8.13-0.83C337.13,199.34,336.91,199.65,332.88,200.06
					z M332.28,342.59c1.3-0.21,2.62-0.24,4.19-0.37c0,2.48,0,4.73,0,7.29c-2.28,0.26-4.56,0.57-6.86,0.73
					c-0.44,0.03-0.99-0.49-1.36-0.88c-0.22-0.22-0.21-0.68-0.25-1.04C327.46,343.44,327.53,343.33,332.28,342.59z M328.25,377.94
					c2.58-0.3,5.26-0.62,8.13-0.95c0,3.86,0,7.61,0,11.34C331.11,390.78,326.61,384.44,328.25,377.94z M328.1,403.45
					c2.75-0.28,5.46-0.55,8.33-0.83c0,2.01,0,3.8,0,5.97c-2.68,0.33-5.43,0.66-8.33,1.02C328.1,407.41,328.1,405.54,328.1,403.45z
					 M336.46,414.39c-2.7,0.28-5.41,0.57-8.29,0.88c-0.09-0.8-0.15-1.42-0.25-2.35c2.82-0.37,5.53-0.71,8.54-1.1
					C336.46,412.81,336.46,413.43,336.46,414.39z M328.12,402.29c0-3.92,0-7.74,0-12.24c3.1,3.94,5.85,7.42,8.93,11.33
					C333.66,401.72,330.98,401.99,328.12,402.29z M338.2,137.03c-0.29,5.19-0.11,10.4-0.06,15.61c0.03,3.04-1.31,5.41-3.19,7.57
					c-0.24,0-0.49-0.01-0.74-0.02c-0.41-1.96-0.86-3.91-1.24-5.86c-1.63-8.47-3.26-16.93-4.84-25.4c-0.15-0.82,0.01-1.69,0.02-2.54
					c0.86,0.25,1.77,0.39,2.56,0.77c1.05,0.5,1.95,1.34,3.02,1.78C337.44,130.46,338.41,133.21,338.2,137.03z M327.47,115.62
					c-2.57-0.9-3.74-2.6-4.67-4.97c-2.41-6.12-5.04-12.16-7.58-18.24c-0.33-0.77-0.61-1.57-0.91-2.35c0.17-0.11,0.35-0.21,0.53-0.32
					c8,9.97,15.99,19.94,23.98,29.91c-0.17,0.18-0.33,0.35-0.5,0.53C334.71,118.64,331.16,116.92,327.47,115.62z M338.58,185.39
					c0.18-1.07,0.03-2.19,0.03-3.28c-0.01-3.17-0.01-3.17,3.45-3.06c0,4.34,0,8.69,0,13.5
					C339.98,190.32,338.06,188.49,338.58,185.39z M338.6,272.09c1.26-0.08,2.26-0.14,3.44-0.22c0,8.33,0,16.54,0,25.33
					c-1.69-2.29-3.6-3.67-3.5-6.59C338.74,284.55,338.6,278.48,338.6,272.09z M338.6,202.53c1.18-0.13,2.23-0.25,3.45-0.39
					c0,8.36,0,16.59,0,25.16c-2.38-2.25-3.7-4.43-3.53-7.66C338.81,214.02,338.6,208.37,338.6,202.53z M338.73,229.29
					c1.26,1.58,2.19,2.76,3.38,4.24c-1.23,0.24-2.22,0.43-3.38,0.66C338.73,232.58,338.73,231.19,338.73,229.29z M338.6,306.93
					c1.33-0.09,2.33-0.15,3.48-0.22c0,8.33,0,16.51,0,25.23c-1.69-2.06-3.56-3.34-3.51-6.05
					C338.67,319.66,338.6,313.43,338.6,306.93z M338.72,303.77c0-1.55,0-2.89,0-4.77c1.24,1.57,2.19,2.77,3.39,4.28
					C340.79,303.47,339.83,303.61,338.72,303.77z M338.77,333.91c1.19,1.49,2.12,2.66,3.35,4.19c-1.29,0.21-2.22,0.37-3.35,0.55
					C338.77,337.13,338.77,335.78,338.77,333.91z M338.69,268.99c0-1.67,0-2.96,0-4.83c1.29,1.58,2.25,2.77,3.45,4.25
					C340.82,268.63,339.85,268.79,338.69,268.99z M338.6,341.91c1.26-0.16,2.31-0.28,3.5-0.43c0,8.43,0,16.62,0,25.45
					c-1.78-2.32-3.66-3.72-3.56-6.64C338.74,354.28,338.6,348.26,338.6,341.91z M338.7,368.58c1.23,1.6,2.2,2.86,3.52,4.58
					c-1.51,0.1-2.42,0.16-3.52,0.24C338.7,371.86,338.7,370.47,338.7,368.58z M338.67,199.35c0-1.69,0-3,0-4.85
					c1.28,1.56,2.27,2.78,3.48,4.26C340.83,198.98,339.85,199.15,338.67,199.35z M338.6,237.29c1.27-0.07,2.32-0.13,3.49-0.19
					c0,8.35,0,16.51,0,25.12c-2.28-2.3-3.73-4.3-3.57-7.47C338.81,249.01,338.6,243.24,338.6,237.29z M338.54,394.78
					c0.24-5.91,0.07-11.83,0.07-17.91c1.14-0.22,2.18-0.43,3.43-0.67c0,8.43,0,16.65,0,25.32
					C340.04,399.42,338.41,397.75,338.54,394.78z M338.75,408.26c0-1.46,0-2.85,0-4.72c1.23,1.57,2.19,2.78,3.48,4.42
					C340.74,408.08,339.82,408.16,338.75,408.26z M342.14,117.46c-1.84-5.06-4.26-9.91-6.41-14.86c-0.4-0.92-0.71-1.88-1.06-2.82
					c0.16-0.1,0.32-0.21,0.48-0.31c7.97,9.65,15.93,19.29,23.9,28.94c-0.13,0.17-0.27,0.34-0.4,0.51c-2.87-1.22-5.65-2.71-8.61-3.58
					C345.88,124.09,343.6,121.47,342.14,117.46z M360.51,135.91c-0.01,0.18-0.02,0.37-0.03,0.55c-1.25,0.14-2.51,0.29-3.93,0.45
					c0-0.89,0-1.61,0-2.6C358.03,134.91,359.27,135.41,360.51,135.91z M346.53,142.66c1.28,0.51,2.38,0.85,3.37,1.39
					c0.36,0.2,0.75,0.97,0.64,1.33c-1.14,3.77-2.39,7.5-3.61,11.25c-0.13-0.03-0.27-0.05-0.4-0.08
					C346.53,152.02,346.53,147.5,346.53,142.66z M346.62,138.53c0-2.36,0-4.63,0-7.19c2.14,0.98,4.1,1.78,5.94,2.79
					c0.53,0.28,1.1,1.27,0.98,1.78c-0.16,0.66-0.89,1.51-1.53,1.69C350.35,138.07,348.59,138.22,346.62,138.53z M346.29,268.37
					c2.33-7.04,4.62-13.92,6.9-20.81c0.11,0.01,0.21,0.03,0.31,0.04c0,8.02,0,16.05,0,24.38
					C351.02,270.74,348.78,269.62,346.29,268.37z M353.63,240.39c-2.23,6.92-4.44,13.77-6.65,20.63c-0.16-0.05-0.31-0.09-0.47-0.14
					c0-7.86,0-15.72,0-23.91C348.95,238.14,351.15,239.2,353.63,240.39z M346.68,232.83c2.12-6.65,4.29-13.28,6.45-19.91
					c0.16,0.04,0.32,0.07,0.48,0.1c0,7.9,0,15.81,0,24.12c-2.32-1.13-4.45-2.13-6.54-3.22
					C346.81,233.78,346.58,233.13,346.68,232.83z M353.21,282.25c0.14,0.04,0.27,0.07,0.41,0.11c0,8.04,0,16.07,0,24.49
					c-2.49-1.23-4.79-2.36-7.2-3.54C348.73,296.17,350.97,289.21,353.21,282.25z M346.52,295.97c0-7.94,0-15.89,0-24.21
					c2.51,1.24,4.72,2.33,7.1,3.5c-2.25,7-4.46,13.9-6.68,20.79C346.8,296.02,346.66,296,346.52,295.97z M347,365.52
					c-0.14-0.01-0.27-0.03-0.41-0.05c0-7.87,0-15.75,0-23.98c2.45,1.21,4.66,2.3,7.03,3.45C351.4,351.86,349.2,358.69,347,365.52z
					 M353.54,352.3c0,7.93,0,15.86,0,24.14c-2.36-1.13-4.61-2.19-7.13-3.39c2.25-6.97,4.48-13.91,6.72-20.84
					C353.27,352.24,353.4,352.27,353.54,352.3z M346.76,337.16c2.07-6.6,4.23-13.18,6.7-19.72c0,7.95,0,15.9,0,24.16
					c-2.13-1.03-4.11-1.93-6.02-2.98C347.04,338.4,346.64,337.55,346.76,337.16z M347,330.72c-0.17-0.01-0.34-0.01-0.51-0.02
					c0-7.94,0-15.88,0-24.12c2.49,1.23,4.74,2.35,7.14,3.53C351.4,317.05,349.2,323.88,347,330.72z M353.58,411.33
					c-2.45-1.17-4.71-2.25-7.17-3.42c2.27-7.03,4.49-13.95,6.72-20.86c0.15,0.01,0.3,0.03,0.45,0.04
					C353.58,395.05,353.58,403.01,353.58,411.33z M346.96,400.52c-0.14-0.03-0.29-0.05-0.43-0.08c0-7.92,0-15.83,0-24.09
					c2.45,1.18,4.71,2.27,7.11,3.43C351.38,386.77,349.17,393.65,346.96,400.52z M346.99,226.21c-0.16-0.03-0.31-0.07-0.47-0.1
					c0-7.86,0-15.72,0-23.97c2.44,1.16,4.69,2.23,7.13,3.4C351.41,212.49,349.2,219.35,346.99,226.21z M347.01,191.34
					c-0.14-0.02-0.27-0.04-0.41-0.06c0-7.87,0-15.74,0-24c2.41,1.18,4.65,2.29,7.03,3.46C351.4,177.68,349.2,184.51,347.01,191.34z
					 M353.57,177.99c0,7.98,0,15.95,0,24.28c-2.3-1.1-4.41-2.07-6.45-3.14c-0.29-0.15-0.52-0.9-0.41-1.26
					c2.13-6.66,4.31-13.3,6.48-19.95C353.32,177.94,353.44,177.97,353.57,177.99z M353.5,167.38c-2.36-1.13-4.61-2.2-7.08-3.38
					c2.05-6.36,4.06-12.62,6.18-19.22C353.79,146.33,354.18,159.91,353.5,167.38z M357.33,142.43c-0.74-0.36-0.87-1.96-1.41-3.34
					c3.21-0.51,5.84-0.93,8.77-1.39c0.63,2.76,1.25,5.4,1.95,8.46C363.24,144.84,360.19,143.84,357.33,142.43z M369.56,146.81
					c-0.4,0.05-1.18-0.41-1.27-0.77c-0.61-2.29-1.07-4.62-1.7-7.52c5.1,2.21,9.6,4.16,14.1,6.11c-0.01,0.16-0.03,0.31-0.05,0.46
					C376.95,145.68,373.26,146.3,369.56,146.81z M373.29,148.22c3.77-0.6,7.53-1.2,11.6-1.85c0.7,1.54,1.34,2.97,1.98,4.39
					C381.6,153.21,377.6,150.1,373.29,148.22z M386.98,147.35c2.12,0.9,3.79,1.61,5.68,2.42
					C388.78,151.42,388.37,151.26,386.98,147.35z M399.03,146.13c-0.66-0.21-1.35-0.36-2-0.63c-3.3-1.39-6.64-2.7-9.86-4.27
					c-1.14-0.55-2.31-1.56-2.86-2.67c-2.9-5.82-5.62-11.73-8.39-17.62c-0.3-0.64-0.48-1.33-0.28-2.3
					c7.91,9.01,15.82,18.02,23.73,27.03C399.26,145.82,399.14,145.98,399.03,146.13z M407.05,212.88c0,0.2-0.1,0.41-0.2,0.78
					c-1.56,0-3.14,0-4.91,0c0-21.12,0-42.26,0-63.97c1.73,1.44,3.17,2.55,4.47,3.8c0.41,0.39,0.64,1.15,0.64,1.74
					C407.08,174.45,407.07,193.66,407.05,212.88z M414.9,211.03c0,4.15,0,4.15-4.41,4.09c0-20.51,0-40.86,0.01-61.48
					c2.69,1.66,4.56,3.13,4.51,6.78C414.77,177.29,414.9,194.16,414.9,211.03z"/>
			</g>
		</g>
	</g>
</g>
<circle class="st3" cx="208.53" cy="208.53" r="197.38"/>
<path class="st4" d="M172.24,126.32c3.91,0.64,6.86,3.99,6.86,8.06s-2.95,7.5-6.86,8.14v9.09c0,0.4-0.16,3.19-4.63,5.5
	c-4.71,2.47-5.11,4.55-5.11,9.65c0,5.1,4.23,8.14,8.06,8.14c3.75,0,9.57-3.59,9.57-8.69l2.79-1.36c0,0-1.2,13.16-12.12,13.16
	c-10.93,0-11.65-12.12-11.65-12.12s0-8.3,6.54-11.25c0,0,3.19-0.56,3.19-3.03v-9.17c-3.67-0.88-6.38-4.15-6.38-8.06
	c0-3.91,2.71-7.1,6.38-7.98"/>
</svg>
