<?xml version="1.0" encoding="utf-8"?>
<!-- Generator: Adobe Illustrator 24.0.0, SVG Export Plug-In . SVG Version: 6.00 Build 0)  -->
<svg version="1.1" id="Layer_1" xmlns="http://www.w3.org/2000/svg" xmlns:xlink="http://www.w3.org/1999/xlink" x="0px" y="0px"
	 viewBox="0 0 417.06 417.06" style="enable-background:new 0 0 417.06 417.06;" xml:space="preserve">
<style type="text/css">
	.st0{fill:#FFFFFF;stroke:#F08116;stroke-width:11.6343;stroke-miterlimit:10;}
	.st1{fill:#278492;}
	.st2{fill:#2E8795;}
	.st3{fill:#FFFFFF;}
	.st4{fill:none;stroke:#278492;stroke-width:4.6537;stroke-miterlimit:10;}
	.st5{fill:none;stroke:#F08116;stroke-width:11.6343;stroke-miterlimit:10;}
	.st6{fill:#1D7F8D;}
	.st7{fill:none;stroke:#2E8795;stroke-width:3.4903;stroke-linecap:round;stroke-miterlimit:10;}
	.st8{fill-rule:evenodd;clip-rule:evenodd;fill:#2E8795;}
	.st9{clip-path:url(#SVGID_1_);}
</style>
<g>
	<circle class="st0" cx="208.53" cy="206.89" r="197.38"/>
	<g>
		<path class="st2" d="M214.66,358.03c-1.35-2.17-3.93-4.38-3.86-6.51c0.72-20.78,1.19-41.62,3.13-62.31
			c1.4-14.89,11.36-25.62,23.91-31.98c22.18-11.25,40.57-26.95,58.21-43.96c6.84-6.6,14.83-9.48,24.61-4.2
			c4.14-9.81,8.13-19.6,12.38-29.27c4.05-9.2,15.05-13.85,22.16-8.69c3.51,2.55,5.31,7.44,7.88,11.27c0,4.08,0,8.17,0,12.25
			c-4.07,13.98-8.87,27.8-12.04,41.98c-3.99,17.85-12.76,32.61-25.45,45.36c-9.89,9.93-19.69,19.97-29.82,29.65
			c-4.11,3.93-6.69,7.52-5.95,13.84c0.94,8.03,0.61,16.29,0.01,24.39c-0.21,2.82-2.84,5.46-4.36,8.18
			C261.86,358.03,238.26,358.03,214.66,358.03z M221.97,316.94c17.39,0,34.8,0.07,52.2-0.12c1.52-0.02,3.28-1.41,4.51-2.61
			c13-12.66,26.14-25.19,38.77-38.22c9.8-10.12,18.46-21.06,22-35.33c3.54-14.25,8.02-28.26,11.67-42.48
			c1.15-4.5,1.27-9.34,1.23-14.01c-0.02-1.54-1.82-4.01-3.21-4.34c-1.55-0.37-3.87,0.86-5.29,2.06c-1.28,1.08-1.92,3-2.62,4.65
			c-5.01,11.87-9.81,23.83-15.01,35.61c-2.08,4.71-4.37,9.58-7.66,13.44c-10.59,12.42-21.73,24.38-32.58,36.58
			c-2.66,3-5.54,6.53-9.56,3.34c-4.35-3.45-0.95-6.86,1.64-9.75c9.98-11.16,20.03-22.26,30.01-33.42c2.11-2.36,4.58-4.66,5.79-7.46
			c0.91-2.11,0.08-4.98,0.02-7.51c-2.32,0.14-4.99-0.4-6.88,0.57c-2.74,1.4-5.01,3.81-7.33,5.95
			c-15.66,14.43-31.07,28.92-50.54,38.62C225.07,274.48,221.38,286.71,221.97,316.94z M221.04,346.68c19.92,0,39.26,0,58.4,0
			c0-6.88,0-13.28,0-19.53c-19.72,0-38.86,0-58.4,0C221.04,333.75,221.04,339.98,221.04,346.68z"/>
		<path class="st2" d="M53.99,182.38c0.34-0.58,0.86-1.13,1-1.76c1.62-7.05,6.11-11.56,13.18-11.48
			c7.11,0.09,12.95,3.67,15.92,10.73c4.02,9.55,8.06,19.09,12.23,28.97c10.57-5.31,18.8-1.44,26.31,5.83
			c16.44,15.91,33.44,30.89,54.35,41.17c18.38,9.04,27.36,25.03,28.1,45.47c0.59,16.05,1.14,32.12,1.2,48.18
			c0.01,2.85-2.52,5.7-3.87,8.55c-23.6,0-47.2,0-70.8,0c-1.52-2.72-4.19-5.37-4.36-8.17c-0.56-9.01,0.08-18.09-0.34-27.12
			c-0.14-2.92-1.41-6.45-3.39-8.52c-11.25-11.76-23-23.04-34.33-34.72c-10.86-11.2-18.55-24.09-22.22-39.6
			c-3.6-15.26-8.59-30.19-12.97-45.27C53.99,190.55,53.99,186.46,53.99,182.38z M195.46,316.95c0-4.28,0.08-7.44-0.01-10.59
			c-0.57-18.66-6.78-34.3-24.79-42.58c-21.22-9.75-37.85-25.33-54.39-41.17c-2.1-2.01-4.45-4-7.06-5.15
			c-1.72-0.75-4.93-0.75-5.97,0.35c-1.12,1.17-1.3,4.48-0.43,6.05c1.95,3.5,4.64,6.64,7.32,9.67c9.9,11.21,20.08,22.18,29.74,33.59
			c1.51,1.79,2.14,6.52,0.91,7.99c-2.69,3.21-6.06,1.44-8.5-1.57c-0.85-1.05-1.8-2.04-2.7-3.05c-9.34-10.49-18.94-20.78-27.92-31.57
			c-4.26-5.12-8-10.9-10.83-16.92c-5.19-11.02-9.5-22.46-14.25-33.69c-1.73-4.08-3.18-10.06-8.67-8.16
			c-2.21,0.76-3.98,7.88-3.16,11.46c3.85,16.7,7.95,33.41,13.44,49.62c3.11,9.19,7.69,18.65,14.06,25.82
			c14.72,16.58,30.9,31.85,46.58,47.56c1.16,1.16,3.07,2.23,4.64,2.25C160.63,317.01,177.8,316.95,195.46,316.95z M137.36,346.68
			c19.88,0,39.19,0,58.4,0c0-6.86,0-13.23,0-19.52c-19.8,0-38.94,0-58.4,0C137.36,333.75,137.36,339.99,137.36,346.68z"/>
	</g>
	<g>
		<path class="st2" d="M205.74,218.63c-5.38-2.95-10.87-5.7-16.1-8.89c-15.29-9.34-28.7-20.79-38.68-35.86
			c-8.82-13.31-13.57-27.89-13.42-44c0.14-15.33,0.03-30.66,0.03-45.99c0-5.1,1.91-7.8,6.81-9.47c20.12-6.87,40.26-13.7,60.38-20.6
			c2.57-0.88,4.96-0.86,7.53,0.01c20.02,6.85,40.07,13.61,60.1,20.44c5.2,1.77,7.06,4.47,7.06,9.9c0,14.78-0.21,29.56,0.05,44.33
			c0.38,21.4-7.39,39.6-21.16,55.51c-12.33,14.24-27.42,24.85-44.29,33.04c-0.95,0.46-1.85,1.06-2.77,1.59
			C209.44,218.63,207.59,218.63,205.74,218.63z M203.9,136.68c-2.16-1.84-4.06-3.45-5.96-5.06c-1.89-1.62-3.74-3.3-5.68-4.85
			c-4.99-3.97-12.04-3.34-16.2,1.37c-4.2,4.75-4.07,11.9,0.71,16.18c7.08,6.34,14.31,12.51,21.66,18.53
			c4.96,4.06,12.12,3.29,16.1-1.7c11.03-13.85,21.97-27.77,32.81-41.77c4.05-5.23,3.02-12.42-1.95-16.31
			c-5.2-4.07-12.2-3.28-16.54,1.91c-1.71,2.05-3.31,4.2-4.96,6.3C217.27,119.69,210.66,128.09,203.9,136.68z"/>
	</g>
</g>
</svg>
