<?xml version="1.0" encoding="utf-8"?>
<!-- Generator: Adobe Illustrator 24.0.0, SVG Export Plug-In . SVG Version: 6.00 Build 0)  -->
<svg version="1.1" id="Layer_1" xmlns="http://www.w3.org/2000/svg" xmlns:xlink="http://www.w3.org/1999/xlink" x="0px" y="0px"
	 viewBox="0 0 417.1 417.1" style="enable-background:new 0 0 417.1 417.1;" xml:space="preserve">
<style type="text/css">
	.st0{fill:#FFFFFF;}
	.st1{clip-path:url(#SVGID_2_);fill:#2E8694;}
	.st2{fill:none;stroke:#EF8016;stroke-width:11.6345;stroke-miterlimit:10;}
</style>
<g>
	<circle class="st0" cx="208.5" cy="208.5" r="197.4"/>
	<g>
		<defs>
			<circle id="SVGID_1_" cx="208.5" cy="208.5" r="197.4"/>
		</defs>
		<clipPath id="SVGID_2_">
			<use xlink:href="#SVGID_1_"  style="overflow:visible;"/>
		</clipPath>
		<path class="st1" d="M405.9,168.1c-7.9,5-15.9,9.8-23.7,15.1c-42.4,28.8-79.7,63.1-109.4,104.9c-14.8,20.9-26.8,44-39.6,66.3
			c-7.9,13.7-14.9,27.9-22.2,41.9c-1.7,3.3-3.9,5.2-7.9,5.6c-2.6,0.3-5.4,1.6-7.3,3.4c-3.3,3-6.4,6.5-8.9,10.2
			c-8.3,12.4-12.3,26.2-14,41c-1.1,9.8-3.4,19.6-5.3,29.3c-0.8,4.2-3.9,6.2-8.5,6.8c0.5-2.6,0.9-5,1.4-7.4
			c2.1-10.6,2.8-21.4,6.3-31.8c16.8-49.6,40.3-95.8,69.4-139.3c42.6-63.6,99.3-110.4,167-145c0.8-0.4,1.7-0.7,2.6-1.1
			C405.8,168,405.9,168.1,405.9,168.1z"/>
		<path class="st1" d="M210.4,191c1,1.8,1.8,3,2.4,4.2c3.3,6.1,7.6,11,13.8,14.3c4.8,2.6,7.9,6.7,7.7,12.6c0,1.2,0.5,2.4,0.8,3.5
			c1.8-2.5,3.2-5,5.2-7c2.3-2.4,5.4-3,8.6-2.3c14.2,3,26.1-1.4,36.5-11c0.1-0.1,0.4-0.1,0.6-0.2c1,6.9-3.5,14.2-10.8,17.1
			c-4,1.5-8.4,2.1-12.4,3.5c-5.9,2-11.8,4.2-17.6,6.7c-6.8,3-11.1,8.5-14.1,15.2c-6.2,14-10.1,28.8-13.4,43.7
			c-4.3,20-8.2,40-12,60.1c-1.2,6.6-3.4,12.5-7.3,17.9c-2.8,3.9-5.6,7.8-9.1,11.4c2-7.9,4-15.7,5.9-23.6
			c9.5-39.3,18.9-78.6,28.7-117.9c1.8-7.3,0.4-12.8-6.2-16.3c-9.6-5.3-11.2-13.4-9-23.2C209.4,197.1,209.8,194.4,210.4,191z"/>
		<path class="st1" d="M191.5,218.7c4.5,17,7,34.1,8,51.5c1.1,18.8-2.1,37-6.7,55.1c-4.9,19-7.8,38.3-7.1,58.1c0,1.3-0.1,2.7,0.3,4
			c1.7,5.3,0.6,10-2.1,14.8c-2.5,4.5-4.4,9.2-7.3,13.8c0-1.4,0-2.8,0-4.1c0-17.7,0-35.4-0.2-53.1c-0.2-15,3.3-29.4,6.9-43.8
			c4.8-18.7,6.7-37.6,7-56.8c0.2-12.2,0.6-24.3,1-36.5C191.4,220.6,191.5,219.6,191.5,218.7z"/>
		<path class="st1" d="M96.3,296.1c6.7,5.4,13.4,9.3,21.6,10.7c4,0.7,7.4,3.5,8.8,7.9c0.3,1,1,1.9,2.3,4.1c0.2-9.5,4.8-12.9,12.6-14
			c10.2-1.5,17.6-7.9,23.1-16.3c0.8-1.2,1.5-2.4,2.4-3.8c2.7,5.7,1.5,12.4-3.1,17.1c-1.6,1.6-3.6,3-5.6,4.3
			c-3.7,2.5-7.5,4.7-11.1,7.3c-10.9,7.8-16.3,18.3-16.3,32c0,22.6,2.7,45,5.7,67.3c1.2,8.9,2.6,17.8,3.9,26.7
			c1.2,8.4-1.1,20.4-5.7,29.3c-0.7-7.6-1.3-14.5-1.9-21.4c-3-34.7-6-69.3-9.1-104c-0.4-4.4-1.2-8.8-1.6-13.2c-0.4-4-2.4-6.5-6-8
			c-1.6-0.7-3.3-1.4-5-1.8c-8-1.5-12.2-6.6-13.3-14.4C97.5,302.7,96.9,299.4,96.3,296.1z"/>
		<path class="st1" d="M318.6,27.8c0.7,3.2,2,6.4,2.1,9.7c0.3,6.9,0.6,13.9-0.3,20.8c-0.9,7.2-6.1,10.1-13.3,9.7
			c-3.2-0.2-6.6,0.7-9.6,1.9c-3.5,1.4-6.7,3.7-10.1,5.6c-4.2-7.3-3-21.4,3.1-27.5c4.3-4.3,9.5-7.8,14.5-11.4
			C309.2,33.7,313.5,31.1,318.6,27.8z"/>
		<path class="st1" d="M273,136c2.5-8,5.3-15.6,10.5-22.1c4.6-5.7,10.4-9.1,18-9.2c5.9-0.1,11-2.2,15.6-5.8c1.3-1,2.6-2,4.6-3.6
			c0,3.6,0.4,6.6-0.1,9.4c-2.5,16.6-11,24.3-28,27.8c-2.4,0.5-4.8,0.5-7.3,0.7c-2.2,0.2-4.4,0.2-6.6,0.6
			C277.6,134.4,275.5,135.2,273,136z"/>
		<path class="st1" d="M315.8,126.7c-0.5,2.9-0.6,5.9-1.5,8.6c-5.6,17.3-20.9,27.7-39,26.7c-2.3-0.1-4.7-0.3-7-0.1
			c-2.2,0.3-4.4,1-6.6,1.6c2.1-15.4,14.1-26.7,29.5-27.6C301,135.4,303.9,134.2,315.8,126.7z"/>
		<path class="st1" d="M296.5,180.9c-0.6,2.6-0.9,5.3-1.9,7.7c-6.8,15.9-24.2,26.9-41.4,26.3c-4.7-0.2-9.5-0.7-14.5,2.2
			c2.1-8,4-15.4,9.8-21.1c3.6-3.6,8.3-4.5,13.1-4.9c3.4-0.3,6.8-0.5,10.3-0.6c7.8-0.2,14.7-2.9,20.7-7.7c1-0.8,2-1.6,3.1-2.3
			C295.9,180.7,296.2,180.8,296.5,180.9z"/>
		<path class="st1" d="M250.2,189.4c1.5-5.9,3.3-12.3,7.6-17.8c4.2-5.4,10.3-6.5,16.5-7c2.2-0.2,4.4-0.2,6.6-0.2
			c8.9-0.1,16.9-2.8,23.7-8.7c0.6-0.6,1.4-1,2-1.5c0.3,0.1,0.6,0.2,1,0.3c-0.7,2.7-1,5.5-2,7.9c-7,16.2-24.6,26.8-42.2,26.1
			C259.2,188.5,254.8,189.1,250.2,189.4z"/>
		<path class="st1" d="M234.9,215.1c-1.8-5.5-6.5-8-10.6-11.1c-17.5-13.4-16.9-34-6.9-49.4c0.5-0.8,1.3-1.5,2.8-2.1
			c0,1.5-0.1,3.1,0,4.6c0.3,7.5,3,13.9,9,18.8c2.9,2.4,5.5,5.1,8.1,7.8c4.3,4.6,5.4,10.1,3.7,16c-1.5,5.1-3.4,10.1-5.2,15.2
			C235.5,215,235.2,215.1,234.9,215.1z"/>
		<path class="st1" d="M242.3,99.1c0.1,2.1,0.3,3.6,0.3,5.1c0.2,8.1,3.5,14.6,9.8,19.8c2.8,2.3,5.3,5,7.7,7.7
			c3.9,4.3,4.9,9.4,3.3,14.9c-1.5,5.3-3.4,10.4-5.7,15.7c-2.5-5.8-7.8-8.3-12.1-11.8C230.2,138.2,228.3,113.5,242.3,99.1z"/>
		<path class="st1" d="M245.9,188.7c-1.9-5.3-6.5-7.9-10.6-11c-17.6-13.5-16.7-34.5-6.7-49.4c0.5-0.8,1.3-1.4,2.3-2.5
			c0.3,3.2,0.4,6,0.8,8.7c0.9,6.6,4.3,11.7,9.3,15.9c2.9,2.4,5.5,5.1,8,7.9c3.7,4.2,4.8,9.2,3.3,14.6c-1.5,5.3-3.4,10.5-5.2,15.8
			C246.7,188.6,246.3,188.6,245.9,188.7z"/>
		<path class="st1" d="M257,75.5c0.3,3.5,0.6,6.9,1,10.2c0.6,4.8,3,8.7,6.7,11.8c2.4,2.1,4.7,4.4,6.8,6.7c4.7,5,5.5,10.9,3.3,17.3
			c-1.5,4.3-3.4,8.6-4.8,12.2c-3.6-3.3-7-6.4-10.3-9.4c-2.1-1.9-4.6-3.5-6.5-5.7c-13-14.8-9.6-29.8,2.8-42.7
			C256.3,75.8,256.6,75.7,257,75.5z"/>
		<path class="st1" d="M279.4,54.8c0,3.9-0.6,7.4,0.1,10.7c1.2,5.2,2.4,10.7,5,15.2c5.3,8.9,4.4,17.2-0.2,25.7
			c-1,1.9-2.2,3.8-3.8,6.5c-0.9-6-4.9-8.4-8.6-11c-9.5-6.8-12.9-18.5-8.7-29.4c2.6-6.7,7-12,12.9-16C277.1,56,278,55.6,279.4,54.8z"
			/>
		<path class="st1" d="M325.8,64.1c-0.2,9-1.7,17.6-6.2,25.2c-1.8,3.1-4.7,5.9-7.7,7.8c-6.3,4-13.5,5.9-21.3,6.9
			c0.2-1.3,0.3-2.3,0.6-3.3c1.3-5.4,1.4-10.7-0.6-16c-0.3-0.9-0.2-2.2,0.3-3c3.4-5.6,8.1-9.2,15-9.5c2.6-0.1,5.3-0.3,7.9-0.8
			C318.6,70.6,322.8,68.4,325.8,64.1z"/>
		<path class="st1" d="M114.1,401.6c-7.2-13.9-14.1-28.2-17.3-43.6C91.9,334.7,81.4,314,70,293.5c-5.5-9.9-11.4-19.6-17.2-29.3
			c-0.6-1-1.1-1.9-0.9-3.4c4.3,4.9,8.8,9.7,12.7,14.9c10.9,14.3,21.7,28.6,32.1,43.3c7.8,11.1,12.6,23.6,14,37.2
			c1.6,15.1,3.4,30.1,5.1,45.1C115.2,401.4,114.7,401.5,114.1,401.6z"/>
		<path class="st1" d="M129.6,169.3c-7.7-8.4-9.3-20.1-3.7-29.4c2.5-4.3,5.9-8.1,8.9-12.1c2.5-3.3,5-6.5,7.8-10.1
			c6.4,8.6,10.9,18.1,11.1,29c0.1,4-1.8,8.1-6.4,9c-7.1,1.4-11.7,5.8-15.7,11.3C131,167.8,130.3,168.5,129.6,169.3z"/>
		<path class="st1" d="M134.4,226.4c0.6-5.7,0.9-11.3,1.8-16.8c1.6-9.1,6.6-15.4,15.4-19.5c5.4-2.5,9.7-7.6,14.5-11.6
			c5,5.5,4.7,21.8-1.9,29.3c-3.3,3.7-7.2,7-11.4,9.6C147.1,220.9,140.9,223.3,134.4,226.4z"/>
		<path class="st1" d="M133,254.3c0-7.4,0.2-15.3,4.7-21.7c2.7-3.8,6.5-7.4,10.7-9.5c8.3-4.1,16.4-8.1,20.8-17.8
			c3.3,5.8,2.6,11,1.6,16c-3.1,14.5-11.4,24.2-26,28.2C140.8,250.7,137.2,252.6,133,254.3z"/>
		<path class="st1" d="M169.7,259.9c0,3.4,0.6,6.8-0.1,9.9c-4.1,16.8-12.8,29.5-30.7,33.9c-3.3,0.8-6.3,2.8-10.6,4.7
			c0.7-6.3,0.8-12.5,2.3-18.3c0.9-3.2,3.9-6.2,6.7-8.3c3.1-2.3,7-3.7,10.7-5c8.2-2.9,14.8-7.7,19.3-15.3c0.3-0.5,0.7-0.9,1.1-1.4
			C168.4,260.1,168.6,260.1,169.7,259.9z"/>
		<path class="st1" d="M171.6,233.6c0,3.3,0.7,6.8-0.1,9.9c-4.1,16.5-12.6,29-30.2,33.5c-3.4,0.9-6.6,2.8-10.9,4.6
			c0.6-5.9,0.4-11.9,1.9-17.4c1-3.5,4.3-6.4,7-9.2c1.6-1.6,4.1-2.3,6.2-3.2C160.6,245.5,160.6,245.5,171.6,233.6z"/>
		<path class="st1" d="M130.2,254.1c-5-2.1-8.9-4-13-5.3c-20.2-6.4-25.9-24.9-22-41.4c0.2-1,0.8-1.8,1.5-3.5
			c0.7,1.4,1.2,2.2,1.5,3.1c2.7,7.9,7.9,13.2,15.9,15.9c2.2,0.7,4.3,1.9,6.4,2.9c6.6,3.3,9.6,8.8,9.7,16
			C130.2,245.9,130.2,250,130.2,254.1z"/>
		<path class="st1" d="M125.7,307.3c-4.9-1.9-9.4-3.9-14-5.5c-21.6-7.6-24.8-30.3-19.2-43.6c0.2,0.1,0.7,0.2,0.7,0.4
			c3.2,9.9,9.8,15.9,19.7,19.1c9.9,3.2,14,10.7,13.5,20.8C126.3,301.6,125.9,304.6,125.7,307.3z"/>
		<path class="st1" d="M94.6,230.8c1.1,2.4,1.8,4.1,2.6,5.8c2.6,5.9,6.7,10.3,12.9,12.5c0.3,0.1,0.5,0.3,0.8,0.4
			c14.1,5.3,20.1,10.3,16.3,31.1c-4.5-1.8-9-3.7-13.6-5.3C96.1,269.1,87.1,249,94.6,230.8z"/>
		<path class="st1" d="M102.5,178.4c1.3,3,2.3,5.4,3.4,7.8c2.2,4.6,5.5,8,10.4,9.6c1,0.3,1.9,0.8,2.8,1.2
			c10.6,4.6,13.8,9.9,13.1,21.3c-0.2,2.6-0.5,5.2-0.7,7.3c-4.9-1.9-9.6-3.8-14.3-5.6C98.7,212.8,93,196.8,102.5,178.4z"/>
		<path class="st1" d="M116.3,153.2c2,11.4,8.8,18.8,16.2,25.8c3.9,3.7,4.2,8.9,3.9,14c-0.2,3.3-0.8,6.6-1.2,9.4
			c-4.4-1.9-8.4-4-12.6-5.5c-9.8-3.6-16-12.7-15.4-23.2C107.7,166.1,110.3,159.5,116.3,153.2z"/>
		<path class="st1" d="M142,192.4c-2.5-5.5-5.1-11-7.5-16.5c-0.5-1.1-0.2-2.6,0.1-3.8c1.7-5.7,5.3-9.6,11-11.8
			c6.3-2.4,12.1-5.3,14.2-13.1C167.1,171.8,161.9,183.2,142,192.4z"/>
	</g>
	<circle class="st2" cx="208.5" cy="208.5" r="197.4"/>
</g>
</svg>
