<?xml version="1.0" encoding="utf-8"?>
<!-- Generator: Adobe Illustrator 24.0.0, SVG Export Plug-In . SVG Version: 6.00 Build 0)  -->
<svg version="1.1" id="Layer_1" xmlns="http://www.w3.org/2000/svg" xmlns:xlink="http://www.w3.org/1999/xlink" x="0px" y="0px"
	 viewBox="0 0 417.1 417.1" style="enable-background:new 0 0 417.1 417.1;" xml:space="preserve">
<style type="text/css">
	.st0{fill:#FFFFFF;stroke:#EF8016;stroke-width:11.6345;stroke-miterlimit:10;}
	.st1{fill:#278391;}
</style>
<g>
	<circle class="st0" cx="208.5" cy="208.5" r="197.4"/>
	<g>
		<g>
			<path class="st1" d="M113.8,301.5c0-6.7,0-12.9,0-19.5c-12.1,0-23.9,0-35.8,0c-12.6,0-12.8-0.2-12.8-12.7c0-18.7,0-37.4,0-56.1
				c0-7.8,1.6-9.4,9.3-9.4c23.9,0,47.8,0,71.6,0c1.8,0,3.6,0,6,0c0-2.2,0-4,0-5.8c0-28.3,0-56.6,0-84.9c0-8.5,1.6-10,10.2-10
				c21.3,0,42.6,0,63.9,0c9,0,10.4,1.4,10.4,10.2c0,11.7,0,23.4,0,35.7c2.2,0,3.9,0,5.7,0c16.6,0,33.2,0,49.7,0
				c7.2,0,8.9,1.7,8.9,8.8c0,11.4,0,22.7,0,34.8c5.1,0,9.8-0.1,14.5,0c9.7,0.1,19.5,0.3,29.2,0.6c5.1,0.1,7.2,2.2,7.2,7.2
				c0,35.3,0,70.6,0,105.9c0,5.5-2.3,7.5-8.4,7.5c-34.4,0-68.8,0-103.1,0c-53.1,0-106.2,0-159.3,0c-1.5,0-3.1,0.1-4.6-0.1
				c-3.6-0.5-5.9-2.4-5.9-6.3c0-3.7,2.3-5.7,5.7-5.9c4.4-0.3,8.8-0.2,13.2-0.2C97.5,301.5,105.5,301.5,113.8,301.5z M205,168
				c-2.3,0-3.9,0-5.6,0c-9.6,0-19.2,0.1-28.7-0.1c-1.5,0-4-1.6-4.2-2.7c-0.5-2.9,2-3.2,4.3-3.2c7.5,0,14.9,0,22.4,0
				c3.9,0,7.8,0,11.8,0c0-2.6,0-4.4,0-6.7c-2,0-3.6,0-5.3,0c-9.7,0-19.5,0.1-29.2-0.1c-1.4,0-2.8-1.9-4.2-2.9c1.4-1,2.7-2.3,4.2-3
				c0.9-0.4,2.1-0.1,3.2-0.1c15.1,0,30.1,0,45.2,0c1.6,0,3.2-0.1,4.9-0.2c0-11.2,0-22.1,0-33c-19.8,0-39.2,0-58.8,0
				c0,29.4,0,58.5,0,87.6c9.9,1.3,10.5,1.9,10.5,11.7c0,18.7,0,37.4,0,56.1c0,9.3-0.8,10.2-9.8,11c-0.2,0-0.5,0.3-0.6,0.5
				c0,6.2,0,12.4,0,18.5c13.5,0,26.7,0,40,0C205,256.7,205,212.7,205,168z M288.4,234c0-24.4,0-48.4,0-72.3c-23.7,0-47,0-70.5,0
				c0,24.2,0,48.1,0,72.3C241.5,234,264.8,234,288.4,234z M162.6,269.4c0-17.9,0-35.4,0-53c-28.4,0-56.5,0-84.7,0
				c0,17.8,0,35.3,0,53C106.4,269.4,134.5,269.4,162.6,269.4z M288.4,298.3c0-19.5,0-38.5,0-57.7c-23.7,0-47.1,0-70.4,0
				c0,19.4,0,38.5,0,57.7C241.5,298.3,264.8,298.3,288.4,298.3z M301.2,229.5c20.7,6.6,31,18.2,30.5,35.5
				c-0.6,19.6-12.2,30.5-30.1,36c12.5,0,25,0,37.6,0c0-32,0-63.6,0-95.6c-12.8,0-25.3,0-38,0C301.2,213.6,301.2,221.5,301.2,229.5z
				 M301.1,290c13-2,22.4-14.2,21.4-27c-1-12.1-11.2-23.2-21.4-22.9C301.1,256.7,301.1,273.2,301.1,290z M126.7,282.2
				c0,6.7,0,12.8,0,18.9c8.6,0,16.8,0,25,0c0-6.5,0-12.6,0-18.9C143.3,282.2,135.1,282.2,126.7,282.2z"/>
			<path class="st1" d="M193.5,136.9c7.4,0,14.9,0,22.3,0c2.4,0,5.1-0.1,5.2,3c0.1,3.1-2.5,3.3-4.9,3.3c-15,0-30.1,0.1-45.1-0.1
				c-1.6,0-4.3-1.7-4.5-3c-0.4-3.2,2.3-3.2,4.7-3.2C178.6,136.9,186,136.9,193.5,136.9z"/>
			<path class="st1" d="M193.9,124c7.4,0,14.9-0.2,22.3,0.1c1.6,0.1,3.2,1.8,4.8,2.8c-1.5,1.1-3.1,3.1-4.6,3.1
				c-15.2,0.2-30.3,0.2-45.5,0c-1.6,0-4.3-1.8-4.5-3c-0.4-3.2,2.4-3.1,4.8-3.1C178.8,124,186.4,124,193.9,124z"/>
			<path class="st1" d="M231.9,198.1c0,5,0.2,10-0.1,15c-0.1,1.5-1.9,2.8-2.9,4.2c-1-1.4-2.9-2.7-2.9-4.1c-0.3-10.2-0.2-20.4,0-30.5
				c0-1.3,1.7-2.7,2.6-4c1.1,1.3,3.2,2.5,3.3,3.9C232.1,187.7,231.9,192.9,231.9,198.1z"/>
			<path class="st1" d="M225.8,272.3c0-4.9-0.2-9.7,0.1-14.6c0.1-1.4,1.8-2.6,2.8-3.9c1.1,1.2,3,2.5,3,3.8c0.3,9.9,0.3,19.8,0,29.6
				c0,1.3-1.9,2.6-2.9,3.8c-1-1.4-2.8-2.7-2.9-4.2C225.5,282.1,225.8,277.2,225.8,272.3z"/>
			<path class="st1" d="M327.4,226c-3.8,0-6.9-3.1-7-6.9c-0.1-3.9,3.2-7.3,7-7.3c3.9,0,7.1,3.4,7,7.4
				C334.4,222.9,331.2,226,327.4,226z"/>
		</g>
		<g>
			<path class="st1" d="M118.4,171.3c-1.2,0.7-2.3,1.2-3.4,1.8c-0.6-1.1-1.2-2.2-1.9-3.4c1.1-0.6,2.1-1.2,3.2-1.9
				c-0.3-0.6-0.6-1.2-1-1.9c-1.1,0.6-2.1,1.1-3.3,1.7c-0.6-1.1-1.2-2.2-1.9-3.4c1.1-0.7,2-1.2,3.2-1.9c-0.4-0.8-0.9-1.6-1.3-2.4
				c-1.1,0.5-2.1,1-3.3,1.6c-2.3-4.1-4.6-8.2-6.8-12.3c-3.1-5.5-6.1-11.1-9.3-16.6c-0.7-1.3-0.8-2.4-0.2-3.7
				c2.2-5.3,4.4-10.6,6.7-15.8c0.5-1.1,1.4-2.1,2.4-2.7c3.8-2.3,7.8-4.4,11.7-6.6c2.1-1.2,3.6-0.7,4.8,1.4
				c5.1,9.2,10.3,18.4,15.4,27.6c1.3,2.4,0.9,3.8-1.5,5.2c-5.3,3-10.7,5.9-16,8.9c-0.3,0.2-0.6,0.4-1,0.7c1.5,2.8,3,5.5,4.5,8.2
				c-1.1,0.7-2.2,1.3-3.4,2.1c0.5,0.9,0.9,1.7,1.4,2.5c1.1-0.6,2.1-1.2,3.2-1.8c0.7,1.2,1.3,2.2,2,3.4c-1.1,0.6-2.1,1.2-3.2,1.9
				c0.3,0.6,0.6,1.2,1,1.9c1.1-0.6,2.2-1.2,3.3-1.8c0.6,1.1,1.2,2.2,1.9,3.4c-1.1,0.6-2.1,1.2-3.2,1.9c0.4,0.7,0.7,1.4,1.1,2.1
				c3.8,7.4,1.8,15.4-4.9,19.7c-6.7,4.2-15.6,2.9-20.2-3.6c-2.9-4.1-5.1-8.6-7.8-12.9c-0.9-1.5-1.8-3.2-3.1-4.3
				c-3.8-3.5-9.8-3.2-13.9,0.5c-4.2,3.9-4.9,8.2-2.1,13.2c4.2,7.5,8.4,15,12.7,22.7c-1.3,0.7-2.5,1.4-3.8,2.1
				c-2.6-4.6-5.1-9.1-7.6-13.6c-1.9-3.4-3.9-6.8-5.6-10.2c-3.1-6-1.8-12.5,3.2-17.2c5.4-5,12.4-6,18.2-2.5c2.4,1.5,4.1,3.6,5.5,6.1
				c2.2,3.9,4.2,7.8,6.5,11.6c2.9,4.8,7.7,7,12.5,5.8c6.6-1.6,9.9-8.3,7.1-14.5C119.4,173.2,118.9,172.4,118.4,171.3z M109.9,130.3
				c5-2.8,9.9-5.5,14.8-8.3c-0.9-1.5-1.6-2.9-2.4-4.3c-5,2.8-9.9,5.5-14.8,8.3C108.4,127.6,109.2,128.9,109.9,130.3z"/>
			<path class="st1" d="M128.5,119.9c-0.8-1.4-1.5-2.8-2.4-4.3c2.1-1.2,4.2-2.4,6.3-3.6c2.3-1.3,4.6-2.6,6.9-3.8
				c1.3-0.7,2.6-0.4,3.4,1c0.8,1.4,0.3,2.6-1,3.3C137.3,115.1,132.9,117.5,128.5,119.9z"/>
			<path class="st1" d="M125.5,114.5c-0.8-1.5-1.6-2.8-2.4-4.3c3.5-1.9,6.8-3.9,10.2-5.6c1.3-0.6,2.6-0.3,3.3,1.2
				c0.7,1.5,0.1,2.6-1.2,3.3C132.2,110.9,129,112.6,125.5,114.5z"/>
		</g>
	</g>
</g>
</svg>
