<?xml version="1.0" encoding="utf-8"?>
<!-- Generator: Adobe Illustrator 24.0.0, SVG Export Plug-In . SVG Version: 6.00 Build 0)  -->
<svg version="1.1" id="Layer_1" xmlns="http://www.w3.org/2000/svg" xmlns:xlink="http://www.w3.org/1999/xlink" x="0px" y="0px"
	 viewBox="0 0 417.06 417.06" style="enable-background:new 0 0 417.06 417.06;" xml:space="preserve">
<style type="text/css">
	.st0{fill:#FFFFFF;stroke:#F08116;stroke-width:11.6343;stroke-miterlimit:10;}
	.st1{fill:#278492;}
	.st2{fill:#2E8795;}
	.st3{fill:#FFFFFF;}
	.st4{fill:none;stroke:#278492;stroke-width:4.6537;stroke-miterlimit:10;}
	.st5{fill:none;stroke:#F08116;stroke-width:11.6343;stroke-miterlimit:10;}
	.st6{fill:#1D7F8D;}
	.st7{fill:none;stroke:#2E8795;stroke-width:3.4903;stroke-linecap:round;stroke-miterlimit:10;}
	.st8{fill-rule:evenodd;clip-rule:evenodd;fill:#2E8795;}
	.st9{clip-path:url(#SVGID_1_);}
</style>
<g>
	<g>
		<circle class="st0" cx="208.53" cy="208.53" r="197.38"/>
		<g>
			<path class="st2" d="M228.02,182.6c5.65,0,11.31-0.03,16.96,0.02c2.15,0.02,3.65,1.37,4.52,3.66c0.84,2.23,0.67,4.58-0.81,6.11
				c-1.18,1.22-2.94,2.3-4.45,2.33c-10.84,0.2-21.69,0.15-32.53,0.08c-3.41-0.02-5.71-2.59-5.78-6.06
				c-0.07-3.64,2.19-6.13,5.83-6.18c5.42-0.08,10.85-0.02,16.27-0.02C228.02,182.56,228.02,182.58,228.02,182.6z"/>
		</g>
	</g>
	<g>
		<g>
			<path class="st2" d="M286.24,123.25c0,27.17,0,54.34,0,81.51c-0.15,0.23-0.33,0.46-0.45,0.7c-1.51,3.08-4.34,4.62-7.38,3.99
				c-3.13-0.65-5.15-3.3-5.17-6.8c-0.01-1.88,0-3.76,0-5.63c0-3.73,0-7.46,0-11.17c-6.65,0-13.03,0-19.57,0c0,15.16,0,30.16,0,45.23
				c-26.04,0-51.93,0-77.98,0c0-0.91,0-1.69,0-2.47c0-15.53,0.02-31.06-0.01-46.6c-0.01-5.4-3.56-9.26-8.75-9.3
				c-11.05-0.09-22.11-0.08-33.16,0c-5.05,0.04-8.65,3.75-8.8,8.82c-0.06,2.17,0,4.33-0.02,6.5c-0.06,9.53-7.69,17.12-17.26,17.17
				c-2.14,0.01-4.28,0-6.47,0c0,6.73,0,13.19,0,19.55c0.17,0.15,0.22,0.24,0.28,0.24c3.46,0.04,6.93,0.07,10.39,0.1
				c2.62,0.02,4.59,1.15,5.81,3.46c2.31,4.35-0.73,9.46-5.74,9.57c-3.58,0.08-7.16,0.02-10.86,0.02c0,2.25,0.03,4.19-0.01,6.13
				c-0.07,3.69-2.84,6.44-6.45,6.46c-3.63,0.02-6.52-2.72-6.53-6.37c-0.04-12.21-0.02-24.42-0.02-36.63c0-0.77,0-1.55,0-2.53
				c-2.43,0-4.65,0.02-6.87,0c-9.26-0.08-16.95-7.75-16.96-17.02c-0.03-18.28-0.03-36.55,0-54.83c0.02-9.28,7.7-16.94,16.96-17.02
				c2.22-0.02,4.44,0,6.75,0c0-5.29,0-10.37,0-15.61c-2.06,0-4,0.01-5.93,0c-4.07-0.02-6.9-2.64-6.94-6.4
				c-0.04-3.89,2.79-6.59,6.96-6.6c8.38-0.01,16.76-0.01,25.14,0c4.06,0.01,6.89,2.65,6.91,6.42c0.03,3.89-2.8,6.55-6.99,6.57
				c-1.99,0.01-3.97,0-5.89,0c0,5.39,0,10.41,0,15.5c37.84,0,75.56,0,113.82,0c-5.01-2.04-6.69-5.51-6.5-10.28
				c0.19-4.76,0.24-9.54-0.01-14.3c-0.28-5.26,1.62-8.93,6.6-10.86c5.78,0,11.56,0,17.34,0c4.92,1.98,6.86,5.62,6.56,10.88
				c-0.27,4.68-0.22,9.39-0.01,14.07c0.21,4.83-1.38,8.4-6.02,10.45c0.89,0.15,1.72,0.15,2.54,0.15
				c10.86,0.01,18.17,7.32,18.18,18.18c0,2.57,0,5.14,0,7.83c3.45,0,6.62,0,9.79,0c3.21,0,6.43,0,9.73,0
				c0-6.03-0.03-11.72,0.01-17.42c0.03-3.75,2.94-6.5,6.68-6.42C283.18,118.55,284.94,120.6,286.24,123.25z M234.2,161.77
				c-0.05-10.62-8.91-19.44-19.51-19.43c-10.66,0.01-19.61,9.04-19.49,19.67c0.12,10.62,9.06,19.42,19.62,19.33
				C225.43,181.25,234.25,172.35,234.2,161.77z"/>
			<path class="st2" d="M286.24,299.71c-1.15,2.38-3.05,3.07-5.65,3.07c-70.22-0.05-140.45-0.04-210.67-0.04
				c-4.34,0-5.66-1.33-5.66-5.68c0-3.9-0.02-7.8,0.01-11.7c0.04-4.91,3.73-8.62,8.65-8.62c68.2-0.01,136.4-0.01,204.6-0.01
				c4.53,0,7.06,2.66,8.72,6.5C286.24,288.73,286.24,294.22,286.24,299.71z"/>
			<path class="st2" d="M164.86,263.57c0-3.97-0.12-7.8,0.03-11.61c0.17-4.31,4.06-7.72,8.63-7.73c11.49-0.02,22.97-0.01,34.46-0.01
				c15.75,0,31.5,0,47.25,0c5.79,0,9.32,3.51,9.33,9.24c0.01,3.32,0,6.63,0,10.1C231.33,263.57,198.22,263.57,164.86,263.57z"/>
			<path class="st2" d="M221.2,161.82c0,3.7-2.88,6.55-6.6,6.51c-3.59-0.04-6.4-2.88-6.4-6.49c-0.01-3.7,2.88-6.55,6.59-6.51
				C218.39,155.37,221.2,158.21,221.2,161.82z"/>
		</g>
		<g>
			<g>
				<path class="st2" d="M247.68,283.18c1.29-8.47,4.65-15.82,10.23-22.38l-3.01-3.01c-3.24-3.24-6.48-6.49-9.72-9.74
					c-1.33,0.38-2.67,0.57-4,0.57c-6.21,0-11.43-4.15-13.12-10.37c-0.01-0.02-0.39-0.72-0.39-0.72v-4.95l0.26-0.57
					c0.2-0.44,0.38-0.9,0.56-1.35c0.46-1.17,0.99-2.49,1.84-3.7c2.48-3.54,6.57-5.65,10.94-5.65c2.26,0,4.51,0.57,6.51,1.64
					c5.71,3.07,8.46,9.81,6.61,15.92c3.54,3.51,7.05,7.02,10.56,10.53l2.85,2.85l6.81-4.2l0.57,9.51c0.22,3.77,0.91,7.72,2.16,12.42
					c0.31,1.18,0.14,2.85-0.93,3.93c-6.96,7.03-15.28,11.14-25.44,12.59l-3.88,0.55L247.68,283.18z"/>
				<path class="st3" d="M241.26,224.22c1.74,0,3.51,0.42,5.14,1.3c4.68,2.51,6.84,8.05,5.02,13.05c-0.29,0.79-0.22,1.25,0.38,1.84
					c4.98,4.93,9.91,9.89,14.87,14.84c0.22,0.22,0.46,0.43,0.72,0.67c1.49-0.92,2.96-1.83,4.6-2.84c0.1,1.69,0.19,3.17,0.28,4.65
					c0.26,4.42,1.12,8.73,2.25,13c0.09,0.35,0.04,0.91-0.18,1.14c-6.51,6.57-14.39,10.42-23.78,11.75
					c1.36-8.91,5.19-16.42,11.33-22.9c-0.28-0.3-0.53-0.59-0.8-0.86c-4.81-4.81-9.62-9.62-14.42-14.44
					c-0.32-0.32-0.6-0.51-0.97-0.51c-0.16,0-0.34,0.04-0.56,0.11c-1.34,0.48-2.67,0.7-3.96,0.7c-4.88,0-9.1-3.26-10.39-8.52
					c-0.04-0.14-0.14-0.27-0.22-0.41c0-1.19,0-2.39,0-3.58c0.7-1.54,1.18-3.23,2.13-4.59C234.72,225.75,237.95,224.22,241.26,224.22
					 M241.26,218.4L241.26,218.4c-5.32,0-10.3,2.58-13.32,6.89c-1.05,1.49-1.66,3.05-2.16,4.3c-0.18,0.45-0.34,0.87-0.5,1.22
					l-0.52,1.14v1.26v3.58v1.49l0.59,1.08c2.13,7.31,8.4,12.17,15.83,12.17c1.03,0,2.06-0.09,3.08-0.28
					c2.84,2.85,5.69,5.7,8.54,8.55l1.21,1.21c-4.9,6.44-7.99,13.73-9.21,21.73l-1.18,7.74l7.75-1.1
					c10.66-1.51,19.77-6.03,27.1-13.42c2.01-2.03,2.16-4.89,1.68-6.72c-1.2-4.51-1.85-8.28-2.07-11.85l-0.19-3.16l-0.09-1.49
					l-0.58-9.71l-8.28,5.1l-0.72,0.44l-1.23-1.23c-3.08-3.08-6.24-6.25-9.39-9.38c1.28-6.92-2.06-14.14-8.44-17.57
					C246.73,219.09,244,218.4,241.26,218.4L241.26,218.4z"/>
			</g>
			<g>
				<path class="st2" d="M309.55,283.82c-1.27,0-2.4-0.5-3.26-1.45c-6.44-7.07-10.23-15.22-11.26-24.22
					c-0.22-1.94-0.23-3.85-0.24-5.7c0-0.65,0-1.3-0.02-1.95c-0.01-0.62,0.07-1.16,0.15-1.64c0.03-0.17,0.06-0.36,0.08-0.55
					l0.36-2.95l2.94,0.42c6.16,0.88,11.84,2.99,17.31,6.45l3.18-3.18c3.4-3.4,6.79-6.79,10.2-10.18c-0.99-3.32-0.69-6.92,0.86-10.02
					c1.67-3.34,4.67-5.87,8.23-6.94c1.28-0.39,2.61-0.58,3.94-0.58c6.3,0,11.77,4.23,13.29,10.29c0.92,3.65,0.29,7.55-1.72,10.72
					c-2.03,3.19-5.18,5.35-8.89,6.08c-0.87,0.17-1.76,0.26-2.64,0.26c-1.29,0-2.59-0.19-3.87-0.56c-4,3.96-7.97,7.93-11.87,11.82
					l-0.81,0.81c0.19,0.26,0.38,0.53,0.57,0.79c1.49,2.08,3.03,4.24,4.42,6.47c1.94,3.1,3.38,6.7,4.41,10.99l0.88,3.64l-3.75-0.06
					c-1.22-0.02-2.43-0.06-3.62-0.09c-1.64-0.05-3.18-0.1-4.73-0.1c-1.06,0-2,0.02-2.89,0.07c-2.48,0.13-4.95,0.5-7.57,0.9
					c-0.89,0.13-1.78,0.27-2.67,0.39C310.25,283.78,309.92,283.82,309.55,283.82z"/>
				<path class="st3" d="M342.02,224.23c4.81,0,9.25,3.23,10.47,8.09c1.51,6-2.29,12.05-8.35,13.23c-0.7,0.14-1.39,0.2-2.08,0.2
					c-1.31,0-2.62-0.24-3.9-0.72c-0.1-0.04-0.23-0.06-0.37-0.06c-0.31,0-0.67,0.1-0.84,0.26c-5.15,5.08-10.26,10.21-15.23,15.17
					c2.15,3.08,4.37,6.02,6.31,9.13c1.96,3.14,3.2,6.61,4.05,10.13c-2.86-0.04-5.65-0.19-8.4-0.19c-1.02,0-2.04,0.02-3.05,0.07
					c-3.51,0.18-7,0.83-10.49,1.32c-0.21,0.03-0.4,0.05-0.58,0.05c-0.41,0-0.76-0.11-1.11-0.5c-5.87-6.44-9.53-13.91-10.52-22.6
					c-0.28-2.44-0.19-4.91-0.24-7.37c-0.01-0.54,0.12-1.09,0.21-1.78c6.65,0.95,12.57,3.45,18.05,7.28
					c0.29-0.26,0.58-0.51,0.85-0.78c4.92-4.92,9.84-9.85,14.78-14.75c0.54-0.54,0.71-0.95,0.43-1.73c-2.15-5.83,1.04-12.23,6.93-14
					C339.94,224.37,340.99,224.23,342.02,224.23 M342.02,218.41c-1.62,0-3.23,0.24-4.78,0.7c-4.33,1.3-7.97,4.38-10,8.43
					c-1.61,3.22-2.11,6.9-1.46,10.41c-3.02,3.01-6.04,6.02-9.05,9.03l-1.58,1.58c-5.2-2.97-10.62-4.83-16.45-5.66l-5.88-0.84
					l-0.72,5.9c-0.02,0.16-0.04,0.31-0.07,0.46c-0.08,0.54-0.2,1.27-0.18,2.14c0.01,0.63,0.01,1.27,0.02,1.9
					c0.01,1.93,0.02,3.93,0.26,6.02c1.1,9.63,5.14,18.33,12,25.85c1.43,1.57,3.3,2.4,5.41,2.4c0.55,0,1.03-0.06,1.38-0.11
					c0.9-0.13,1.8-0.26,2.7-0.4c2.54-0.38,4.95-0.75,7.29-0.87c0.84-0.04,1.74-0.07,2.75-0.07c1.5,0,3.03,0.05,4.64,0.1
					c1.21,0.04,2.43,0.07,3.66,0.09l7.49,0.11l-1.75-7.29c-1.1-4.6-2.66-8.48-4.77-11.85c-1.17-1.87-2.42-3.67-3.66-5.41
					c3.21-3.21,6.49-6.49,9.79-9.75c0.98,0.18,1.97,0.27,2.96,0.27c1.07,0,2.14-0.11,3.2-0.31c4.5-0.88,8.33-3.5,10.79-7.37
					c2.44-3.84,3.2-8.57,2.09-12.99C356.28,223.55,349.65,218.41,342.02,218.41L342.02,218.41z"/>
			</g>
			<g>
				<path class="st2" d="M249.52,339.2c-2.12,0-4.23,0-6.34-0.02c-7.07-0.04-13.03-4.7-14.48-11.32c-0.96-4.36,0.04-8.8,2.74-12.2
					c2.78-3.49,7.06-5.52,11.75-5.56c1.6-0.02,3.2-0.02,4.8-0.02l4.08,0.01c-3.12-6.1-4.72-12.43-4.86-19.21l-0.06-2.67l2.65-0.29
					c9.72-1.05,18.29-4.79,25.48-11.11l2.66-2.34l10.64,18.38l-1.86,1.57c-0.47,0.4-0.97,0.81-1.47,1.22
					c-1.09,0.91-2.23,1.84-3.3,2.81c-6.78,6.07-12.01,13.39-15.55,21.75c-0.85,2-2.39,3.01-4.58,3.01c-3.28-0.03-6.5-0.04-9.72-0.04
					c-3.09,0-6.19,0.01-9.28,0.02c-0.79,0-1.32,0.47-1.46,1.28c-0.09,0.53,0.3,1.28,0.96,1.5c0.28,0.09,0.88,0.09,1.11,0.09
					c2.83,0.01,5.65,0.01,8.48,0.01l11.39,0v12.76l-2.64,0.24l-0.26,0.03c-0.33,0.04-0.64,0.07-0.95,0.07
					C259.43,339.19,251.46,339.2,249.52,339.2z"/>
				<path class="st3" d="M277.2,279c2.56,4.42,5.08,8.78,7.64,13.2c-1.51,1.28-3.22,2.64-4.84,4.09
					c-7.12,6.38-12.56,13.98-16.29,22.79c-0.41,0.96-0.91,1.24-1.9,1.24c-0.01,0-0.03,0-0.04,0c-3.23-0.03-6.47-0.03-9.7-0.03
					c-3.09,0-6.18,0.01-9.27,0.02c-2.22,0.01-3.94,1.52-4.31,3.69c-0.34,1.99,0.92,4.11,2.94,4.76c0.63,0.2,1.33,0.23,1.99,0.24
					c2.76,0.01,5.53,0.01,8.3,0.01c2.43,0,4.86,0,7.29,0c0.01,0,0.03,0,0.04,0c0.14,0,0.28,0,0.43,0c0.29,0,0.59,0,0.91,0
					c0,2.47,0,4.8,0,7.2c-0.34,0.03-0.65,0.08-0.96,0.08c-3.31,0-6.62,0.01-9.93,0.01c-2.1,0-4.19,0-6.29-0.02
					c-5.75-0.04-10.49-3.74-11.66-9.04c-1.64-7.47,3.83-14.15,11.67-14.22c1.57-0.01,3.14-0.02,4.71-0.02
					c2.56,0,5.11,0.01,7.67,0.01c0.01,0,0.02,0,0.03,0c0.14,0,0.28,0,0.43,0c0.3,0,0.63,0,1.06,0c-4.42-6.84-6.82-14.11-7-22.19
					C260.46,289.7,269.52,285.76,277.2,279 M278.68,269.95l-5.32,4.68c-6.73,5.92-14.76,9.42-23.87,10.4l-5.31,0.57l0.12,5.34
					c0.12,5.68,1.2,11.05,3.26,16.23c-1.46,0-2.93,0.01-4.39,0.02c-5.57,0.05-10.67,2.48-14,6.66c-3.25,4.08-4.45,9.41-3.31,14.63
					c1.75,7.96,8.87,13.56,17.31,13.61c2.11,0.01,4.22,0.02,6.33,0.02c1.94,0,3.88,0,5.82-0.01l4.12-0.01
					c0.53,0,0.98-0.05,1.28-0.09l0.19-0.02l5.29-0.48v-5.32V329v-4.09c1.24-0.81,2.21-2.01,2.87-3.56
					c3.38-7.97,8.36-14.94,14.82-20.72c1.04-0.93,2.15-1.85,3.22-2.74c0.51-0.42,1.01-0.83,1.48-1.24l3.73-3.14l-2.44-4.22
					l-2.19-3.78l-5.45-9.42L278.68,269.95L278.68,269.95z"/>
			</g>
			<g>
				<path class="st2" d="M278.21,332.27c-0.35-0.13-0.69-0.25-1.04-0.37c-0.84-0.3-1.72-0.61-2.6-1.02
					c-1.18-0.56-2.35-1.15-3.51-1.75c-0.79-0.4-1.58-0.81-2.37-1.2c-2.09-1.03-2.84-3.05-1.96-5.27
					c3.76-9.53,9.57-17.71,17.29-24.31c8.6-7.36,18.68-12.06,29.96-13.97c3.19-0.54,6.45-0.82,9.69-0.82c3.06,0,6.19,0.25,9.28,0.73
					c0.94,0.15,3.12,0.81,3.23,3.81c0.14,3.95-0.18,7.56-0.96,11.07l-0.6,2.68l-2.71-0.45c-2.82-0.47-5.61-0.7-8.29-0.7
					c-7.81,0-15.22,2.02-22,5.99c-9.31,5.46-15.73,13.26-19.65,23.87l-1.01,2.75L278.21,332.27z"/>
				<path class="st3" d="M323.67,286.47c2.94,0,5.88,0.23,8.83,0.7c0.75,0.12,0.75,0.54,0.77,1.07c0.12,3.42-0.11,6.82-0.9,10.3
					c-2.97-0.49-5.89-0.74-8.76-0.74c-8.23,0-16.07,2.05-23.47,6.39c-9.98,5.85-16.84,14.35-20.91,25.37
					c-1.16-0.44-2.33-0.79-3.42-1.31c-1.97-0.93-3.89-1.97-5.84-2.93c-0.75-0.37-0.86-0.79-0.54-1.59
					c3.58-9.09,9.06-16.82,16.48-23.17c8.28-7.08,17.83-11.49,28.55-13.31C317.53,286.72,320.6,286.47,323.67,286.47 M323.67,280.65
					L323.67,280.65c-3.4,0-6.83,0.29-10.18,0.86c-11.81,2-22.36,6.92-31.36,14.63c-8.09,6.92-14.18,15.48-18.11,25.45
					c-1.44,3.65-0.08,7.24,3.38,8.94c0.78,0.38,1.55,0.78,2.32,1.17c1.16,0.6,2.36,1.21,3.61,1.8c1.01,0.48,2,0.83,2.87,1.13
					c0.33,0.12,0.65,0.23,0.98,0.35l5.48,2.06l2.03-5.49c3.68-9.95,9.69-17.26,18.39-22.36c6.42-3.76,13.13-5.59,20.53-5.59
					c2.52,0,5.15,0.22,7.81,0.66l5.42,0.89l1.2-5.36c0.84-3.75,1.18-7.6,1.04-11.78c-0.15-4.26-3.15-6.22-5.68-6.61
					C330.16,280.91,326.88,280.65,323.67,280.65L323.67,280.65z"/>
			</g>
			<g>
				<path class="st2" d="M291.76,334.31c-1.85,0-3.76-0.11-5.68-0.32l-3.58-0.4l1.14-3.41c5.45-16.33,22.29-28.19,40.02-28.19
					c2.36,0,4.74,0.2,7.08,0.61l3.58,0.62l-1.38,3.36c-3.31,8.04-8.53,14.63-15.53,19.57C309.75,331.56,301.11,334.31,291.76,334.31
					z"/>
				<path class="st3" d="M323.67,304.89c2.17,0,4.37,0.18,6.59,0.57c-3.1,7.54-7.92,13.64-14.51,18.3
					c-7.32,5.17-15.33,7.64-23.99,7.64c-1.76,0-3.54-0.1-5.35-0.3C291.3,316.45,306.43,304.89,323.67,304.89 M323.67,299.08v5.82
					V299.08L323.67,299.08c-9.54,0-18.76,3.01-26.67,8.71c-7.6,5.48-13.32,13.1-16.12,21.47l-2.28,6.82l7.15,0.8
					c2.02,0.23,4.04,0.34,6,0.34c9.96,0,19.16-2.93,27.34-8.71c7.45-5.27,13.02-12.28,16.54-20.84l2.76-6.71l-7.15-1.23
					C328.75,299.29,326.2,299.08,323.67,299.08L323.67,299.08z"/>
			</g>
			<g>
				<path class="st2" d="M288.67,289.81c-3.07-4.05-5.63-8.5-7.61-13.22c-3.53-8.45-5.1-17.08-4.67-25.65
					c0.06-1.19,0.82-3.18,2.65-3.77c3.85-1.23,7.65-1.83,11.63-1.83h3.17l-0.27,3.16c-1.08,12.3,2.21,23.05,10.07,32.86l2.31,2.88
					l-15.87,7.44L288.67,289.81z"/>
				<path class="st3" d="M290.67,248.24C290.68,248.24,290.68,248.24,290.67,248.24c-1.15,13.14,2.55,24.75,10.7,34.93
					c-3.46,1.62-6.89,3.23-10.39,4.87c-2.92-3.85-5.35-8.06-7.24-12.59c-3.26-7.8-4.88-15.91-4.45-24.38
					c0.02-0.41,0.32-1.05,0.63-1.15C283.38,248.83,286.92,248.24,290.67,248.24 M297.03,242.42h-6.35h-0.01
					c-4.29,0-8.38,0.64-12.52,1.97c-3.03,0.97-4.54,3.99-4.67,6.39c-0.46,9.01,1.19,18.07,4.89,26.92
					c2.07,4.95,4.75,9.61,7.98,13.86l2.84,3.75l4.26-2l0.47-0.22l9.93-4.66l6.69-3.14l-4.62-5.77c-7.37-9.2-10.45-19.27-9.44-30.79
					L297.03,242.42L297.03,242.42z"/>
			</g>
		</g>
	</g>
</g>
</svg>
