<?xml version="1.0" encoding="utf-8"?>
<!-- Generator: Adobe Illustrator 24.0.0, SVG Export Plug-In . SVG Version: 6.00 Build 0)  -->
<svg version="1.1" id="Layer_1" xmlns="http://www.w3.org/2000/svg" xmlns:xlink="http://www.w3.org/1999/xlink" x="0px" y="0px"
	 viewBox="0 0 417.06 417.06" style="enable-background:new 0 0 417.06 417.06;" xml:space="preserve">
<style type="text/css">
	.st0{fill:#FFFFFF;stroke:#F08116;stroke-width:11.6343;stroke-miterlimit:10;}
	.st1{fill:#278492;}
	.st2{fill:#2E8795;}
	.st3{fill:#FFFFFF;}
	.st4{fill:none;stroke:#278492;stroke-width:4.6537;stroke-miterlimit:10;}
	.st5{fill:none;stroke:#F08116;stroke-width:11.6343;stroke-miterlimit:10;}
	.st6{fill:#1D7F8D;}
	.st7{fill:none;stroke:#2E8795;stroke-width:3.4903;stroke-linecap:round;stroke-miterlimit:10;}
	.st8{fill-rule:evenodd;clip-rule:evenodd;fill:#2E8795;}
	.st9{clip-path:url(#SVGID_1_);}
</style>
<g>
	<circle class="st0" cx="208.53" cy="208.53" r="197.38"/>
	<g>
		<path class="st2" d="M308.44,236.47c-6.8,1.11-13.63,2.12-20.41,3.36c-14.64,2.69-29.18,5.69-42.89,11.83
			c-16.23,7.26-26.41,19.8-32.36,36.19c-5.99,16.51-8.79,33.74-11.56,50.98c-0.25,1.54-0.53,3.07-0.84,4.6
			c-0.03,0.14-0.31,0.23-0.88,0.62c-1-6.06-1.9-11.94-2.97-17.79c-3.03-16.53-6.16-33.02-13.87-48.23
			c-6.99-13.79-18.12-22.74-32.27-28.23c-18.18-7.05-37.33-9.91-56.45-12.89c-0.86-0.13-1.82,0.05-2.62-1.01
			c8.19-1.43,16.26-2.75,24.3-4.27c13.75-2.6,27.36-5.67,40.14-11.65c15.63-7.31,25.46-19.63,31.26-35.56
			c6.01-16.51,8.78-33.74,11.56-50.98c0.25-1.58,0.59-3.15,1.21-4.72c1.45,2.85,1.55,5.94,2.06,8.92
			c2.89,16.87,5.85,33.7,12.12,49.78c7.44,19.06,21.54,30.51,40.48,36.82c16.09,5.36,32.74,8.13,49.42,10.76
			c1.54,0.24,3.07,0.58,4.61,0.87C308.49,236.07,308.47,236.27,308.44,236.47z"/>
		<path class="st2" d="M269.61,198.4c-1.05-4.9-2.1-9.8-3.15-14.7c-2.76-12.96-11.21-19.82-23.81-22.24
			c-4.61-0.89-9.21-1.8-14.81-2.9c4.54-0.89,8.16-1.52,11.74-2.31c2.95-0.65,5.88-1.4,8.78-2.24c11.9-3.45,16.69-12.59,18.91-23.77
			c0.84-4.22,1.63-8.44,2.93-12.62c1.04,5.07,2.07,10.15,3.12,15.22c2.64,12.69,10.46,20.08,23.08,22.57
			c5.05,0.99,10.08,2.02,15.73,3.16c-6.54,1.49-12.64,2.38-18.61,3.91c-11.87,3.04-17.9,10.96-20.29,22.4
			c-0.95,4.53-1.96,9.05-2.95,13.58C270.05,198.44,269.83,198.42,269.61,198.4z"/>
		<path class="st2" d="M248.71,97.3c-14.95,1.06-22.83,8.51-23.47,23.74c-1.04-15-8.56-22.94-23.81-23.65
			c15.82-0.76,22.87-9.35,23.75-24.39C225.96,87.91,232.86,96.62,248.71,97.3z"/>
		<path class="st2" d="M142.97,178.24c-3.02-18.59-6.59-18.04-20.75-21.23c12.53-0.84,20.54-6.28,20.67-20.39
			c1.06,13.2,7.78,19.97,20.84,20.3c-5.42,1.68-11.05,1.87-15.13,5.89C144.5,166.84,144.65,172.58,142.97,178.24z"/>
		<path class="st2" d="M260.04,276.39c1,4.26,1.13,7.91,3.64,10.71c2.48,2.78,6.19,3.15,9.52,4.67
			c-8.61,0.67-12.23,5.89-13.42,13.94c-0.63-8.99-5.41-13.29-13.98-14c3.6-1.35,7.6-1.57,10.23-4.37
			C258.6,284.59,258.87,280.69,260.04,276.39z"/>
		<path class="st2" d="M316.01,203.68c-0.82-5.62-3.66-8.82-9.44-9.38c5.12-1.16,8.74-3.56,9.41-9.29c1,5.59,4.02,8.65,9.74,9.07
			C319.97,194.98,316.63,197.83,316.01,203.68z"/>
		<path class="st2" d="M170.82,101.13c0.67,4.8,3.37,7.18,7.97,7.98c-4.77,1-7.46,3.58-7.88,8.49c-0.98-4.84-3.34-7.76-8.43-8.24
			C166.78,108.18,170.33,106.37,170.82,101.13z"/>
		<path class="st2" d="M140.71,270.21c4.56-0.81,7.2-3.09,7.99-7.81c0.85,4.73,3.56,7.07,8.12,7.77c-4.78,0.92-7.5,3.48-8.02,8.49
			C147.93,273.89,145.64,270.86,140.71,270.21z"/>
	</g>
</g>
</svg>
