<?xml version="1.0" encoding="utf-8"?>
<!-- Generator: Adobe Illustrator 24.0.0, SVG Export Plug-In . SVG Version: 6.00 Build 0)  -->
<svg version="1.1" id="Layer_1" xmlns="http://www.w3.org/2000/svg" xmlns:xlink="http://www.w3.org/1999/xlink" x="0px" y="0px"
	 viewBox="0 0 417.1 417.1" style="enable-background:new 0 0 417.1 417.1;" xml:space="preserve">
<style type="text/css">
	.st0{fill:#FFFFFF;stroke:#EF8016;stroke-width:11.6345;stroke-miterlimit:10;}
	.st1{fill:#2E8694;}
</style>
<g>
	<g>
		<circle class="st0" cx="208.5" cy="208.5" r="197.4"/>
	</g>
	<g>
		<path class="st1" d="M178.8,237c-21.3-21.2-43.2-42.9-64.6-64.2c21.6-21.5,43.5-43.3,64.8-64.6c20.8,21.1,42.6,43.1,64,64.7
			C222.5,193.4,200.5,215.4,178.8,237z"/>
		<path class="st1" d="M160.5,336.3c-25,0-49.9-0.1-74.9,0c-5.8,0-11-0.9-11.1-7.9c-0.1-6.6,4.9-8.3,10.3-8c4.7,0.3,6.3-2.1,7.9-6
			c6.6-16.1,18.8-25,36.3-25.4c21-0.4,41.9-0.3,62.9,0c18.1,0.3,30.8,9.1,37.4,26c1.5,3.9,3.3,5.5,7.5,5.4
			c5.7-0.1,10.9,1.5,10.4,8.7c-0.5,6.7-5.5,7.3-10.9,7.3C211,336.2,185.7,336.3,160.5,336.3z"/>
		<path class="st1" d="M279.2,304.9c-1.5-1.4-3.8-3.6-6.1-5.8c-12.3-12-24.6-24.1-36.9-36.2c-4.6-4.5-8.6-8.5-16.2-9
			c-10.9-0.7-16.2-15-8.9-23.7c7.9-9.3,16.6-18.1,25.9-25.9c9.5-7.9,22.9-1.1,24.5,11.2c0.5,3.5,2.2,7.6,4.7,10.1
			c15.1,15.3,30.5,30.2,45.8,45.3c0.3,0.3,0.5,0.8,0.5,0.7C301.4,282.7,290.6,293.5,279.2,304.9z"/>
		<path class="st1" d="M89,176.8c5.4,3.1,9.9,4.7,12.9,7.6c21.8,21.3,43.3,42.9,64.8,64.5c7.5,7.6,7.9,16.7,1.5,23.4
			c-6.7,7-15.9,6.8-23.9-1.1c-21.7-21.4-43.1-43.1-64.6-64.7c-5.2-5.3-7.8-11.9-3.6-18.3C79,183.8,84.4,180.8,89,176.8z"/>
		<path class="st1" d="M203.5,67.3c2.4,1.4,6.7,2.9,9.7,5.9c21.8,21.3,43.3,42.9,64.8,64.6c7.6,7.7,7.9,16.7,1.4,23.4
			c-6.5,6.7-15.8,6.7-23.3-0.7c-21.9-21.6-43.5-43.4-65.2-65.2c-4.9-5-7.1-10.8-4.1-17.7C189.7,71.1,194.7,68,203.5,67.3z"/>
		<path class="st1" d="M291.4,318.9c12.3-12.3,22.9-23,34.3-34.4c4.4,5,9.6,10.1,13.7,15.9c6.3,9.1,4.4,21.6-3.8,29.3
			c-8.2,7.8-20.5,9-29.4,2.3C300.8,328,296.1,323.1,291.4,318.9z"/>
	</g>
</g>
</svg>
