<?xml version="1.0" encoding="utf-8"?>
<!-- Generator: Adobe Illustrator 24.0.0, SVG Export Plug-In . SVG Version: 6.00 Build 0)  -->
<svg version="1.1" id="Layer_1" xmlns="http://www.w3.org/2000/svg" xmlns:xlink="http://www.w3.org/1999/xlink" x="0px" y="0px"
	 viewBox="0 0 417.06 417.06" style="enable-background:new 0 0 417.06 417.06;" xml:space="preserve">
<style type="text/css">
	.st0{fill:#FFFFFF;stroke:#F08116;stroke-width:11.6343;stroke-miterlimit:10;}
	.st1{fill:#278492;}
	.st2{fill:#2E8795;}
	.st3{fill:#FFFFFF;}
	.st4{fill:none;stroke:#278492;stroke-width:4.6537;stroke-miterlimit:10;}
	.st5{fill:none;stroke:#F08116;stroke-width:11.6343;stroke-miterlimit:10;}
	.st6{fill:#1D7F8D;}
	.st7{fill:none;stroke:#2E8795;stroke-width:3.4903;stroke-linecap:round;stroke-miterlimit:10;}
	.st8{fill-rule:evenodd;clip-rule:evenodd;fill:#2E8795;}
	.st9{clip-path:url(#SVGID_1_);}
</style>
<g>
	<circle class="st0" cx="208.53" cy="208.53" r="197.38"/>
	<g>
		<path class="st2" d="M321.59,223.99c0,30.32,0,60.65,0,90.97c-1.23,3.18-3.44,5.39-6.62,6.62c-30.32,0-60.63,0-90.95,0
			c-5.16-1.86-7.04-5.66-6.86-10.97c0.2-5.8,0.04-11.62,0.04-17.42c0-21.91,0.01-43.82-0.01-65.73c0-3.3,0.66-6.24,3.43-8.41
			c2.11-1.66,4.55-1.87,7.08-1.87c27.71,0,55.42,0.06,83.14-0.05C316.09,217.11,319.76,218.95,321.59,223.99z M304.12,248.07
			c-18.72,18.73-37.4,37.41-56.03,56.04c5.05,0,10.41,0.08,15.76-0.07c1.16-0.03,2.59-0.61,3.41-1.42
			c11.19-11.07,22.23-22.3,33.49-33.3c2.52-2.46,3.71-4.88,3.45-8.43C303.87,256.53,304.12,252.13,304.12,248.07z M234.65,290.71
			c18.68-18.68,37.45-37.46,56.07-56.08c-5.29,0-11.02-0.03-16.74,0.04c-0.62,0.01-1.36,0.49-1.84,0.96
			c-12.19,12.15-24.36,24.32-36.51,36.52c-0.47,0.47-0.93,1.22-0.94,1.85C234.62,279.72,234.65,285.44,234.65,290.71z M234.79,234.7
			c0,4.51,0,8.79,0,12.44c4.06-4.06,8.37-8.36,12.45-12.44C243.48,234.7,239.23,234.7,234.79,234.7z M303.95,303.98
			c0-4.43,0-8.58,0-12.05c-3.94,3.94-8.14,8.13-12.06,12.05C295.51,303.98,299.67,303.98,303.95,303.98z"/>
		<path class="st2" d="M193.11,321.59c-30.32,0-60.63,0-90.95,0c-5.08-1.97-6.72-5.73-6.69-11.07c0.16-27.88,0.07-55.77,0.08-83.66
			c0-6.1,3.35-9.64,9.5-9.66c28.47-0.05,56.94-0.02,85.4-0.02c3.19,0,6.2,0.87,7.73,3.76c1.07,2.03,1.66,4.57,1.67,6.89
			c0.11,27.66,0.01,55.33,0.12,82.99C199.99,316.08,198.15,319.75,193.11,321.59z M113.17,280.18c7.68-3.48,14.78-2.84,20.68,3.03
			c5.95,5.92,6.58,13.09,3.09,20.76c7.31,0,14.33,0,21.54,0c-3.49-7.76-2.85-14.92,3.17-20.85c5.98-5.89,13.15-6.38,20.68-2.92
			c0-7.33,0-14.41,0-21.65c-7.55,3.53-14.61,3-20.53-2.72c-6.21-5.99-6.87-13.28-3.25-21.11c-7.29,0-14.39,0-21.68,0
			c3.53,7.68,2.97,14.85-2.97,20.83c-5.93,5.96-13.1,6.54-20.73,3.1C113.17,265.93,113.17,272.95,113.17,280.18z"/>
		<path class="st2" d="M321.59,193.08c-1.83,5.04-5.5,6.88-10.76,6.86c-27.58-0.11-55.17-0.05-82.75-0.06
			c-1.17,0-2.36-0.04-3.52-0.19c-3.61-0.46-6.65-3.49-7.15-7.08c-0.13-0.94-0.19-1.9-0.19-2.86c-0.01-28.03-0.01-56.06,0-84.1
			c0-5.39,2.1-8.59,6.42-9.83c0.83-0.24,1.73-0.33,2.6-0.33c28.76-0.02,57.52,0,86.28-0.03c4.72,0,7.37,2.62,9.08,6.64
			C321.59,132.43,321.59,162.76,321.59,193.08z M234.77,182.32c23.12,0,46.1,0,69.21,0c0-23.12,0-46.1,0-69.22
			c-23.12,0-46.1,0-69.21,0C234.77,136.17,234.77,159.11,234.77,182.32z"/>
		<path class="st2" d="M314.97,321.59c3.18-1.23,5.39-3.44,6.62-6.62c0,2.21,0,4.42,0,6.62
			C319.38,321.59,317.17,321.59,314.97,321.59z"/>
		<path class="st2" d="M95.54,147.72c0-14.2,0-28.41,0-42.61c0-6.2,3.46-9.63,9.71-9.63c28.32,0,56.65,0,84.97,0
			c6.11,0,9.65,3.34,9.67,9.5c0.05,28.48,0.05,56.96,0,85.44c-0.01,6.01-3.49,9.43-9.53,9.45c-28.4,0.05-56.8,0.05-85.2,0
			c-6.28-0.01-9.63-3.51-9.63-9.76C95.54,175.98,95.54,161.85,95.54,147.72z"/>
		<path class="st2" d="M147.72,286.76c-9.61,0.01-17.34-7.68-17.37-17.31c-0.03-9.55,7.63-17.54,17.25-17.47
			c9.85,0.07,17.36,7.4,17.53,17.46C165.3,278.96,157.27,286.75,147.72,286.76z"/>
	</g>
</g>
</svg>
