<?xml version="1.0" encoding="utf-8"?>
<!-- Generator: Adobe Illustrator 24.0.0, SVG Export Plug-In . SVG Version: 6.00 Build 0)  -->
<svg version="1.1" id="Layer_1" xmlns="http://www.w3.org/2000/svg" xmlns:xlink="http://www.w3.org/1999/xlink" x="0px" y="0px"
	 viewBox="0 0 417.1 417.1" style="enable-background:new 0 0 417.1 417.1;" xml:space="preserve">
<style type="text/css">
	.st0{fill:#FFFFFF;stroke:#C01718;stroke-width:11.6328;stroke-miterlimit:10;}
	.st1{fill:#2E8694;}
</style>
<g>
	<circle class="st0" cx="208.6" cy="208.6" r="197.3"/>
	<g>
		<path class="st1" d="M191.1,315.6c0-10.3,0-19.7,0-29.2c0-8.1,0-16.3,0-24.4c0-8.3,0.2-8.4,8.7-8.7c1.2,0,2.3-0.2,4.1-0.4
			c0.2-2.2,0.4-4.3,0.4-6.4c0-40.6,0-81.1,0.1-121.7c0-4.2-0.6-7.1-5-8.8c-2-0.8-4.3-2.8-5-4.8c-2.1-5.3-5.9-5.8-10.8-5.8
			c-15.5,0.2-31,0.1-46.4,0.1c-2.1,0-4.2,0.2-7.1,0.3c3.9,11.6,7.7,22.4,11.3,33.2c8.3,24.4,16.5,48.8,24.8,73.2
			c1.8,5.2,4.1,10.3,5.6,15.5c0.6,2,0.4,4.9-0.6,6.6c-10.3,17.7-26,27-46.4,27.3c-20.9,0.3-37.1-8.9-47.9-26.8
			c-1.1-1.8-1.7-4.8-1.1-6.7c11.1-32.8,22.4-65.5,33.7-98.2c3.1-9,6.4-17.9,9.2-27c1.4-4.6,3.9-6.2,8.6-6.1
			c19.4,0.2,38.9,0,58.3,0.1c3.7,0,6.4-0.4,8-4.4c0.8-2.1,2.7-4.1,4.6-5.3c3.6-2.2,7.2-3.9,6.7-9.2c-0.1-0.9,2.8-3,4.2-2.9
			c1.4,0.1,3.6,2.4,3.6,3.7c-0.1,4.1,1.8,6,5.3,7.6c1.9,0.9,4,2.5,4.7,4.3c2.3,6.2,6.9,6.3,12.3,6.2c18.4-0.2,36.9,0,55.4-0.2
			c4.4,0,6.8,1.4,8.3,5.8c11.9,35.3,23.9,70.6,36,105.8c2.2,6.3,4.7,12.6,6.6,19c0.7,2.4,0.5,5.7-0.8,7.7
			c-10.6,17.5-26.4,26.6-46.9,26.6c-20.4,0-36.3-8.9-46.8-26.6c-1.3-2.1-1.4-5.7-0.6-8.1c13.1-38.8,26.4-77.6,39.6-116.4
			c0.4-1.3,0.7-2.6,1.2-4.6c-2-0.2-3.7-0.5-5.4-0.5c-16.9,0-33.7,0-50.6-0.1c-3.3,0-5.3,0.8-7.1,3.9c-1.7,2.9-5,4.9-7.3,7.5
			c-1.5,1.7-3.5,3.9-3.5,5.9c-0.2,42-0.1,84.1-0.1,126.1c0,1.2,0.3,2.3,0.4,3.5c0.7,0.3,1.2,0.8,1.7,0.7
			c11.5-0.2,11.1,0.1,11.1,12.5c0,14.3,0,28.6,0,42.8c0,2.1,0,4.2,0,7.1c10.6,0,20.4,0,30.3,0c5.6,0,11.1,0.2,16.7,0
			c4.9-0.2,6.8,2.1,6.7,6.8c-0.1,4-0.3,8,0,11.9c0.4,5.6-1.8,7.7-7.6,7.7c-28.2-0.2-56.3-0.1-84.5-0.1c-14.5,0-29-0.1-43.4,0.1
			c-5.2,0.1-7.2-2-6.9-7.1c0.2-4,0.2-7.9,0-11.9c-0.3-5.3,1.8-7.5,7.3-7.4C159.9,315.8,174.9,315.6,191.1,315.6z M124.7,116.4
			c-0.5,0.1-0.9,0.2-1.4,0.2c-0.9,2.4-1.8,4.8-2.7,7.2c-9.2,26.9-18.4,53.9-27.7,80.7c-2,5.8-4.8,11.2-6.9,17c-1.8,4.8-0.2,6.5,5,6
			c4.7-0.5,9.4-1.1,14.1-1.2c10.4-0.1,20.9,0.2,31.3,0.3c8.4,0.1,16.8,0,26.3,0C149.7,189.1,137.2,152.8,124.7,116.4z M294.3,116.3
			c-0.5,0.1-1,0.1-1.5,0.2c-12.5,36.3-25,72.6-37.7,109.6c26.2,0,51.1,0,77.1,0C319.3,188.8,306.8,152.5,294.3,116.3z"/>
	</g>
</g>
</svg>
