<?xml version="1.0" encoding="utf-8"?>
<!-- Generator: Adobe Illustrator 24.0.0, SVG Export Plug-In . SVG Version: 6.00 Build 0)  -->
<svg version="1.1" id="Layer_1" xmlns="http://www.w3.org/2000/svg" xmlns:xlink="http://www.w3.org/1999/xlink" x="0px" y="0px"
	 viewBox="0 0 417.1 417.1" style="enable-background:new 0 0 417.1 417.1;" xml:space="preserve">
<style type="text/css">
	.st0{fill:#FFFFFF;}
	.st1{clip-path:url(#SVGID_1_);}
	.st2{fill:#2E8694;}
	.st3{fill:none;stroke:#EF8016;stroke-width:11.6345;stroke-miterlimit:10;}
</style>
<g>
	<circle class="st0" cx="208.5" cy="208.5" r="197.4"/>
	<g>
		<defs>
			<circle id="SVGID_3_" cx="208.5" cy="208.5" r="197.4"/>
		</defs>
		<clipPath id="SVGID_1_">
			<use xlink:href="#SVGID_3_"  style="overflow:visible;"/>
		</clipPath>
		<g class="st1">
			<g>
				<path class="st2" d="M448.1,137.6c11.7-0.7,23.8-1.5,35.5-2.2 M489,134.9c21.2-0.6,42.1-1.2,63-1.8c0,2.3,0,4.6,0,6.9
					c-0.8-0.1-1.6-0.2-2.5-0.2c-30.5,0.8-61,1.3-91.5,2.6c-37.4,1.5-74.7,5.1-111.9,9.9c-34.6,4.5-68.9,10.3-102.8,18.3
					c-31.3,7.4-62.1,16.4-91.5,29.8c-17.1,7.8-33.4,16.7-47.3,29.6c-7.6,7-14,15-17.6,24.9c-0.2,0.6-0.5,1.1-0.7,1.6
					c-0.1-1.6,0.2-3,0.7-4.3c4.8-12.9,13.8-22.5,24.4-30.9c14.5-11.5,30.8-19.9,47.7-27.1c1.7-0.7,2.8-1.8,2.1-3.5
					c-0.4-0.9-1.7-1.9-2.7-2.1c-21-4.4-42-8.6-63-12.9c-6.1-1.3-12.3-2.6-18.5-4c0,46.7,0,93,0,139.6c8.7-2.1,17.3-4.1,26.1-6.2
					c-0.9-1-1.7-1.7-2.2-2.5c-4-5.8-8.6-11.3-11.7-17.5c-5.7-11.6-4.2-22.9,3.4-33.4c4.9-6.8,11.2-12.2,18-17.1
					c14.9-10.5,31.3-17.9,48.2-24.2c52.5-19.6,107.3-30,162.5-37.9c21.9-3.1,43.8-5.5,65.8-7.7c21.2-2.1,42.4-3.5,63.6-4.9
					c16.7-1.1,33.4-1.7,50.1-2.2c14.3-0.4,28.6-0.1,43-0.1c0-0.1,0-0.3,0-0.4c-6.9,0.5-13.8,0.9-20.7,1.4c0,20.3,0,40.2,0,60.3
					c2.1,0.2,4,0.4,5.1,0.5l23.8,0.8c0,0.4,0,0.8,0,1.2c-9.6-0.4-19.1-0.9-28.8-1.3c0,2,0,3.7,0,5.7c9.8,0.2,19.3,0.4,28.8,0.6
					c0,0.6,0,1.2,0,1.9c-9.6,0-19.2,0-28.8,0c0,19.1,0,37.8,0,56.8c5.2,0,10.1,0,13.8,0c-8.5,1.1-18.2,2.1-27.8,3.7
					c-15.1,2.4-29.8,6.3-43.6,13.2c-11.2,5.6-20.6,13.2-26.6,24.4c-6,11.3-6,22.8,1.7,33.1c4.3,5.8,9.6,11.2,15.4,15.7
					c15.6,12.2,33.7,19.7,52.3,26.2c0.8,0.3,1.5,0.6,2.9,1.2c-15.1,0.7-15.1,0.7-27.9-4.7c-1.1-0.5-2.3-0.9-3.4-1.5
					c-14.3-6.4-28.2-13.6-40.1-24.1c-8.8-7.8-13.8-17.4-13-29.3c0.7-10.2,5.3-18.7,12.3-25.9c10.8-11.1,24.3-17.8,38.8-22
					c13-3.8,26.4-6.3,39.7-9.4c-5,0.9-10.1,1.5-15.2,2.4c-17.5,2.9-34.4,7.5-50,16.1c-11.9,6.6-22.1,15.2-28.6,27.4
					c-4.4,8.4-6,17.2-3.3,26.5c2.3,7.9,7.9,13.3,14,18.2c10,8.1,21.2,14.1,32.8,19.6c4.6,2.2,9.3,4.2,14.7,6.6
					c-1.1,0.1-1.5,0.1-1.9,0.1c-23,0-46.1,0-69.1,0c-0.8,0-1.7-0.1-2.4-0.4c-11.1-5.1-21.4-11.4-29.6-20.7
					c-11.2-12.8-13.2-27.8-5.6-42.1c5.6-10.6,14.3-18.2,24.3-24.5c21.4-13.3,45.1-20.2,69.7-24.3c12.7-2.1,25.5-3.5,38.2-5.2
					c-1.6,0.2-3.3,0.1-4.9,0.2c-18,1.4-35.9,3.6-53.5,7.6c-19.4,4.5-38.1,10.9-55.1,21.5c-9.4,5.9-17.7,13.1-23.6,22.6
					c-6,9.6-8.1,20-4.5,31c3.4,10.7,10.8,18.5,19.8,24.9c4.6,3.3,9.5,6.1,14.8,9.4c-1.6,0-2.6,0-3.7,0c-54,0-108-0.1-162,0.1
					c-4.8,0-8.3-1.5-11.5-4.7c-7.6-7.5-11.6-16.1-9.5-26.9c1.3-6.8,4.7-12.6,9-17.9c9.4-11.6,21.5-19.8,34.5-26.7
					c27.9-14.9,58.1-23.1,88.8-29.2c11.2-2.2,22.5-3.8,33.7-5.6c1.2-0.2,3-0.7,1.8-1.7c-1.5-1.3-2.6-3.5-5.5-3.2
					c-15.1,1.9-30.3,3.4-45.4,5.5c-28.8,4.2-57,10.9-84.2,21.3c-19.8,7.5-38.6,16.9-54.6,31c-7.1,6.2-13.2,13.2-17.1,21.9
					c-5.6,12.7-3.4,24.2,6.4,33.8c0.6,0.5,1.4,0.8,2.1,1.3c-0.2,0.3-0.4,0.5-0.6,0.8c-49.7,0-99.3,0-149,0
					c-2.4-7.8-0.8-14.9,2.6-21.8c4.3-8.6,10.5-15.7,17.5-22c19.2-17.3,41.6-29,65.4-38.3c1.7-0.7,3.4-1.4,5.1-2c0-0.4,0-0.8,0-1.1
					c-0.9-0.1-2-0.6-2.7-0.4c-28.9,10-56,23.2-78.4,44.4c-11.8,11.2-22.3,23.4-21.8,41.2c-19.9,0-39.6,0-59.7,0
					c0.7-2.5,1.3-4.7,2.1-6.8c3.7-9.6,9.9-17.4,17-24.7c13.7-14,30.3-23.8,47.6-32.4c28.9-14.2,59.4-24.3,90.7-31.8
					c2.1-0.5,4.4-0.8,5-3.6c-0.3,0-0.5-0.1-0.7-0.1c-33.3,7.1-66,16.2-97.1,30.5c-20.6,9.5-40.4,20.5-57,36.2
					c-9.4,8.8-17.5,18.6-20.8,31.5c-0.2,0.7-1.6,1.4-2.5,1.4c-5.1,0.1-10.2,0.1-15.3,0.1c0-103.6,0-207.3,0-310.9
					c1,0,2.1,0.1,3.1,0.1c37.3,0,74.5,0,111.8,0.1c1.9,0,3.9,0.6,5.6,1.4c11.7,5.7,23.1,11.8,34.9,17.1
					c49,22.1,99.7,39.6,150.9,55.6c3.7,1.2,7.2,1.5,10.9,0.3c3-0.9,6-1.5,9.1-2.2c3-0.7,6.1-1.4,9.9-2.2
					c-55.4-19.5-108.9-41-159.1-70c2.8,0,5.8-0.1,8.1,1.1c19.4,9.6,38.5,19.8,58.1,29.1c16.3,7.7,33.1,14.3,49.9,21.5l22.7,7.1
					c0,0.5,0.8,1.2,1.3,1.4c3.3,1.3,6.7,2.6,10,3.8l9.7,3.4c2,0.4,4,1.4,5.9,1c13.1-2.2,26.1-4.8,39.1-7.1
					c12.1-2.1,24.3-3.9,36.4-5.8c-0.5-1.3-0.9-2.5-1.2-3.5c-0.3,0.6-0.5,1.9-1,2c-2.2,0.6-3.9-0.4-4.7-2.5c-0.7-1.9-1.8-3.9,1-5.3
					c2.6-1.2,5.1-2.7,7.7-4c5-2.7,10.5-4.6,15.8-3c5.4,1.6,10.8,3,16.5,3.4c2.6,0.2,3.7,2.1,3.7,4.6c0,0.6-0.3,1.6-0.7,1.7
					c-0.7,0.2-1.5-0.2-2.3-0.3c-0.3,0.8-0.6,1.6-0.9,2.6c20.6-1.9,40.9-3.8,61.6-5.7 M463.4,205.5c0.6,0.4,1.1,1,1.7,1.1
					c4.7,1.3,9.5,2.4,14.3,3.7c0.5,0.1,0.9,0.9,1.9,2c-3-0.3-5-0.6-7-0.8c-0.1,0.3-0.1,0.6-0.2,0.9c2.1,2.3,5.2,1.2,7.7,2.2
					c0.3-1.5,0.2-2.8,0.8-3.6c0.4-0.6,1.8-0.5,3.4-0.9c-4.6-1-8.4-2-12.2-2.7C470.4,206.7,466.8,206.2,463.4,205.5
					c-0.1-2.5-0.2-5-0.2-7.6l0,0.1c0-3.9,0-7.8,0-11.7c-5.5,0-10.7,0-16.3,0c0,6.7-0.1,13.2,0.1,19.7c0,0.6,1.4,1.6,2.2,1.7
					c3.9,0.2,7.9,0,11.8,0.1C462.8,207.8,463.4,207,463.4,205.5z M419.2,275.8c0.4,0.2,0.9,0.4,1.4,0.6c0-32.2,0-64.3,0-96.2
					c-2.6,0-4.9,0-7.4,0c-0.1,1.1-0.2,1.9-0.2,2.7c0,28.4,0,56.8,0,85.2c0,0.9,0.1,1.9,0.2,2.8c-1.1-0.5-2.2-0.9-3.4-1.4
					c0.3-1,0.8-2.1,0.8-3.1c0-13.7,0-27.4,0-41.1c0-0.8-0.1-1.6-0.2-2.3c-23.7-2.3-47.2-4.5-70.9-6.8c0,22.8,0,45.5,0,68.4
					c7.4,0,14.7,0,22,0c0,0.3,0,0.5,0,0.8c-8.8,0-17.5,0-26.3,0c0,0.4,0,0.8,0,1.2c13.5-0.5,27.1-0.9,40.9-1.4c0-1.7-0.1-3,0-4.3
					c0.2-2,0.6-4,0.9-5.9c1.7,0.4,3.4,0.9,5.2,1.3c0,0.2,0,0.3,0,0.5c-1.6,0.1-3.3,0.3-4.9,0.4c0,0.1,0,0.2,0,0.3
					c1.7,0.2,3.4,0.3,5,0.5c0,0.3,0,0.5-0.1,0.8c-1.8,0.1-3.6,0.2-5.5,0.3c0,2.1-0.1,3.9,0,5.8c0.2,2.5,1.3,4.2,4.4,4
					c3.6-0.2,7.3,0,10.9,0c4.6,0,9.3,0,13.5,0c0.8-3.1,1.5-5.7,2.2-8.4c0.6,0,1.1,0,1.7,0.1c0.6,2.7,1.2,5.4,1.9,8.4
					c3.5-0.6,7.1-1.3,10.3-1.9c0.6-2.7,1.1-5,1.7-7.2c0.4,0,0.8,0,1.2,0c0.6,1.1,1.2,2.2,1.9,3.3c0.1,0,0.2,0,0.3-0.1
					c-0.2-0.9-0.4-1.9-0.6-2.8c0.5,2.2,1.1,4.3,1.7,6.6c12.2-0.6,24.7-1.2,37.1-1.8c0-19.7,0-39.1,0-58.8
					c-13.2-0.8-26.3-1.6-39.3-2.3c0,18.8,0,37.2,0,55.6C423.5,278.3,421.4,277,419.2,275.8z M143.8,288.9c-2.1,2-4.1,4-6.2,6
					c-4.9,3.3-9.8,6.5-14.3,9.5c0.9,1.4,1.6,2.5,2.3,3.5c-1.3,0.5-2.6,1-4.2,1.5c-1.4,5.2-0.9,6.4,4.7,6.9
					c5.8,0.5,11.6,0.4,17.3,0.2c3.7-0.1,7.3-0.9,10.7-1.4c0.4-3.3,0.5-6.1,1.2-8.8c0.3-1.2,1.8-2.2,2.8-3.3c0.8,1.1,2.1,2,2.4,3.2
					c0.6,2.4,0.8,4.8,1.1,7.4c3.6-0.8,7.1-1.6,10.6-2.4c5.2-1.2,5.2-1.2,5.9-6.5c0.1-0.6,0.2-1.2,0.4-1.8c0.9-3,1.7-3.4,4.5-1.9
					c0-2.9,0.1-5.8-0.1-8.6c0-0.7-0.6-1.8-1.2-2c-4.4-1.7-8.8-3.8-13.3-4.6c-4.8-0.8-10-0.5-14.9,0
					C150.3,286.2,147.1,287.9,143.8,288.9z M-22.9,350.5c0.6-0.2,0.9-0.2,1.2-0.4c20-11.7,41.2-20.8,63.2-28.2
					c2-0.7,2.1-1.9,2.1-3.5c0-50.5,0-100.9,0-151.4c0-2.4-0.8-3.4-3.1-3.9c-17.4-4.3-34.8-8.7-52.1-13.1c-3.7-0.9-7.4-1.9-11.2-2.9
					C-22.9,215.1-22.9,282.7-22.9,350.5z M308.8,212.5c-15.4-2.1-30.5-4.2-45.9-6.3c0,11.2,0,22.4,0,33.9c-6.5-2.2-11.8-6.7-19-5.4
					c0-8.3,0-16,0-24.1c-1.8,0.4-3.1,0.7-4.7,1c0,7.8,0,15.3,0,23.1c-1.2-0.1-2-0.2-3.1-0.3c0-10.3,0-20.3,0-30.6
					c-0.9,0.2-1.7,0.2-2.3,0.5c-13.1,5.3-26.3,10.7-39.4,16c-2.1,0.9-2.8,2.2-2.8,4.5c0.1,21.1,0.1,42.2,0.1,63.2c0,1,0.1,2,0.2,3.1
					c3.6-0.4,6.9-0.8,9.5-1c0.7-9.7,1.3-18.9,1.9-28c0.4-5.5,2.2-10,7.1-13.1c0.7-0.5,1.2-1.9,1.2-2.9c0.2-3,0.1-5.9,0.1-8.8
					c0.8-0.2,1.1-0.3,1.4-0.3c12.1,0,24.3,0,36.4,0.1c0.8,0,1.7,0.2,2.4,0.5c11.9,4.8,23.8,9.6,35.7,14.5c0.7,0.3,1.6,1.2,1.6,1.8
					c0.1,4.7,0.1,9.5,0.1,14.3c-12.6-2.1-24.8-4.2-37.1-6.2c-1.1,2.7,0.5,3,2.3,3.2c11,1.4,22,2.8,33,4.3c0.6,0.1,1.2,0.6,1.8,0.9
					c-0.1,0.3-0.2,0.5-0.3,0.8c-12.3-1.1-24.6-2.3-37.1-3.5c0,2.6,0,4.8,0,7.3c12.4,0.4,24.7,0.8,37,1.2c0,0.2,0,0.4,0,0.6
					c-8.6,0-17.2,0-25.8,0c0,3.4,0,6.7,0,9.9c0.5-3.2,3-2.7,5-2.8c2.2-0.1,4.3-0.2,6.4-0.3c0.4-1.6,0.7-3,1.1-4.6
					c2.5,0,4.8,0.2,7.1,0c2.7-0.3,4.3,0.5,3.9,3.4c1,0.3,1.8,0.5,3.3,1c-1.3,0.9-2.1,1.4-2.6,1.8c7,0,14.2,0,21.5,0
					C308.8,260.7,308.8,236.7,308.8,212.5z M425.6,167c0,13,0,25.2,0,37.6c6.8,1.3,13.6,2.7,20.6,4c0-8.1,0-15.6,0-23.3
					c6.2,0,12.6-1.3,18.1,0.3c10.8,3,21.2,7.5,32,11.5c0,1.8,0,3.5,0,5.1c1.2,0.3,2.2,0.5,2.9,0.7c0,3.3,0,6.2,0,9.3
					c-2.1,0.1-3.9,0.2-6.7,0.4c1,1.5,1.6,2.5,2.3,3.5c0.6-0.6,1.1-1.2,1.5-1.5c0.1,0.3,0.3,0.9,0.7,2.5c0.3-1.3,0.2-1.8,0.5-2.1
					c0.7-0.8,1.5-1.6,2.3-2.3c0.4,0.8,0.8,1.5,1.3,2.3c0.4,0.6,0.8,1.5,1.4,1.6c2,0.6,4.2,0.9,6.4,1.3c0-19.7,0-38.9,0-58.7
					C480.9,161.9,453.3,164.5,425.6,167z M508.7,284.7c0-19.1,0-37.9,0-56.7c-10.8-0.4-21.3-0.7-32-1.1c0,19.5,0,38.6,0,57.8
					C487.5,284.7,498.1,284.7,508.7,284.7z M410.5,168.8c-23.9,3.5-47.5,6.9-70.9,10.3c-0.4,4.1-0.4,4.1,2.7,4.9
					c17,4.5,34.1,8.9,51.1,13.3c5.6,1.4,11.2,2.6,17.1,4C410.5,190.5,410.5,180,410.5,168.8z M510.7,171.2c0,38.3,0,76.3,0,114.4
					c2.9-0.2,5.9-0.3,9-0.5c0-38,0-75.9,0-113.8C516.6,171.2,513.9,171.2,510.7,171.2z M-33,356.9c3.4-1.3,5.1-3,5.1-7
					c-0.2-59.6-0.1-119.2-0.1-178.8c0-4.7-0.1-4.8-5-5.5C-33,229.4-33,293.1-33,356.9z M66.9,186c0,42.9,0,85.3,0,128
					c2.1-0.6,3.9-1,5.8-1.5c0-41.8,0-83.4,0-125.1C70.9,186.9,69.1,186.5,66.9,186z M238.6,282.4c0.9-1.8,1.6-3.3,2.3-4.7
					c0.5-0.9,1.3-1.8,1.3-2.7c0.1-8.3,0-16.6,0.1-24.9c0-2.3-0.7-3.1-3-3.1c-6.2,0.1-12.5,0-18.7,0c-8.2,0-14.3,5.1-15.9,13.1
					c-1.5,7.3-2.1,14.7-1.4,22.3C215.2,282.4,227,282.4,238.6,282.4z M339.4,185.6c0,2.1,0.1,4.1,0,6.2c-0.2,2.2,0.5,3.2,2.9,3.7
					c16.3,3.5,32.5,7.3,48.8,10.9c6.4,1.4,12.9,2.6,19.5,3.9c0-2.6,0-4.9,0-7C386.8,197.5,363.3,191.6,339.4,185.6z M508.8,219.7
					c-27.9-4.3-55.5-8.6-83.4-12.8c0,0.7,0.1,2,0,3.2c-0.3,2.4,0.5,3.4,3.1,3.7c22.2,3.1,44.5,6.5,66.7,9.6c4.5,0.6,9,0.8,13.6,1.3
					C508.8,222.6,508.8,221,508.8,219.7z M329.5,284.8c0-30.8,0-61.3,0-91.8c-5.3-0.2-5.3-0.2-5.3,4.6c0,27.8,0,55.6,0,83.4
					c0,1.2,0,2.4,0,3.7C326.2,284.8,327.7,284.8,329.5,284.8z M160.8,245.4c-9.7,8.8-13.2,26.7-7.9,38.8c2.7,0,5.3,0,7.9,0
					C160.8,271.2,160.8,258.4,160.8,245.4z M238.9,284.1c-12.1,0-23.8,0-35.7,0c0,1.3,0,2.5,0,3.6c0.2,4,0.4,4.2,4.3,4.2
					c9.4,0,18.9,0,28.3,0c1,0,2,0,3.1,0C238.9,289.1,238.9,286.7,238.9,284.1z M320.9,284.9c0-20.8,0-41.2,0-61.7
					c0-2.2-1.1-2.3-2.9-1.9c0,21.2,0,42.4,0,63.6C319,284.9,319.8,284.9,320.9,284.9z M307.9,395.3c-3.2-4.9-6.2-9.6-9.3-14.3
					c-0.3-0.5-1-1.1-1.6-1.1c-2.9-0.1-5.9-0.1-9.1-0.1c2.1,6,5.2,10.6,9.3,14.6c0.5,0.5,1.3,0.7,1.9,0.8
					C302.1,395.3,305.1,395.3,307.9,395.3z M94,395c4.4,0,7.7,0,10.5,0c0.8-5.2,1.5-10.1,2.2-15.2c-2.4,0-5.1-0.1-7.7,0.1
					c-0.6,0-1.6,0.8-1.7,1.3C96.1,385.7,95.1,390.2,94,395z M167.1,236.2c-0.4-0.2-0.8-0.4-1.2-0.6c-0.7,1.1-1.9,2.1-1.9,3.2
					c-0.1,14.7-0.1,29.4-0.1,44.2c0,0.5,0.2,1,0.4,1.6c1-0.1,1.9-0.2,2.8-0.3C167.1,268.1,167.1,252.1,167.1,236.2z M295.5,364
					c1.5-4.6,3-9,4.6-13.6c-2.6,0-5.1-0.1-7.7,0c-0.6,0-1.5,0.5-1.7,1c-1.8,4-3.4,8.1-5.3,12.6C289.3,364,292.4,364,295.5,364z
					 M471.7,284.7c0.4,0.2,0.7,0.4,1.1,0.7c0.4-0.7,1.2-1.4,1.2-2.1c0.1-16.2,0.1-32.3,0-48.5c0-0.6-0.8-1.3-1.2-1.9
					c-0.3,0.7-1,1.4-1,2.2c-0.1,6.2,0,12.4,0,18.7C471.7,264,471.7,274.3,471.7,284.7z M107.2,363.2c0.2,0.3,0.4,0.6,0.6,0.9
					c1.8,0,3.5,0.1,5.3,0c1.3-0.1,3,0,3.7-0.8c4.2-4.1,8.1-8.4,12.7-13.2c-3.3,0.3-6.8-0.4-8.8,1
					C115.8,354.7,111.6,359.1,107.2,363.2z M464.5,198.6c-1.8,4.6,1.2,4.9,4.2,5.5c5.7,1.3,11.4,2.8,17.1,4.2
					c2.9,0.7,5.9,1.4,8.9,2.1c0.4-2.2,0-3.2-2-3.8C483.2,204,473.9,201.3,464.5,198.6z M109.6,270.6c-0.5-0.1-0.9-0.2-1.4-0.3
					c-0.5,2-1.4,3.9-1.5,5.9c-0.2,4.9-0.1,9.7-0.1,14.6c0,4.4,0,8.9,0,13.3c2.4,0.3,3-0.6,3-2.6c-0.1-3.2,0-6.4,0-9.6
					C109.6,284.8,109.6,277.7,109.6,270.6z M300.5,338.1c6,1.4,10.1,0.4,13.2-3.7c1-1.3,2.5-2.2,3.7-3.3c1.5-1.3,3-2.5,4.6-3.7
					c-2.6-0.4-5.5-1.1-7.2,0C309.9,330.4,305.6,334.2,300.5,338.1z M139.1,338.4c4.5,0.9,8.2-0.2,11.9-2.6c4.1-2.7,8.6-4.8,13-7.2
					c0.6-0.4,1.2-0.8,2.2-1.5C159.3,326.8,146.4,332.3,139.1,338.4z M320.8,182.8c-5.1,1-10,2-14.9,2.9c0,0.2,0,0.4,0,0.6
					c4.9,1.3,9.8,2.5,14.9,3.8C320.8,187.5,320.8,185.3,320.8,182.8z M350.1,311.9c-7.5-1.2-13,3.4-20.1,6.2
					C338.5,319.9,343.6,314,350.1,311.9z M249.6,276.1c0.2,0,0.4,0,0.6,0c0-12.5,0-25.1,0-37.6c-0.2,0-0.4,0-0.6,0
					C249.6,251.1,249.6,263.6,249.6,276.1z M204,311.8c-8.3-0.5-15.2,3.8-22.7,6.3C189.8,319,196.4,313.8,204,311.8z M375.7,144.4
					c-0.6-1.6-1.1-2.8-1.6-4c-0.1,0.7-0.2,1.6-0.4,2.5c-6.1,0.8-12,1.7-18,2.2c-1.7,0.1-2.4,0.3-2.4,2.1
					C360.8,146.2,368.2,145.3,375.7,144.4z M184.4,300.6c0.1,0.4,0.2,0.8,0.2,1.2c7.3-1.3,14.6-2.7,21.9-4c-0.1-0.3-0.1-0.7-0.2-1
					C199,297.8,191.6,298.8,184.4,300.6z M381.7,301.5c-0.1-0.5-0.3-1-0.4-1.4c-6.2,1.6-12.4,3.2-18.6,4.8c0.1,0.5,0.3,1,0.4,1.5
					C369.3,304.8,375.5,303.2,381.7,301.5z M287.3,288.2c0,0.3,0,0.5,0,0.8c14.2-0.8,28.5-1.5,42.7-2.3c0-0.2,0-0.3,0-0.5
					C315.8,286.8,301.5,287.5,287.3,288.2z M184.4,292.9c0.1,0.5,0.2,1,0.2,1.5c5.9-0.8,11.9-1.6,17.8-2.4c-0.1-0.4-0.1-0.9-0.2-1.3
					C196.3,291.5,190.4,292.2,184.4,292.9z M221.6,305c0.1,0.4,0.1,0.9,0.2,1.3c7-1.6,14-3.2,21-4.9c-0.1-0.4-0.2-0.8-0.3-1.2
					C235.5,301.8,228.5,303.4,221.6,305z M361,136.3c2.7-0.3,5.1-0.6,7.4-0.9c0-0.4,0.1-0.7,0.1-1.1c-2.7-0.6-5.4-1.1-8.6-1.8
					C360.4,134.3,360.7,135.2,361,136.3z M394.6,296.7c0.1,0.4,0.2,0.8,0.2,1.2c5-0.9,10-1.9,15-2.8c-0.1-0.3-0.1-0.6-0.2-0.9
					C404.7,294.9,399.7,295.8,394.6,296.7z M228.7,294.7c0-0.3-0.1-0.6-0.1-0.9c-4.6,0.5-9.2,1.1-13.8,1.6c0,0.4,0.1,0.7,0.1,1.1
					C219.5,295.9,224.1,295.3,228.7,294.7z M275.2,295c0-0.3-0.1-0.6-0.1-0.9c-5.4,0.9-10.8,1.8-16.1,2.7c0.1,0.3,0.1,0.6,0.2,0.9
					C264.4,296.8,269.8,295.9,275.2,295z M359.1,132.9c-1.7,0.6-3,0.9-4.1,1.4c-0.5,0.2-0.8,1-1.1,1.5c0.6,0.3,1.1,0.9,1.7,0.9
					c1.3,0,2.6-0.3,4.1-0.5C359.4,135.1,359.3,134.3,359.1,132.9z M157.8,317.4c0.4,0,0.7,0,1.1,0.1c0-2.7,0-5.4,0-8.1
					c-0.4,0-0.7,0-1.1,0C157.8,312,157.8,314.7,157.8,317.4z M242,293.9c0.2,0,0.3,0,0.5,0c0-3.3,0-6.6,0-9.9c-0.2,0-0.3,0-0.5,0
					C242,287.3,242,290.6,242,293.9z M451.8,209.1c0,0.2-0.1,0.3-0.1,0.5c2.4,0.4,4.8,1,7.3,1.3c0.7,0.1,1.5-0.5,2.2-0.8
					c-0.6-0.3-1.2-0.9-1.9-1C456.7,209.1,454.2,209.1,451.8,209.1z M424,291.5c0,0.3,0.1,0.5,0.1,0.8c4.7-0.6,9.4-1.1,14-1.7
					c0-0.3-0.1-0.5-0.1-0.8C433.4,290.4,428.7,290.9,424,291.5z M352.7,144.6c-1.3-0.9-2.1-1.9-2.8-1.8c-0.8,0.1-1.4,1.2-2.1,1.8
					c0.7,0.7,1.3,1.7,2.1,1.8C350.7,146.5,351.5,145.5,352.7,144.6z M380.9,141c-1.3-0.9-2-1.9-2.7-1.8c-0.7,0.1-1.3,1.2-2,1.8
					c0.6,0.6,1.2,1.8,1.9,1.8C378.8,142.8,379.6,141.9,380.9,141z M292,291.5c0,0.2,0,0.5,0.1,0.7c4.8-0.5,9.7-1.1,14.5-1.6
					c0-0.2,0-0.5-0.1-0.7C301.7,290.4,296.8,290.9,292,291.5z M257.2,291.9c0.2,0,0.4,0,0.6,0c0-3,0-6.1,0-9.1c-0.2,0-0.4,0-0.6,0
					C257.2,285.9,257.2,288.9,257.2,291.9z M213.4,238.7c-0.2,0-0.4,0-0.6,0c0,2.8,0,5.5,0,8.3c0.2,0,0.4,0,0.6,0
					C213.4,244.1,213.4,241.4,213.4,238.7z M263,290c0,0.3,0,0.6,0.1,0.9c3.8-0.3,7.6-0.6,11.4-1c0-0.2,0-0.5-0.1-0.7
					C270.6,289.5,266.8,289.8,263,290z M242.2,278.9c0.7,2.3,1.3,4.3,1.9,6.4c0-2.7,0-5.3,0-7.8
					C243.2,278.1,242.4,278.7,242.2,278.9z"/>
				<path class="st2" d="M143.8,288.9c6.6,0,13.2,0,19.9,0c-1.2,2.6-2.3,5.1-3.6,7.5c-0.3,0.6-1.2,1.4-1.8,1.4
					c-7.3,0.3-14.6,0.5-21.9,0.7c-0.3,0-0.5-0.3-1.1-0.6c0.8-1,1.6-2,2.4-3C139.7,292.9,141.7,290.9,143.8,288.9z M138.6,296.5
					c0,0.3-0.1,0.6-0.1,0.9c6.6,0,13.1,0,20.1,0c-1.6-3.5-3.2-4-5.6-3.1c-2.2,0.8-4.7,1.2-7,1.5C143.5,296.1,141,296.2,138.6,296.5z
					"/>
				<path class="st2" d="M410,269.6c-2.1-0.4-3.7,0.3-5.1,1.9c-0.9,1-2.5,1.7-3.8,1.7c-5.3,0.2-10.5,0.1-16.5,0.1
					c1.6-1.3,2.7-2.2,3.8-3.1c0.2,0,0.4,0,0.6,0c5.6-0.2,11.2-0.5,16.8-0.7C407.2,269.5,408.6,269.6,410,269.6z"/>
				<path class="st2" d="M405.8,269.5c-5.6,0.2-11.2,0.5-16.8,0.7c0.1-0.4,0.2-1.1,0.3-1.1c5.4-0.2,10.8-0.3,16.1-0.4
					C405.6,268.7,405.7,269.2,405.8,269.5z"/>
				<path class="st2" d="M127.4,306.5c4.9,0,9.9,0,15,0c-0.2,2.2-1,3.7-3.5,3.7c-3-0.1-6,0-9,0C127.3,310.1,126.4,309,127.4,306.5z"
					/>
				<path class="st2" d="M162,296.5c1.6-2.6,3.2-5.2,5.1-8.4c1.2,1.8,1.8,2.7,2.3,3.7c1.1,2,0.7,3.2-1.7,3.8
					c-1.8,0.4-3.4,1.1-5.2,1.7C162.4,297,162.2,296.7,162,296.5z"/>
				<path class="st2" d="M129.2,315c0.5-0.6,1-1.6,1.5-1.7c2.2-0.2,4.3-0.2,6.5,0c0.5,0,1,0.7,1.5,1.1c-0.5,0.4-1.1,1.2-1.7,1.2
					c-2.5,0.1-4.9,0.1-7.4,0.1C129.5,315.5,129.3,315.3,129.2,315z"/>
				<path class="st2" d="M175.2,292.7c-1.1,0.4-2.2,0.8-3.5,1.3c-0.4-1.1-0.8-2.1-1.2-3c-0.4-0.8-0.8-1.6-1.3-2.5
					C173.6,288.1,174.5,288.7,175.2,292.7z"/>
				<path class="st2" d="M151.1,305.6c-1.4,3.3-3.2,4-7.5,3.2C144.7,305.8,146.2,305.1,151.1,305.6z"/>
				<path class="st2" d="M416.1,273.3c0.8,1.2,1.5,2.3,2.2,3.5c-4.5,0-4.7-0.2-5.7-4.7c1,0.2,1.9,0.5,2.9,0.7
					C415.7,273,415.9,273.1,416.1,273.3z"/>
				<path class="st2" d="M204.5,267.5c0.6-3.5,1.2-6.8,1.6-10.2c0.2-1.8,1.2-2.2,2.7-2.2c8.5,0,17,0,25.5,0c1.9,0,2.7,0.8,2.4,2.6
					c-0.4,3.2-0.8,6.4-1.3,9.7C225.2,267.5,215,267.5,204.5,267.5z"/>
				<path class="st2" d="M233.5,272c0.1,0.8,0.1,1.4,0.1,2c0,2.3,0,4.5,0,7c-0.9,0.1-1.5,0.3-2.2,0.3c-8.1,0-16.2,0-24.2,0
					c-1.9,0-2.9-0.5-2.7-2.6c0.2-2.2,0-4.3,0-6.8C214.2,272,223.8,272,233.5,272z"/>
				<path class="st2" d="M240.6,255.5c-0.5,4.1,1.6,8.4-2.8,11.5C237.1,262.4,238.2,257,240.6,255.5z"/>
				<path class="st2" d="M386.5,286.2c-1.3-0.6-3.8-1.3-3.8-1.7c0.4-2.7,2.7-1.1,4.1-1.4c1-0.2,2.1-0.2,3.1,0
					c0.5,0.1,0.9,0.7,1.4,1.1c-0.5,0.5-0.9,1.2-1.5,1.4c-1,0.2-2,0.1-3.1,0.1C386.6,285.9,386.5,286,386.5,286.2z"/>
				<path class="st2" d="M405.9,274c1.7-1.3,2.8-2.2,3.9-3.1c1.1,1.4,2.1,2.7,3.2,4.1c-0.2,0.3-0.5,0.5-0.7,0.8
					C410.5,275.3,408.7,274.8,405.9,274z"/>
				<path class="st2" d="M394.3,278c2.3,0,4.7,0,7,0c0,0.2,0,0.5,0,0.7c-2.3,0-4.7,0-7,0C394.3,278.5,394.3,278.2,394.3,278z"/>
				<path class="st2" d="M227.6,285.2c2.4,0,4,0,6.1,0c-0.2,1.1-0.2,2.6-0.6,2.7c-1.5,0.3-3.1,0.4-4.5,0.1
					C228.1,287.9,228,286.4,227.6,285.2z"/>
				<path class="st2" d="M204,285.2c2.3,0,3.7,0,5.5,0c-0.2,1-0.1,2.5-0.6,2.7c-1.1,0.4-2.5,0.5-3.6,0.1
					C204.8,287.8,204.6,286.5,204,285.2z"/>
				<path class="st2" d="M220.6,290.5c-1.3-0.5-2.5-1-3.7-1.5c0.8-0.5,1.5-1.4,2.3-1.5C221.1,287.2,221.6,288.2,220.6,290.5z"/>
			</g>
		</g>
	</g>
	<circle class="st3" cx="208.5" cy="208.5" r="197.4"/>
</g>
</svg>
