<?xml version="1.0" encoding="utf-8"?>
<!-- Generator: Adobe Illustrator 24.0.0, SVG Export Plug-In . SVG Version: 6.00 Build 0)  -->
<svg version="1.1" id="Layer_1" xmlns="http://www.w3.org/2000/svg" xmlns:xlink="http://www.w3.org/1999/xlink" x="0px" y="0px"
	 viewBox="0 0 417.06 417.06" style="enable-background:new 0 0 417.06 417.06;" xml:space="preserve">
<style type="text/css">
	.st0{fill:#FFFFFF;stroke:#F08116;stroke-width:11.6343;stroke-miterlimit:10;}
	.st1{fill:#278492;}
	.st2{fill:#2E8795;}
	.st3{fill:#FFFFFF;}
	.st4{fill:none;stroke:#278492;stroke-width:4.6537;stroke-miterlimit:10;}
	.st5{fill:none;stroke:#F08116;stroke-width:11.6343;stroke-miterlimit:10;}
</style>
<g>
	<circle class="st3" cx="210.54" cy="206.62" r="197.38"/>
	<path class="st4" d="M131.32,196.86c0,0,51.5,1.54,62.79,6.33c11.29,4.79,43.46,17.79,47.22,28.06
		c3.76,10.27,16.42,29.09,25.32,31.82c8.9,2.74,19.85,31.82,27.72,33.88s22.93,6.84,26.01,20.19c0,0,27.37-9.24,46.19,6.5"/>
	<path class="st4" d="M130.81,277.96c0,0,29.77,0.51,34.39,15.91s10.78,15.4,12.32,26.69c1.54,11.29,2.57,69.29-6.16,81.1"/>
	<g>
		<path class="st1" d="M153.39,256.92c4.45,0.48,8.79,1.64,13.03,3.12c4.23,1.5,8.35,3.4,12.29,5.67c3.93,2.3,7.65,5.05,11.06,8.21
			c0.84,0.81,1.69,1.61,2.49,2.46l2.32,2.65c0.41,0.45,0.74,0.88,1.07,1.29l1,1.26c0.66,0.85,1.34,1.67,2.03,2.49
			c1.34,1.67,2.7,3.3,4.1,4.88c1.36,1.61,2.79,3.14,4.23,4.62c2.88,2.99,5.93,5.6,9.37,7.96c1.72,1.19,3.51,2.33,5.36,3.49
			l2.78,1.76c0.95,0.63,1.9,1.25,2.82,1.93c1.83,1.36,3.6,2.83,5.15,4.53c1.52,1.68,3.01,3.57,3.55,5.78
			c-0.65-0.9-1.47-1.61-2.32-2.26c-0.84-0.66-1.73-1.25-2.66-1.77c-1.85-1.06-3.76-1.99-5.71-2.81c-0.97-0.42-1.96-0.81-2.95-1.19
			l-3.08-1.2c-2.06-0.81-4.13-1.71-6.19-2.75c-1.03-0.51-2.04-1.08-3.05-1.65c-0.99-0.61-1.99-1.23-2.94-1.9
			c-1.94-1.31-3.74-2.81-5.46-4.34c-0.87-0.76-1.7-1.56-2.49-2.37c-0.82-0.8-1.6-1.62-2.37-2.45c-1.53-1.67-3-3.37-4.42-5.1
			c-0.71-0.87-1.4-1.74-2.08-2.63l-1.02-1.32c-0.34-0.45-0.69-0.88-0.99-1.26l-1.89-2.37c-0.67-0.77-1.39-1.49-2.06-2.27
			c-2.81-2.98-5.9-5.77-9.21-8.39c-3.32-2.6-6.82-5.04-10.45-7.37c-1.81-1.18-3.67-2.28-5.54-3.43
			C157.25,259.08,155.35,257.99,153.39,256.92z"/>
	</g>
	<g>
		<path class="st1" d="M161.6,227.15c4.79-0.99,9.62-0.58,14.29,0.4c4.67,1.03,9.22,2.79,13.39,5.3c4.17,2.49,7.98,5.74,10.93,9.68
			c2.95,3.91,5.07,8.52,5.52,13.37c-3.55-3.34-6.7-6.31-10.13-8.91c-1.7-1.31-3.39-2.57-5.16-3.74c-1.75-1.18-3.52-2.34-5.36-3.41
			c-3.64-2.19-7.43-4.24-11.34-6.27C169.84,231.5,165.83,229.51,161.6,227.15z"/>
	</g>
	<g>
		<path class="st1" d="M286.84,338.01c1.65-0.57,3.35-0.69,5.01-0.63c1.67,0.05,3.31,0.37,4.92,0.83c3.2,0.97,6.22,2.72,8.7,5.13
			c1.28,1.16,2.31,2.59,3.27,4.03c0.42,0.76,0.82,1.54,1.18,2.33c0.17,0.4,0.39,0.77,0.51,1.19l0.36,1.25
			c1,3.29,0.86,6.84-0.33,10.01c-0.58-0.68-1.09-1.34-1.53-1.99c-0.46-0.64-0.82-1.29-1.33-1.87c-0.46-0.59-0.89-1.17-1.27-1.75
			c-0.39-0.58-0.9-1.08-1.3-1.61c-0.77-1.09-1.74-2.01-2.52-3.01c-0.47-0.45-0.91-0.91-1.34-1.38c-0.2-0.25-0.42-0.48-0.67-0.68
			l-0.69-0.67c-1.84-1.78-3.79-3.52-5.95-5.3C291.7,342.08,289.42,340.28,286.84,338.01z"/>
	</g>
	<path class="st4" d="M41.5,306.19c0,0,40.04-3.59,53.89-2.05s49.79,1.03,56.46,0s16.42-2.05,16.42-2.05"/>
	<g>
		<path class="st1" d="M143.13,371.89c-3.61-1.02-6.73-1.85-9.72-2.3c-2.97-0.46-5.69-0.52-8.34-0.14
			c-2.65,0.36-5.31,1.14-8.12,2.33c-2.85,1.15-5.75,2.71-9.23,4.22c0.85-3.7,2.88-6.9,5.66-9.54c2.77-2.62,6.53-4.56,10.61-5.09
			c4.07-0.58,8.28,0.32,11.65,2.23c1.69,0.96,3.21,2.15,4.49,3.53C141.39,368.52,142.49,370.08,143.13,371.89z"/>
	</g>
	<g>
		<path class="st1" d="M207.29,392.42c-1.48,2.04-2.64,3.47-3.76,4.79c-1.11,1.31-2.11,2.41-3.13,3.47c-1.02,1.06-2.1,2.05-3.32,3.2
			c-0.67,0.54-1.26,1.18-2.05,1.82c-0.79,0.64-1.51,1.37-2.63,2.12c-0.33-0.55-0.55-1.1-0.75-1.66c-0.2-0.57-0.38-1.14-0.42-1.71
			c-0.12-1.14-0.14-2.31,0.12-3.42c0.4-2.28,1.61-4.37,3.22-6.03c1.61-1.66,3.66-2.87,5.88-3.38
			C202.65,391.12,205.06,391.16,207.29,392.42z"/>
	</g>
	<g>
		<path class="st1" d="M249.89,400.12c0.26-2.62,1.22-4.66,2.4-6.49c1.19-1.82,2.7-3.33,4.44-4.6c1.73-1.26,3.75-2.24,6.02-2.72
			c1.12-0.25,2.35-0.34,3.56-0.26c0.64,0.08,1.25,0.18,1.85,0.36c0.63,0.23,1.22,0.5,1.74,0.87c-0.47,0.53-0.87,0.95-1.24,1.33
			c-0.36,0.47-0.71,0.85-1.04,1.22c-0.66,0.8-1.3,1.47-1.95,2.18c-1.3,1.36-2.69,2.54-4.21,3.64c-1.53,1.09-3.18,2.05-5.05,2.84
			C254.53,399.28,252.5,399.92,249.89,400.12z"/>
	</g>
	<path class="st1" d="M368.06,95.79h-64.8c0,0-5.47-9.31-9.66-10.35V75.43c0,0,13.38-11.98,5-20.01c-8.26-7.91-77.6-11.4-77.6-11.4
		s-10.01-4.65-12.22-0.47c-2.09,4.07-3.37,19.43-1.51,21.76c1.98,2.33,7.45,2.09,12.45-0.23c5-2.33,32.23-3.26,45.26-0.23
		c13.15,2.91,11.98,5.24,11.52,8.26c-0.35,1.74-0.47,5.93-0.47,9.19c-0.12,2.56-0.12,4.54-0.12,4.54s-7.33,5.7-8.38,9.07h-34.79
		c0,0-40.02,0.23-40.02,46.77c0,0-6.17,53.98-10.47,57.94c5.24,0.7,9.42,1.51,11.87,2.56c6.63,2.79,20.48,8.49,31.53,14.78
		c3.61-18.61,2.68-38.74,0.23-41.07c-2.33-2.44-1.28-11.63-1.28-11.63c0-38.39,20.83-37.69,20.83-37.69h7.21
		c5,10.7,15.94,18.03,28.5,18.03s23.5-7.33,28.62-18.03h76.55C381.21,116.39,375.16,105.8,368.06,95.79z M210.89,189.22
		c0,3.96-3.26,7.1-7.21,7.1c-3.96,0-7.21-3.14-7.21-7.1v-22.69c0-3.96,3.26-7.1,7.21-7.1c3.96,0,7.21,3.14,7.21,7.1V189.22z"/>
	<path class="st1" d="M131.31,196.9v76.9c0,0,0,14.43-11.29,14.43c-11.28,0-15.94-9.77-15.94-9.77H21.71
		c-8.14-21.52-12.57-44.91-12.57-69.34c0-5.7,0.23-11.29,0.81-16.87h94.12c0,0,4.65-9.77,15.94-9.77
		C131.31,182.47,131.31,196.9,131.31,196.9z"/>
	<circle class="st5" cx="210.54" cy="206.62" r="197.38"/>
</g>
</svg>
