<?xml version="1.0" encoding="utf-8"?>
<!-- Generator: Adobe Illustrator 24.0.0, SVG Export Plug-In . SVG Version: 6.00 Build 0)  -->
<svg version="1.1" id="Layer_1" xmlns="http://www.w3.org/2000/svg" xmlns:xlink="http://www.w3.org/1999/xlink" x="0px" y="0px"
	 viewBox="0 0 417.06 417.06" style="enable-background:new 0 0 417.06 417.06;" xml:space="preserve">
<style type="text/css">
	.st0{fill:#FFFFFF;}
	.st1{fill:#FFFFFF;stroke:#F08116;stroke-width:11.6343;stroke-miterlimit:10;}
	.st2{fill:#278492;}
	.st3{fill:#2E8795;}
	.st4{fill:none;stroke:#278492;stroke-width:4.6537;stroke-miterlimit:10;}
	.st5{fill:none;stroke:#F08116;stroke-width:11.6343;stroke-miterlimit:10;}
	.st6{fill:#1D7F8D;}
	.st7{fill:none;stroke:#2E8795;stroke-width:3.4903;stroke-linecap:round;stroke-miterlimit:10;}
	.st8{fill-rule:evenodd;clip-rule:evenodd;fill:#2E8795;}
	.st9{clip-path:url(#SVGID_1_);}
</style>
<circle class="st0" cx="208.53" cy="208.53" r="197.38"/>
<g>
	<g>
		<g>
			<path class="st3" d="M269.69,167.64c-17.87,20.84-41.69,36.68-68.9,45.8c-1.21,0.41-2.43,0.8-3.65,1.17
				c-15.52,4.8-31.42,7.23-47.15,7.23c-10.74,0-21.39-1.13-31.79-3.4c-26.82-5.84-52.06-19.31-73-38.93
				c-8.98-8.42-16.88-17.7-23.56-27.63c0.7-2.16,1.45-4.31,2.24-6.44c0.16-0.46,0.34-0.91,0.51-1.36
				c6.95,11.11,15.45,21.42,25.3,30.65c20.07,18.81,44.24,31.71,69.92,37.31c18.98,4.14,38.89,4.3,58.53,0.57
				c6.91-1.31,13.78-3.11,20.57-5.39c26.09-8.75,48.92-23.91,66.01-43.85c1.18-1.37,3.25-1.53,4.62-0.35
				C270.71,164.2,270.87,166.26,269.69,167.64z"/>
			<path class="st3" d="M269.23,219.82c-16.07,20.38-40.83,36.08-71.64,45.4c-18.52,5.6-37.94,8.46-56.69,8.46
				c-10.11,0-20.02-0.83-29.49-2.51c-44.98-7.96-78.7-35.2-98.44-79.26c0.47-4.29,1.07-8.56,1.83-12.77
				c18.08,47.92,51.74,77.44,97.75,85.58c26.06,4.61,55.6,2.56,83.14-5.78c29.1-8.79,53.37-24.13,68.38-43.18
				c1.12-1.43,3.18-1.67,4.61-0.55C270.1,216.34,270.34,218.39,269.23,219.82L269.23,219.82z"/>
			<g>
				<g>
					<path class="st3" d="M374.81,255.04V153.12h-19.11l-16.59,15.15l-16.6-15.15h-19.11v101.91l-12.67,137.12
						c5.56-2.55,10.97-5.36,16.23-8.41l1.36-14.75l10,7.64c4.43-2.98,8.75-6.15,12.91-9.48l-16.62-12.7l24.49-18.71l0.01,0.01
						l14.19,10.84c3.48-3.78,6.81-7.69,9.98-11.73l-11.51-8.79L365,315.97l1.38,14.85c4.93-6.61,9.44-13.54,13.52-20.75
						L374.81,255.04z M359.43,170.56v16.26l-8.9-8.13L359.43,170.56z M339.12,189.11l16.59,15.15l-16.59,15.15h-0.01l-16.6-15.15
						L339.12,189.11L339.12,189.11z M359.43,221.69v16.26l-8.9-8.13L359.43,221.69z M347.28,247.69h-8.16h-8.17l8.17-7.45
						L347.28,247.69z M318.8,170.56l8.9,8.13l-8.9,8.13V170.56z M318.8,221.69l8.9,8.13l-8.9,8.13V221.69z M317.49,269.93l8.96,6.84
						l-10.32,7.88L317.49,269.93z M311.23,337.68l2.01-21.71l13.2,10.09L311.23,337.68z M339.12,316.38L339.12,316.38l-19.6-14.96
						l19.6-14.97l19.58,14.97L339.12,316.38z M351.78,276.78l8.96-6.84l1.36,14.73L351.78,276.78z"/>
					<path class="st3" d="M374.81,255.04V153.12h-19.11l-16.59,15.15v20.84l16.59,15.15l-16.59,15.15v20.84l8.16,7.45h-8.16v38.77
						l19.58,14.97l-19.58,14.96v19.37l14.19,10.84c3.48-3.78,6.81-7.69,9.98-11.73l-11.51-8.79L365,315.97l1.38,14.85
						c4.93-6.61,9.44-13.54,13.52-20.75L374.81,255.04z M350.53,178.69l8.9-8.13v16.26L350.53,178.69z M359.43,221.69v16.26
						l-8.9-8.13L359.43,221.69z M351.78,276.78l8.96-6.84l1.36,14.73L351.78,276.78z"/>
				</g>
			</g>
			<path class="st3" d="M271.2,268.79c-16.09,21.7-39.06,39.74-64.69,50.8c-19.16,8.27-38.98,12.48-58.32,12.48
				c-7.51,0-14.93-0.63-22.23-1.91C98.83,325.41,73,314.05,51.23,297.3c-13-10.01-24.18-21.67-33.16-34.55
				c-1.61-6.23-2.93-12.58-3.93-19.04c9.62,18.42,23.63,34.96,41.09,48.39c20.93,16.11,45.78,27.03,71.86,31.61
				c24.83,4.34,51.38,0.84,76.82-10.14c24.58-10.61,46.61-27.9,62.02-48.68c1.08-1.46,3.13-1.76,4.59-0.68
				C271.97,265.28,272.27,267.34,271.2,268.79L271.2,268.79z"/>
			<path class="st3" d="M392.39,283.5c-1.61,4.23-3.36,8.38-5.26,12.47c-24.29,17.62-50.9,26.62-78.81,26.62
				c-8.44,0-17.01-0.82-25.66-2.48c-25.55-4.9-48.03-17.12-66.83-36.33c-14.57-14.88-26.65-33.59-35.92-55.6
				c-0.7-1.67,0.08-3.59,1.75-4.29c1.66-0.7,3.59,0.08,4.29,1.75c8.95,21.25,20.57,39.27,34.56,53.56
				c17.84,18.23,39.17,29.83,63.38,34.47C330.52,322.6,366.9,304.86,392.39,283.5z"/>
			<g>
				<path class="st3" d="M402.26,247.77c-0.91,5.17-2.02,10.28-3.34,15.3H277.73c-1.37,0-2.48,1.11-2.48,2.48v5.16
					c0,4.25-3.43,7.69-7.69,7.69c-2.12,0-4.05-0.86-5.43-2.25c-1.39-1.39-2.25-3.31-2.25-5.43v-5.16c0-9.87,8-17.87,17.87-17.87
					H400.5C401.09,247.69,401.67,247.72,402.26,247.77L402.26,247.77z"/>
			</g>
			<path class="st3" d="M402.26,247.77c-0.91,5.17-2.02,10.28-3.34,15.3h-59.8v-15.38h61.38
				C401.09,247.69,401.67,247.72,402.26,247.77z"/>
			<path class="st3" d="M405.09,221.28c-0.14,3.49-0.37,6.96-0.68,10.4c-24.86,25.13-60.46,39.51-95.83,39.51
				c-9.21,0-18.41-0.98-27.39-2.99c-31.64-7.09-60.1-26.92-78.98-53.37c-8.81-12.32-15.52-26.08-19.51-40.66
				c-0.48-1.75,0.56-3.55,2.3-4.03c1.75-0.48,3.55,0.56,4.02,2.3c4.2,15.38,11.61,29.82,21.38,42.48
				c17.88,23.2,43.7,40.49,72.21,46.88C326.55,271.65,375.7,255.37,405.09,221.28L405.09,221.28z"/>
			<g>
				<path class="st3" d="M405.24,211.94H277.73c-1.37,0-2.48,1.11-2.48,2.48v5.16c0,4.25-3.43,7.69-7.69,7.69
					c-2.12,0-4.05-0.86-5.43-2.25c-1.39-1.39-2.25-3.31-2.25-5.43v-5.16c0-2.34,0.45-4.57,1.26-6.61c2.62-6.6,9.06-11.25,16.6-11.25
					h126.81C404.97,201.64,405.21,206.76,405.24,211.94L405.24,211.94z"/>
				<path class="st3" d="M405.24,211.94h-66.12v-15.38h65.42C404.97,201.64,405.21,206.76,405.24,211.94z"/>
			</g>
			<path class="st3" d="M403.37,186.16c-17.99,17.06-49.3,25.7-75.87,26.52c-1.6,0.04-3.2,0.07-4.79,0.07
				c-17.47,0-34.61-2.93-50.29-8.43c-14.07-4.93-26.97-11.94-37.91-20.77c-29.34-23.69-47.29-49.75-53.34-77.48
				c-0.38-1.77,0.74-3.52,2.5-3.91c1.77-0.38,3.52,0.74,3.9,2.51c5.73,26.23,22.91,51.06,51.06,73.78
				c12.34,9.96,27.33,17.48,43.72,22.16c14.21,4.06,29.47,5.98,44.95,5.51c16.22-0.5,33.69-4.16,47.92-10.04
				c8.74-3.61,19.37-9.38,26.87-18C402.57,180.76,402.99,183.45,403.37,186.16L403.37,186.16z"/>
			<path class="st3" d="M398.13,160.81H277.73c-1.37,0-2.48,1.11-2.48,2.48v5.16c0,4.25-3.43,7.69-7.69,7.69
				c-2.12,0-4.05-0.86-5.43-2.25c-1.39-1.39-2.25-3.32-2.25-5.44v-5.16c0-9.86,8-17.86,17.87-17.86h115.45
				C395.04,150.46,396.69,155.59,398.13,160.81L398.13,160.81z"/>
			<path class="st3" d="M398.13,160.81h-59.01v-15.38h54.06C395.04,150.46,396.69,155.59,398.13,160.81L398.13,160.81z"/>
			<g>
				<path class="st3" d="M139.58,217.1V92.2h-23.41l-20.34,18.56L75.49,92.2h-17.5c-3.26,0-5.91,2.64-5.91,5.91V217.1l-9.43,102.07
					c13.93,21.8,32.03,40.67,53.19,55.48c18.28,12.8,38.84,22.57,60.95,28.58L139.58,217.1z M130,318.4l-18.65-14.25l16.19-12.37
					L130,318.4z M95.83,255.6l24.01,18.34l-24.01,18.34h-0.01l-24.01-18.34L95.83,255.6z M85.82,208.1l10.02-9.14l10.01,9.14H95.83
					H85.82z M124,253.4l-12.65-9.66l10.98-8.38L124,253.4z M109.82,186.19l10.91-9.96v19.93L109.82,186.19z M120.73,113.57v19.93
					l-10.91-9.97L120.73,113.57z M95.83,136.3l20.34,18.56l-20.34,18.56h-0.01l-20.34-18.56L95.83,136.3L95.83,136.3z M70.93,113.57
					l10.91,9.96l-10.91,9.97V113.57z M70.93,176.23l10.91,9.96l-10.91,9.97V176.23z M69.33,235.35l10.98,8.38l-12.65,9.66
					L69.33,235.35z M64.11,291.78l16.19,12.37l-18.65,14.25L64.11,291.78z M95.82,361.87l-30.02-22.93l30.02-22.93h0.01l30.01,22.93
					L95.82,361.87L95.82,361.87z M111.36,373.73l22.2-16.96l3.37,36.49L111.36,373.73z"/>
				<path class="st3" d="M139.58,217.1V92.2h-23.41l-20.34,18.56v25.53l20.34,18.56l-20.34,18.56v25.53l10.01,9.14H95.83v47.5
					l24.01,18.34l-24.01,18.34v23.73l30.01,22.93l-30.01,22.93v12.79c18.28,12.8,38.84,22.57,60.95,28.58L139.58,217.1z
					 M109.82,123.53l10.91-9.96v19.93L109.82,123.53z M120.73,176.23v19.93l-10.91-9.97L120.73,176.23z M111.36,243.74l10.98-8.38
					L124,253.4L111.36,243.74z M111.36,304.14l16.19-12.37L130,318.4L111.36,304.14z M111.36,373.73l22.2-16.96l3.37,36.49
					L111.36,373.73z"/>
				<g>
					<path class="st3" d="M192.95,229.98v6.32c0,5.2-4.22,9.43-9.43,9.43c-5.2,0-9.43-4.22-9.43-9.43v-6.32
						c0-1.67-1.36-3.03-3.04-3.03H12.28c-0.3-4.48-0.46-8.99-0.46-13.55c0-1.16,0.01-2.32,0.02-3.48c0.01-0.61,0.02-1.22,0.04-1.83
						h159.17c5.57,0,10.66,2.08,14.52,5.52C190.1,217.61,192.95,223.47,192.95,229.98L192.95,229.98z"/>
				</g>
				<path class="st3" d="M192.95,167.33v6.32c0,5.2-4.22,9.43-9.43,9.43c-5.2,0-9.43-4.22-9.43-9.43v-6.32
					c0-1.68-1.36-3.04-3.04-3.04H18.01c1.64-6.42,3.61-12.7,5.87-18.85h147.18C183.15,145.44,192.95,155.24,192.95,167.33z"/>
				<path class="st3" d="M192.95,104.67v6.32c0,5.2-4.22,9.43-9.43,9.43c-5.2,0-9.43-4.22-9.43-9.43v-6.32
					c0-1.68-1.36-3.04-3.04-3.04H46.64c4.55-6.58,9.5-12.88,14.81-18.85h109.61C183.15,82.77,192.95,92.58,192.95,104.67
					L192.95,104.67z"/>
				<g>
					<path class="st3" d="M192.95,104.67v6.32c0,5.2-4.22,9.43-9.43,9.43c-5.21,0-9.43-4.22-9.43-9.43v-6.32
						c0-1.68-1.36-3.04-3.05-3.04H95.83V82.77h75.23C183.15,82.77,192.95,92.58,192.95,104.67z"/>
					<path class="st3" d="M192.95,167.33v6.32c0,5.2-4.22,9.43-9.43,9.43c-5.21,0-9.43-4.22-9.43-9.43v-6.32
						c0-1.68-1.36-3.04-3.04-3.04H95.83v-18.85h75.23C183.15,145.43,192.95,155.24,192.95,167.33L192.95,167.33z"/>
					<path class="st3" d="M192.95,229.99v6.32c0,5.2-4.22,9.43-9.43,9.43c-5.21,0-9.43-4.22-9.43-9.43v-6.32
						c0-1.68-1.36-3.04-3.05-3.04H95.83v-18.85h75.23C183.15,208.09,192.95,217.9,192.95,229.99z"/>
				</g>
			</g>
		</g>
	</g>
</g>
<circle class="st5" cx="208.53" cy="208.53" r="197.38"/>
</svg>
