<?xml version="1.0" encoding="utf-8"?>
<!-- Generator: Adobe Illustrator 24.0.0, SVG Export Plug-In . SVG Version: 6.00 Build 0)  -->
<svg version="1.1" id="Layer_1" xmlns="http://www.w3.org/2000/svg" xmlns:xlink="http://www.w3.org/1999/xlink" x="0px" y="0px"
	 viewBox="0 0 417.06 417.06" style="enable-background:new 0 0 417.06 417.06;" xml:space="preserve">
<style type="text/css">
	.st0{fill:#FFFFFF;stroke:#F08116;stroke-width:11.6343;stroke-miterlimit:10;}
	.st1{fill:#278492;}
	.st2{fill:#2E8795;}
	.st3{fill:#FFFFFF;}
	.st4{fill:none;stroke:#278492;stroke-width:4.6537;stroke-miterlimit:10;}
	.st5{fill:none;stroke:#F08116;stroke-width:11.6343;stroke-miterlimit:10;}
	.st6{fill:#1D7F8D;}
	.st7{fill:none;stroke:#2E8795;stroke-width:3.4903;stroke-linecap:round;stroke-miterlimit:10;}
	.st8{fill-rule:evenodd;clip-rule:evenodd;fill:#2E8795;}
	.st9{clip-path:url(#SVGID_1_);}
	.st10{clip-path:url(#SVGID_2_);}
	.st11{clip-path:url(#SVGID_3_);fill:#2E8795;}
</style>
<g>
	<g>
		<circle class="st0" cx="208.53" cy="208.53" r="197.38"/>
		<g>
			<defs>
				<circle id="SVGID_11_" cx="208.53" cy="208.53" r="197.38"/>
			</defs>
			<clipPath id="SVGID_1_">
				<use xlink:href="#SVGID_11_"  style="overflow:visible;"/>
			</clipPath>
			<path style="clip-path:url(#SVGID_1_);fill:#2E8795;" d="M364.77,283.69c-12.75-0.06-25.49-0.04-38.24-0.04h-8.05
				c2.35-3.02,4.56-5.47,6.3-8.21c1.63-2.54,3.67-3.16,6.56-3.13c11.28,0.15,22.57,0.09,33.86,0.02c1.18-0.01,3.14,1.04,3.22-1.58
				c0.08-2.68-1.92-1.67-3.08-1.67c-16.45-0.06-32.89-0.08-49.33,0.01c-2.02,0.01-2.63-0.5-2.64-2.57
				c-0.02-2.17,0.97-2.28,2.64-2.28c15.95,0.04,31.92,0.08,47.88-0.07c1.46-0.01,4.47,1.81,4.42-1.66c-0.05-3.06-2.84-1-4.28-1.58
				c-0.34-0.13-0.78-0.07-1.16-0.01c-2.05,0.31-2.63-0.55-2.61-2.59c0.06-5.54-0.03-5.54-5.71-5.54c-4.08,0-3.91,0-3.87-3.94
				c0.1-9.16,0.08-18.32,0.01-27.48c-0.03-3.57-1.65-6.33-4.87-8.08c-0.56-0.3-1.24-0.4-1.53-1.21c-1.2-3.34,1.66-7.9,5.22-7.81
				c2.71,0.07,2.67-2.19,2.93-3.51c0.26-1.29-1.59-1.26-2.68-1.33c-5.7-0.39-10.05,4.11-10.49,10.86c-0.08,1.27,0.02,2.32-1.52,3.05
				c-3.5,1.67-4.98,4.71-4.97,8.56c0.02,8.77,0.01,17.54,0.01,26.31c0,0.68,0.07,1.36,0.11,2.04c0.05,0.8,1.04,1.89-0.01,2.32
				c-1,0.42-2.4,0.44-3.42,0.06c-1.04-0.39-0.04-1.49-0.03-2.28c0.02-0.68,0.2-1.35,0.2-2.02c0.01-8.87,0.04-17.74,0-26.61
				c-0.02-3.68-1.52-6.57-4.84-8.39c-0.64-0.35-1.38-0.5-1.62-1.48c-0.89-3.68,1.71-7.42,5.52-7.58c2.35-0.1,2.39-2.15,2.71-3.46
				c0.32-1.32-1.4-1.24-2.37-1.35c-5.78-0.63-10.5,4.03-10.78,10.78c-0.07,1.64-0.47,2.56-2.02,3.34c-2.69,1.36-4.35,3.83-4.4,6.81
				c-0.16,9.74-0.35,19.5,0.11,29.23c0.15,2.99-0.39,3.3-2.91,3.22c-4.33-0.12-3.7-0.51-3.74,3.66c-0.04,4.63-0.01,4.56-4.48,4.45
				c-1.51-0.04-2.03-0.46-1.99-1.99c0.09-3.99-0.2-8.01,0.09-11.98c0.32-4.22-2.19-7.75-2.41-11.84c-0.09-1.84-1.76-3.31-3.53-4.01
				c-1.74-0.69-2.15-1.8-2.33-3.53c-0.78-7.55-1.61-15.1-2.7-22.6c-0.33-2.27,0.32-3.28,2.23-4.27
				c22.25-11.55,44.41-23.27,66.71-34.72c4.36-2.23,7.71-5.48,11.22-8.66c0.68-0.62,1.36-1.32,0.57-2.22
				c-1.03-1.16-1.13-3.78-3.06-3.39c-3.39,0.69-6.96,0.92-10.1,2.51c-6.33,3.19-12.59,6.54-18.87,9.83
				c-16.02,8.38-32.04,16.73-48.03,25.15c-1.7,0.89-2.54,1.09-2.64-1.3c-0.11-2.61-0.56-5.22-0.85-7.83
				c-0.07-0.63-0.5-1.61,0.49-1.66c2.35-0.11,1.57-1.69,1.57-2.93c0-1.05-0.3-2.47,1.42-2.15c3.88,0.74,4.08-1.52,3.8-4.33
				c-0.06-0.58-0.1-1.19,0.01-1.75c0.56-2.99-0.69-4.1-3.6-3.58c-2.37,0.42-3.18-0.66-3.36-2.99c-0.49-6.01-1.19-12.01-1.93-18
				c-0.19-1.52,0.29-3.74-2.58-3.55c-0.92,0.06-0.69-0.99-0.77-1.63c-0.49-3.96-0.96-7.92-1.44-11.88
				c-1.44-12.08-2.86-24.15-4.33-36.23c-0.18-1.5,0.21-2.18,1.83-2.08c1.65,0.1,3.31-0.02,4.96,0.02c1.25,0.03,1.4-0.7,1.4-1.69
				c-0.01-0.93-0.27-1.49-1.31-1.44c-0.68,0.03-1.36,0-2.05-0.01c-5.56-0.01-5.67,0-5.98-5.42c-0.12-2.09-0.68-3.12-2.88-2.73
				c-2,0.36-2.47-0.61-2.39-2.46c0.12-3.21-0.05-6.43,0.06-9.64c0.06-1.84-0.42-2.63-2.43-2.56c-3.79,0.15-7.59,0.15-11.38,0
				c-2.02-0.08-2.51,0.77-2.46,2.58c0.09,3.11-0.12,6.24,0.07,9.35c0.13,2.18-0.51,3.01-2.74,2.77c-1.16-0.12-2.8-0.7-2.88,1.65
				c-0.07,2.02,0.11,4.6-1.02,5.88c-1.32,1.51-4.03,0.39-6.12,0.56c-0.94,0.08-1.71,0.09-1.73,1.37c-0.01,1.19,0.34,1.84,1.64,1.78
				c1.36-0.05,2.73,0.05,4.09-0.02c1.47-0.08,2.04,0.27,1.82,1.98c-1.94,16.04-3.8,32.08-5.63,48.13c-0.15,1.32-0.6,2-1.98,1.82
				c-1.51-0.19-1.98,0.5-2.09,1.98c-0.53,6.7-1.24,13.38-1.74,20.07c-0.15,1.89-0.83,2.43-2.69,2.42c-4.86-0.03-4.86,0.06-4.86,4.87
				v0.58c0,4.02,0,4.12,3.95,4.07c1.93-0.02,2.67,0.49,2.22,2.49c-0.19,0.81-0.93,2.25,0.51,2.42c2.12,0.25,1.59,1.56,1.46,2.71
				c-0.55,5.03-1.16,10.05-1.74,15.08c-1.25,10.63-2.46,21.27-3.76,31.89c-0.12,0.98,0.18,2.36-1.01,2.89
				c-6.08,2.69-4.95,8.91-6.15,13.64c-1.14,4.49-0.23,9.49-0.26,14.26c0,1.01,0.35,2.26-1.4,2.25c-8.53-0.02-17.05-0.01-26.07-0.01
				c0.97-1.4,1.79-2.35,2.33-3.43c1.25-2.49,3.11-3.28,5.88-3.09c3.77,0.27,7.59,0.13,11.38,0.04c1.13-0.03,3,0.85,2.9-1.59
				c-0.09-2.36-1.92-1.46-3.05-1.47c-6.13-0.08-12.27-0.2-18.39,0.03c-2.9,0.11-2.8-1.37-2.75-3.37c0.04-1.92-0.27-3.53,2.71-3.42
				c6.41,0.24,12.84,0.09,19.27,0.06c2.07-0.01,3.19-1.66,1.85-2.73c-1.42-1.14-1.07-2.36-1.08-3.6
				c-0.04-9.45-0.06-18.91,0.01-28.36c0.02-1.87-0.46-2.55-2.44-2.5c-5.45,0.13-10.9,0.07-16.35,0.04c-4.44-0.02-3.9,0.58-3.94-3.81
				c-0.03-4.3-0.01-4.3,4.29-4.3h2.63c6.46,0,6.45,0,5.97-6.46c-0.07-0.95-0.07-1.81-1.36-1.66c-1.75,0.2-1.84-0.88-1.8-2.18
				c0.05-1.66,0.08-3.32-0.01-4.97c-0.13-2.41,1.05-5.47-0.51-7.04c-1.43-1.43-4.46-0.47-6.76-0.38c-2.19,0.09-2.5-0.62-2.21-2.68
				c1.77-12.72,3.39-25.46,5.04-38.19c2.06-15.83,4.28-31.62,6.09-47.47c1.52-13.38,4.97-26.62,3.21-40.27
				c-0.12-0.88,0.43-2.28-1.05-2.29c-1.56-0.02-3.71-1.18-4.61,0.42c-1.74,3.07-3.6,6.36-4.16,9.77
				c-1.84,11.13-3.15,22.34-4.6,33.54c-3.5,26.91-6.98,53.83-10.47,80.74c-0.26,2.02,0.08,4.61-1.04,5.91
				c-1.19,1.37-3.87,0.5-5.87,0.43c-1.95-0.08-2.24,0.78-2.19,2.42c0.09,3.31-0.01,6.63,0.04,9.94c0.02,1.43-0.08,2.56-1.96,2.31
				c-1.25-0.16-1.41,0.64-1.39,1.63c0.04,1.56,0.08,3.12-0.01,4.67c-0.08,1.42,0.49,1.85,1.86,1.83c3.7-0.06,7.39-0.02,11.09-0.02
				c4.98,0,4.8,0.01,5.04,4.85c0.14,2.85-0.94,3.35-3.49,3.32c-9.34-0.13-18.69,0.02-28.03-0.11c-2.24-0.03-2.77,0.67-2.74,2.81
				c0.11,9.45,0.06,18.91,0.04,28.36c-0.01,0.94,0.46,2.25-0.46,2.73c-1.39,0.73-1.16,1.78-0.82,2.7c0.38,1.01,1.53,0.6,2.34,0.6
				c10.02,0.02,20.05,0.13,30.07-0.06c2.87-0.05,3.03,1.16,3.09,3.44c0.08,2.51-0.55,3.36-3.22,3.32
				c-9.93-0.17-19.85-0.08-29.78-0.05c-1.12,0-2.69-0.58-2.71,1.57c-0.02,2.24,1.63,1.51,2.7,1.52c8.08,0.05,16.15,0.02,24.23,0.04
				c1.04,0,2.12-0.23,2.86,0.91c1.15,1.75,2.4,3.44,3.87,5.55c-17.53,0-34.53-0.01-51.53,0.02c-1.53,0-1.72-0.76-1.7-2
				c0.05-3.41-0.08-6.83,0.04-10.24c0.1-2.88-1.29-6.72,0.63-8.36c1.66-1.42,5.37-0.47,8.18-0.48c6.26-0.03,6.59-0.42,5.76-6.68
				c-0.12-0.89-0.3-1.56-1.33-1.44c-1.73,0.18-1.83-0.86-1.81-2.17c0.05-3.32-0.07-6.63,0.05-9.94c0.07-1.87-0.48-2.63-2.45-2.54
				c-2.91,0.14-5.84-0.05-8.76,0.07c-1.69,0.07-2.88-0.5-4.1-1.66c-19.74-18.65-39.52-37.28-59.34-55.86
				c-5.78-5.42-11.07-11.53-18.76-14.51c-1.06-0.41-2.07-1.04-2.68,0.34c-0.63,1.42-3.24,2.03-1.75,4.32
				c2.58,3.98,4.77,8.21,8.59,11.28c2.42,1.95,4.58,4.22,6.85,6.36c17.08,16.08,34.16,32.17,51.24,48.26
				c0.98,0.92,2.04,1.71,1.99,3.36c-0.11,3.6-0.05,7.21-0.02,10.81c0.01,1.09-0.12,2.01-1.52,1.86c-1.7-0.19-1.92,0.78-1.85,2.14
				c0.06,1.26,0.13,2.54-0.01,3.8c-0.22,1.9,0.65,2.29,2.35,2.24c3.89-0.1,7.78,0.06,11.67-0.07c1.79-0.06,2.35,0.47,2.31,2.29
				c-0.11,5.36-0.14,10.72,0.01,16.08c0.06,2.13-0.45,2.85-2.71,2.8c-7-0.15-14.01-0.04-21.01-0.06c-1.29-0.01-2.29,0.04-2.23,1.8
				c0.05,1.64,1.09,1.77,2.16,1.54c6.81-1.49,10.95,1.74,13.71,7.57c0.37,0.78,0.96,1.46,1.45,2.19c2.11,3.09,4.22,6.19,6.11,8.95
				c-1.13,1.72-3.88-0.96-4.04,2.42c-0.11,2.33,0.42,3.57,2.97,3.08c3.01-0.57,3.84,0.72,3.61,3.63c-0.26,3.29-0.06,6.62-0.06,9.94
				c0,4.28-0.01,4.38-4.22,4.34c-1.81-0.02-2.26,0.53-2.32,2.3c-0.07,2.12,0.66,2.58,2.66,2.56c9.63-0.1,19.27,0,28.9-0.08
				c1.85-0.02,2.54,0.42,2.51,2.4c-0.02,1.97-0.45,2.79-2.58,2.66c-2.91-0.18-5.84,0-8.76-0.06c-1.3-0.02-1.64,0.56-1.64,1.77
				c-0.01,1.25,0.65,1.42,1.65,1.4c2.73-0.03,5.47,0.2,8.17-0.07c2.68-0.27,3.16,0.74,3.15,3.23c-0.11,19.68-0.02,64.4-0.11,84.09
				c-0.01,2.2,0.58,2.77,2.75,2.73c7.88-0.13,15.76-0.13,23.65,0c2.26,0.04,2.91-0.53,2.9-2.87c-0.1-19.68-0.02-64.4-0.11-84.09
				c-0.01-2.36,0.47-3.11,2.98-3.09c20.63,0.12,41.26,0.12,61.89,0c2.63-0.02,3.19,0.72,3.18,3.24
				c-0.11,19.59-0.01,64.21-0.12,83.79c-0.01,2.49,0.73,3.06,3.1,3.02c7.49-0.15,14.99-0.19,22.48,0.01
				c2.84,0.08,3.74-0.52,3.72-3.59c-0.16-19.49-0.05-64.01-0.13-83.5c-0.01-2.22,0.44-3.16,2.86-2.96c2.71,0.23,5.45,0.05,8.17,0.05
				c1.08,0.01,2.14,0.18,2.13-1.54c-0.02-1.79-1.03-1.73-2.32-1.69c-2.91,0.08-5.84,0.01-8.76,0.09c-1.49,0.05-2.02-0.5-2.09-2.02
				c-0.09-2.1,0.26-3.08,2.8-3.04c10.8,0.16,21.6,0.08,32.4,0.05c0.77,0,2.04,0.43,2.02-0.92c-0.01-1.25,0.89-3.31-0.59-3.64
				c-2.6-0.58-0.91-1.54-0.44-2.22c3.09-4.61,6.34-9.11,9.36-13.77c1.11-1.71,2.37-2.19,4.31-2.18c11.29,0.08,22.58,0.06,33.86,0.01
				c1.67-0.01,3.93,1.04,3.9-2.46C368.48,282.61,366.31,283.7,364.77,283.69z M288.3,165.34c1.24,0.02,2.45-0.29,2.45,1.61
				c0.01,1.68-0.99,1.51-2.08,1.56c-1.37,0.05-2.51-0.01-2.53-1.85C286.13,164.77,287.54,165.56,288.3,165.34z M230.07,168.45
				c-0.99-0.01-2.41,0.63-2.47-1.4c-0.08-2.43,1.7-1.45,2.74-1.75c1.04,0.27,2.54-0.58,2.57,1.46
				C232.94,169.08,231.27,168.46,230.07,168.45z M55.66,151.48c0.63,4.25,0.63,4.25-3.41,3.95
				C52.87,153.77,54.27,152.89,55.66,151.48z M56.52,161.14c-1.56-1.44-2.73-2.52-4.1-3.78C56.56,157.03,56.56,157.03,56.52,161.14z
				 M62.13,155.2c-4.04,1.19-4.17,1.09-4.84-4.45C59.16,152.48,60.61,153.8,62.13,155.2z M58.16,158.77
				c0.01-1.46,0.01-1.46,2.85-1.42c3.73-0.73,2.34,2.64,2.96,4.39c0.44,1.25-0.5,1.34-1.52,1.29
				C58.49,162.83,58.13,162.5,58.16,158.77z M64.59,168.53c-1.77-1.15-2.98-2.37-4.15-3.7C64.26,163.94,64.8,164.39,64.59,168.53z
				 M65.55,158.48c1.72,1.61,3.29,3.07,5.33,4.99C65.13,163.16,65.13,163.16,65.55,158.48z M66.09,166.1
				c0.01-2.05,1.53-0.77,2.19-1.15c3.29,0.07,4.35,1.44,4.44,5.26c0.02,1.1-0.44,1.01-1.21,0.98C67.14,171,66.06,169.97,66.09,166.1
				z M68.83,172.8c4.42-0.43,4.55-0.3,5.19,4.91C72.02,175.82,70.52,174.4,68.83,172.8z M73.63,166.03
				c2.08,1.98,3.92,3.73,5.94,5.65C74.6,172.37,74.26,172.05,73.63,166.03z M75.2,174.66c-0.01-0.95,0.1-1.33,1.25-1.28
				c4.03,0.2,5.41,1.43,5.21,4.94c-0.08,1.32-0.08,1.32-2.51,1.24C76.12,179.46,75.22,178.31,75.2,174.66z M77.92,181.38
				c4.3-0.27,4.3-0.27,4.54,4.3C80.9,184.2,79.63,182.99,77.92,181.38z M83.08,174.93c1.75,1.66,3.33,3.15,5.25,4.97
				C83.18,180.38,82.85,180.06,83.08,174.93z M83.9,182.98c0.01-1.47,0.63-1.5,1.78-1.42c3.45,0.26,4.17,1.03,4.21,4.21
				c0.04,2.35-1.58,1.27-2.49,1.47C84.37,187.11,83.89,186.39,83.9,182.98z M87.12,189.12c3.11-0.46,3.11-0.46,3.84,4.63
				C89.33,191.78,88.14,190.35,87.12,189.12z M96.24,187.32c-4.26,1.21-4.97,0.57-4.98-4.74C93.01,184.25,94.59,185.76,96.24,187.32
				z M92.15,191.06c-0.11-2.3,1.39-1.49,2.42-1.55c3.7-0.71,3.26,1.95,3.53,4.13c0.16,1.36-0.39,1.64-1.64,1.57
				C93.1,195.05,92.3,194.2,92.15,191.06z M95.16,196.82c3.48-0.46,3.48-0.46,3.96,4.4C97.55,199.48,96.29,198.08,95.16,196.82z
				 M105.39,195.81c-5.5-0.34-5.5-0.34-6.01-5.1C101.7,191.86,102.97,193.89,105.39,195.81z M100.41,199.09
				c-0.11-1.18-0.15-1.99,1.51-2.02c3.69-0.08,4.06,0.16,4.37,3.95c0.05,0.87,0.71,1.87-1.04,1.99
				C101.82,203.24,100.7,202.43,100.41,199.09z M107.21,208.6c-1.78-1.06-3.02-2.54-4.49-4.13
				C106.41,204.06,107.72,205.4,107.21,208.6z M108.23,198.31c1.45,1.71,2.91,3.43,4.24,5
				C108.11,203.79,108.11,203.79,108.23,198.31z M108.56,206.05c0.03-1.44,0.84-1.23,1.73-1.2c3.56,0.12,4.54,1.16,4.42,4.67
				c-0.06,1.96-1.53,0.78-2.19,1.08C109.26,210.5,108.49,209.5,108.56,206.05z M112.25,212.35c3.19-0.09,3.19-0.09,3.19,4.51
				C114.13,215.01,113.12,213.58,112.25,212.35z M116.28,206.26c1.72,1.57,3.24,2.95,4.83,4.4
				C116.75,211.98,115.95,211.3,116.28,206.26z M120.63,216.88c-3.39,1.09-3.49-1.07-3.79-3c-0.17-1.08,0.32-1.23,1.32-1.22
				c3.67,0.02,4.83,0.71,4.85,3.21C123.03,218.37,120.95,216.24,120.63,216.88z M124.4,214.12c1.23,0.8,2.08,1.51,2.68,2.54
				C124.85,217.13,124.85,217.13,124.4,214.12z M127.21,282.06c-0.2,0.08-0.41,0.16-0.62,0.25c-4.01-5.86-8.03-11.72-12.35-18.03
				c4.2,0,7.84,0.04,11.47-0.02c1.42-0.02,1.51,0.77,1.51,1.85C127.2,271.43,127.21,276.74,127.21,282.06z M251.97,87.86
				c0.02,1.26,0.74,2.66-0.64,3.76C250.57,90.13,251.25,88.98,251.97,87.86z M251.95,95.57c0,2.04,0.01,3.53-0.01,5.01
				c0,0.47,0.03,1.12-0.53,1.2c-0.63,0.09-1.31-0.51-1.23-0.99C250.44,99.22,249.76,97.34,251.95,95.57z M249.34,106.25
				c0.12-1.05,0.66-0.99,1.38-0.44c0.84,0.63,1.27,1.41,1.25,2.48c-0.04,1.65-0.14,3.31,0.02,4.94c0.29,2.91-1.26,4.4-4.04,5.66
				C248.43,114.45,248.87,110.34,249.34,106.25z M251.83,120.08v9.89c-2.04-1.13-4.4-1.8-4.73-3.99
				C246.67,123,249.85,122.42,251.83,120.08z M245.98,135c0.2-1.32,0.36-2.64,0.61-4.46c2.54,2.13,5.98,2.75,5.43,6.84
				c-0.2,1.53-0.67,1.9-2.11,1.94C245.45,139.45,245.31,139.35,245.98,135z M239.95,185.94c0.18-1.85,0.87-1.81,2.21-1.03
				c2.69,1.56,5.46,2.98,8.15,4.53c2.05,1.19,2.23,4.59,0.25,5.71c-3.96,2.24-8,4.35-12.37,6.7
				C238.82,196.17,239.45,191.06,239.95,185.94z M238.73,205.3c3.29-1.86,6.65-3.61,9.97-5.43c1.03-0.57,1.63-0.51,1.63,0.87
				c-0.02,4.34-0.01,8.69-0.01,13.53c-4.2-2.09-8.03-3.9-11.76-5.9C236.84,207.44,237.23,206.15,238.73,205.3z M237.05,211.32
				c4.77,2.36,9.3,4.53,13.74,6.87c1.6,0.84,1.5,3.44-0.14,4.25c-5.09,2.53-10.25,4.92-15.79,7.56
				C235.62,223.56,236.31,217.6,237.05,211.32z M251.97,239.45c0.18,2.21-0.72,2.13-2.31,1.4c-3.07-1.4-6.2-2.69-9.29-4.05
				c-0.78-0.35-1.57-0.63-2.04-1.5c-0.89-1.72-1.68-3,1.12-3.97c3.35-1.16,6.48-2.99,9.71-4.53c2.77-1.32,2.78-1.31,2.78,1.89
				c0.01,1.74,0,3.49,0,5.23C251.94,235.77,251.83,237.62,251.97,239.45z M240.5,247c-0.63-1.78,1.32-4.46-1.52-6.12
				c-0.38-0.22,0.09-1.09,0.91-0.74c3.73,1.62,7.52,3.13,11.16,4.93c1.47,0.73,1.02,3.81-0.59,4.51c-2.75,1.2-5.57,2.25-8.34,3.4
				c-1.42,0.59-1.67-0.08-1.63-1.31C240.54,250.23,240.5,248.77,240.5,247z M234.9,264.27c4.05,0,8.11,0.05,12.16-0.02
				c2.19-0.04,1.49,1.51,1.6,2.61c0.11,1.24,0.11,2.29-1.71,2.2c-2.71-0.12-5.42-0.02-8.13-0.04c-2.84-0.02-2.64-2.89-4.26-4.06
				C234.67,264.74,234.78,264.51,234.9,264.27z M248.15,283.55c-0.51,0.14-0.93-0.03-1.24-0.49c-2.3-3.41-4.62-6.81-7.23-10.67
				c2.9,0,5.19,0.03,7.47-0.01c1.12-0.02,1.53,0.45,1.51,1.56c-0.04,2.8,0,5.61-0.02,8.42C248.65,282.8,248.78,283.37,248.15,283.55
				z M202.46,273.07c0.61-0.89,1.54-0.67,2.39-0.67c10.19-0.02,20.38-0.01,30.58-0.01c1.08,0,2.06-0.02,2.78,1.09
				c2.1,3.23,4.29,6.41,6.77,10.09h-49.74C197.8,279.85,200.13,276.46,202.46,273.07z M192.85,283.74
				c-0.28-0.06-0.54-0.13-0.82-0.19c0-3.4-0.03-6.8,0.02-10.19c0.02-1.16,1.02-0.95,1.74-0.96c2.03-0.03,4.05-0.01,6.87-0.01
				C197.79,276.55,195.32,280.15,192.85,283.74z M222.8,254.54c2.13,1.62,2.5,3.35,1.96,5.38c-0.13,0.5-0.24,0.92-0.86,0.94
				c-0.72,0.02-1.09-0.33-1.09-1.02C222.79,258.19,222.8,256.55,222.8,254.54z M213.08,264.18c4.84,0.36,9.72,0.09,14.59,0.09
				c4.61,0,4.61,0,7.15,4.56h-29.13C206.94,265.07,209.33,263.91,213.08,264.18z M194,264.24c3.85,0.08,7.71,0.02,11.81,0.02
				c-1.28,3.66-3.3,5.45-7.01,4.81c-1.31-0.22-2.72-0.19-4.04,0c-2.39,0.33-2.94-0.71-2.82-2.91
				C192.02,264.6,192.56,264.22,194,264.24z M195.81,254.59c-1.27,1.78-2.27,3.18-3.31,4.63
				C191.23,254.94,191.6,254.33,195.81,254.59z M191.43,168.4c-3.22-3.61-3.13-4.23,1.08-6.92
				C192.14,163.88,192.3,166.15,191.43,168.4z M188.94,176.66c-0.46,0-0.99,0.08-1.27-0.4c-0.34-0.56,0.15-0.88,0.46-1.19
				c0.78-0.78,1.61-1.51,2.42-2.27C190.44,174.38,192.03,176.66,188.94,176.66z M193.09,157.13c-3.39-4.36-3.33-4.82,1.08-8.36
				C193.8,151.66,193.46,154.28,193.09,157.13z M199.6,72.83c0.98,0.07,2.94,4.38,2.38,5.24c-0.15,0.24-0.35,0.46-0.57,0.64
				c-1.01,0.83-1.78,2.88-2.88,2.44c-1.52-0.62-1.88-2.75-2.6-4.3C195.64,76.23,198.9,72.78,199.6,72.83z M197.57,65.49
				c-0.16-1.71,2.12-2.46,3.53-3.94c0.95,1.49,2.43,2.79,2.51,4.18c0.1,1.75-1.97,3.47-3.26,3.57
				C198.63,69.44,197.7,66.9,197.57,65.49z M198.04,84.55c0.71,1.29,1.13,2.05,1.53,2.81c1.37,2.6,0.7,4.63-1.88,6.02
				c-0.69,0.37-0.98,0.13-1.43-0.33c-2.39-2.53-2.38-3.85,0.06-6.45C196.84,86.04,197.3,85.43,198.04,84.55z M197.99,98.88
				c1.42,2.28,0.47,4.95-1.99,5.84c-1.01,0.37-1.32-0.42-1.48-0.92c-0.42-1.33-2.63-2.15-1.28-3.98c0.87-1.17,1.85-2.25,2.97-3.59
				C197.04,97.45,197.54,98.15,197.99,98.88z M194.84,108.37c1.44,0.18,1.58,1.97,2.4,2.97c0.63,0.77,0.68,1.44-0.11,2.25
				c-0.94,0.96-1.69,2.12-2.77,3.51c-1.13-1.78-1.73-2.66-2.26-3.56C191.23,112.05,193.19,108.16,194.84,108.37z M196.32,123.45
				c0.06,0.73-3.11,4.19-3.61,3.93c-1.54-0.8-1.89-2.56-2.77-3.9c-0.28-0.43,2.89-4.15,3.41-3.93
				C195.09,120.27,195.27,122.26,196.32,123.45z M192.02,130.8c1.62,0.84,1.89,2.74,3.02,4.15c-0.99,1.5-2.2,3.43-3.65,3.47
				c-1.72,0.06-2.11-2.39-2.94-3.83C188.16,134.1,191.51,130.53,192.02,130.8z M190.71,141.99c1.26,0.24,2.83,4.61,2,5.57
				c-0.94,1.1-1.96,2.13-3.2,3.45c-0.58-1.06-0.96-1.74-1.32-2.43c-1.54-2.92-1.04-4.67,1.8-6.3
				C190.23,142.15,190.5,141.95,190.71,141.99z M194.82,144.07c-3.54-2.5-3.49-3.49,0.84-6.79
				C195.34,139.87,195.08,141.96,194.82,144.07z M196.2,132.99c-3.39-3.22-3.29-3.94,0.94-6.98
				C196.8,128.53,196.51,130.7,196.2,132.99z M197.83,122.4c-3.32-4.3-3.32-4.3,0.33-7.56C198.88,117.32,197.59,119.48,197.83,122.4
				z M198.9,110.63c-3.08-4.05-3.08-4.05,1.05-7.11C199.63,105.99,199.8,108.23,198.9,110.63z M200.64,99.14
				c-3.63-3.02-3.57-3.74,0.87-6.77C201.18,94.89,200.91,96.98,200.64,99.14z M202.03,88.08c-3.3-4.88-3.23-5.31,1.11-8.28
				C202.78,82.48,202.44,85.02,202.03,88.08z M203.62,75.13c-3.28-3.49-3.26-3.85,0.67-6.59C204.5,70.94,204.02,73.01,203.62,75.13z
				 M205.98,57.57c-0.25,2.22-0.48,4.25-0.75,6.67C201.73,60.6,201.75,60.43,205.98,57.57z M204.1,56.34
				c-2.6,3.41-2.65,3.4-4.67-0.64C201.21,55.51,202.66,55.78,204.1,56.34z M198.05,57.25c2.49,2.95,2.49,2.95-0.74,5.32
				C197.21,60.56,197.29,58.88,198.05,57.25z M196.34,68.06c3.17,2.47,3.12,3.09-0.75,5.78C195.87,71.69,196.1,69.92,196.34,68.06z
				 M194.93,79.52c3.02,3.21,2.95,3.74-0.93,6.78C194.34,83.83,194.63,81.72,194.93,79.52z M193.33,92.02
				c2.89,3.09,2.89,3.09-0.85,5.91C192.8,95.69,193.06,93.93,193.33,92.02z M191.84,103.13c2.86,3.25,2.86,3.25-0.81,6.14
				C191.33,107.08,191.57,105.23,191.84,103.13z M190.38,114.43c2.91,3.08,2.91,3.08-0.56,5.98
				C189.5,118.2,190.27,116.41,190.38,114.43z M188.86,125.91c3.04,2.74,3.04,2.85-0.68,5.88
				C188.43,129.6,188.64,127.84,188.86,125.91z M187.31,137.06c3.2,2.68,3.11,3.52-0.4,5.49
				C186.46,140.68,187.54,139.01,187.31,137.06z M186.17,148.87c2.81,3.23,2.81,3.3-0.74,6.38
				C185.22,153.46,185.52,150.85,186.17,148.87z M185.18,158.34c1.04-1.51,2.23-2.91,3.75-3.95c0.34-0.23,2.94,3.98,2.9,4.71
				c-0.04,0.58-3.29,3.81-3.79,3.75C187.6,162.81,184.91,158.73,185.18,158.34z M184.54,161.2c2.69,3.16,2.69,3.2-0.81,5.49
				C183.88,164.71,183.72,162.93,184.54,161.2z M184.75,176.05c-0.25,0.7-1.26,0.9-1.75,0.5c-1.44-1.18,0.41-2.64-0.13-4.03
				C183.89,173.59,185.33,174.41,184.75,176.05z M186.78,174.88c-0.89-1.44-1.42-2.23-1.91-3.05c-1.12-1.87,0.16-4.99,2.28-5.59
				c0.98-0.27,1.22,0.55,1.39,1.08c0.43,1.32,2.6,2.16,1.18,3.98C188.84,172.45,187.89,173.54,186.78,174.88z M183.21,254.81
				c4.32-0.84,4.63-0.43,3.62,4.77C185.28,258.17,184.36,256.47,183.21,254.81z M187.19,277.58c0.05,1.8,0.01,3.59,0.01,5.39
				c-0.2,0.04-0.41,0.08-0.61,0.12c-2.07-3.01-4.12-6.02-6.21-9.02c-0.78-1.11-0.75-1.75,0.81-1.71c0.19,0.01,0.39-0.01,0.58-0.01
				C188.43,272.44,187.05,271.61,187.19,277.58z M185.75,264.28c1.95,0.01,1.34,1.52,1.39,2.55c0.05,1.01,0.32,2.25-1.42,2.22
				c-2.61-0.04-5.26,0.22-7.84-0.08c-2.34-0.27-2.54-2.81-4.25-4.69C178.09,264.27,181.92,264.27,185.75,264.28z M151.18,264.27
				h15.73c4.87,0,4.87,0,7.5,4.69h-29.92C146.32,264.44,146.57,264.27,151.18,264.27z M132.01,265.64c-0.19-1.24,0.7-1.37,1.66-1.37
				c3.56,0.01,7.13,0.01,11.31,0.01c-1.54,1.94-1.97,4.3-3.78,4.6c-2.73,0.46-5.63,0.39-8.38,0
				C131.16,268.65,132.19,266.77,132.01,265.64z M139.19,272.69c-2.28,3.32-4.43,6.45-6.58,9.58c-0.22-0.08-0.43-0.16-0.64-0.25
				v-3.7C131.97,271.73,131.97,271.73,139.19,272.69z M132.96,306.33c-1.02,0.11-1-0.69-1.01-1.37c-0.01-5.06,0-10.12,0.01-15.19
				c0-0.6,0.11-1.24,0.88-1.24c0.81,0,0.81,0.69,0.82,1.26c0.01,2.63,0.01,5.26,0.01,7.88c0,2.43,0.01,4.87-0.01,7.3
				C133.64,305.52,133.78,306.25,132.96,306.33z M133.97,283.58c2.54-3.7,4.88-7.11,7.21-10.5c0.61-0.89,1.55-0.68,2.39-0.68
				c10.5-0.01,21.01-0.01,31.51-0.01c0.96,0,1.9-0.08,2.57,0.94c2.2,3.3,4.47,6.55,7.01,10.25H133.97z M249.31,316.21
				c-10.5-0.07-20.99-0.04-31.48-0.04s-20.98-0.06-31.48,0.05c-2.12,0.02-2.55-0.71-2.57-2.67c-0.02-1.97,0.64-2.42,2.5-2.41
				c20.98,0.06,41.97,0.06,62.96-0.01c2.05-0.01,2.63,0.61,2.63,2.63C251.87,315.76,251.15,316.22,249.31,316.21z M250.67,256.15
				c-2.04,0.02-4.07,0-6.11,0c-0.08-0.19-0.15-0.38-0.22-0.57c1.93-0.79,3.84-1.6,5.79-2.35c0.69-0.26,1.77-1.14,1.81,0.57
				C251.95,254.75,252.45,256.13,250.67,256.15z M251.43,185.59c-1.32,1.13-3.12-1.15-4.71-1.89c-1.92-0.9-3.74-2.03-5.81-3.17
				c3.04-3.21,6.61-1.99,9.9-2.19c0.89-0.05,1.15,0.6,1.12,1.36C251.84,181.73,252.81,184.41,251.43,185.59z M297.19,254.43
				c0,1.54,0.03,3.08-0.01,4.62c-0.02,0.81,0.28,1.8-1.14,1.87c-1.42,0.07-1.49-0.91-1.68-1.87
				C293.89,256.85,296.34,256.15,297.19,254.43z M292.58,197.97c1.02-4.75,1.02-4.75,6.61-3.46
				C296.66,195.84,294.74,196.84,292.58,197.97z M322.37,182.4c1.63-4.85,1.63-4.85,6.52-3.81
				C327.06,180.35,324.78,181,322.37,182.4z M357.75,156.23c1.09,1.3,1.78,2.72,2.34,4.32
				C355.59,160.06,355.59,160.06,357.75,156.23z M360.06,162.67c-2.23,1.18-3.97,2.09-5.88,3.09
				C354.96,161.05,355.05,161.01,360.06,162.67z M355.55,155.77c-0.84,4.06-0.99,4.13-4.73,2.49
				C352.4,157.43,353.76,156.71,355.55,155.77z M349.54,160.03c1.39-0.04,3.12,0.23,4.46,1.57c-1.56,1.33-0.57,4.3-3.22,4.06
				c-1.32-0.12-3.88,0.62-3.77-1.72C347.06,162.64,347.32,160.09,349.54,160.03z M350.71,167.58c-2.25,1.18-4.24,2.21-6.65,3.46
				C345.46,166.05,345.64,165.96,350.71,167.58z M345.89,160.8c-0.36,3.92-0.97,4.26-5.08,2.68
				C342.61,162.53,344.21,161.69,345.89,160.8z M339.73,165.28c1.29,0.09,3.98-0.6,3.9,1.71c-0.06,1.5-0.6,3.84-2.97,4.41
				c-1.31-1.28-4.25,0.6-4.17-1.84C336.53,168.11,337.09,165.08,339.73,165.28z M340.72,172.79c-2.97,1.56-5.26,2.76-7.84,4.11
				C334.41,171.9,334.41,171.9,340.72,172.79z M335.89,166.13c-1.54,4.59-1.54,4.59-6.03,3.33
				C331.71,167.98,333.73,167.15,335.89,166.13z M329.77,171.33c0.84,0.54,2.77-0.73,3.05,1.19c0.25,1.71-2.64,4.92-3.8,4.43
				c-1.25-0.53-3.54,0.55-3.66-1.69C325.24,172.8,327.38,171.04,329.77,171.33z M324.74,171.85c-1.26,4.47-1.4,4.54-5.33,2.81
				C321.22,173.71,322.85,172.85,324.74,171.85z M315.45,180.03c0.96-1.13,0.32-3.6,2.67-3.51c1.42,0.06,2.82,0.52,4.46,0.85
				c-0.41,1.01-0.66,1.63-0.92,2.25c-1.2,2.8-3.12,3.45-5.74,2.04C315.12,181.21,314.96,180.6,315.45,180.03z M318.97,183.93
				c-2.09,1.47-4.14,2.61-6.64,3.46C314.41,182.1,313.67,182.66,318.97,183.93z M314.66,177.16c-1.22,4.26-1.47,4.39-5.32,2.76
				C311.15,178.98,312.73,178.17,314.66,177.16z M305.42,185.69c0.17-1.36,0.13-4.33,3.08-3.82c1.3,0.22,3.7-0.41,3.56,1.61
				c-0.1,1.47-0.56,3.82-3,4.33C308.03,186.41,305.08,188.27,305.42,185.69z M308.94,189.4c-2.21,1.16-4.13,2.17-6.19,3.25
				C303.38,187.96,303.78,187.75,308.94,189.4z M304.53,182.46c-1.02,4.13-1.16,4.21-5.29,2.79
				C301.21,184.21,302.78,183.38,304.53,182.46z M295.41,190.89c0.23-1.42,0.14-4.66,3.43-3.71c1.15,0.33,3.49-0.47,3.15,1.6
				c-0.25,1.49-0.45,3.94-3.05,4.22C297.89,191.76,295.01,193.38,295.41,190.89z M294.61,187.62c-1.23,4.42-1.42,4.52-5.31,2.82
				C291.13,189.46,292.73,188.61,294.61,187.62z M288,192.24c1.46,0.35,4.02,0.01,4.01,1.49c-0.01,1.37-0.26,4.24-2.77,4.33
				c-2.95,0.11-1.97-2.66-2.54-4.06C286.64,192.86,286.65,191.92,288,192.24z M282.42,212.68c0.65,5.98,1.35,11.97,2.1,18.58
				c-5.43-2.69-10.26-5.14-15.15-7.47c-1.98-0.94-1.17-2.62-1.37-4.05c-0.19-1.35,0.34-2.13,1.6-2.7c3.63-1.64,7.2-3.4,10.8-5.11
				C281.34,211.47,282.24,211,282.42,212.68z M279.47,247.39c0.01,6.3,0.01,6.3-5.69,3.82c-1.5-0.66-2.98-1.36-4.51-1.96
				c-0.97-0.37-1.29-1.01-1.27-2c0.02-0.87,0.27-1.41,1.15-1.75c2.97-1.15,5.92-2.34,8.84-3.6c1.33-0.57,1.5,0.06,1.49,1.13
				C279.46,244.49,279.47,245.94,279.47,247.39z M275.75,255.58c-0.05,0.19-0.09,0.38-0.13,0.57c-2.06,0-4.12,0.01-6.18,0
				c-0.7,0-1.42-0.05-1.42-1c0.01-0.76-0.13-1.68,0.23-2.23c0.42-0.63,1.21-0.03,1.81,0.23
				C271.97,253.95,273.86,254.76,275.75,255.58z M269.28,241.94c-0.85,0.35-1.27,0.02-1.26-0.91c0.01-4.61,0-9.22,0-14.34
				c4.63,2.3,8.87,4.36,13.04,6.53c1.25,0.65,0.8,3.49-0.79,4.2C276.66,239.05,272.96,240.46,269.28,241.94z M269.74,201.58
				c-0.09-0.2,0.03-0.68,0.19-0.75c1.22-0.57,1.74,0.53,2.51,1.17C271.42,202.3,270.33,202.91,269.74,201.58z M278.99,205.06
				c-3.06,1.63-5.34,2.84-7.69,4.08C272.1,204.48,272.64,204.14,278.99,205.06z M270.12,204.02c0.16-0.14,0.96,0.08,0.99,0.22
				c0.18,1.01-0.47,1.71-1.35,2.89C269.77,205.74,269.28,204.76,270.12,204.02z M281.45,206.79c0.68,1.32-0.7,1.36-1.35,1.68
				c-3.29,1.63-6.62,3.18-10.1,4.83c-0.67-1.44,0.01-1.99,0.98-2.49c2.75-1.41,5.5-2.85,8.23-4.32
				C280.07,206.03,280.94,205.81,281.45,206.79z M280.69,198.89c0.19,1.02,0.44,2.11-0.13,3.41c-1.17-0.62-2.13-1.07-3.04-1.61
				c-0.68-0.42-1.83-0.57-1.43-1.81c0.23-0.71,0.54-1.74,1.47-1.46C278.66,197.74,280.36,197.14,280.69,198.89z M278.85,183.56
				c0.39,3.15,0.7,5.94,1.08,8.72c0.1,0.73,0.17,1.37-0.58,1.77c-2.15,1.13-4.25,2.38-6.46,3.35c-1.55,0.68-4.66-1.65-4.88-3.36
				c-0.38-3.04,0.09-5.4,3.5-6.63C274,186.51,276.27,184.94,278.85,183.56z M274.32,178.35c1.33,0.02,3.41-0.91,3.89,0.76
				c0.51,1.77-1.8,1.9-2.92,2.6c-2.2,1.36-4.54,2.48-7.14,3.87C267.74,178.31,267.74,178.26,274.32,178.35z M273.3,137.03
				c0.36,1.82-0.13,2.61-1.98,2.25c-1.11-0.22-2.85,0.87-3.19-0.92c-0.32-1.69-0.75-3.73,1.51-4.8c0.94-0.45,1.77-1.13,2.71-1.75
				C273.16,133.58,272.97,135.35,273.3,137.03z M272.05,125.56c0.51,3.08-1.79,3.61-3.98,5.05v-9.47
				C270.14,122.12,271.65,123.12,272.05,125.56z M268.07,96.49c0.84,2.51,1.43,4.36,0.81,6.3c-0.27,0.01-0.54,0.01-0.81,0.02V96.49z
				 M269.65,106.51c0.47,3.97,0.92,7.72,1.39,11.73C267.52,116.39,266.73,109.2,269.65,106.51z M273.35,264.19
				c5.23,0.33,10.52,0.38,15.74-0.02c3.8-0.28,5.71,1.35,6.98,4.72h-29.82C267.44,265.14,269.7,263.96,273.35,264.19z
				 M255.33,251.03c3.01-1.03,5.66-2.47,9.04-0.51c2.04,1.18,2.11,2.5,1.98,4.25c-0.18,2.34-2.02,1.16-3.15,1.34
				c-1.13,0.18-2.32,0.04-3.49,0.04s-2.35,0.11-3.5-0.04c-0.98-0.13-2.56,0.81-2.75-1.12C253.3,253.35,253.12,251.78,255.33,251.03z
				 M253.58,246.56c0.91-0.71,1.51,0.18,2.45,0.59c-1.02,0.63-1.71,1.37-2.52,0.45C253.34,247.41,253.39,246.71,253.58,246.56z
				 M253.42,135.56c1.49,1.02,3.14,1.32,3.17,2.92c0.01,0.66-1.36,1.08-2.2,0.77C252.59,138.58,253.67,137.15,253.42,135.56z
				 M265.37,139.25c-0.79,0.19-1.94-0.17-1.92-0.81c0.03-1.29,1.42-1.54,2.85-2.34C266.14,137.5,267.19,138.82,265.37,139.25z
				 M266.41,184.87c-0.06,1.2-0.38,2.02-1.5,2.53c-1.06,0.48-2.05,1.09-3.08,1.64c-4.19,2.26-8.39-0.16-8.4-4.85
				c0-5.88,0-5.88,6.52-5.88h0.29C266.76,178.32,266.73,178.32,266.41,184.87z M262.1,192.11c2.04-0.19,2.81-2.04,4.08-0.95
				c0.59,0.5,0.61,2.31-0.05,2.63C264.77,194.44,263.91,193.06,262.1,192.11z M264.75,197.49H253.7
				C258.66,193.75,258.73,193.75,264.75,197.49z M253.81,191.48c0.49-0.02,1.01,0.37,1.47,0.57c-0.06,0.71-0.47,0.94-0.94,1.09
				c-0.5,0.18-0.96,0.2-0.95-0.52C253.39,192.2,253.18,191.51,253.81,191.48z M264.2,215.56c-3.39,3.4-5.42,3.51-10.64,0H264.2z
				 M266.19,219.09c0.88,0.43,0.46,1.84,0.16,2.91c-1.29-0.19-2.35-0.7-3.43-1.73C264.05,219.64,265.16,218.58,266.19,219.09z
				 M266.21,89.93c-1.33-0.02-1.92-1.23-3.01-2.56c1.6-0.04,2.98-0.74,3.4,1.1C266.72,88.99,266.8,89.93,266.21,89.93z
				 M266.24,114.43c-1.11-0.98-3.3-1.17-2.74-3.13c0.25-0.85,1.88-2.13,2.4-1.73C267.44,110.79,266.35,112.68,266.24,114.43z
				 M255.05,75.94c3.1-2.37,6-2.81,9.06,0H255.05z M261.24,82.68c-0.98,1.81-1.88,1.92-2.92,0.06
				C259.31,82.34,260.22,82.44,261.24,82.68z M254.77,69.66c3.68-3.41,4.88-3.46,10.47-0.23C261.64,72.22,258.19,72.79,254.77,69.66
				z M266.21,71.48c0.46,0.29,0.39,2.69-0.05,2.91c-1.77,0.89-2.99-0.78-4.91-1.57C263.26,72.37,264.44,70.36,266.21,71.48z
				 M265.91,64.1c1.16,0.6,0.42,2.57,0.34,4.1c-1.75-0.4-3.06-1.3-4.81-2.38C263.23,65.11,264.66,63.45,265.91,64.1z M263.08,63.31
				c-2.09,2.14-3.92,1.94-6.11,0H263.08z M253.62,63.47c1.78,0.27,3.16,1.42,4.92,2.45c-1.7,0.84-3.15,1.56-4.92,2.44V63.47z
				 M253.4,71.04c1.72,0.08,2.88,1.12,4.88,1.76c-1.77,0.85-3.05,1.47-4.73,2.28c-0.08-0.89-0.13-1.37-0.15-1.84
				C253.38,72.57,253.4,71.9,253.4,71.04z M254.32,87.29c0.4-0.07,1.18-0.2,1.12,0.48c-0.11,0.98-0.94,1.35-1.88,1.51
				C253.25,88.37,253.05,87.51,254.32,87.29z M258.7,89.51c0.77-0.69,1.33-0.56,1.95,0.13c0.26,0.29,0.51,0.61,0.84,0.8
				c5.29,3.03,5.43,8.04,4.82,13.15c-0.37,3.07-3.55,3.89-5.6,5.46c-1.28,0.98-2.18-1.06-3.22-1.76c-2.96-1.99-5.34-4.33-3.82-8.36
				C251.97,93.95,255.85,92.03,258.7,89.51z M253.42,108.6c4.83,2.77,4.84,3.06,0.26,5.98C253.13,112.57,253.49,110.66,253.42,108.6
				z M259.11,114.63c0.39-0.26,0.73-0.6,1.29-0.47c1.91,0.42,5.97,5.47,5.98,7.49c0.01,1.26,0,2.52,0,3.78c0,0.49-0.11,1,0.02,1.45
				c1.28,4.8-2.1,6.7-5.36,8.66c-0.32,0.19-0.69,0.47-1.03,0.46c-1.99-0.05-6.56-5.04-6.57-7.12c-0.01-1.36,0.25-2.77-0.05-4.06
				C252.22,119.63,255.47,117.05,259.11,114.63z M257.36,222.77c1.97-0.78,3.08,0.44,4.57,0.87c3.66,1.04,4.95,3.31,4.52,7.1
				c-0.36,3.07-0.07,6.22-0.08,9.33c-0.01,3.33-3.98,6.04-7.16,4.88c-5.78-2.11-5.78-2.11-5.78-8.37v-2.92
				c0-1.56,0.22-3.15-0.04-4.66C252.8,225.6,254.34,223.98,257.36,222.77z M256.36,264.24c3.28,0.08,6.55,0.02,10.01,0.02
				c-1.26,3.29-2.87,5.49-6.63,4.81c-1.13-0.21-2.33-0.08-3.49-0.02c-1.66,0.08-2.89,0.15-2.91-2.3
				C253.3,264.22,254.54,264.2,256.36,264.24z M253.99,283.19c-0.19-0.04-0.38-0.06-0.57-0.1c0-3.12,0.01-6.23-0.01-9.35
				c-0.01-1.23,0.77-1.39,1.73-1.38c1.82,0.01,3.66,0.01,6.13,0.01C258.59,276.36,256.29,279.78,253.99,283.19z M256.04,283.49
				c2.42-3.6,4.64-6.88,6.82-10.18c0.66-1,1.61-0.92,2.59-0.92c10.4,0,20.8,0.03,31.21-0.03c1.54-0.01,2.52,0.44,3.36,1.73
				c1.99,3.08,4.12,6.08,6.39,9.4H256.04z M310.09,297.69L310.09,297.69c-0.01,2.51,0.01,5.03-0.02,7.54
				c-0.01,0.45-0.01,1.04-0.7,1.03c-0.68-0.01-0.7-0.58-0.71-1.04c-0.02-5.12-0.02-10.25-0.02-15.38c0-0.48,0.02-1.09,0.59-1.16
				c0.84-0.12,0.84,0.61,0.85,1.17C310.11,292.46,310.09,295.07,310.09,297.69z M309.65,283.49c-0.68,0.28-1.09-0.18-1.43-0.66
				c-2.29-3.31-4.56-6.63-7.16-10.42c2.94,0,5.31,0.01,7.68-0.01c0.99-0.01,1.36,0.47,1.36,1.43c-0.02,2.8,0.01,5.61-0.01,8.41
				C310.08,282.68,310.22,283.25,309.65,283.49z M310.07,266.9c0.1,1.02,0.29,2.19-1.44,2.15c-2.89-0.07-5.8,0.09-8.69-0.05
				c-2.68-0.13-2.58-2.9-4.76-4.73c5.19,0,9.4-0.03,13.61,0.02C310.76,264.32,309.98,265.91,310.07,266.9z M313.92,273.02
				c1.7-1.9,5.47-0.42,8.32-0.63c0.66-0.05,1.32,0.05,2.56,0.11c-2.9,3.73-5.47,6.97-7.98,10.27c-0.71,0.94-1.63,1.01-2.58,0.83
				c-1.32-0.25-0.78-1.4-0.77-2.13C313.53,278.58,312.27,274.88,313.92,273.02z M324.62,290.09c-3.55,5.16-7.09,10.33-10.63,15.5
				c-0.18-0.06-0.36-0.11-0.53-0.17c0-5.2,0.01-10.4-0.01-15.6c-0.01-1.26,0.75-1.37,1.73-1.36c2.81,0.02,5.63,0.02,8.45-0.01
				C324.94,288.45,325.54,288.75,324.62,290.09z"/>
		</g>
	</g>
	<circle class="st5" cx="208.53" cy="208.53" r="197.38"/>
</g>
</svg>
