<?xml version="1.0" encoding="utf-8"?>
<!-- Generator: Adobe Illustrator 24.0.0, SVG Export Plug-In . SVG Version: 6.00 Build 0)  -->
<svg version="1.1" id="Layer_1" xmlns="http://www.w3.org/2000/svg" xmlns:xlink="http://www.w3.org/1999/xlink" x="0px" y="0px"
	 viewBox="0 0 417.1 417.1" style="enable-background:new 0 0 417.1 417.1;" xml:space="preserve">
<style type="text/css">
	.st0{fill:#FFFFFF;stroke:#EF8016;stroke-width:11.6345;stroke-miterlimit:10;}
	.st1{fill:#2E8694;}
</style>
<g>
	<circle class="st0" cx="208.5" cy="208.5" r="197.4"/>
	<g>
		<path class="st1" d="M174.2,288.8c0-23.9,0-47.6,0-71.7c1.7,0,3.2,0,4.6,0c17.3,0.2,34.5,0.4,51.8,0.4c2.2,0,4.7-0.8,6.6-2
			c13.4-8.7,26.8-17.6,40.1-26.5c1.8-1.2,3.2-1.4,5.1-0.3c15.9,9,31.8,17.9,47.8,26.8c2.1,1.2,3.1,2.4,3.1,4.9
			c-0.1,21.6-0.1,43.3,0,64.9c0,3-0.9,3.8-3.8,3.8C278.7,289,228,289,177.3,289C176.4,289,175.4,288.9,174.2,288.8z M249,247.9
			c-7.1,0-13.9,0-20.6,0c-7.5,0-7.5,0-6.7,7.3c0.1,0.8,1.1,2.2,1.7,2.2c8.5,0.1,16.9,0.1,25.6,0.1C249,254.2,249,251.4,249,247.9z
			 M213.7,257.5c0-2.6-0.1-4.6,0-6.5c0.2-2.6-0.9-3.2-3.3-3.1c-6,0.1-12,0-18,0c-6.5,0-7.7,1.4-6.3,7.8c0.2,0.7,1.2,1.7,1.8,1.7
			C196.5,257.6,204.8,257.5,213.7,257.5z M257.8,257.5c8.7,0,17.1,0,25.6-0.1c0.6,0,1.7-1.1,1.7-1.8c0.2-2.4,0.1-4.9,0.1-7.4
			c-9.5,0-18.4,0-27.4,0C257.8,251.4,257.8,254.2,257.8,257.5z M320.4,257.6c0-3.4,0-6.3,0-9.6c-7.9,0-15.5,0.2-23.1-0.1
			c-3.3-0.1-4.6,1-4.1,4.3c0.1,1-0.3,2.1,0.1,3c0.5,1,1.5,2.4,2.3,2.4C303.8,257.6,311.9,257.6,320.4,257.6z"/>
		<path class="st1" d="M65.8,320c0-9.4,0-18.3,0-27.6c5.3,0,10.4,0,15.8,0c0.1-1.6,0.3-2.7,0.3-3.9c0-3.4-0.1-6.8,0-10.1
			c0.2-7.4-0.5-14.2-4.1-21.2c-5.9-11.4-5.3-23.7-0.5-35.7c0.4,0.2,0.8,0.2,0.8,0.4c5.7,14.2,18.2,20.4,31,26.1
			c12.8,5.8,25.6,11.3,38.6,16.7c6.5,2.7,9.9,6.7,8.7,14.3c-0.7,4.2-0.1,8.7-0.1,13.4c65.2,0,129.9,0,194.9,0c0,9.4,0,18.5,0,27.8
			C256.2,320,161.1,320,65.8,320z M90.4,292.3c3.1,0,5.9,0,8.6,0c5.2,0,5.3,0,5.1-5.3c-0.1-1.9-0.1-4.6-1.2-5.4
			c-3.8-2.6-8.1-4.5-12.5-6.8C90.4,280.6,90.4,286.1,90.4,292.3z M147.9,274.8c-4.4,2.3-8.2,4.3-12,6.4c-0.7,0.4-1.5,1.4-1.5,2.2
			c-0.2,2.8-0.1,5.7-0.1,8.5c4.8,0,9.1,0,13.6,0C147.9,286.2,147.9,280.6,147.9,274.8z M125.8,292c0-2.9,0-5.4,0-7.7
			c-4.6,0-8.9,0-13.3,0c0,2.7,0,5.1,0,7.7C117.1,292,121.4,292,125.8,292z"/>
		<path class="st1" d="M157.1,263.8c-16.3-7-32.2-13.4-47.7-20.7c-7.4-3.5-14.2-8.3-20.7-13.2c-4.2-3.2-7.1-8-6.2-13.8
			c0.4-2.6,1.5-5.4,3.1-7.3c5.7-6.8,13.2-11,21.6-13.6c1-0.3,1.7-1.4,2.5-2.1c-0.7-0.8-1.7-1.4-2.2-2.3c-0.7-1.5-1.4-3.2-1.4-4.8
			c0-0.7,1.7-2,2.6-2c6.9-0.2,13.8-0.1,20.7-0.1c1.6,0,3.2,0.1,3,2.2c-0.2,1.7,1.4,4.2-1.9,4.9c-0.8,0.2-1.3,1.3-2,2
			c0.8,0.7,1.5,1.9,2.4,2.2c17.9,5.7,29.2,17.5,32.8,36C166.1,243,163.6,254.2,157.1,263.8z"/>
		<path class="st1" d="M252.5,109.5c-4.2,9.1-10.4,11.6-19.3,7.7c-2.3-1-3.5-0.7-5.1,1c-3.1,3.2-6.9,4.9-11.3,5.1
			c-8.6,0.4-13.6-6.4-10.4-14.5c1.9-4.9,5.6-8.1,10.3-10.4c1.2-0.5,2.5-1.7,2.9-2.8c2.4-7.8,7.8-11,15.8-9.1c1,0.2,1.9,0.5,2.8,0.7
			c4.9-12.5,11.6-14.8,30-10.6c1.9-2.4,3.5-5,5.7-6.9c4.4-3.9,9.9-3.9,15.3-3.1c13.1,2,25.3,16,25.7,29.2c0.4,11.7-8.6,19.3-20.6,17
			c-3.8-0.7-7.4-2.9-11.1-4.2c-1.1-0.4-2.8-0.8-3.5-0.2c-7.3,5.5-15.1,5.2-23.2,2.5C255.2,110.6,254,110,252.5,109.5z"/>
		<path class="st1" d="M201.9,129.9c7,0,13.3,0,20.4,0c1.1,27.6,2.2,55.2,3.3,83c-9.1,0-17.7,0-27,0
			C199.7,185.3,200.8,157.8,201.9,129.9z"/>
		<path class="st1" d="M122.6,178.4c-0.2,1.1-0.5,2.2-0.7,3.1c-5,0.9-5.5-0.1-4.2-7.9c21.8,0,43.6,0,65.9,0c0.1,1.1,0.2,2.3,0.2,3.5
			c0,11.3,0,22.5,0,33.8c0,1.8,0.3,3.6-2.5,3.5c-2.9,0-2.3-2.1-2.3-3.7c0-9.8-0.1-19.5,0-29.3c0-2.3-0.5-3.4-3.1-3.4
			c-17.1,0.1-34.3,0.1-51.4,0.1C123.9,178.2,123.3,178.3,122.6,178.4z"/>
	</g>
</g>
</svg>
