<?xml version="1.0" encoding="utf-8"?>
<!-- Generator: Adobe Illustrator 24.0.0, SVG Export Plug-In . SVG Version: 6.00 Build 0)  -->
<svg version="1.1" id="Layer_1" xmlns="http://www.w3.org/2000/svg" xmlns:xlink="http://www.w3.org/1999/xlink" x="0px" y="0px"
	 viewBox="0 0 417.06 417.06" style="enable-background:new 0 0 417.06 417.06;" xml:space="preserve">
<style type="text/css">
	.st0{fill:#FFFFFF;stroke:#F08116;stroke-width:11.6343;stroke-miterlimit:10;}
	.st1{fill:#278492;}
	.st2{fill:#2E8795;}
	.st3{fill:#FFFFFF;}
	.st4{fill:none;stroke:#278492;stroke-width:4.6537;stroke-miterlimit:10;}
	.st5{fill:none;stroke:#F08116;stroke-width:11.6343;stroke-miterlimit:10;}
	.st6{fill:#1D7F8D;}
	.st7{fill:none;stroke:#2E8795;stroke-width:3.4903;stroke-linecap:round;stroke-miterlimit:10;}
	.st8{fill-rule:evenodd;clip-rule:evenodd;fill:#2E8795;}
	.st9{clip-path:url(#SVGID_1_);}
</style>
<g>
	<g>
		<circle class="st0" cx="208.53" cy="208.53" r="197.38"/>
	</g>
	<g>
		<g>
			<path class="st2" d="M81.42,296.41c0-26.31,0-52.63,0-78.94c2.66-4.35,5.11-4.96,9.38-2.17c4,2.62,8.32,3.76,13.11,3.75
				c26.8-0.06,53.61-0.03,80.41-0.03c0.95,0,1.91,0,3.12,0c0,5.29-0.06,10.24,0.02,15.19c0.07,3.92,1.91,6.02,5.67,6.06
				c10.26,0.11,20.52,0.11,30.77,0c3.67-0.04,5.58-2.08,5.68-5.79c0.11-4.05,0.03-8.11,0.04-12.16c0-1.05,0-2.09,0-3.3
				c1.36,0,2.35,0,3.33,0c25.15,0,50.3-0.09,75.45,0.06c6.9,0.04,13.4-0.46,19.36-4.58c3.48-2.4,7.83,0.28,7.84,4.52
				c0.04,25.07,0.14,50.13-0.07,75.2c-0.07,7.74-4.07,13.6-10.78,17.54c-3.92,2.3-8.23,2.79-12.65,2.79c-32.26,0-64.53,0-96.79,0
				c-36.81,0-73.63-0.01-110.44,0.01c-6.15,0-11.75-1.36-16.47-5.58C84.58,305.58,82.7,301.17,81.42,296.41z"/>
			<path class="st2" d="M81.42,190.66c0-12.74,0-25.49,0-38.23c1.25-4.69,3.09-9.04,6.78-12.4c4.66-4.26,10.24-5.75,16.41-5.74
				c15.89,0.03,31.77,0.01,47.66,0.01c0.97,0,1.94,0,3.18,0c0-3.15-0.1-6.03,0.03-8.9c0.11-2.3,0.22-4.66,0.83-6.85
				c2.83-10.18,10.59-15.94,21.72-16c20.36-0.09,40.71-0.04,61.07-0.02c5.17,0,9.96,1.25,14.11,4.51
				c5.75,4.52,8.25,10.55,8.36,17.71c0.05,3.12,0.01,6.23,0.01,9.54c1.32,0,2.3,0,3.28,0c15.72,0,31.44-0.03,47.17,0.03
				c2.38,0.01,4.84,0.07,7.13,0.66c10.36,2.67,16.43,10.63,16.45,21.34c0.02,9.85,0.01,19.69,0,29.54
				c-0.01,13.78-8.85,22.66-22.6,22.66c-26.81,0.01-53.62,0-80.43,0c-0.89,0-1.79,0-3.07,0c0-2,0.12-3.81-0.03-5.6
				c-0.25-2.94-2.07-4.81-4.96-4.83c-10.67-0.08-21.35-0.08-32.02,0c-2.88,0.02-4.7,1.9-4.94,4.85c-0.15,1.79-0.03,3.6-0.03,5.34
				c-0.63,0.13-0.87,0.22-1.11,0.22c-28.3,0-56.6,0.07-84.9-0.07c-5.97-0.03-11.27-2.51-14.81-7.35
				C84.43,198,83.14,194.17,81.42,190.66z M176.83,134.1c21.25,0,42.28,0,63.31,0c0-3.48,0-6.75,0-10c-21.18,0-42.21,0-63.31,0
				C176.83,127.51,176.83,130.71,176.83,134.1z"/>
		</g>
	</g>
</g>
</svg>
