<?xml version="1.0" encoding="utf-8"?>
<!-- Generator: Adobe Illustrator 24.0.0, SVG Export Plug-In . SVG Version: 6.00 Build 0)  -->
<svg version="1.1" id="Layer_1" xmlns="http://www.w3.org/2000/svg" xmlns:xlink="http://www.w3.org/1999/xlink" x="0px" y="0px"
	 viewBox="0 0 417.06 417.06" style="enable-background:new 0 0 417.06 417.06;" xml:space="preserve">
<style type="text/css">
	.st0{fill:#FFFFFF;stroke:#F08116;stroke-width:11.6343;stroke-miterlimit:10;}
	.st1{fill:#278492;}
	.st2{fill:#2E8795;}
	.st3{fill:#FFFFFF;}
	.st4{fill:none;stroke:#278492;stroke-width:4.6537;stroke-miterlimit:10;}
	.st5{fill:none;stroke:#F08116;stroke-width:11.6343;stroke-miterlimit:10;}
	.st6{fill:#1D7F8D;}
	.st7{fill:none;stroke:#2E8795;stroke-width:3.4903;stroke-linecap:round;stroke-miterlimit:10;}
	.st8{fill-rule:evenodd;clip-rule:evenodd;fill:#2E8795;}
	.st9{clip-path:url(#SVGID_1_);}
</style>
<g>
	<circle class="st0" cx="208.53" cy="208.53" r="197.38"/>
	<g>
		<g>
			<path class="st2" d="M253.3,214.12c-16.6,0-33.19,0-50.1,0c0,3.46-0.1,6.77,0.08,10.06c0.04,0.72,0.93,1.64,1.66,2.05
				c5.68,3.21,8.95,7.88,8.89,14.52c-0.06,6.49-3.33,11.01-8.83,14.25c-0.93,0.55-1.71,2.17-1.73,3.32
				c-0.15,7.88,0.07,15.77-0.18,23.65c-0.07,2-0.86,4.72-2.31,5.8c-7.13,5.31-9.14,12.1-8.41,20.74c0.73,8.6,0.21,17.31,0.12,25.97
				c-0.02,1.95,0.36,3.11,2.32,4.14c6.61,3.48,9.79,10.86,7.98,17.71c-1.94,7.37-8.06,12.19-15.49,12.21
				c-7.5,0.02-13.61-4.67-15.63-12.01c-1.89-6.88,1.17-14.27,7.72-17.81c1.98-1.07,2.54-2.22,2.53-4.35
				c-0.1-11.77,0.03-23.54-0.14-35.31c-0.02-1.64-0.9-3.62-2.04-4.82c-5.43-5.71-11.21-11.1-16.57-16.87
				c-1.42-1.52-2.49-4.02-2.51-6.08c-0.19-17.77-0.11-35.53-0.11-53.3c0-1.2,0-2.41,0-3.82c-7.15,0-14.07,0-21.33,0
				c0,5.17-0.07,10.24,0.08,15.32c0.02,0.72,0.91,1.66,1.63,2.07c5.68,3.2,8.97,7.86,8.92,14.5c-0.05,6.48-3.29,11.04-8.8,14.26
				c-0.89,0.52-1.71,1.94-1.76,2.98c-0.19,4.55-0.06,9.1-0.09,13.66c-0.02,4.44-1.83,6.29-6.22,6.3
				c-11.44,0.02-22.88,0.04-34.32-0.03c-1.94-0.01-3.12,0.33-4.16,2.29c-3.52,6.65-10.83,9.8-17.7,8.01
				c-7.47-1.95-12.27-8.15-12.23-15.8c0.04-7.38,4.95-13.54,12.3-15.42c6.85-1.76,13.95,1.53,17.8,8.03
				c0.6,1.01,2.01,2.16,3.06,2.17c10.1,0.16,20.2,0.1,30.79,0.1c0-3.61,0.08-7.12-0.08-10.61c-0.03-0.6-1.1-1.14-1.68-1.71
				c-2.34-2.29-4.92-4.4-6.92-6.96c-1.07-1.37-1.84-2.1-3.62-2.08c-8,0.09-16,0.18-23.99-0.06c-1.89-0.06-4.12-0.99-5.54-2.25
				c-4.13-3.7-7.84-7.87-11.91-11.63c-1.15-1.06-2.98-1.85-4.54-1.92c-5.3-0.23-10.62-0.09-16.13-0.09c0-3.6,0-6.97,0-10.64
				c7.31,0,14.5-0.11,21.69,0.1c1.34,0.04,2.87,1.13,3.93,2.14c4.1,3.9,7.97,8.06,12.11,11.91c1.07,0.99,2.82,1.7,4.28,1.74
				c6.66,0.18,13.33,0.04,19.99,0.11c1.7,0.02,2.59-0.51,3.69-1.97c1.93-2.6,4.58-4.67,6.85-7.02c0.74-0.77,1.78-1.73,1.82-2.64
				c0.18-4.86,0.08-9.74,0.08-15.05c-1.37,0-2.55,0-3.72,0c-23.1,0-46.21,0-69.31,0c-5.32,0-7.05-1.62-6.93-6.92
				c1.14-50.65,21.6-91.92,60.8-123.8c22.26-18.09,47.96-28.82,76.28-33.02c78.81-11.69,155.41,38.18,176.82,114.91
				c3.87,13.86,6.03,27.93,5.97,42.33c-0.02,4.67-1.78,6.46-6.37,6.5c-3.09,0.02-6.17,0-9.61,0c0,3.57-0.15,6.88,0.1,10.15
				c0.07,0.87,1.24,1.89,2.16,2.42c6.09,3.55,9.24,9.69,8.32,16.48c-0.84,6.2-5.68,11.47-12.11,13.18
				c-6.85,1.82-14.21-1.33-17.73-7.94c-1.02-1.91-2.14-2.39-4.12-2.35c-6.55,0.11-13.11-0.08-19.66,0.13
				c-1.55,0.05-3.37,0.88-4.53,1.94c-3.84,3.52-7.53,7.23-11.1,11.04c-2.07,2.21-4.34,3.05-7.36,2.98
				c-7.55-0.17-15.11-0.02-22.66-0.09c-1.8-0.02-2.81,0.46-3.96,2.09c-1.8,2.55-4.17,4.83-6.7,6.68c-1.48,1.08-2.03,1.96-1.99,3.68
				c0.1,4.33,0.27,8.68-0.07,12.98c-0.16,2.02-0.88,4.72-2.33,5.79c-7.15,5.3-9.37,12.13-8.34,20.75c0.6,5.04,0.19,10.21,0.07,15.31
				c-0.05,1.98,0.43,3.1,2.35,4.12c6.71,3.56,9.81,11.02,7.83,18.04c-2.13,7.55-8.42,12.1-16.39,11.87
				c-6.98-0.2-13.21-5.53-14.83-12.66c-1.5-6.63,1.67-13.78,7.98-17.17c2-1.07,2.52-2.26,2.49-4.37
				c-0.11-9.44,0.03-18.88-0.09-28.32c-0.03-2.66,0.85-4.6,2.7-6.46c8.49-8.48,8.49-8.52,7.93-20.39c-0.05-1.02-0.95-2.39-1.85-2.93
				c-5.49-3.25-8.71-7.8-8.72-14.31c0-6.5,3.23-11.04,8.7-14.32c0.95-0.57,2-2.25,1.84-3.22c-1.48-8.63,1.94-14.98,8.67-20.02
				c1.68-1.26,3.15-2.79,4.71-4.19C253.63,214.6,253.46,214.36,253.3,214.12z M171.08,203.03c25.23,0,49.9,0,74.89,0
				c-0.61-12.95-1.21-25.62-1.79-37.69c-24.13,0-47.49,0-71.35,0C172.26,177.56,171.68,190.16,171.08,203.03z M243.53,153.77
				c-2.33-13.32-4.67-26.27-6.8-39.26c-0.37-2.22-1.26-2.68-3.26-2.56c-5.09,0.31-10.2,0.68-15.3,0.65
				c-11.43-0.08-22.86-0.32-34.28-0.67c-2.36-0.07-3.32,0.51-3.64,2.93c-0.48,3.61-1.55,7.14-2.12,10.74
				c-1.48,9.35-2.83,18.71-4.25,28.2C197.2,155.75,219.9,155.75,243.53,153.77z M341.82,213.95c-23.91,0-47.33-0.02-70.75,0.06
				c-1.04,0-2.28,0.73-3.07,1.49c-4.16,4.01-7.97,8.4-12.35,12.13c-3.67,3.12-5.09,6.6-4.54,11.27c0.2,1.69,0.65,2.57,2.08,3.64
				c2.51,1.87,4.81,4.18,6.7,6.69c1.06,1.4,1.85,2.1,3.63,2.08c6.77-0.1,13.55,0.05,20.32-0.12c1.36-0.03,2.99-0.73,3.99-1.66
				c4.13-3.87,7.93-8.1,12.13-11.88c1.41-1.27,3.64-2.21,5.53-2.27c7.99-0.25,15.99-0.15,23.98-0.07c1.75,0.02,2.56-0.64,3.64-2.05
				c1.97-2.58,4.59-4.66,6.88-6.99c0.69-0.7,1.7-1.52,1.75-2.34C341.94,220.75,341.82,217.54,341.82,213.95z M160.24,203.12
				c0.61-13.16,1.2-26.07,1.79-38.96c-16.03-2.6-32.01-5.19-48.25-7.83c-3.98,15.17-5.95,30.76-6.35,46.78
				C125.12,203.12,142.6,203.12,160.24,203.12z M309.61,203.15c-0.48-16.16-2.37-31.78-6.4-46.81c-16.33,2.65-32.3,5.25-48.22,7.83
				c0.61,13.01,1.21,25.92,1.81,38.97C274.33,203.15,291.8,203.15,309.61,203.15z M95.6,203.12c2.31-16.86,4.56-33.35,6.83-49.93
				c-8.99-2.95-18.52-6.07-28.24-9.26c-9.03,18.67-13.99,38.3-14.74,59.2C71.82,203.12,83.98,203.12,95.6,203.12z M342.85,143.94
				c-9.91,3.25-19.42,6.37-28.25,9.27c2.29,16.76,4.55,33.25,6.81,49.83c11.65,0,23.88,0,36.17,0
				C356.78,182.15,351.89,162.58,342.85,143.94z M116.77,145.87c15.78,2.55,30.99,5.01,46.16,7.47c2.32-14.73,4.49-28.53,6.61-42.06
				c-10.89-1.75-21.69-3.51-32.51-5.14c-0.82-0.12-2.18,0.54-2.64,1.26C126.9,119.1,121.29,131.68,116.77,145.87z M300.32,145.88
				c-4.58-14.15-10.11-26.66-17.55-38.27c-0.55-0.85-2.37-1.42-3.49-1.28c-4.93,0.63-9.81,1.65-14.74,2.38
				c-5.74,0.85-11.51,1.55-17.08,2.29c2.2,14.01,4.36,27.74,6.66,42.35C269.37,150.88,284.58,148.42,300.32,145.88z M183.5,101.43
				c16.86,0,33.17,0,49.97,0c-0.89-3.06-1.51-5.5-2.31-7.88c-3.5-10.4-7.08-20.79-14.41-29.28c-5.53-6.4-11-6.46-16.43-0.01
				C191.38,74.84,187.62,87.81,183.5,101.43z M171.2,214.11c0,1.45,0,2.65,0,3.85c0,15.1,0.23,30.2-0.13,45.29
				c-0.12,5.09,1.11,8.79,5.04,12.08c3.94,3.3,7.37,7.22,11.64,11.49c1.83-3.02,4.36-5.37,4.58-7.91
				c0.59-6.94,0.28-13.97,0.12-20.96c-0.02-1.03-0.87-2.45-1.76-2.97c-5.5-3.23-8.76-7.76-8.8-14.26c-0.05-6.64,3.24-11.3,8.92-14.5
				c0.73-0.41,1.6-1.33,1.64-2.06c0.18-3.29,0.08-6.6,0.08-10.05C185.36,214.11,178.52,214.11,171.2,214.11z M105.51,142.79
				c6.07-13.48,11.94-26.51,17.85-39.64c-3.94-1.21-8.3-2.42-12.55-3.92c-1.94-0.68-3.32-0.53-4.69,1.03
				c-5.84,6.66-11.93,13.12-17.55,19.97c-3.4,4.14-6.1,8.86-9.53,13.95C88.49,137.25,97.26,140.11,105.51,142.79z M293.7,103.16
				c5.94,13.21,11.81,26.25,17.83,39.64c8.39-2.74,17.16-5.6,26.24-8.56c-7.8-13.41-16.94-24.75-27.74-34.77
				c-0.49-0.46-1.46-0.87-2.03-0.7C303.04,100.22,298.12,101.79,293.7,103.16z M187.87,62.56c-19.31,6.42-33.49,18.13-45.93,33.89
				c10.18,1.27,19.59,2.48,29.02,3.52c0.67,0.07,1.94-1.02,2.15-1.78C176.52,86,180.71,74.14,187.87,62.56z M274.93,96.17
				c-12.35-15.46-26.48-27.27-45.82-33.61c7.21,11.41,11.27,23.09,14.57,35.04c0.57,2.07,1.44,2.7,3.43,2.45
				c4.28-0.54,8.59-0.87,12.87-1.46C264.77,97.92,269.53,97.05,274.93,96.17z M117.91,90.3c4,1.11,7.27,2.11,10.58,2.86
				c0.91,0.21,2.39,0.02,2.93-0.59c6.23-7,12.34-14.11,18.28-20.96C138.79,76.19,128.28,82.33,117.91,90.3z M267.33,71.6
				c5.91,6.81,11.91,13.77,17.99,20.66c0.55,0.62,1.74,1.19,2.47,1.03c3.6-0.79,7.15-1.83,11.42-2.98
				C288.8,82.41,278.32,76.22,267.33,71.6z M197.96,245.9c2.75-0.07,5.31-2.77,5.18-5.48c-0.12-2.63-2.61-5.06-5.23-5.1
				c-2.74-0.04-5.36,2.56-5.35,5.31C192.59,243.38,195.24,245.97,197.96,245.9z M347.2,245.9c2.74-0.03,5.33-2.7,5.24-5.42
				c-0.08-2.63-2.54-5.08-5.17-5.16c-2.73-0.07-5.38,2.5-5.4,5.25C341.84,243.31,344.47,245.93,347.2,245.9z M139.16,245.8
				c-0.09-2.75-2.81-5.29-5.51-5.15c-2.76,0.15-5.25,2.89-5.06,5.59c0.19,2.63,2.74,5.02,5.33,4.99
				C136.68,251.19,139.25,248.52,139.16,245.8z M251.13,256.53c-0.04-2.75-2.71-5.32-5.43-5.22c-2.77,0.1-5.29,2.8-5.14,5.52
				c0.14,2.63,2.66,5.05,5.26,5.06C248.56,261.9,251.18,259.26,251.13,256.53z M85.84,278.06c0.09-2.73-2.48-5.39-5.23-5.43
				c-2.6-0.03-5.15,2.35-5.34,4.98c-0.19,2.69,2.3,5.45,5.06,5.59C83.03,283.35,85.76,280.8,85.84,278.06z M235.03,341.93
				c-2.76,0.1-5.29,2.81-5.14,5.52c0.14,2.63,2.66,5.05,5.27,5.06c2.73,0.01,5.35-2.63,5.31-5.35
				C240.42,344.4,237.75,341.84,235.03,341.93z M192.48,352.59c0.03-2.74-2.59-5.36-5.33-5.33c-2.62,0.03-5.11,2.44-5.24,5.08
				c-0.13,2.72,2.4,5.42,5.16,5.5C189.79,357.92,192.46,355.33,192.48,352.59z"/>
			<path class="st2" d="M283.17,299.25c0,7.06-0.12,13.6,0.11,20.14c0.04,1.12,1.36,2.51,2.46,3.21c5.89,3.78,8.82,9.07,7.98,16
				c-0.79,6.49-4.59,10.98-10.76,13.16c-7.73,2.73-16.38-1.12-19.75-8.57c-3.4-7.52-0.65-16.37,6.69-20.37
				c2.13-1.16,2.69-2.39,2.65-4.61c-0.11-7.77-0.06-15.53-0.04-23.3c0.01-4.45,1.81-6.29,6.21-6.3c9.66-0.03,19.31-0.05,28.97,0.02
				c1.92,0.01,3.13-0.27,4.18-2.26c3.52-6.66,10.81-9.83,17.66-8.06c7.46,1.92,12.31,8.14,12.29,15.75
				c-0.03,7.4-4.87,13.53-12.23,15.46c-6.83,1.8-14.02-1.45-17.81-7.92c-0.54-0.92-1.55-2.22-2.37-2.23
				C300.79,299.19,292.16,299.25,283.17,299.25z M325.78,299.2c2.73,0.03,5.36-2.6,5.33-5.33c-0.03-2.62-2.45-5.12-5.08-5.24
				c-2.71-0.13-5.41,2.41-5.49,5.16C320.46,296.51,323.04,299.18,325.78,299.2z M283.12,336.54c-0.01-2.75-2.66-5.34-5.39-5.27
				c-2.76,0.07-5.3,2.75-5.19,5.47c0.11,2.63,2.61,5.07,5.22,5.11C280.5,341.89,283.14,339.27,283.12,336.54z"/>
			<path class="st2" d="M171.2,315.15c0.02,7.49-4.68,13.59-12.01,15.6c-6.86,1.88-14.29-1.19-17.81-7.69
				c-1.07-1.97-2.18-2.85-4.34-2.51c-0.65,0.1-1.33,0.07-1.99,0.01c-4.32-0.44-7.56,0.11-10.3,4.61c-3.67,6.01-11.57,7.58-18.08,5
				c-6.73-2.66-10.65-9.15-10.08-16.68c0.49-6.5,5.67-12.29,12.45-13.94c6.56-1.59,13.93,1.52,17.25,7.72
				c1.14,2.13,2.34,2.94,4.59,2.66c0.87-0.11,1.78-0.08,2.66-0.01c3.85,0.32,6.75-0.1,9.14-4.23c3.45-5.95,11.13-7.85,17.62-5.69
				C166.8,302.16,171.18,308.26,171.2,315.15z M112.39,320.53c2.72,0.1,5.4-2.46,5.45-5.21c0.05-2.6-2.32-5.15-4.96-5.36
				c-2.7-0.21-5.45,2.27-5.61,5.03C107.11,317.69,109.63,320.42,112.39,320.53z M149.92,314.98c-0.16,2.7,2.36,5.43,5.12,5.54
				c2.58,0.1,5.18-2.22,5.44-4.87c0.26-2.69-2.15-5.48-4.93-5.69C152.84,309.75,150.08,312.21,149.92,314.98z"/>
		</g>
	</g>
</g>
</svg>
